# Blender v2.90.1 OBJ File: 'URBAN2.3.blend'
# www.blender.org
mtllib service_hotelkazakstan.mtl
o service_hotelkazakstan_Cube.025
v -0.734894 0.377532 0.090747
v -0.575713 3.515659 0.060232
v -0.638052 0.377531 -0.083160
v -0.492843 3.515659 -0.088583
v 0.416464 0.377532 0.090747
v 0.257283 3.515659 0.060230
v 0.319621 0.377531 -0.083160
v 0.174413 3.515659 -0.088583
v 0.137709 0.377532 0.160009
v -0.456140 0.377532 0.160009
v -0.357165 3.515659 0.115218
v 0.038734 3.515659 0.115218
v -0.258190 3.515659 0.047430
v -0.159215 3.515659 0.115218
v -0.060241 3.515659 0.047430
v 0.038734 0.377532 0.227798
v -0.060241 0.377532 0.160009
v -0.159216 0.377532 0.227798
v -0.258190 0.377532 0.160009
v -0.357165 0.377532 0.227798
v -0.734894 3.515659 0.090745
v -0.638051 3.515659 -0.083163
v 0.319621 3.515659 -0.083163
v 0.416464 3.515659 0.090745
v 0.038734 3.515659 0.227796
v 0.137709 3.515659 0.160007
v -0.456140 3.515659 0.160007
v -0.357165 3.515659 0.227796
v -0.258191 3.515659 0.160007
v -0.159215 3.515659 0.227796
v -0.060241 3.515659 0.160007
v -0.575713 3.672060 0.060232
v -0.492843 3.672060 -0.088583
v 0.174413 3.672060 -0.088583
v 0.257283 3.672060 0.060230
v 0.038734 3.672060 0.115218
v -0.357165 3.672060 0.115218
v -0.258190 3.672060 0.047430
v -0.159215 3.672060 0.115218
v -0.060241 3.672060 0.047430
v -0.734894 0.377532 -0.376192
v -0.575713 3.515659 -0.345677
v -0.638052 0.377531 -0.202284
v -0.492843 3.515659 -0.196861
v 0.416464 0.377532 -0.376192
v 0.257283 3.515659 -0.345675
v 0.319621 0.377531 -0.202284
v 0.174413 3.515659 -0.196861
v 0.137709 0.377532 -0.445454
v -0.456140 0.377532 -0.445454
v -0.357165 3.515659 -0.400663
v -0.258190 3.515659 -0.332874
v -0.159215 3.515659 -0.400663
v -0.060241 3.515659 -0.332874
v 0.038734 3.515659 -0.400663
v 0.038734 0.377532 -0.513243
v -0.060241 0.377532 -0.445454
v -0.159216 0.377532 -0.513243
v -0.258190 0.377532 -0.445454
v -0.357165 0.377532 -0.513243
v -0.696548 0.377531 -0.142722
v -0.546014 3.515659 -0.142722
v 0.378117 0.377531 -0.142722
v 0.227583 3.515659 -0.142722
v -0.734894 3.515659 -0.376189
v -0.638051 3.515659 -0.202282
v 0.319621 3.515659 -0.202282
v 0.416464 3.515659 -0.376189
v 0.038734 3.515659 -0.513240
v 0.137709 3.515659 -0.445451
v -0.456140 3.515659 -0.445451
v -0.357165 3.515659 -0.513240
v -0.258191 3.515659 -0.445451
v -0.159215 3.515659 -0.513240
v -0.060241 3.515659 -0.445451
v 0.378117 3.515659 -0.142722
v -0.696547 3.515659 -0.142722
v -0.546015 3.672060 -0.142722
v 0.227585 3.672060 -0.142722
v -0.575713 3.672060 -0.345677
v -0.492843 3.672060 -0.196861
v 0.174413 3.672060 -0.196861
v 0.257283 3.672060 -0.345675
v 0.038734 3.672060 -0.400663
v -0.357165 3.672060 -0.400663
v -0.258190 3.672060 -0.332874
v -0.159215 3.672060 -0.400663
v -0.060241 3.672060 -0.332874
v -0.700282 0.009359 0.376412
v 0.898316 0.009359 0.376424
v 0.898316 0.392767 -0.674816
v -0.808231 0.009359 0.070244
v -0.808231 0.009359 -0.368660
v -0.900377 0.392767 -0.368657
v -0.900377 0.392767 0.070247
v 0.790367 0.009359 -0.368648
v 0.790367 0.009359 0.070256
v 0.790367 0.392767 0.070256
v -0.700282 0.326278 0.376412
v -0.700282 0.326278 -0.674828
v 0.838923 0.326278 -0.674820
v 0.838923 0.326278 0.376420
v 0.730974 0.326278 0.070252
v 0.730974 0.326278 -0.368652
v -0.808231 0.326278 -0.368660
v -0.808231 0.326278 0.070244
v -0.700282 0.009359 -0.674828
v 0.838923 0.072006 -0.674820
v 0.838923 0.072006 0.376420
v 0.730974 0.072006 0.070252
v 0.730974 0.072006 -0.368652
v 0.898316 0.072006 -0.674816
v 0.898316 0.009359 -0.674816
v 0.898316 0.072006 0.376424
v 0.790367 0.392767 -0.368648
v 0.790367 0.072006 0.070256
v 0.790367 0.326278 -0.368648
v 0.898316 0.392767 0.376424
v 0.898316 0.326278 -0.674816
v 0.898316 0.326278 0.376424
v 0.790367 0.326278 0.070256
v 0.790367 0.072006 -0.368648
v -0.792428 0.392767 0.434815
v 0.898315 0.326279 0.434825
v 0.898315 0.392767 0.434825
v -0.792425 0.326278 -0.739179
v 0.898319 0.326278 -0.739170
v 0.898319 0.392767 -0.739170
v -0.816845 0.326278 0.376420
v -0.816845 0.392767 0.376420
v -0.900377 0.326278 0.070247
v -0.812542 0.392767 -0.674820
v -0.812542 0.326278 -0.674820
v -0.792428 0.326278 0.434815
v -0.900377 0.326278 -0.368657
v -0.792425 0.392767 -0.739179
v 0.839198 0.009359 0.376424
v 0.839367 0.009359 -0.674817
v -0.591962 0.007497 0.425988
v -0.591962 0.333545 0.425988
v -0.591962 0.007497 0.387699
v -0.591962 0.333545 0.387699
v -0.553674 0.007497 0.425988
v -0.553674 0.333545 0.425988
v -0.553674 0.007497 0.387699
v -0.553674 0.333545 0.387699
v -0.431152 0.007497 0.425988
v -0.431152 0.333545 0.425988
v -0.431152 0.007497 0.387699
v -0.431152 0.333545 0.387699
v -0.392864 0.007497 0.425988
v -0.392864 0.333545 0.425988
v -0.392864 0.007497 0.387699
v -0.392864 0.333545 0.387699
v -0.270343 0.007497 0.425988
v -0.270343 0.333545 0.425988
v -0.270343 0.007497 0.387699
v -0.270343 0.333545 0.387699
v -0.232055 0.007497 0.425988
v -0.232055 0.333545 0.425988
v -0.232055 0.007497 0.387699
v -0.232055 0.333545 0.387699
v -0.109533 0.007497 0.425988
v -0.109533 0.333545 0.425988
v -0.109533 0.007497 0.387699
v -0.109533 0.333545 0.387699
v -0.071245 0.007497 0.425988
v -0.071245 0.333545 0.425988
v -0.071245 0.007497 0.387699
v -0.071245 0.333545 0.387699
v 0.051277 0.007497 0.425988
v 0.051277 0.333545 0.425988
v 0.051277 0.007497 0.387699
v 0.051277 0.333545 0.387699
v 0.089565 0.007497 0.425988
v 0.089565 0.333545 0.425988
v 0.089565 0.007497 0.387699
v 0.089565 0.333545 0.387699
v 0.212086 0.007497 0.425988
v 0.212086 0.333545 0.425988
v 0.212086 0.007497 0.387699
v 0.212086 0.333545 0.387699
v 0.250374 0.007497 0.425988
v 0.250374 0.333545 0.425988
v 0.250374 0.007497 0.387699
v 0.250374 0.333545 0.387699
v 0.372896 0.007497 0.425988
v 0.372896 0.333545 0.425988
v 0.372896 0.007497 0.387699
v 0.372896 0.333545 0.387699
v 0.411184 0.007497 0.425988
v 0.411184 0.333545 0.425988
v 0.411184 0.007497 0.387699
v 0.411184 0.333545 0.387699
v 0.533705 0.007497 0.425988
v 0.533705 0.333545 0.425988
v 0.533705 0.007497 0.387699
v 0.533705 0.333545 0.387699
v 0.571993 0.007497 0.425988
v 0.571993 0.333545 0.425988
v 0.571993 0.007497 0.387699
v 0.571993 0.333545 0.387699
v 0.742774 0.054645 0.082572
v 0.742774 0.337166 0.082572
v 0.742774 0.054645 0.044283
v 0.742774 0.337166 0.044283
v 0.781062 0.054645 0.082572
v 0.781062 0.337166 0.082572
v 0.781062 0.054645 0.044283
v 0.781062 0.337166 0.044283
v 0.742774 0.054645 -0.359152
v 0.742774 0.337166 -0.359152
v 0.742774 0.054645 -0.397441
v 0.742774 0.337166 -0.397441
v 0.781062 0.054645 -0.359152
v 0.781062 0.337166 -0.359152
v 0.781062 0.054645 -0.397441
v 0.781062 0.337166 -0.397441
v -0.413251 0.008517 0.613709
v -0.413251 0.055090 0.613709
v -0.376809 0.008517 0.745196
v -0.376809 0.055090 0.745196
v -0.281158 0.008517 0.842500
v -0.281158 0.055090 0.842500
v -0.413251 0.008517 0.808315
v -0.413251 0.055090 0.808315
v -0.545344 0.008517 0.842500
v -0.545344 0.055090 0.842500
v -0.449693 0.008517 0.745196
v -0.449693 0.055090 0.745196
v 0.458881 0.043205 0.531130
v 0.840261 0.199235 0.531135
v 0.458881 0.043205 0.387609
v 0.840261 0.199235 0.373437
v 0.923710 0.199235 0.531135
v 0.923710 0.199235 0.373437
v 0.840261 0.199235 0.102509
v 0.923710 0.199235 0.102509
v 0.767126 0.199235 0.373437
v 0.683826 0.199235 0.100047
v 0.461020 0.024501 0.531130
v 0.842400 0.180532 0.531135
v 0.461020 0.024501 0.387609
v 0.842400 0.180532 0.373437
v 0.925849 0.180532 0.531135
v 0.925849 0.180532 0.373437
v 0.842400 0.180532 0.102510
v 0.925849 0.180532 0.102510
v 0.769265 0.180532 0.373437
v 0.685966 0.180532 0.100047
vt 0.001996 0.915285
vt 0.001997 0.013530
vt 0.051671 0.013564
vt 0.051669 0.915319
vt 0.220084 0.915282
vt 0.220084 0.013527
vt 0.270842 0.013544
vt 0.270842 0.915299
vt 0.581317 0.915285
vt 0.581317 0.013526
vt 0.616468 0.013527
vt 0.616469 0.915285
vt 0.545111 0.915285
vt 0.545111 0.013526
vt 0.580262 0.013526
vt 0.580262 0.915285
vt 0.963870 0.915328
vt 0.963870 0.013573
vt 0.981308 0.013527
vt 0.981308 0.915282
vt 0.909363 0.915318
vt 0.909363 0.013563
vt 0.928558 0.013527
vt 0.928558 0.915282
vt 0.927584 0.915328
vt 0.927584 0.013573
vt 0.945022 0.013527
vt 0.945022 0.915282
vt 0.908204 0.915318
vt 0.908204 0.013563
vt 0.927399 0.013527
vt 0.927399 0.915282
vt 0.927948 0.915328
vt 0.927948 0.013573
vt 0.945386 0.013527
vt 0.945386 0.915282
vt 0.868662 0.915318
vt 0.868662 0.013563
vt 0.887857 0.013527
vt 0.887857 0.915282
vt 0.865079 0.959271
vt 0.865079 0.959271
vt 0.865079 0.959271
vt 0.865079 0.959271
vt 0.857111 0.967501
vt 0.857111 0.967501
vt 0.857111 0.967501
vt 0.857111 0.967501
vt 0.921041 0.965483
vt 0.921041 0.965483
vt 0.921041 0.965483
vt 0.921041 0.965483
vt 0.400113 0.515462
vt 0.389663 0.472699
vt 0.407974 0.474256
vt 0.420186 0.524230
vt 0.305520 0.472699
vt 0.295070 0.515461
vt 0.274997 0.524230
vt 0.287210 0.474256
vt 0.322630 0.531262
vt 0.322630 0.563612
vt 0.310149 0.544132
vt 0.372553 0.531262
vt 0.385034 0.544132
vt 0.372553 0.563612
vt 0.360072 0.511783
vt 0.360073 0.544132
vt 0.347592 0.531262
vt 0.347592 0.563612
vt 0.335111 0.511783
vt 0.335111 0.544132
vt 0.865079 0.959271
vt 0.865079 0.959271
vt 0.857111 0.967501
vt 0.857111 0.967501
vt 0.921041 0.965483
vt 0.921041 0.965483
vt 0.921041 0.965483
vt 0.921041 0.965483
vt 0.921041 0.965483
vt 0.921041 0.965483
vt 0.921041 0.965483
vt 0.921041 0.965483
vt 0.921041 0.965483
vt 0.921041 0.965483
vt 0.921041 0.965483
vt 0.921041 0.965483
vt 0.921041 0.965483
vt 0.921041 0.965483
vt 0.921041 0.965483
vt 0.921041 0.965483
vt 0.921041 0.965483
vt 0.921041 0.965483
vt 0.135049 0.915282
vt 0.085613 0.915318
vt 0.085613 0.013563
vt 0.135049 0.013527
vt 0.186454 0.915296
vt 0.139022 0.915354
vt 0.139023 0.013600
vt 0.186456 0.013542
vt 0.650374 0.915291
vt 0.617489 0.915285
vt 0.617489 0.013526
vt 0.650374 0.013532
vt 0.506998 0.013530
vt 0.544028 0.013526
vt 0.544028 0.915285
vt 0.506998 0.915289
vt 0.765075 0.915311
vt 0.744238 0.915281
vt 0.744238 0.013527
vt 0.765075 0.013557
vt 0.868083 0.915317
vt 0.848645 0.915282
vt 0.848645 0.013527
vt 0.868083 0.013562
vt 0.765479 0.915311
vt 0.744643 0.915282
vt 0.744642 0.013527
vt 0.765479 0.013557
vt 0.828164 0.915317
vt 0.808726 0.915282
vt 0.808726 0.013527
vt 0.828164 0.013562
vt 0.807999 0.915311
vt 0.787162 0.915281
vt 0.787162 0.013527
vt 0.807999 0.013557
vt 0.828041 0.915317
vt 0.808603 0.915282
vt 0.808603 0.013527
vt 0.828041 0.013562
vt 0.865079 0.959271
vt 0.865079 0.959271
vt 0.857111 0.967501
vt 0.857111 0.967501
vt 0.921041 0.965483
vt 0.921041 0.965483
vt 0.921041 0.965483
vt 0.921041 0.965483
vt 0.400113 0.398821
vt 0.420186 0.390054
vt 0.407974 0.440027
vt 0.389663 0.441584
vt 0.305520 0.441584
vt 0.287210 0.440027
vt 0.274997 0.390054
vt 0.295070 0.398822
vt 0.322630 0.383021
vt 0.310149 0.370151
vt 0.322630 0.350671
vt 0.372553 0.383021
vt 0.385034 0.370151
vt 0.372553 0.350671
vt 0.360072 0.402500
vt 0.360073 0.370151
vt 0.347592 0.383021
vt 0.347592 0.350671
vt 0.335111 0.402500
vt 0.335111 0.370151
vt 0.865079 0.959271
vt 0.857111 0.967501
vt 0.921041 0.965483
vt 0.921041 0.965483
vt 0.921041 0.965483
vt 0.921041 0.965483
vt 0.921041 0.965483
vt 0.921041 0.965483
vt 0.921041 0.965483
vt 0.921041 0.965483
vt 0.921041 0.965483
vt 0.921041 0.965483
vt 0.921041 0.965483
vt 0.921041 0.965483
vt 0.921041 0.965483
vt 0.921041 0.965483
vt 0.634340 0.891411
vt 0.634340 0.891411
vt 0.634340 0.891411
vt 0.634340 0.891411
vt 0.724680 0.509907
vt 0.742532 0.509942
vt 0.742532 0.517460
vt 0.724680 0.517460
vt 0.742570 0.306599
vt 0.652261 0.306597
vt 0.652222 0.218755
vt 0.742532 0.218758
vt 0.669866 0.218966
vt 0.742324 0.218997
vt 0.742282 0.308026
vt 0.669824 0.307995
vt 0.669824 0.008729
vt 0.742282 0.008759
vt 0.742324 0.094050
vt 0.669866 0.094019
vt 0.742532 0.092642
vt 0.652222 0.092640
vt 0.652261 0.004531
vt 0.742570 0.004534
vt 0.652222 0.523432
vt 0.742532 0.523429
vt 0.742532 0.718075
vt 0.670074 0.718077
vt 0.652222 0.718133
vt 0.634340 0.891411
vt 0.634340 0.891411
vt 0.634340 0.891411
vt 0.634340 0.891411
vt 0.857111 0.967501
vt 0.857111 0.967501
vt 0.857111 0.967501
vt 0.857111 0.967501
vt 0.857111 0.967501
vt 0.857111 0.967501
vt 0.857111 0.967501
vt 0.857111 0.967501
vt 0.634340 0.891411
vt 0.634340 0.891411
vt 0.634340 0.891411
vt 0.634340 0.891411
vt 0.857111 0.967501
vt 0.857111 0.967501
vt 0.857111 0.967501
vt 0.857111 0.967501
vt 0.857111 0.967501
vt 0.857111 0.967501
vt 0.857111 0.967501
vt 0.857111 0.967501
vt 0.857111 0.967501
vt 0.857111 0.967501
vt 0.857111 0.967501
vt 0.857111 0.967501
vt 0.857111 0.967501
vt 0.857111 0.967501
vt 0.857111 0.967501
vt 0.857111 0.967501
vt 0.652222 0.509907
vt 0.652222 0.314179
vt 0.742532 0.314179
vt 0.466139 0.940524
vt 0.466083 0.922522
vt 0.473531 0.922523
vt 0.473531 0.940525
vt 0.634340 0.891411
vt 0.634340 0.891411
vt 0.634340 0.891411
vt 0.634340 0.891411
vt 0.634340 0.891411
vt 0.634340 0.891411
vt 0.634340 0.891411
vt 0.634340 0.891411
vt 0.634340 0.891411
vt 0.634340 0.891411
vt 0.634340 0.891411
vt 0.634340 0.891411
vt 0.634340 0.891411
vt 0.634340 0.891411
vt 0.634340 0.891411
vt 0.634340 0.891411
vt 0.634340 0.891411
vt 0.634340 0.891411
vt 0.634340 0.891411
vt 0.634340 0.891411
vt 0.634340 0.891411
vt 0.634340 0.891411
vt 0.634340 0.891411
vt 0.634340 0.891411
vt 0.634340 0.891411
vt 0.634340 0.891411
vt 0.634340 0.891411
vt 0.634340 0.891411
vt 0.634340 0.891411
vt 0.634340 0.891411
vt 0.634340 0.891411
vt 0.634340 0.891411
vt 0.634340 0.891411
vt 0.634340 0.891411
vt 0.634340 0.891411
vt 0.634340 0.891411
vt 0.634340 0.891411
vt 0.634340 0.891411
vt 0.634340 0.891411
vt 0.634340 0.891411
vt 0.634340 0.891411
vt 0.634340 0.891411
vt 0.634340 0.891411
vt 0.634340 0.891411
vt 0.634340 0.891411
vt 0.634340 0.891411
vt 0.634340 0.891411
vt 0.634340 0.891411
vt 0.634340 0.891411
vt 0.634340 0.891411
vt 0.634340 0.891411
vt 0.634340 0.891411
vt 0.634340 0.891411
vt 0.634340 0.891411
vt 0.634340 0.891411
vt 0.634340 0.891411
vt 0.634340 0.891411
vt 0.634340 0.891411
vt 0.634340 0.891411
vt 0.634340 0.891411
vt 0.634340 0.891411
vt 0.634340 0.891411
vt 0.634340 0.891411
vt 0.634340 0.891411
vt 0.634340 0.891411
vt 0.634340 0.891411
vt 0.634340 0.891411
vt 0.634340 0.891411
vt 0.634340 0.891411
vt 0.634340 0.891411
vt 0.634340 0.891411
vt 0.634340 0.891411
vt 0.634340 0.891411
vt 0.634340 0.891411
vt 0.634340 0.891411
vt 0.634340 0.891411
vt 0.634340 0.891411
vt 0.634340 0.891411
vt 0.634340 0.891411
vt 0.634340 0.891411
vt 0.634340 0.891411
vt 0.634340 0.891411
vt 0.634340 0.891411
vt 0.634340 0.891411
vt 0.634340 0.891411
vt 0.634340 0.891411
vt 0.634340 0.891411
vt 0.634340 0.891411
vt 0.634340 0.891411
vt 0.634340 0.891411
vt 0.634340 0.891411
vt 0.634340 0.891411
vt 0.637614 0.628453
vt 0.637614 0.628453
vt 0.637614 0.628453
vt 0.637614 0.628453
vt 0.637614 0.628453
vt 0.637614 0.628453
vt 0.637614 0.628453
vt 0.637614 0.628453
vt 0.637614 0.628453
vt 0.637614 0.628453
vt 0.637614 0.628453
vt 0.637614 0.628453
vt 0.637614 0.628453
vt 0.637614 0.628453
vt 0.637614 0.628453
vt 0.637614 0.628453
vt 0.637614 0.628453
vt 0.637614 0.628453
vt 0.637614 0.628453
vt 0.637614 0.628453
vn -0.8737 -0.0000 -0.4865
vn 0.8737 -0.0000 -0.4865
vn 0.2411 0.0000 0.9705
vn -0.2411 0.0000 0.9705
vn 0.5651 0.0000 0.8250
vn -0.5651 0.0000 0.8250
vn 0.7135 0.0000 0.7007
vn -0.7135 0.0000 0.7007
vn 0.2440 0.0000 0.9698
vn 0.0000 1.0000 -0.0000
vn -0.2440 0.0000 0.9698
vn -0.8737 -0.0000 0.4865
vn 0.8737 -0.0000 0.4865
vn 0.2411 0.0000 -0.9705
vn -0.2411 0.0000 -0.9705
vn 0.5651 0.0000 -0.8250
vn -0.5651 0.0000 -0.8250
vn 0.7135 0.0000 -0.7007
vn -0.7135 0.0000 -0.7007
vn 0.2440 0.0000 -0.9698
vn -0.2440 0.0000 -0.9698
vn -0.0000 0.0000 1.0000
vn -0.9431 0.0000 0.3325
vn 0.9431 0.0000 -0.3325
vn 0.9431 0.0000 0.3325
vn -0.9431 0.0000 -0.3325
vn 0.0000 -0.0000 -1.0000
vn -1.0000 0.0000 0.0000
vn 1.0000 0.0000 0.0000
vn -0.9612 0.0000 -0.2758
vn -0.9647 0.0000 0.2632
vn -0.9226 0.0000 0.3858
vn -0.9545 0.0000 -0.2983
vn 0.9637 0.0000 -0.2671
vn 0.7131 0.0000 -0.7010
vn -0.2505 0.0000 0.9681
vn 0.2505 0.0000 0.9681
vn -0.7131 0.0000 -0.7010
vn -0.9637 0.0000 -0.2671
vn -0.3787 0.9255 0.0000
vn 0.0157 0.0018 -0.9999
vn 0.9935 0.1136 0.0000
vn -0.0355 -0.0041 -0.9994
vn -0.9509 -0.1088 0.2897
vn -0.9935 -0.1136 0.0000
usemtl Material.006
s off
f 1/1/1 21/2/1 22/3/1 3/4/1
f 7/5/2 23/6/2 24/7/2 5/8/2
f 5/9/3 24/10/3 26/11/3 9/12/3
f 10/13/4 27/14/4 21/15/4 1/16/4
f 25/17/5 16/18/5 9/19/5 26/20/5
f 27/21/6 10/22/6 20/23/6 28/24/6
f 28/25/5 20/26/5 19/27/5 29/28/5
f 29/29/6 19/30/6 18/31/6 30/32/6
f 30/33/5 18/34/5 17/35/5 31/36/5
f 31/37/6 17/38/6 16/39/6 25/40/6
f 23/41/7 7/42/7 63/43/7 76/44/7
f 3/45/8 22/46/8 77/47/8 61/48/8
f 12/49/9 6/50/9 35/51/9 36/52/9
f 2/53/10 4/54/10 22/55/10 21/56/10
f 8/57/10 6/58/10 24/59/10 23/60/10
f 12/61/10 25/62/10 26/63/10
f 6/58/10 12/61/10 26/63/10 24/59/10
f 11/64/10 2/53/10 21/56/10 27/65/10
f 11/64/10 27/65/10 28/66/10
f 13/67/10 11/64/10 28/66/10 29/68/10
f 14/69/10 13/67/10 29/68/10 30/70/10
f 15/71/10 14/69/10 30/70/10 31/72/10
f 12/61/10 15/71/10 31/72/10 25/62/10
f 64/73/10 8/74/10 23/41/10 76/44/10
f 4/75/10 62/76/10 77/47/10 22/46/10
f 36/52/10 35/51/10 34/77/10 79/78/10 78/79/10 33/80/10 32/81/10 37/82/10 38/83/10 39/84/10 40/85/10
f 62/86/8 4/87/8 33/80/8 78/79/8
f 2/88/11 11/89/11 37/82/11 32/81/11
f 11/89/5 13/90/5 38/83/5 37/82/5
f 13/90/6 14/91/6 39/84/6 38/83/6
f 4/87/1 2/88/1 32/81/1 33/80/1
f 14/91/5 15/92/5 40/85/5 39/84/5
f 6/50/2 8/93/2 34/77/2 35/51/2
f 15/92/6 12/49/6 36/52/6 40/85/6
f 8/93/7 64/94/7 79/78/7 34/77/7
f 41/95/12 43/96/12 66/97/12 65/98/12
f 47/99/13 45/100/13 68/101/13 67/102/13
f 45/103/14 49/104/14 70/105/14 68/106/14
f 50/107/15 41/108/15 65/109/15 71/110/15
f 69/111/16 70/112/16 49/113/16 56/114/16
f 71/115/17 72/116/17 60/117/17 50/118/17
f 72/119/16 73/120/16 59/121/16 60/122/16
f 73/123/17 74/124/17 58/125/17 59/126/17
f 74/127/16 75/128/16 57/129/16 58/130/16
f 75/131/17 69/132/17 56/133/17 57/134/17
f 67/135/18 76/44/18 63/43/18 47/136/18
f 43/137/19 61/48/19 77/47/19 66/138/19
f 55/139/20 84/140/20 83/141/20 46/142/20
f 42/143/10 65/144/10 66/145/10 44/146/10
f 48/147/10 67/148/10 68/149/10 46/150/10
f 55/151/10 70/152/10 69/153/10
f 46/150/10 68/149/10 70/152/10 55/151/10
f 51/154/10 71/155/10 65/144/10 42/143/10
f 51/154/10 72/156/10 71/155/10
f 52/157/10 73/158/10 72/156/10 51/154/10
f 53/159/10 74/160/10 73/158/10 52/157/10
f 54/161/10 75/162/10 74/160/10 53/159/10
f 55/151/10 69/153/10 75/162/10 54/161/10
f 64/73/10 76/44/10 67/135/10 48/163/10
f 44/164/10 66/138/10 77/47/10 62/76/10
f 84/140/10 88/165/10 87/166/10 86/167/10 85/168/10 80/169/10 81/170/10 78/79/10 79/78/10 82/171/10 83/141/10
f 62/86/19 78/79/19 81/170/19 44/172/19
f 42/173/21 80/169/21 85/168/21 51/174/21
f 51/174/16 85/168/16 86/167/16 52/175/16
f 52/175/17 86/167/17 87/166/17 53/176/17
f 44/172/12 81/170/12 80/169/12 42/173/12
f 53/176/16 87/166/16 88/165/16 54/177/16
f 46/142/13 83/141/13 82/171/13 48/178/13
f 54/177/17 88/165/17 84/140/17 55/139/17
f 48/178/18 82/171/18 79/78/18 64/94/18
f 110/179/10 109/180/10 114/181/10 116/182/10
f 109/183/22 137/184/22 90/185/22 114/186/22
f 89/187/23 99/188/23 106/189/23 92/190/23
f 110/191/24 103/192/24 102/193/24 109/194/24
f 108/195/25 101/196/25 104/197/25 111/198/25
f 93/199/26 105/200/26 100/201/26 107/202/26
f 107/203/27 100/204/27 101/205/27 108/206/27 138/207/27
f 108/208/10 111/209/10 122/210/10 112/211/10
f 105/200/28 93/199/28 92/190/28 106/189/28
f 103/192/29 110/191/29 111/198/29 104/197/29
f 119/212/25 91/213/25 115/214/25 117/215/25
f 121/216/24 98/217/24 118/218/24 120/219/24
f 116/182/29 97/220/29 96/221/29 122/210/29
f 98/217/29 121/216/29 117/215/29 115/214/29
f 113/222/25 112/211/25 122/210/25 96/221/25
f 97/220/24 116/182/24 114/181/24 90/223/24
f 111/209/10 110/179/10 116/182/10 122/210/10
f 124/224/22 125/225/22 123/226/22 134/227/22
f 120/219/29 118/218/29 125/225/29 124/224/29
f 126/228/27 136/229/27 128/230/27 127/231/27
f 91/213/29 119/212/29 127/231/29 128/230/29
f 135/232/30 94/233/30 132/234/30 133/235/30
f 129/236/31 130/237/31 95/238/31 131/239/31
f 94/233/28 135/232/28 131/239/28 95/238/28
f 130/237/32 129/236/32 134/227/32 123/226/32
f 133/235/33 132/234/33 136/229/33 126/228/33
f 109/183/22 102/240/22 99/241/22 89/242/22 137/184/22
f 138/243/27 108/244/27 112/245/27 113/246/27
f 132/234/10 94/233/10 95/238/10 130/237/10 123/226/10 125/225/10 118/218/10 98/217/10 115/214/10 91/213/10 128/230/10 136/229/10
f 139/247/28 140/248/28 142/249/28 141/250/28
f 145/251/29 146/252/29 144/253/29 143/254/29
f 143/254/22 144/253/22 140/248/22 139/247/22
f 147/255/28 148/256/28 150/257/28 149/258/28
f 153/259/29 154/260/29 152/261/29 151/262/29
f 151/262/22 152/261/22 148/256/22 147/255/22
f 155/263/28 156/264/28 158/265/28 157/266/28
f 161/267/29 162/268/29 160/269/29 159/270/29
f 159/270/22 160/269/22 156/264/22 155/263/22
f 163/271/28 164/272/28 166/273/28 165/274/28
f 169/275/29 170/276/29 168/277/29 167/278/29
f 167/278/22 168/277/22 164/272/22 163/271/22
f 171/279/28 172/280/28 174/281/28 173/282/28
f 177/283/29 178/284/29 176/285/29 175/286/29
f 175/286/22 176/285/22 172/280/22 171/279/22
f 179/287/28 180/288/28 182/289/28 181/290/28
f 185/291/29 186/292/29 184/293/29 183/294/29
f 183/294/22 184/293/22 180/288/22 179/287/22
f 187/295/28 188/296/28 190/297/28 189/298/28
f 193/299/29 194/300/29 192/301/29 191/302/29
f 191/302/22 192/301/22 188/296/22 187/295/22
f 195/303/28 196/304/28 198/305/28 197/306/28
f 201/307/29 202/308/29 200/309/29 199/310/29
f 199/310/22 200/309/22 196/304/22 195/303/22
f 205/311/27 206/312/27 210/313/27 209/314/27
f 209/314/29 210/313/29 208/315/29 207/316/29
f 207/316/22 208/315/22 204/317/22 203/318/22
f 213/319/27 214/320/27 218/321/27 217/322/27
f 217/322/29 218/321/29 216/323/29 215/324/29
f 215/324/22 216/323/22 212/325/22 211/326/22
f 219/327/34 220/328/34 222/329/34 221/330/34
f 221/330/35 222/329/35 224/331/35 223/332/35
f 223/332/36 224/331/36 226/333/36 225/334/36
f 225/334/37 226/333/37 228/335/37 227/336/37
f 222/329/10 220/328/10 230/337/10 228/335/10 226/333/10 224/331/10
f 227/336/38 228/335/38 230/337/38 229/338/38
f 229/338/39 230/337/39 220/328/39 219/327/39
f 231/339/40 232/340/40 234/341/40 233/342/40
f 234/341/10 232/340/10 235/343/10 236/344/10
f 234/341/10 236/344/10 238/345/10 237/346/10
f 234/341/10 237/346/10 240/347/10 239/348/10
f 237/346/41 247/349/41 250/350/41 240/347/41
f 236/344/42 246/351/42 248/352/42 238/345/42
f 232/340/22 242/353/22 245/354/22 235/343/22
f 234/341/43 244/355/43 243/356/43 233/342/43
f 240/347/44 250/350/44 249/357/44 239/348/44
f 233/342/45 243/356/45 241/358/45 231/339/45
f 238/345/27 248/352/27 247/349/27 237/346/27
f 235/343/42 245/354/42 246/351/42 236/344/42
f 239/348/22 249/357/22 244/355/22 234/341/22
f 231/339/22 241/358/22 242/353/22 232/340/22
