# Blender v2.90.1 OBJ File: 'URBAN2.3.blend'
# www.blender.org
mtllib service_firestation.mtl
o service_firestation_Cube.002
v -0.907789 -0.010765 0.628594
v -0.854836 0.909134 0.575641
v -0.907789 -0.010765 -0.536259
v -0.854836 0.909134 -0.483306
v 0.893884 -0.010765 0.628594
v 0.893884 0.909134 0.628594
v 0.893884 -0.010765 -0.536259
v 0.893884 0.909134 -0.536259
v 0.251556 -0.010765 -0.536259
v 0.198603 0.909134 -0.483306
v 0.251556 -0.010765 0.628594
v 0.198603 0.909134 0.575641
v 0.304510 1.403950 -0.483306
v 0.840931 1.403950 -0.483306
v 0.840931 1.403950 0.575641
v 0.304510 1.403950 0.575641
v -0.907789 0.909134 0.628594
v -0.907789 0.909134 -0.536259
v 0.251556 0.909134 0.628594
v 0.251556 0.909134 -0.536259
v 0.251557 1.403950 -0.536259
v 0.893884 1.403950 -0.536259
v 0.893884 1.403950 0.628594
v 0.251557 1.403950 0.628594
v -0.854836 0.861572 0.575640
v -0.854836 0.861572 -0.483306
v 0.198604 0.861572 0.575640
v 0.198604 0.861572 -0.483306
v 0.304509 1.356387 -0.483306
v 0.840930 1.356387 -0.483306
v 0.840930 1.356387 0.575640
v 0.304509 1.356387 0.575640
vt 0.509573 0.820639
vt 0.255157 0.820639
vt 0.255157 0.498477
vt 0.509573 0.498477
vt 0.508569 0.499056
vt 0.254154 0.499056
vt 0.254154 0.321409
vt 0.508569 0.321409
vt 0.509403 0.820638
vt 0.254988 0.820638
vt 0.254988 0.498477
vt 0.509403 0.498477
vt 0.509403 0.320829
vt 0.254988 0.320829
vt 0.254988 0.000191
vt 0.509403 0.000191
vt 0.473621 0.410848
vt 0.473621 0.410848
vt 0.473621 0.410848
vt 0.473621 0.410848
vt 0.509785 0.999809
vt 0.509784 0.822162
vt 0.646635 0.822162
vt 0.646635 0.999809
vt 0.509573 0.321807
vt 0.255157 0.321807
vt 0.255157 0.001168
vt 0.509573 0.001168
vt 0.467622 0.419255
vt 0.467622 0.419255
vt 0.467622 0.419255
vt 0.467622 0.419255
vt 0.509784 0.500000
vt 0.646635 0.500000
vt 0.509785 0.322352
vt 0.509785 0.000191
vt 0.646635 0.000191
vt 0.646635 0.322352
vt 0.646635 0.322352
vt 0.646635 0.500000
vt 0.509784 0.500000
vt 0.509784 0.322352
vt 0.467622 0.419255
vt 0.467622 0.419255
vt 0.467622 0.419255
vt 0.467622 0.419255
vt 0.467622 0.419255
vt 0.467622 0.419255
vt 0.473621 0.410848
vt 0.473621 0.410848
vt 0.473621 0.410848
vt 0.473621 0.410848
vt 0.473621 0.410848
vt 0.473621 0.410848
vt 0.398829 0.362416
vt 0.398829 0.362416
vt 0.398829 0.362416
vt 0.398829 0.362416
vt 0.398829 0.362416
vt 0.398829 0.362416
vt 0.398829 0.362416
vt 0.398829 0.362416
vt 0.473621 0.410848
vt 0.473621 0.410848
vt 0.467622 0.419255
vt 0.467622 0.419255
vn -1.0000 0.0000 0.0000
vn -0.0000 0.0000 -1.0000
vn 1.0000 0.0000 0.0000
vn 0.0000 0.0000 1.0000
vn 0.0000 1.0000 0.0000
usemtl Material.007
s off
f 1/1/1 17/2/1 18/3/1 3/4/1
f 9/5/2 20/6/2 8/7/2 7/8/2
f 7/9/3 8/10/3 6/11/3 5/12/3
f 11/13/4 19/14/4 17/15/4 1/16/4
f 16/17/2 15/18/2 31/19/2 32/20/2
f 8/21/2 20/22/2 21/23/2 22/24/2
f 5/12/4 6/11/4 19/14/4 11/13/4
f 3/25/2 18/26/2 20/27/2 9/28/2
f 2/29/2 12/30/2 27/31/2 25/32/2
f 20/22/1 19/33/1 24/34/1 21/23/1
f 6/35/3 8/36/3 22/37/3 23/38/3
f 19/39/4 6/40/4 23/41/4 24/42/4
f 2/29/5 4/43/5 18/44/5 17/45/5
f 12/30/5 2/29/5 17/45/5 19/46/5
f 4/43/5 10/47/5 20/48/5 18/44/5
f 10/47/5 12/30/5 19/46/5 20/48/5
f 13/49/5 14/50/5 22/51/5 21/52/5
f 14/50/5 15/18/5 23/53/5 22/51/5
f 15/18/5 16/17/5 24/54/5 23/53/5
f 16/17/5 13/49/5 21/52/5 24/54/5
f 28/55/5 26/56/5 25/57/5 27/58/5
f 30/59/5 29/60/5 32/61/5 31/62/5
f 14/50/4 13/49/4 29/63/4 30/64/4
f 10/47/4 4/43/4 26/65/4 28/66/4
f 4/43/3 2/29/3 25/32/3 26/65/3
f 13/49/3 16/17/3 32/20/3 29/63/3
f 15/18/1 14/50/1 30/64/1 31/19/1
f 12/30/1 10/47/1 28/66/1 27/31/1
