# Blender v2.90.1 OBJ File: 'URBAN2.3.blend'
# www.blender.org
mtllib service_police.mtl
o service_police_Mesh.9301
v -0.755621 0.000000 0.435093
v 0.572936 0.000000 0.435093
v -0.755621 -0.000000 -0.947160
v 0.572936 -0.000000 -0.947160
v -0.091343 0.000000 0.435093
v 0.572936 0.000000 0.961353
v -0.091343 0.000000 0.961353
v 0.910582 -0.000000 -0.256033
v -0.755621 0.577802 -0.256032
v -0.755621 0.577802 0.435093
v -0.091343 0.577802 0.435093
v -0.091343 0.920961 -0.256033
v -0.091343 0.920961 0.961353
v 0.572936 0.920961 0.961353
v 0.572936 0.920961 0.435093
v 0.910582 0.920961 0.435093
v 0.910582 0.920961 -0.256033
v 0.572936 0.920961 -0.256033
v 0.572936 0.920961 -0.947160
v -0.755621 0.920961 -0.947160
v -0.755621 0.920961 -0.256032
v -0.076714 0.920961 -0.270662
v -0.076714 0.920961 0.946724
v 0.558307 0.920961 0.946724
v 0.558307 0.920961 0.420464
v 0.895954 0.920961 0.420464
v 0.895954 0.920961 -0.241405
v 0.558307 0.920961 -0.241405
v 0.558307 0.920961 -0.932531
v -0.740992 0.920961 -0.932531
v -0.740992 0.920961 -0.270661
v -0.076714 0.895396 -0.270662
v -0.076714 0.895396 0.946724
v 0.558307 0.895396 0.946724
v 0.558307 0.895396 0.420464
v 0.895954 0.895396 0.420464
v 0.895954 0.895396 -0.241405
v 0.558307 0.895396 -0.241405
v 0.558307 0.895396 -0.932531
v -0.740992 0.895396 -0.932531
v -0.740992 0.895396 -0.270661
v -0.027351 0.895396 -0.437608
v 0.505650 0.895396 -0.437608
v 0.505650 0.895396 -0.890012
v -0.035180 0.895396 -0.890012
v -0.027351 1.230600 -0.437608
v 0.505650 1.230600 -0.437608
v 0.505650 1.230600 -0.890012
v -0.035180 1.230600 -0.890012
v 0.000102 1.230600 -0.465540
v 0.477718 1.230600 -0.465540
v 0.477718 1.230600 -0.862080
v -0.006760 1.230600 -0.862080
v 0.000102 1.197079 -0.465540
v 0.477718 1.197079 -0.465540
v 0.477718 1.197079 -0.862080
v -0.006760 1.197079 -0.862080
v -0.618566 0.292480 0.435093
v -0.228395 0.292480 0.435093
v -0.228395 0.340050 0.435093
v -0.618566 0.340050 0.435093
v -0.618566 0.292480 0.826143
v -0.228395 0.292480 0.826143
v -0.228395 0.340050 0.826143
v -0.618566 0.340050 0.826143
v -0.591151 0.292480 0.764769
v -0.255810 0.292480 0.764769
v -0.255810 0.292480 0.800555
v -0.591151 0.292480 0.800555
v -0.559226 0.292480 0.764769
v -0.287734 0.292480 0.764769
v -0.287734 0.292480 0.800555
v -0.559226 0.292480 0.800555
v -0.255810 0.000003 0.764769
v -0.255810 0.000003 0.800555
v -0.287734 0.000003 0.800555
v -0.287734 0.000003 0.764769
v -0.591151 0.000003 0.764769
v -0.559226 0.000003 0.764769
v -0.559226 0.000003 0.800555
v -0.591151 0.000003 0.800555
v 0.910582 0.000000 0.435093
v 0.572936 -0.000000 -0.256033
v -0.091343 0.577802 -0.256033
v -0.118467 0.577802 0.435093
v -0.728496 0.577802 0.435093
v -0.118467 0.577802 0.406872
v -0.728496 0.577802 0.406872
v -0.728496 0.711883 0.435093
v -0.118467 0.711883 0.435093
v -0.118467 0.711883 0.406872
v -0.728496 0.711883 0.406872
v -0.698539 0.891048 -0.726764
v -0.549349 0.891048 -0.726764
v -0.698539 0.891048 -0.888137
v -0.549349 0.891048 -0.888137
v -0.698539 1.018935 -0.726764
v -0.549349 1.018935 -0.726764
v -0.698539 1.018935 -0.888137
v -0.549349 1.018935 -0.888137
v -0.508968 1.018935 -0.726764
v -0.359777 1.018935 -0.726764
v -0.359777 1.018935 -0.888137
v -0.508968 1.018935 -0.888137
v -0.508968 0.891048 -0.726764
v -0.359777 0.891048 -0.726764
v -0.359777 0.891048 -0.888137
v -0.508968 0.891048 -0.888137
v -0.318148 1.018935 -0.726764
v -0.168958 1.018935 -0.726764
v -0.168958 1.018935 -0.888137
v -0.318148 1.018935 -0.888137
v -0.318148 0.891048 -0.726764
v -0.168958 0.891048 -0.726764
v -0.168958 0.891048 -0.888137
v -0.318148 0.891048 -0.888137
v 0.520400 0.896501 0.477828
v 0.469023 0.896501 0.319707
v 0.334518 0.896501 0.221984
v 0.168261 0.896501 0.221984
v 0.033754 0.896501 0.319707
v -0.017621 0.896501 0.477828
v 0.033754 0.896501 0.635949
v 0.168261 0.896501 0.733672
v 0.334518 0.896501 0.733672
v 0.469023 0.896501 0.635949
v -0.243024 0.340050 0.449722
v -0.603938 0.340050 0.449722
v -0.603938 0.340050 0.811515
v -0.243024 0.340050 0.811515
vt 0.405901 0.401578
vt 0.405901 0.401578
vt 0.405901 0.401578
vt 0.405901 0.401578
vt 0.180825 0.898852
vt 0.180825 0.974053
vt 0.006131 0.898852
vt 0.588390 0.466753
vt 0.588390 0.466753
vt 0.588390 0.466753
vt 0.588390 0.466753
vt 0.588390 0.466753
vt 0.588390 0.466753
vt 0.588390 0.466753
vt 0.006131 0.974053
vt 0.588390 0.466753
vt 0.588390 0.466753
vt 0.588390 0.466753
vt 0.588390 0.466753
vt 0.588390 0.466753
vt 0.588390 0.466753
vt 0.606598 0.460512
vt 0.606598 0.460512
vt 0.606598 0.460512
vt 0.606598 0.460512
vt 0.588390 0.466753
vt 0.588390 0.466753
vt 0.606598 0.460512
vt 0.606598 0.460512
vt 0.606598 0.460512
vt 0.606598 0.460512
vt 0.440175 0.498159
vt 0.440175 0.679913
vt 0.426327 0.668732
vt 0.426327 0.549757
vt 0.098481 0.679913
vt 0.284098 0.668732
vt 0.588390 0.466753
vt 0.588390 0.466753
vt 0.588390 0.466753
vt 0.588390 0.466753
vt 0.588390 0.466753
vt 0.499139 0.165179
vt 0.499139 0.303576
vt 0.493536 0.303576
vt 0.493536 0.165179
vt 0.588390 0.466753
vt 0.588390 0.466753
vt 0.588390 0.466753
vt 0.588390 0.466753
vt 0.530756 0.059657
vt 0.530756 0.241412
vt 0.525154 0.241412
vt 0.525154 0.059657
vt 0.588390 0.466753
vt 0.588390 0.466753
vt 0.588390 0.466753
vt 0.588390 0.466753
vt 0.405901 0.401578
vt 0.405901 0.401578
vt 0.405901 0.401578
vt 0.405901 0.401578
vt 0.405901 0.401578
vt 0.967179 0.842416
vt 0.967179 0.982586
vt 0.893722 0.982586
vt 0.893722 0.842416
vt 0.405901 0.401578
vt 0.405901 0.401578
vt 0.588390 0.466753
vt 0.588390 0.466753
vt 0.588390 0.466753
vt 0.588390 0.466753
vt 0.586141 0.801372
vt 0.586141 0.983126
vt 0.579007 0.983126
vt 0.579007 0.975704
vt 0.418580 0.975704
vt 0.411447 0.983126
vt 0.411447 0.801371
vt 0.862938 0.484246
vt 0.862938 0.365272
vt 0.936395 0.365272
vt 0.936395 0.484246
vt 0.016392 0.656288
vt 0.016392 0.514058
vt 0.089849 0.514058
vt 0.089849 0.656288
vt 0.806506 0.972868
vt 0.806506 0.853876
vt 0.879963 0.853876
vt 0.879963 0.972868
vt 0.588390 0.466753
vt 0.588390 0.466753
vt 0.588390 0.466753
vt 0.588390 0.466753
vt 0.588390 0.466753
vt 0.588390 0.466753
vt 0.588390 0.466753
vt 0.588390 0.466753
vt 0.600190 0.409507
vt 0.610614 0.409507
vt 0.610614 0.512347
vt 0.600190 0.512347
vt 0.647500 0.806217
vt 0.621801 0.770844
vt 0.621801 0.727121
vt 0.647501 0.691748
vt 0.689084 0.678237
vt 0.730667 0.691748
vt 0.756366 0.727121
vt 0.756366 0.770844
vt 0.730667 0.806217
vt 0.689084 0.819728
vt 0.405901 0.401578
vt 0.591017 0.983027
vt 0.591017 0.856407
vt 0.627060 0.908508
vt 0.627060 0.918933
vt 0.369640 0.683368
vt 0.187885 0.809988
vt 0.006131 0.885188
vt 0.006131 0.683368
vt 0.758578 0.856407
vt 0.765711 0.856407
vt 0.729668 0.908508
vt 0.598151 0.856407
vt 0.864450 0.733390
vt 0.864450 0.828304
vt 0.769304 0.828304
vt 0.769304 0.733390
vt 0.626006 0.512347
vt 0.615582 0.512347
vt 0.615582 0.409507
vt 0.626006 0.409507
vt 0.590927 0.462774
vt 0.590927 0.462774
vt 0.590927 0.462774
vt 0.590927 0.462774
vt 0.590927 0.462774
vt 0.590927 0.462774
vt 0.590927 0.462774
vt 0.590927 0.462774
vt 0.590927 0.462774
vt 0.590927 0.462774
vt 0.590927 0.462774
vt 0.590927 0.462774
vt 0.590927 0.462774
vt 0.590927 0.462774
vt 0.590927 0.462774
vt 0.590927 0.462774
vt 0.683368 0.329357
vt 0.858062 0.329357
vt 0.858062 0.531178
vt 0.683368 0.531178
vt 0.839013 0.534581
vt 0.839013 0.672978
vt 0.637192 0.672978
vt 0.637192 0.534581
vt 0.582484 0.709021
vt 0.582484 0.797816
vt 0.380663 0.797816
vt 0.380663 0.709021
vt 0.442230 0.503797
vt 0.623985 0.503797
vt 0.623985 0.705618
vt 0.442230 0.705618
vt 0.883461 0.001000
vt 0.972256 0.001000
vt 0.972256 0.202820
vt 0.883461 0.202820
vt 0.397783 0.816763
vt 0.397783 0.998517
vt 0.195962 0.998517
vt 0.195962 0.816763
vt 0.529450 0.001000
vt 0.878838 0.001000
vt 0.878838 0.202820
vt 0.529450 0.202820
vt 0.369640 0.809988
vt 0.187885 0.885188
vt 0.715337 0.307005
vt 0.715337 0.314427
vt 0.685954 0.314427
vt 0.685954 0.307005
vt 0.859863 0.291685
vt 0.678109 0.291685
vt 0.539711 0.216485
vt 0.859863 0.216485
vt 0.418580 0.983126
vt 0.493536 0.161427
vt 0.493536 0.001000
vt 0.522919 0.001000
vt 0.522919 0.161427
vt 0.062567 0.675398
vt 0.062567 0.667976
vt 0.091950 0.667976
vt 0.091950 0.675398
vt 0.919375 0.830345
vt 0.919375 0.791110
vt 0.961813 0.791110
vt 0.961813 0.830345
vt 0.903983 0.779039
vt 0.903983 0.739804
vt 0.932008 0.739804
vt 0.932008 0.779039
vt 0.669370 0.516431
vt 0.626931 0.516431
vt 0.626931 0.488406
vt 0.669370 0.488406
vt 0.934766 0.779039
vt 0.934766 0.739804
vt 0.962792 0.739804
vt 0.962792 0.779039
vt 0.766851 0.326599
vt 0.724412 0.326599
vt 0.724412 0.298574
vt 0.766851 0.298574
vt 0.655905 0.474408
vt 0.616670 0.474408
vt 0.616670 0.431969
vt 0.655905 0.431969
vt 0.591017 0.814953
vt 0.591017 0.775718
vt 0.619043 0.775718
vt 0.619043 0.814953
vt 0.939897 0.407710
vt 0.939897 0.365271
vt 0.967922 0.365271
vt 0.967922 0.407710
vt 0.939897 0.460942
vt 0.939897 0.421708
vt 0.967922 0.421708
vt 0.967922 0.460942
vt 0.582150 0.490778
vt 0.539711 0.490778
vt 0.539711 0.462753
vt 0.582150 0.462753
vt 0.873199 0.830345
vt 0.873199 0.791110
vt 0.915638 0.791110
vt 0.915638 0.830345
vt 0.873199 0.779039
vt 0.873199 0.739804
vt 0.901225 0.739804
vt 0.901225 0.779039
vt 0.823287 0.326599
vt 0.780849 0.326599
vt 0.780849 0.298574
vt 0.823287 0.298574
vt 0.794430 0.711393
vt 0.755196 0.711393
vt 0.755196 0.683368
vt 0.794430 0.683368
vt 0.585887 0.761720
vt 0.585887 0.719282
vt 0.613912 0.719282
vt 0.613912 0.761720
vt 0.006131 0.674486
vt 0.006131 0.514058
vt 0.013552 0.514058
vt 0.013552 0.674486
vt 0.588390 0.466753
vt 0.539711 0.418305
vt 0.678109 0.418305
vt 0.729668 0.918933
vt 0.765711 0.983027
vt 0.630973 0.512115
vt 0.630973 0.409507
vt 0.641398 0.409507
vt 0.641398 0.512115
vt 0.868297 0.832151
vt 0.765457 0.832151
vt 0.765457 0.729543
vt 0.868297 0.729543
vt 0.600566 0.826917
vt 0.761796 0.826917
vt 0.761796 0.856447
vt 0.600566 0.856447
vt 0.588390 0.466753
vn 0.0000 1.0000 -0.0000
vn 0.0000 0.0000 1.0000
vn 1.0000 0.0000 0.0000
vn 0.0000 0.0000 -1.0000
vn -1.0000 0.0000 0.0000
vn -0.9999 0.0000 0.0173
vn 0.9999 0.0000 -0.0173
usemtl Building_low_01
s 1
f 43/1/1 42/2/1 32/3/1 38/4/1
f 84/5/2 12/6/2 9/7/2
f 33/8/3 32/9/3 22/10/3 23/11/3
f 21/12/1 12/13/1 22/10/1 31/14/1
f 9/7/2 12/6/2 21/15/2
f 15/16/1 16/17/1 26/18/1 25/19/1
f 16/17/1 17/20/1 27/21/1 26/18/1
f 14/22/1 15/23/1 25/24/1 24/25/1
f 17/20/1 18/26/1 28/27/1 27/21/1
f 18/28/1 19/29/1 29/30/1 28/31/1
f 38/32/1 39/33/1 44/34/1 43/35/1
f 39/33/1 40/36/1 45/37/1 44/34/1
f 12/13/1 13/38/1 23/11/1 22/10/1
f 20/39/1 21/12/1 31/14/1 30/40/1
f 34/41/4 33/8/4 23/11/4 24/42/4
f 35/43/5 34/44/5 24/45/5 25/46/5
f 36/47/4 35/48/4 25/19/4 26/18/4
f 37/49/5 36/47/5 26/18/5 27/21/5
f 38/50/2 37/49/2 27/21/2 28/27/2
f 39/51/5 38/52/5 28/53/5 29/54/5
f 40/55/2 39/56/2 29/57/2 30/40/2
f 41/58/3 40/55/3 30/40/3 31/14/3
f 32/9/4 41/58/4 31/14/4 22/10/4
f 35/59/1 36/60/1 37/61/1 38/4/1
f 33/62/1 34/63/1 35/59/1
f 47/64/2 46/65/2 42/66/2 43/67/2
f 32/3/1 42/2/1 40/68/1 41/69/1
f 46/70/1 47/71/1 51/72/1 50/73/1
f 9/74/1 10/75/1 86/76/1 88/77/1 87/78/1 11/79/1 84/80/1
f 48/81/3 47/82/3 43/83/3 44/84/3
f 49/85/4 48/86/4 44/87/4 45/88/4
f 46/89/6 49/90/6 45/91/6 42/92/6
f 55/93/4 54/94/4 50/73/4 51/72/4
f 49/95/1 46/70/1 50/73/1 53/96/1
f 47/71/1 48/97/1 52/98/1 51/72/1
f 48/97/1 49/95/1 53/96/1 52/98/1
f 56/99/5 55/93/5 51/72/5 52/98/5
f 57/100/2 56/99/2 52/98/2 53/96/2
f 54/94/7 57/100/7 53/96/7 50/73/7
f 64/101/3 63/102/3 59/103/3 60/104/3
f 117/105/1 118/106/1 119/107/1 120/108/1 121/109/1 122/110/1 123/111/1 124/112/1 125/113/1 126/114/1
f 40/68/1 42/2/1 45/115/1
f 5/116/2 11/117/2 60/118/2 59/119/2
f 1/120/5 9/121/5 20/122/5 3/123/5
f 86/124/2 10/125/2 61/126/2 60/118/2 11/117/2 85/127/2
f 129/128/1 130/129/1 127/130/1 128/131/1
f 62/132/5 65/133/5 61/134/5 58/135/5
f 75/136/3 74/137/3 67/138/3 68/139/3
f 76/140/2 75/136/2 68/139/2 72/141/2
f 77/142/5 76/140/5 72/141/5 71/143/5
f 74/137/4 77/142/4 71/143/4 67/138/4
f 79/144/4 78/145/4 66/146/4 70/147/4
f 80/148/3 79/144/3 70/147/3 73/149/3
f 81/150/2 80/148/2 73/149/2 69/151/2
f 78/145/5 81/150/5 69/151/5 66/146/5
f 7/152/2 6/153/2 14/154/2 13/155/2
f 6/156/3 2/157/3 15/158/3 14/159/3
f 2/160/2 82/161/2 16/162/2 15/163/2
f 82/164/3 8/165/3 17/166/3 16/167/3
f 8/168/4 83/169/4 18/170/4 17/171/4
f 83/172/3 4/173/3 19/174/3 18/175/3
f 4/176/4 3/177/4 20/178/4 19/179/4
f 1/120/5 10/180/5 9/121/5
f 9/121/5 21/181/5 20/122/5
f 91/182/3 90/183/3 85/184/3 87/185/3
f 84/186/5 11/187/5 13/188/5 12/189/5
f 85/190/1 11/79/1 87/78/1
f 92/191/4 91/192/4 87/193/4 88/194/4
f 89/195/5 92/196/5 88/197/5 86/198/5
f 100/199/1 99/200/1 97/201/1 98/202/1
f 98/203/2 97/204/2 93/205/2 94/206/2
f 100/207/3 98/208/3 94/209/3 96/210/3
f 99/211/4 100/212/4 96/213/4 95/214/4
f 97/215/5 99/216/5 95/217/5 93/218/5
f 103/219/1 104/220/1 101/221/1 102/222/1
f 102/223/2 101/224/2 105/225/2 106/226/2
f 103/227/3 102/228/3 106/229/3 107/230/3
f 104/231/4 103/232/4 107/233/4 108/234/4
f 101/235/5 104/236/5 108/237/5 105/238/5
f 111/239/1 112/240/1 109/241/1 110/242/1
f 110/243/2 109/244/2 113/245/2 114/246/2
f 111/247/3 110/248/3 114/249/3 115/250/3
f 112/251/4 111/252/4 115/253/4 116/254/4
f 109/255/5 112/256/5 116/257/5 113/258/5
f 91/259/1 92/260/1 89/261/1 90/262/1
f 35/59/1 38/4/1 32/3/1 33/62/1
f 13/38/1 14/263/1 24/42/1 23/11/1
f 7/264/5 13/188/5 11/187/5 5/265/5
f 59/119/2 58/266/2 1/267/2 5/116/2
f 54/94/1 55/93/1 56/99/1 57/100/1
f 64/268/2 65/269/2 62/270/2 63/271/2
f 64/272/1 60/273/1 127/130/1 130/129/1
f 61/274/1 65/275/1 129/128/1 128/131/1
f 65/275/1 64/272/1 130/129/1 129/128/1
f 90/276/2 89/277/2 86/278/2 85/279/2
f 60/273/1 61/274/1 128/131/1 127/130/1
f 10/125/2 1/267/2 58/266/2 61/126/2
f 19/280/1 20/39/1 30/40/1 29/57/1
o Tree_2_3_61.426_Mesh.9302
v 0.721510 0.221273 0.789180
v 0.708240 0.621525 0.802378
v 0.795828 0.221273 0.789180
v 0.809098 0.621525 0.802378
v 0.795828 0.221273 0.715268
v 0.809098 0.621525 0.702070
v 0.721510 0.221273 0.715268
v 0.708240 0.621525 0.702070
v 0.708240 0.454708 0.802378
v 0.809098 0.454708 0.802378
v 0.809098 0.454708 0.702070
v 0.708240 0.454708 0.702070
v 0.679532 0.270960 0.830929
v 0.837806 0.270960 0.830929
v 0.837806 0.270960 0.673519
v 0.679532 0.270960 0.673519
v 0.721510 0.265730 0.789180
v 0.795828 0.265730 0.789180
v 0.795828 0.265730 0.715268
v 0.721510 0.265730 0.715268
v 0.679532 0.452253 0.830929
v 0.837806 0.452253 0.830929
v 0.837806 0.452253 0.673519
v 0.679532 0.452253 0.673519
v 0.754204 0.217869 0.756664
v 0.763134 0.217869 0.756664
v 0.758669 0.217869 0.747784
v 0.754204 -0.004261 0.756664
v 0.763134 -0.004261 0.756664
v 0.758669 -0.004261 0.747784
vt 0.950649 0.914160
vt 0.950649 0.991044
vt 0.829960 0.991044
vt 0.829960 0.914160
vt 0.949991 0.629771
vt 0.949991 0.706655
vt 0.829960 0.706655
vt 0.829960 0.629771
vt 0.950649 0.819363
vt 0.950649 0.896248
vt 0.829960 0.896248
vt 0.829960 0.819363
vt 0.171307 0.039673
vt 0.171307 0.328165
vt 0.008410 0.328165
vt 0.008410 0.039673
vt 0.531634 0.154692
vt 0.531634 0.328165
vt 0.367844 0.328165
vt 0.367844 0.154692
vt 0.717096 0.080976
vt 0.717096 0.369467
vt 0.553306 0.369467
vt 0.553306 0.080976
vt 0.351024 0.039673
vt 0.351024 0.328165
vt 0.188127 0.328165
vt 0.188127 0.039673
vt 0.897707 0.080976
vt 0.897707 0.369467
vt 0.733916 0.369467
vt 0.733916 0.080976
vt 0.602730 0.941668
vt 0.556110 0.991044
vt 0.556110 0.718819
vt 0.602730 0.768195
vt 0.265440 0.677516
vt 0.265440 0.991044
vt 0.008410 0.991044
vt 0.008410 0.677516
vt 0.536486 0.346077
vt 0.536486 0.659604
vt 0.280858 0.659604
vt 0.280858 0.346077
vt 0.539290 0.677516
vt 0.539290 0.991044
vt 0.282260 0.991044
vt 0.282260 0.677516
vt 0.829960 0.801451
vt 0.829960 0.724567
vt 0.949991 0.724567
vt 0.949991 0.801451
vt 0.008410 0.659604
vt 0.008410 0.346077
vt 0.264038 0.346077
vt 0.264038 0.659604
vt 0.813140 0.718819
vt 0.766520 0.768195
vt 0.813140 0.991044
vt 0.766520 0.941668
vt 0.977168 0.465127
vt 0.977168 0.080976
vt 0.991590 0.080976
vt 0.991590 0.465127
vt 0.945847 0.465127
vt 0.945847 0.080976
vt 0.960348 0.080976
vt 0.960348 0.465127
vt 0.967469 0.991044
vt 0.967469 0.606893
vt 0.981891 0.606893
vt 0.981891 0.991044
vn 0.0000 0.0000 1.0000
vn 1.0000 0.0000 0.0000
vn 0.0000 0.0000 -1.0000
vn -1.0000 0.0000 0.0000
vn 0.0000 1.0000 0.0000
vn -0.0852 0.9964 0.0000
vn 0.0000 0.9963 0.0857
vn 0.0852 0.9964 0.0000
vn 0.0000 0.9963 -0.0857
vn 0.8934 0.0000 -0.4492
vn -0.8934 0.0000 -0.4492
usemtl Tree_2.003
s 1
f 133/281/8 148/282/8 147/283/8 131/284/8
f 135/285/9 149/286/9 148/287/9 133/288/9
f 137/289/10 150/290/10 149/291/10 135/292/10
f 139/293/11 132/294/11 138/295/11 142/296/11
f 134/297/12 136/298/12 138/299/12 132/300/12
f 140/301/8 134/302/8 132/303/8 139/304/8
f 141/305/9 136/306/9 134/307/9 140/308/9
f 142/309/10 138/310/10 136/311/10 141/312/10
f 142/313/13 154/314/13 151/315/13 139/316/13
f 144/317/8 152/318/8 151/319/8 143/320/8
f 145/321/9 153/322/9 152/323/9 144/324/9
f 146/325/10 154/326/10 153/327/10 145/328/10
f 150/329/11 137/330/11 131/331/11 147/332/11
f 154/333/11 146/334/11 143/335/11 151/336/11
f 152/337/14 140/338/14 139/316/14 151/315/14
f 153/339/15 141/340/15 140/338/15 152/337/15
f 154/314/16 142/313/16 141/340/16 153/339/16
f 156/341/17 159/342/17 160/343/17 157/344/17
f 155/345/8 158/346/8 159/347/8 156/348/8
f 157/349/18 160/350/18 158/351/18 155/352/18
o Tree_2_3_61.427_Mesh.9303
v -0.911789 0.221273 0.756391
v -0.925059 0.621525 0.769589
v -0.837471 0.221273 0.756391
v -0.824201 0.621525 0.769589
v -0.837471 0.221273 0.682478
v -0.824201 0.621525 0.669281
v -0.911789 0.221273 0.682478
v -0.925059 0.621525 0.669281
v -0.925059 0.454708 0.769589
v -0.824201 0.454708 0.769589
v -0.824201 0.454708 0.669281
v -0.925059 0.454708 0.669281
v -0.953767 0.270960 0.798140
v -0.795493 0.270960 0.798140
v -0.795493 0.270960 0.640729
v -0.953767 0.270960 0.640729
v -0.911789 0.265730 0.756391
v -0.837471 0.265730 0.756391
v -0.837471 0.265730 0.682478
v -0.911789 0.265730 0.682478
v -0.953767 0.452253 0.798140
v -0.795493 0.452253 0.798140
v -0.795493 0.452253 0.640729
v -0.953767 0.452253 0.640729
v -0.879095 0.217869 0.723875
v -0.870165 0.217869 0.723875
v -0.874630 0.217869 0.714994
v -0.879095 -0.004261 0.723875
v -0.870165 -0.004261 0.723875
v -0.874630 -0.004261 0.714994
vt 0.950649 0.914160
vt 0.950649 0.991044
vt 0.829960 0.991044
vt 0.829960 0.914160
vt 0.949991 0.629771
vt 0.949991 0.706655
vt 0.829960 0.706655
vt 0.829960 0.629771
vt 0.950649 0.819363
vt 0.950649 0.896248
vt 0.829960 0.896248
vt 0.829960 0.819363
vt 0.171307 0.039673
vt 0.171307 0.328165
vt 0.008410 0.328165
vt 0.008410 0.039673
vt 0.531634 0.154692
vt 0.531634 0.328165
vt 0.367844 0.328165
vt 0.367844 0.154692
vt 0.717096 0.080976
vt 0.717096 0.369467
vt 0.553306 0.369467
vt 0.553306 0.080976
vt 0.351024 0.039673
vt 0.351024 0.328165
vt 0.188127 0.328165
vt 0.188127 0.039673
vt 0.897707 0.080976
vt 0.897707 0.369467
vt 0.733916 0.369467
vt 0.733916 0.080976
vt 0.602730 0.941668
vt 0.556110 0.991044
vt 0.556110 0.718819
vt 0.602730 0.768195
vt 0.265440 0.677516
vt 0.265440 0.991044
vt 0.008410 0.991044
vt 0.008410 0.677516
vt 0.536486 0.346077
vt 0.536486 0.659604
vt 0.280858 0.659604
vt 0.280858 0.346077
vt 0.539290 0.677516
vt 0.539290 0.991044
vt 0.282260 0.991044
vt 0.282260 0.677516
vt 0.829960 0.801451
vt 0.829960 0.724567
vt 0.949991 0.724567
vt 0.949991 0.801451
vt 0.008410 0.659604
vt 0.008410 0.346077
vt 0.264038 0.346077
vt 0.264038 0.659604
vt 0.813140 0.718819
vt 0.766520 0.768195
vt 0.813140 0.991044
vt 0.766520 0.941668
vt 0.977168 0.465127
vt 0.977168 0.080976
vt 0.991590 0.080976
vt 0.991590 0.465127
vt 0.945847 0.465127
vt 0.945847 0.080976
vt 0.960348 0.080976
vt 0.960348 0.465127
vt 0.967469 0.991044
vt 0.967469 0.606893
vt 0.981891 0.606893
vt 0.981891 0.991044
vn 0.0000 -0.0000 1.0000
vn 1.0000 -0.0000 0.0000
vn 0.0000 0.0000 -1.0000
vn -1.0000 0.0000 0.0000
vn 0.0000 1.0000 0.0000
vn -0.0852 0.9964 0.0000
vn 0.0000 0.9963 0.0857
vn 0.0852 0.9964 0.0000
vn 0.0000 0.9963 -0.0857
vn 0.8934 0.0000 -0.4492
vn -0.8934 0.0000 -0.4492
usemtl Tree_2.003
s 1
f 163/353/19 178/354/19 177/355/19 161/356/19
f 165/357/20 179/358/20 178/359/20 163/360/20
f 167/361/21 180/362/21 179/363/21 165/364/21
f 169/365/22 162/366/22 168/367/22 172/368/22
f 164/369/23 166/370/23 168/371/23 162/372/23
f 170/373/19 164/374/19 162/375/19 169/376/19
f 171/377/20 166/378/20 164/379/20 170/380/20
f 172/381/21 168/382/21 166/383/21 171/384/21
f 172/385/24 184/386/24 181/387/24 169/388/24
f 174/389/19 182/390/19 181/391/19 173/392/19
f 175/393/20 183/394/20 182/395/20 174/396/20
f 176/397/21 184/398/21 183/399/21 175/400/21
f 180/401/22 167/402/22 161/403/22 177/404/22
f 184/405/22 176/406/22 173/407/22 181/408/22
f 182/409/25 170/410/25 169/388/25 181/387/25
f 183/411/26 171/412/26 170/410/26 182/409/26
f 184/386/27 172/385/27 171/412/27 183/411/27
f 186/413/28 189/414/28 190/415/28 187/416/28
f 185/417/19 188/418/19 189/419/19 186/420/19
f 187/421/29 190/422/29 188/423/29 185/424/29
o Tree_2_3_61.428_Mesh.9304
v 0.776120 0.221273 -0.565888
v 0.762850 0.621525 -0.552690
v 0.850438 0.221273 -0.565888
v 0.863708 0.621525 -0.552690
v 0.850438 0.221273 -0.639801
v 0.863708 0.621525 -0.652998
v 0.776120 0.221273 -0.639801
v 0.762850 0.621525 -0.652998
v 0.762850 0.454708 -0.552690
v 0.863708 0.454708 -0.552690
v 0.863708 0.454708 -0.652999
v 0.762850 0.454708 -0.652999
v 0.734142 0.270960 -0.524139
v 0.892416 0.270960 -0.524139
v 0.892416 0.270960 -0.681550
v 0.734142 0.270960 -0.681550
v 0.776120 0.265730 -0.565888
v 0.850438 0.265730 -0.565888
v 0.850438 0.265730 -0.639801
v 0.776120 0.265730 -0.639801
v 0.734142 0.452253 -0.524139
v 0.892416 0.452253 -0.524139
v 0.892416 0.452253 -0.681549
v 0.734142 0.452253 -0.681549
v 0.808814 0.217869 -0.598404
v 0.817744 0.217869 -0.598404
v 0.813279 0.217869 -0.607285
v 0.808814 -0.004261 -0.598404
v 0.817744 -0.004261 -0.598404
v 0.813279 -0.004261 -0.607285
vt 0.950649 0.914160
vt 0.950649 0.991044
vt 0.829960 0.991044
vt 0.829960 0.914160
vt 0.949991 0.629771
vt 0.949991 0.706655
vt 0.829960 0.706655
vt 0.829960 0.629771
vt 0.950649 0.819363
vt 0.950649 0.896248
vt 0.829960 0.896248
vt 0.829960 0.819363
vt 0.171307 0.039673
vt 0.171307 0.328165
vt 0.008410 0.328165
vt 0.008410 0.039673
vt 0.531634 0.154692
vt 0.531634 0.328165
vt 0.367844 0.328165
vt 0.367844 0.154692
vt 0.717096 0.080976
vt 0.717096 0.369467
vt 0.553306 0.369467
vt 0.553306 0.080976
vt 0.351024 0.039673
vt 0.351024 0.328165
vt 0.188127 0.328165
vt 0.188127 0.039673
vt 0.897707 0.080976
vt 0.897707 0.369467
vt 0.733916 0.369467
vt 0.733916 0.080976
vt 0.602730 0.941668
vt 0.556110 0.991044
vt 0.556110 0.718819
vt 0.602730 0.768195
vt 0.265440 0.677516
vt 0.265440 0.991044
vt 0.008410 0.991044
vt 0.008410 0.677516
vt 0.536486 0.346077
vt 0.536486 0.659604
vt 0.280858 0.659604
vt 0.280858 0.346077
vt 0.539290 0.677516
vt 0.539290 0.991044
vt 0.282260 0.991044
vt 0.282260 0.677516
vt 0.829960 0.801451
vt 0.829960 0.724567
vt 0.949991 0.724567
vt 0.949991 0.801451
vt 0.008410 0.659604
vt 0.008410 0.346077
vt 0.264038 0.346077
vt 0.264038 0.659604
vt 0.813140 0.718819
vt 0.766520 0.768195
vt 0.813140 0.991044
vt 0.766520 0.941668
vt 0.977168 0.465127
vt 0.977168 0.080976
vt 0.991590 0.080976
vt 0.991590 0.465127
vt 0.945847 0.465127
vt 0.945847 0.080976
vt 0.960348 0.080976
vt 0.960348 0.465127
vt 0.967469 0.991044
vt 0.967469 0.606893
vt 0.981891 0.606893
vt 0.981891 0.991044
vn 0.0000 0.0000 1.0000
vn 1.0000 0.0000 0.0000
vn 0.0000 0.0000 -1.0000
vn -1.0000 0.0000 0.0000
vn 0.0000 1.0000 0.0000
vn -0.0852 0.9964 0.0000
vn 0.0000 0.9963 0.0857
vn 0.0852 0.9964 0.0000
vn 0.0000 0.9963 -0.0857
vn 0.8934 0.0000 -0.4492
vn -0.8934 0.0000 -0.4492
usemtl Tree_2.003
s 1
f 193/425/30 208/426/30 207/427/30 191/428/30
f 195/429/31 209/430/31 208/431/31 193/432/31
f 197/433/32 210/434/32 209/435/32 195/436/32
f 199/437/33 192/438/33 198/439/33 202/440/33
f 194/441/34 196/442/34 198/443/34 192/444/34
f 200/445/30 194/446/30 192/447/30 199/448/30
f 201/449/31 196/450/31 194/451/31 200/452/31
f 202/453/32 198/454/32 196/455/32 201/456/32
f 202/457/35 214/458/35 211/459/35 199/460/35
f 204/461/30 212/462/30 211/463/30 203/464/30
f 205/465/31 213/466/31 212/467/31 204/468/31
f 206/469/32 214/470/32 213/471/32 205/472/32
f 210/473/33 197/474/33 191/475/33 207/476/33
f 214/477/33 206/478/33 203/479/33 211/480/33
f 212/481/36 200/482/36 199/460/36 211/459/36
f 213/483/37 201/484/37 200/482/37 212/481/37
f 214/458/38 202/457/38 201/484/38 213/483/38
f 216/485/39 219/486/39 220/487/39 217/488/39
f 215/489/30 218/490/30 219/491/30 216/492/30
f 217/493/40 220/494/40 218/495/40 215/496/40
