<svg width="28" height="28" viewBox="0 0 28 28" fill="none" xmlns="http://www.w3.org/2000/svg">
<path d="M14.0414 28H14C13.8087 28 13.6185 27.8501 13.4289 27.8419C13.1069 27.8285 12.8572 27.4832 12.8707 27.1612C12.8841 26.8392 13.1804 26.5568 13.4779 26.5668C13.6512 26.5743 13.8256 26.5592 14 26.5592C14.3226 26.5592 14.6037 26.957 14.6037 27.279C14.6037 27.601 14.364 28 14.0414 28ZM16.3829 27.4925C16.1064 27.4925 15.8614 27.2959 15.8101 27.0148C15.7517 26.698 15.9617 26.3941 16.2785 26.3358C16.4634 26.3013 16.6472 26.2634 16.8297 26.2214C17.1436 26.1497 17.4562 26.3451 17.5286 26.6589C17.6009 26.9728 17.4049 27.286 17.0905 27.3583C16.8916 27.4044 16.6909 27.4458 16.4891 27.4826C16.4535 27.4896 16.4179 27.4925 16.3829 27.4925ZM11.1224 27.3916C11.0804 27.3916 11.0372 27.3869 10.9941 27.3776C10.794 27.3327 10.5951 27.2837 10.3979 27.23C10.087 27.146 9.90267 26.8258 9.98667 26.5148C10.0713 26.2033 10.3938 26.0208 10.7024 26.1036C10.8844 26.1526 11.0658 26.1981 11.2496 26.2389C11.564 26.3095 11.7617 26.621 11.6912 26.9354C11.6305 27.2073 11.3896 27.3916 11.1224 27.3916ZM19.194 26.6403C18.9682 26.6403 18.7536 26.5084 18.6585 26.2879C18.5307 25.9922 18.6672 25.6486 18.9624 25.5214C19.1345 25.4473 19.3048 25.3686 19.4734 25.2875C19.7633 25.1475 20.1128 25.2677 20.2528 25.5576C20.3933 25.8475 20.2726 26.1963 19.9827 26.3369C19.7995 26.4262 19.6128 26.5113 19.425 26.5924C19.3503 26.6251 19.2716 26.6403 19.194 26.6403ZM8.34458 26.4314C8.26 26.4314 8.17483 26.4133 8.09375 26.3743C7.90767 26.2856 7.72392 26.1923 7.54367 26.0954C7.26017 25.9432 7.15283 25.5897 7.30567 25.3056C7.45792 25.0221 7.81083 24.9148 8.0955 25.067C8.26 25.1551 8.42742 25.2403 8.59658 25.3213C8.88767 25.4602 9.01075 25.8084 8.87192 26.0989C8.771 26.3089 8.56275 26.4314 8.34458 26.4314ZM21.7432 25.1825C21.5629 25.1825 21.3856 25.0997 21.2712 24.9428C21.0811 24.6826 21.1382 24.3174 21.399 24.1278C21.5507 24.0176 21.6988 23.9038 21.8441 23.7866C22.0955 23.5842 22.463 23.6244 22.6642 23.8758C22.8661 24.1267 22.8258 24.4942 22.5756 24.696C22.4157 24.8243 22.2524 24.9498 22.0862 25.0711C21.9829 25.1458 21.8627 25.1825 21.7432 25.1825ZM5.85142 24.8739C5.72425 24.8739 5.5965 24.8325 5.48975 24.7479C5.32933 24.6208 5.17125 24.4901 5.01608 24.3553C4.77283 24.1442 4.74658 23.7755 4.95775 23.5323C5.16833 23.2884 5.537 23.2633 5.78025 23.4739C5.92258 23.597 6.06667 23.7172 6.21367 23.8338C6.46625 24.0339 6.50883 24.4008 6.30875 24.6534C6.19383 24.7981 6.0235 24.8739 5.85142 24.8739ZM23.905 23.1945C23.7691 23.1945 23.632 23.1473 23.5218 23.0504C23.2791 22.8387 23.254 22.47 23.4657 22.2273C23.5888 22.0862 23.7084 21.9421 23.8239 21.7957C24.0252 21.5431 24.3921 21.5011 24.6435 21.7006C24.8961 21.9007 24.9387 22.2676 24.7386 22.5202C24.6102 22.6812 24.4796 22.8393 24.3437 22.9944C24.2293 23.1268 24.0677 23.1945 23.905 23.1945ZM3.76833 22.8037C3.59742 22.8037 3.42883 22.7296 3.31392 22.5861C3.18442 22.4263 3.059 22.2629 2.93767 22.0967C2.74808 21.8365 2.80525 21.4713 3.066 21.2818C3.32617 21.0922 3.69133 21.1493 3.88033 21.4095C3.99058 21.5606 4.10492 21.7088 4.22158 21.854C4.424 22.1048 4.38433 22.4723 4.13408 22.6742C4.02558 22.7617 3.89667 22.8037 3.76833 22.8037ZM25.5751 20.7772C25.4823 20.7772 25.3884 20.755 25.3003 20.7083C25.0163 20.5561 24.9089 20.2026 25.0612 19.9185C25.1498 19.7528 25.235 19.5854 25.3161 19.4163C25.4549 19.1258 25.8026 19.0027 26.0943 19.1415C26.3848 19.2809 26.5078 19.6286 26.369 19.9197C26.2803 20.1052 26.187 20.2878 26.0902 20.4692C25.9846 20.6652 25.7833 20.7772 25.5751 20.7772ZM2.19392 20.3245C1.9775 20.3245 1.76925 20.2038 1.66892 19.9961C1.58025 19.8129 1.49392 19.6268 1.41283 19.439C1.28508 19.1433 1.421 18.7997 1.71675 18.6719C2.01192 18.5436 2.35608 18.6801 2.48383 18.9753C2.5585 19.1473 2.63667 19.3177 2.71833 19.4857C2.85833 19.7756 2.73758 20.125 2.44825 20.2656C2.36658 20.3058 2.27908 20.3245 2.19392 20.3245ZM26.6642 18.0466C26.6134 18.0466 26.5621 18.0396 26.5107 18.0256C26.1998 17.941 26.0161 17.6208 26.1007 17.3098C26.1497 17.129 26.1946 16.947 26.236 16.7627C26.3066 16.4483 26.6192 16.2511 26.9331 16.3223C27.2475 16.3934 27.4447 16.7055 27.3741 17.0199C27.3292 17.22 27.2796 17.4189 27.2259 17.6155C27.1559 17.8757 26.9202 18.0466 26.6642 18.0466ZM1.21275 17.5572C0.947333 17.5572 0.707 17.3746 0.644583 17.1045C0.599083 16.9062 0.557667 16.7055 0.51975 16.5037C0.460833 16.1869 0.67025 15.8824 0.987 15.8235C1.302 15.7658 1.60883 15.974 1.66717 16.2908C1.70158 16.4763 1.7395 16.66 1.7815 16.8426C1.85383 17.1564 1.65783 17.4697 1.344 17.542C1.30025 17.5519 1.25592 17.5572 1.21275 17.5572ZM27.1133 15.1667C27.1046 15.1667 27.0964 15.1667 27.0877 15.1667C26.7657 15.1667 26.5166 14.8692 26.53 14.5472C26.5376 14.3693 26.5417 14.1855 26.5417 14.0058C26.5417 13.6838 26.6566 13.4056 26.9792 13.4056C27.3017 13.4056 27.4167 13.65 27.4167 13.972V14C27.4167 14.196 27.5584 14.4025 27.5502 14.5968C27.5362 14.9106 27.4242 15.1667 27.1133 15.1667ZM0.729167 14.6113C0.406583 14.6113 0 14.378 0 14.056V14C0 13.7941 0.1505 13.5893 0.15925 13.3858C0.172667 13.0643 0.516833 12.8252 0.840583 12.8287C1.16258 12.8427 1.44842 13.1151 1.43442 13.4371C1.42625 13.6238 1.36733 13.8116 1.36733 14C1.36733 14.322 1.05175 14.6113 0.729167 14.6113ZM26.9115 12.2138C26.635 12.2138 26.3894 12.0167 26.3387 11.7349C26.3042 11.55 26.2675 11.3663 26.2255 11.1843C26.1532 10.8704 26.3492 10.5572 26.663 10.4848C26.9797 10.4148 27.2907 10.6085 27.3624 10.9223C27.4079 11.1213 27.4493 11.3225 27.4861 11.5255C27.5444 11.8423 27.3338 12.1462 27.0165 12.2039C26.9809 12.2109 26.9459 12.2138 26.9115 12.2138ZM1.20167 11.6643C1.1585 11.6643 1.11533 11.6597 1.071 11.6498C0.757167 11.578 0.560583 11.2648 0.632333 10.9509C0.677833 10.7508 0.728 10.5519 0.78225 10.3553C0.867417 10.0444 1.18767 9.86183 1.49917 9.947C1.8095 10.0322 1.99267 10.353 1.90692 10.6639C1.85733 10.8448 1.81183 11.0268 1.76983 11.2105C1.708 11.4812 1.46767 11.6643 1.20167 11.6643ZM26.0633 9.40217C25.8376 9.40217 25.6223 9.26975 25.5273 9.04925C25.4532 8.87717 25.3756 8.70742 25.2945 8.53883C25.1539 8.24892 25.2747 7.90008 25.5646 7.7595C25.8551 7.61833 26.2033 7.73908 26.3439 8.02958C26.4332 8.21333 26.5189 8.4 26.5994 8.58842C26.7266 8.88475 26.5895 9.22775 26.2937 9.35492C26.2179 9.38642 26.1403 9.40217 26.0633 9.40217ZM2.17 8.89058C2.08483 8.89058 1.99908 8.87192 1.91742 8.83283C1.62692 8.69283 1.505 8.34458 1.64442 8.05408C1.73367 7.86917 1.827 7.686 1.92383 7.50575C2.07667 7.22225 2.429 7.1155 2.71367 7.26775C2.99775 7.42 3.1045 7.77408 2.95167 8.05758C2.863 8.22325 2.77725 8.39067 2.69617 8.56042C2.59525 8.76925 2.387 8.89058 2.17 8.89058ZM24.6079 6.85183C24.4277 6.85183 24.2503 6.76842 24.136 6.61208C24.0257 6.46042 23.9114 6.31167 23.7947 6.16583C23.5929 5.91442 23.6337 5.54692 23.8852 5.34567C24.1372 5.14383 24.5047 5.18583 24.7048 5.43667C24.8331 5.5965 24.9573 5.75925 25.0787 5.92492C25.2682 6.18508 25.2111 6.55025 24.9503 6.73983C24.8471 6.81567 24.7269 6.85183 24.6079 6.85183ZM3.7345 6.40325C3.60675 6.40325 3.479 6.36183 3.37108 6.27608C3.11908 6.07542 3.07825 5.70792 3.2795 5.4565C3.40725 5.29608 3.5385 5.13858 3.67383 4.984C3.88617 4.74075 4.25483 4.71625 4.49692 4.92917C4.73958 5.14092 4.76408 5.50958 4.55233 5.75167C4.42867 5.89283 4.3085 6.03692 4.19125 6.18333C4.07575 6.328 3.906 6.40325 3.7345 6.40325ZM22.6217 4.68708C22.4852 4.68708 22.3475 4.63925 22.2372 4.54242C22.0967 4.41933 21.9532 4.29917 21.8062 4.1825C21.5542 3.98183 21.5127 3.61492 21.7134 3.36292C21.9141 3.11092 22.2804 3.06892 22.533 3.27017C22.6934 3.3985 22.8521 3.52975 23.0067 3.66508C23.2487 3.87742 23.2732 4.24608 23.0609 4.48817C22.9454 4.62 22.7838 4.68708 22.6217 4.68708ZM5.81292 4.32483C5.64142 4.32483 5.47167 4.25017 5.35675 4.10608C5.1555 3.85408 5.19633 3.48717 5.44833 3.28592C5.60758 3.15817 5.77092 3.03392 5.936 2.91317C6.19617 2.723 6.56075 2.78075 6.75092 3.04033C6.94108 3.3005 6.8845 3.66567 6.62375 3.85525C6.47208 3.9655 6.32275 4.07983 6.17575 4.19708C6.069 4.28342 5.94067 4.32483 5.81292 4.32483ZM20.2043 3.01467C20.111 3.01467 20.0159 2.99192 19.9278 2.94467C19.7633 2.856 19.5959 2.77083 19.4268 2.68975C19.1368 2.55033 19.0143 2.2015 19.1537 1.91158C19.2932 1.62108 19.642 1.49917 19.9325 1.63858C20.1174 1.72783 20.3012 1.82117 20.4814 1.91858C20.7649 2.07142 20.8711 2.4255 20.7177 2.709C20.6127 2.90442 20.4114 3.01467 20.2043 3.01467ZM8.29733 2.75858C8.08033 2.75858 7.87208 2.63725 7.77175 2.42958C7.63175 2.13967 7.75308 1.79083 8.043 1.65025C8.22675 1.56158 8.41342 1.47642 8.60183 1.39533C8.89817 1.26817 9.24117 1.40467 9.36775 1.70158C9.49492 1.99733 9.35725 2.34033 9.06208 2.4675C8.88942 2.54158 8.71908 2.61917 8.55108 2.70025C8.46883 2.7405 8.38192 2.75858 8.29733 2.75858ZM17.4772 1.92383C17.4259 1.92383 17.374 1.91683 17.3221 1.90283C17.1412 1.85325 16.9598 1.80775 16.7767 1.76692C16.4622 1.69575 16.2651 1.38367 16.3357 1.06925C16.4062 0.754833 16.7183 0.55825 17.0327 0.628833C17.234 0.674333 17.4329 0.723917 17.6301 0.778167C17.9404 0.863333 18.1236 1.18417 18.0384 1.49508C17.9684 1.7535 17.7327 1.92383 17.4772 1.92383ZM11.067 1.78733C10.801 1.78733 10.5607 1.60417 10.4988 1.33408C10.4271 1.01967 10.6237 0.707 10.9375 0.63525C11.137 0.58975 11.3382 0.548917 11.5395 0.512167C11.8597 0.450917 12.1602 0.665583 12.2179 0.98175C12.2757 1.2985 12.0645 1.60242 11.7477 1.66017C11.5634 1.694 11.3791 1.73133 11.1971 1.77275C11.1533 1.78267 11.1102 1.78733 11.067 1.78733ZM14.5752 1.75C14.5664 1.75 14.5582 1.75 14.5495 1.75C14.3669 1.75 14.1837 1.59833 14 1.59833C13.6774 1.59833 13.4091 1.41283 13.4091 1.09083C13.4091 0.768833 13.6634 0.583333 13.986 0.583333H14C14.2012 0.583333 14.4013 0.442167 14.5997 0.450333C14.9217 0.464333 15.1707 0.80325 15.1573 1.12525C15.1439 1.4385 14.8861 1.75 14.5752 1.75Z" fill="white"/>
<path d="M14 22.1667C13.6774 22.1667 13.4167 21.9053 13.4167 21.5833V4.66667C13.4167 4.34467 13.6774 4.08333 14 4.08333C14.3226 4.08333 14.5833 4.34467 14.5833 4.66667V21.5833C14.5833 21.9053 14.3226 22.1667 14 22.1667Z" fill="white"/>
<path d="M14 22.1667C13.8507 22.1667 13.7013 22.1095 13.5876 21.9957L6.98775 15.3965C6.75967 15.1684 6.75967 14.7997 6.98775 14.5717C7.21583 14.3436 7.5845 14.3436 7.81258 14.5717L14 20.7585L20.1868 14.5717C20.4149 14.3436 20.7836 14.3436 21.0117 14.5717C21.2397 14.7997 21.2397 15.1684 21.0117 15.3965L14.4124 21.9957C14.2987 22.1095 14.1493 22.1667 14 22.1667Z" fill="white"/>
</svg>
