<svg width="37" height="37" viewBox="0 0 37 37" fill="none" xmlns="http://www.w3.org/2000/svg">
<rect x="0.5" y="0.5" width="35.9668" height="35.9668" rx="17.9834" fill="url(#paint0_linear)" stroke="#F1F0F0"/>
<g clip-path="url(#clip0)">
<path d="M28 18.7411C28 18.0274 27.9438 17.3098 27.8238 16.6076H18.2006V20.6509H23.7114C23.4827 21.955 22.7479 23.1086 21.672 23.8416V26.4652H24.9597C26.8904 24.6364 28 21.9357 28 18.7411Z" fill="#4285F4"/>
<path d="M18.2005 29C20.9522 29 23.2727 28.0702 24.9634 26.4652L21.6757 23.8416C20.761 24.4821 19.5801 24.8448 18.2043 24.8448C15.5426 24.8448 13.2858 22.9967 12.4761 20.512H9.08337V23.2166C10.8153 26.7623 14.343 29 18.2005 29Z" fill="#34A853"/>
<path d="M12.4723 20.512C12.045 19.208 12.045 17.7959 12.4723 16.4918V13.7872H9.08339C7.63635 16.7542 7.63635 20.2497 9.08339 23.2166L12.4723 20.512Z" fill="#FBBC04"/>
<path d="M18.2005 12.1552C19.6551 12.1321 21.0609 12.6954 22.1143 13.7294L25.0271 10.7316C23.1827 8.94911 20.7347 7.96913 18.2005 8C14.343 8 10.8153 10.2377 9.08337 13.7872L12.4723 16.4918C13.2783 14.0033 15.5389 12.1552 18.2005 12.1552Z" fill="#EA4335"/>
</g>
<defs>
<linearGradient id="paint0_linear" x1="18.4834" y1="0" x2="18.4834" y2="36.9668" gradientUnits="userSpaceOnUse">
<stop stop-color="#EBEAED"/>
<stop offset="0.9999" stop-color="white"/>
<stop offset="1" stop-color="#EBEAED"/>
</linearGradient>
<clipPath id="clip0">
<rect x="8" y="8" width="20" height="21" fill="white"/>
</clipPath>
</defs>
</svg>
