<svg width="42" height="42" viewBox="0 0 42 42" fill="none" xmlns="http://www.w3.org/2000/svg">
<rect width="42" height="42" rx="21" fill="#FF495C"/>
<path d="M30.1137 30C28.2821 30 26.5768 28.9895 25.2505 27.1579C24.9979 26.8421 24.6189 26.6526 24.24 26.6526H17.2926C16.9137 26.6526 16.5347 26.8421 16.2821 27.1579C14.9558 28.9895 13.2505 30 11.4189 30C11.1032 30 10.7874 29.9368 10.4716 29.8737C8.82947 29.4947 7.50316 28.2316 6.68211 26.2105C5.92421 24.3158 5.79789 21.9789 6.30316 19.6421C7.25053 15.2842 10.2189 12 13.3137 12C13.6295 12 13.9453 12 14.1979 12.0632C15.1453 12.2526 16.0295 12.8211 16.7874 13.6421C16.9768 13.8947 17.2926 14.0211 17.5453 14.0842L19.5663 14.3368C20.4505 14.4632 21.3347 14.4632 22.2189 14.3368L23.9874 14.0842C24.3032 14.0211 24.5558 13.8947 24.7453 13.6421C25.44 12.8211 26.3874 12.2526 27.3347 12.0632C27.6505 12 27.9032 12 28.2189 12C31.3137 12 34.2821 15.2211 35.2295 19.6421C36.24 24.5684 34.4084 29.1158 31.0611 29.8105C30.8084 29.9368 30.4295 30 30.1137 30ZM17.2926 25.3263H24.24C25.0611 25.3263 25.8189 25.7053 26.2611 26.4C27.3347 27.9158 28.7242 28.7368 30.1137 28.7368C30.3663 28.7368 30.6189 28.7368 30.8084 28.6737C33.3979 28.1053 34.8505 24.1263 33.9663 19.9579C33.1453 16.1684 30.6821 13.2632 28.2189 13.2632C28.0295 13.2632 27.7768 13.2632 27.5874 13.3263C26.8926 13.4526 26.2611 13.8947 25.6926 14.5263C25.3137 15.0316 24.7453 15.2842 24.1137 15.4105L22.3453 15.6632C21.3347 15.7895 20.3242 15.7895 19.3768 15.6632L17.3558 15.4105C16.7242 15.3474 16.2189 15.0316 15.7768 14.5263C15.2084 13.8947 14.5768 13.5158 13.8821 13.3895C13.6926 13.3263 13.44 13.3263 13.2505 13.3263C10.7874 13.3263 8.32421 16.1684 7.50316 20.0211C7.06105 22.1053 7.18737 24.1895 7.81895 25.8316C8.45053 27.4105 9.46105 28.4211 10.6611 28.6737C12.24 28.9895 13.9453 28.1684 15.2084 26.4C15.7768 25.7053 16.5347 25.3263 17.2926 25.3263Z" fill="white"/>
<path d="M12.0504 23.0526C11.6715 23.0526 11.4188 22.8 11.4188 22.4211V18.6316C11.4188 18.2526 11.6715 18 12.0504 18C12.4293 18 12.682 18.2526 12.682 18.6316V22.4211C12.682 22.8 12.4293 23.0526 12.0504 23.0526Z" fill="white"/>
<path d="M13.9452 21.1579H10.1557C9.7768 21.1579 9.52417 20.9053 9.52417 20.5263C9.52417 20.1474 9.7768 19.8947 10.1557 19.8947H13.9452C14.3242 19.8947 14.5768 20.1474 14.5768 20.5263C14.5768 20.9053 14.3242 21.1579 13.9452 21.1579Z" fill="white"/>
<path d="M27.5241 19.2632C26.6399 19.2632 25.9452 18.5684 25.9452 17.6842C25.9452 16.8 26.6399 16.1053 27.5241 16.1053C28.4083 16.1053 29.1031 16.8 29.1031 17.6842C29.1031 18.5684 28.4083 19.2632 27.5241 19.2632ZM27.5241 17.3684C27.3347 17.3684 27.2083 17.4947 27.2083 17.6842C27.2083 17.8737 27.3347 18 27.5241 18C27.7136 18 27.8399 17.8737 27.8399 17.6842C27.8399 17.4947 27.7136 17.3684 27.5241 17.3684Z" fill="white"/>
<path d="M29.1031 25.5789C27.7136 25.5789 26.5768 24.4421 26.5768 23.0526C26.5768 21.6631 27.7136 20.5263 29.1031 20.5263C30.4926 20.5263 31.6294 21.6631 31.6294 23.0526C31.6294 24.4421 30.4926 25.5789 29.1031 25.5789ZM29.1031 21.7895C28.4084 21.7895 27.8399 22.3579 27.8399 23.0526C27.8399 23.7474 28.4084 24.3158 29.1031 24.3158C29.7978 24.3158 30.3663 23.7474 30.3663 23.0526C30.3663 22.3579 29.7978 21.7895 29.1031 21.7895Z" fill="white"/>
</svg>
