<svg width="29" height="29" viewBox="0 0 29 29" fill="none" xmlns="http://www.w3.org/2000/svg">
<path d="M14.5 28.3958C14.3713 28.3958 14.242 28.3548 14.1345 28.2726C13.7049 27.9457 3.625 20.1816 3.625 12.0833C3.625 6.08699 8.50365 1.20834 14.5 1.20834C20.4964 1.20834 25.375 6.08699 25.375 12.0833C25.375 20.1435 15.2957 27.9433 14.8667 28.2714C14.7586 28.3548 14.6293 28.3958 14.5 28.3958ZM14.5 2.41668C9.17004 2.41668 4.83333 6.75339 4.83333 12.0833C4.83333 18.7527 12.6911 25.5448 14.4994 27.0183C16.3059 25.5393 24.1667 18.7213 24.1667 12.0833C24.1667 6.75339 19.83 2.41668 14.5 2.41668Z" fill="#2F80ED"/>
<path d="M18.0156 17.5347C17.8905 17.5347 17.7661 17.4961 17.6603 17.4193L14.5 15.1193L11.3402 17.4133C11.1281 17.568 10.8417 17.5668 10.6297 17.4133C10.4176 17.2598 10.3294 16.9862 10.411 16.7372L11.6169 13.0403L8.45828 10.7608C8.24562 10.6074 8.1562 10.3343 8.23716 10.0848C8.31751 9.83585 8.54951 9.66668 8.81172 9.66668H12.7183L13.9254 5.95166C14.0063 5.70214 14.2383 5.53418 14.5 5.53418C14.7616 5.53418 14.9936 5.70274 15.0745 5.95166L16.2816 9.66668H20.1882C20.4504 9.66668 20.6824 9.83585 20.7633 10.0848C20.8437 10.3343 20.7543 10.6074 20.5416 10.7608L17.3836 13.0391L18.5902 16.7433C18.6711 16.9922 18.5829 17.2653 18.3708 17.4193C18.2645 17.4967 18.1401 17.5347 18.0156 17.5347ZM14.5 13.7684C14.625 13.7684 14.7495 13.807 14.8552 13.8838L16.8635 15.3452L16.098 12.9938C16.0164 12.7443 16.1058 12.4706 16.3191 12.3166L18.3183 10.875H15.843C15.5814 10.875 15.3494 10.7065 15.2685 10.4575L14.5 8.09343L13.7321 10.4581C13.6511 10.7065 13.4185 10.875 13.1569 10.875H10.681L12.6808 12.3184C12.8941 12.4724 12.9829 12.7461 12.9013 12.9956L12.1358 15.3416L14.1447 13.8832C14.251 13.8064 14.3755 13.7684 14.5 13.7684Z" fill="#2F80ED"/>
</svg>
