<svg width="29" height="29" viewBox="0 0 29 29" fill="none" xmlns="http://www.w3.org/2000/svg">
<path d="M25.9791 27.7917H21.75C21.4159 27.7917 21.1458 27.521 21.1458 27.1875C21.1458 26.854 21.4159 26.5833 21.75 26.5833H25.9791C26.3126 26.5833 26.5833 26.3121 26.5833 25.9792V21.75C26.5833 21.4165 26.8534 21.1458 27.1875 21.1458C27.5216 21.1458 27.7916 21.4165 27.7916 21.75V25.9792C27.7916 26.9785 26.9784 27.7917 25.9791 27.7917Z" fill="#2F80ED"/>
<path d="M27.1875 7.85418C26.8534 7.85418 26.5833 7.58351 26.5833 7.25001V3.02084C26.5833 2.68795 26.3126 2.41668 25.9791 2.41668H21.75C21.4159 2.41668 21.1458 2.14601 21.1458 1.81251C21.1458 1.47901 21.4159 1.20834 21.75 1.20834H25.9791C26.9784 1.20834 27.7916 2.02155 27.7916 3.02084V7.25001C27.7916 7.58351 27.5216 7.85418 27.1875 7.85418Z" fill="#2F80ED"/>
<path d="M1.81248 7.85418C1.47838 7.85418 1.20831 7.58351 1.20831 7.25001V3.02084C1.20831 2.02155 2.02152 1.20834 3.02081 1.20834H7.24998C7.58408 1.20834 7.85415 1.47901 7.85415 1.81251C7.85415 2.14601 7.58408 2.41668 7.24998 2.41668H3.02081C2.68731 2.41668 2.41665 2.68795 2.41665 3.02084V7.25001C2.41665 7.58351 2.14658 7.85418 1.81248 7.85418Z" fill="#2F80ED"/>
<path d="M7.24998 27.7917H3.02081C2.02152 27.7917 1.20831 26.9785 1.20831 25.9792V21.75C1.20831 21.4165 1.47838 21.1458 1.81248 21.1458C2.14658 21.1458 2.41665 21.4165 2.41665 21.75V25.9792C2.41665 26.3121 2.68731 26.5833 3.02081 26.5833H7.24998C7.58408 26.5833 7.85415 26.854 7.85415 27.1875C7.85415 27.521 7.58408 27.7917 7.24998 27.7917Z" fill="#2F80ED"/>
<path d="M6.96553 6.17242H6.17242V6.96553H6.96553V6.17242Z" fill="#2F80ED"/>
<path d="M6.96553 6.96552H6.17242V7.75862H6.96553V6.96552Z" fill="#2F80ED"/>
<path d="M6.96553 7.75864H6.17242V8.55174H6.96553V7.75864Z" fill="#2F80ED"/>
<path d="M6.96553 8.55173H6.17242V9.34483H6.96553V8.55173Z" fill="#2F80ED"/>
<path d="M6.96553 9.34485H6.17242V10.138H6.96553V9.34485Z" fill="#2F80ED"/>
<path d="M6.96553 10.1379H6.17242V10.931H6.96553V10.1379Z" fill="#2F80ED"/>
<path d="M6.96553 10.9311H6.17242V11.7242H6.96553V10.9311Z" fill="#2F80ED"/>
<path d="M6.96553 12.5173H6.17242V13.3104H6.96553V12.5173Z" fill="#2F80ED"/>
<path d="M6.96553 13.3104H6.17242V14.1035H6.96553V13.3104Z" fill="#2F80ED"/>
<path d="M6.96553 14.1035H6.17242V14.8966H6.96553V14.1035Z" fill="#2F80ED"/>
<path d="M6.96553 15.6897H6.17242V16.4828H6.96553V15.6897Z" fill="#2F80ED"/>
<path d="M6.96553 17.2759H6.17242V18.069H6.96553V17.2759Z" fill="#2F80ED"/>
<path d="M6.96553 18.069H6.17242V18.8621H6.96553V18.069Z" fill="#2F80ED"/>
<path d="M6.96553 18.8621H6.17242V19.6552H6.96553V18.8621Z" fill="#2F80ED"/>
<path d="M6.96553 19.6552H6.17242V20.4483H6.96553V19.6552Z" fill="#2F80ED"/>
<path d="M6.96553 20.4483H6.17242V21.2414H6.96553V20.4483Z" fill="#2F80ED"/>
<path d="M6.96553 21.2414H6.17242V22.0345H6.96553V21.2414Z" fill="#2F80ED"/>
<path d="M6.96553 22.0345H6.17242V22.8276H6.96553V22.0345Z" fill="#2F80ED"/>
<path d="M7.75862 6.17242H6.96552V6.96553H7.75862V6.17242Z" fill="#2F80ED"/>
<path d="M7.75862 10.9311H6.96552V11.7242H7.75862V10.9311Z" fill="#2F80ED"/>
<path d="M7.75862 12.5173H6.96552V13.3104H7.75862V12.5173Z" fill="#2F80ED"/>
<path d="M7.75862 13.3104H6.96552V14.1035H7.75862V13.3104Z" fill="#2F80ED"/>
<path d="M7.75862 14.1035H6.96552V14.8966H7.75862V14.1035Z" fill="#2F80ED"/>
<path d="M7.75862 14.8965H6.96552V15.6896H7.75862V14.8965Z" fill="#2F80ED"/>
<path d="M7.75862 17.2759H6.96552V18.069H7.75862V17.2759Z" fill="#2F80ED"/>
<path d="M7.75862 22.0345H6.96552V22.8276H7.75862V22.0345Z" fill="#2F80ED"/>
<path d="M8.55171 6.17242H7.75861V6.96553H8.55171V6.17242Z" fill="#2F80ED"/>
<path d="M8.55171 7.75864H7.75861V8.55174H8.55171V7.75864Z" fill="#2F80ED"/>
<path d="M8.55171 8.55173H7.75861V9.34483H8.55171V8.55173Z" fill="#2F80ED"/>
<path d="M8.55171 9.34485H7.75861V10.138H8.55171V9.34485Z" fill="#2F80ED"/>
<path d="M8.55171 10.9311H7.75861V11.7242H8.55171V10.9311Z" fill="#2F80ED"/>
<path d="M8.55171 14.1035H7.75861V14.8966H8.55171V14.1035Z" fill="#2F80ED"/>
<path d="M8.55171 14.8965H7.75861V15.6896H8.55171V14.8965Z" fill="#2F80ED"/>
<path d="M8.55171 15.6897H7.75861V16.4828H8.55171V15.6897Z" fill="#2F80ED"/>
<path d="M8.55171 17.2759H7.75861V18.069H8.55171V17.2759Z" fill="#2F80ED"/>
<path d="M8.55171 18.8621H7.75861V19.6552H8.55171V18.8621Z" fill="#2F80ED"/>
<path d="M8.55171 19.6552H7.75861V20.4483H8.55171V19.6552Z" fill="#2F80ED"/>
<path d="M8.55171 20.4483H7.75861V21.2414H8.55171V20.4483Z" fill="#2F80ED"/>
<path d="M8.55171 22.0345H7.75861V22.8276H8.55171V22.0345Z" fill="#2F80ED"/>
<path d="M9.3448 6.17242H8.5517V6.96553H9.3448V6.17242Z" fill="#2F80ED"/>
<path d="M9.3448 7.75864H8.5517V8.55174H9.3448V7.75864Z" fill="#2F80ED"/>
<path d="M9.3448 8.55173H8.5517V9.34483H9.3448V8.55173Z" fill="#2F80ED"/>
<path d="M9.3448 9.34485H8.5517V10.138H9.3448V9.34485Z" fill="#2F80ED"/>
<path d="M9.3448 10.9311H8.5517V11.7242H9.3448V10.9311Z" fill="#2F80ED"/>
<path d="M9.3448 12.5173H8.5517V13.3104H9.3448V12.5173Z" fill="#2F80ED"/>
<path d="M9.3448 13.3104H8.5517V14.1035H9.3448V13.3104Z" fill="#2F80ED"/>
<path d="M9.3448 14.8965H8.5517V15.6896H9.3448V14.8965Z" fill="#2F80ED"/>
<path d="M9.3448 15.6897H8.5517V16.4828H9.3448V15.6897Z" fill="#2F80ED"/>
<path d="M9.3448 17.2759H8.5517V18.069H9.3448V17.2759Z" fill="#2F80ED"/>
<path d="M9.3448 18.8621H8.5517V19.6552H9.3448V18.8621Z" fill="#2F80ED"/>
<path d="M9.3448 19.6552H8.5517V20.4483H9.3448V19.6552Z" fill="#2F80ED"/>
<path d="M9.3448 20.4483H8.5517V21.2414H9.3448V20.4483Z" fill="#2F80ED"/>
<path d="M9.3448 22.0345H8.5517V22.8276H9.3448V22.0345Z" fill="#2F80ED"/>
<path d="M10.138 6.17242H9.34485V6.96553H10.138V6.17242Z" fill="#2F80ED"/>
<path d="M10.138 7.75864H9.34485V8.55174H10.138V7.75864Z" fill="#2F80ED"/>
<path d="M10.138 8.55173H9.34485V9.34483H10.138V8.55173Z" fill="#2F80ED"/>
<path d="M10.138 9.34485H9.34485V10.138H10.138V9.34485Z" fill="#2F80ED"/>
<path d="M10.138 10.9311H9.34485V11.7242H10.138V10.9311Z" fill="#2F80ED"/>
<path d="M10.138 13.3104H9.34485V14.1035H10.138V13.3104Z" fill="#2F80ED"/>
<path d="M10.138 17.2759H9.34485V18.069H10.138V17.2759Z" fill="#2F80ED"/>
<path d="M10.138 18.8621H9.34485V19.6552H10.138V18.8621Z" fill="#2F80ED"/>
<path d="M10.138 19.6552H9.34485V20.4483H10.138V19.6552Z" fill="#2F80ED"/>
<path d="M10.138 20.4483H9.34485V21.2414H10.138V20.4483Z" fill="#2F80ED"/>
<path d="M10.138 22.0345H9.34485V22.8276H10.138V22.0345Z" fill="#2F80ED"/>
<path d="M10.931 6.17242H10.1379V6.96553H10.931V6.17242Z" fill="#2F80ED"/>
<path d="M10.931 10.9311H10.1379V11.7242H10.931V10.9311Z" fill="#2F80ED"/>
<path d="M10.931 14.8965H10.1379V15.6896H10.931V14.8965Z" fill="#2F80ED"/>
<path d="M10.931 17.2759H10.1379V18.069H10.931V17.2759Z" fill="#2F80ED"/>
<path d="M10.931 22.0345H10.1379V22.8276H10.931V22.0345Z" fill="#2F80ED"/>
<path d="M11.7241 6.17242H10.931V6.96553H11.7241V6.17242Z" fill="#2F80ED"/>
<path d="M11.7241 6.96552H10.931V7.75862H11.7241V6.96552Z" fill="#2F80ED"/>
<path d="M11.7241 7.75864H10.931V8.55174H11.7241V7.75864Z" fill="#2F80ED"/>
<path d="M11.7241 8.55173H10.931V9.34483H11.7241V8.55173Z" fill="#2F80ED"/>
<path d="M11.7241 9.34485H10.931V10.138H11.7241V9.34485Z" fill="#2F80ED"/>
<path d="M11.7241 10.1379H10.931V10.931H11.7241V10.1379Z" fill="#2F80ED"/>
<path d="M11.7241 10.9311H10.931V11.7242H11.7241V10.9311Z" fill="#2F80ED"/>
<path d="M11.7241 12.5173H10.931V13.3104H11.7241V12.5173Z" fill="#2F80ED"/>
<path d="M11.7241 14.1035H10.931V14.8966H11.7241V14.1035Z" fill="#2F80ED"/>
<path d="M11.7241 15.6897H10.931V16.4828H11.7241V15.6897Z" fill="#2F80ED"/>
<path d="M11.7241 17.2759H10.931V18.069H11.7241V17.2759Z" fill="#2F80ED"/>
<path d="M11.7241 18.069H10.931V18.8621H11.7241V18.069Z" fill="#2F80ED"/>
<path d="M11.7241 18.8621H10.931V19.6552H11.7241V18.8621Z" fill="#2F80ED"/>
<path d="M11.7241 19.6552H10.931V20.4483H11.7241V19.6552Z" fill="#2F80ED"/>
<path d="M11.7241 20.4483H10.931V21.2414H11.7241V20.4483Z" fill="#2F80ED"/>
<path d="M11.7241 21.2414H10.931V22.0345H11.7241V21.2414Z" fill="#2F80ED"/>
<path d="M11.7241 22.0345H10.931V22.8276H11.7241V22.0345Z" fill="#2F80ED"/>
<path d="M12.5172 12.5173H11.7241V13.3104H12.5172V12.5173Z" fill="#2F80ED"/>
<path d="M12.5172 14.1035H11.7241V14.8966H12.5172V14.1035Z" fill="#2F80ED"/>
<path d="M13.3104 6.96552H12.5173V7.75862H13.3104V6.96552Z" fill="#2F80ED"/>
<path d="M13.3104 7.75864H12.5173V8.55174H13.3104V7.75864Z" fill="#2F80ED"/>
<path d="M13.3104 9.34485H12.5173V10.138H13.3104V9.34485Z" fill="#2F80ED"/>
<path d="M13.3104 10.1379H12.5173V10.931H13.3104V10.1379Z" fill="#2F80ED"/>
<path d="M13.3104 10.9311H12.5173V11.7242H13.3104V10.9311Z" fill="#2F80ED"/>
<path d="M13.3104 11.7242H12.5173V12.5173H13.3104V11.7242Z" fill="#2F80ED"/>
<path d="M13.3104 13.3104H12.5173V14.1035H13.3104V13.3104Z" fill="#2F80ED"/>
<path d="M13.3104 16.4828H12.5173V17.2759H13.3104V16.4828Z" fill="#2F80ED"/>
<path d="M13.3104 17.2759H12.5173V18.069H13.3104V17.2759Z" fill="#2F80ED"/>
<path d="M13.3104 19.6552H12.5173V20.4483H13.3104V19.6552Z" fill="#2F80ED"/>
<path d="M13.3104 21.2414H12.5173V22.0345H13.3104V21.2414Z" fill="#2F80ED"/>
<path d="M13.3104 22.0345H12.5173V22.8276H13.3104V22.0345Z" fill="#2F80ED"/>
<path d="M14.1035 6.17242H13.3104V6.96553H14.1035V6.17242Z" fill="#2F80ED"/>
<path d="M14.1035 6.96552H13.3104V7.75862H14.1035V6.96552Z" fill="#2F80ED"/>
<path d="M14.1035 7.75864H13.3104V8.55174H14.1035V7.75864Z" fill="#2F80ED"/>
<path d="M14.1035 8.55173H13.3104V9.34483H14.1035V8.55173Z" fill="#2F80ED"/>
<path d="M14.1035 11.7242H13.3104V12.5173H14.1035V11.7242Z" fill="#2F80ED"/>
<path d="M14.1035 12.5173H13.3104V13.3104H14.1035V12.5173Z" fill="#2F80ED"/>
<path d="M14.1035 14.1035H13.3104V14.8966H14.1035V14.1035Z" fill="#2F80ED"/>
<path d="M14.1035 14.8965H13.3104V15.6896H14.1035V14.8965Z" fill="#2F80ED"/>
<path d="M14.1035 16.4828H13.3104V17.2759H14.1035V16.4828Z" fill="#2F80ED"/>
<path d="M14.1035 18.069H13.3104V18.8621H14.1035V18.069Z" fill="#2F80ED"/>
<path d="M14.1035 20.4483H13.3104V21.2414H14.1035V20.4483Z" fill="#2F80ED"/>
<path d="M14.8966 10.9311H14.1035V11.7242H14.8966V10.9311Z" fill="#2F80ED"/>
<path d="M14.8966 11.7242H14.1035V12.5173H14.8966V11.7242Z" fill="#2F80ED"/>
<path d="M14.8966 12.5173H14.1035V13.3104H14.8966V12.5173Z" fill="#2F80ED"/>
<path d="M14.8966 13.3104H14.1035V14.1035H14.8966V13.3104Z" fill="#2F80ED"/>
<path d="M14.8966 15.6897H14.1035V16.4828H14.8966V15.6897Z" fill="#2F80ED"/>
<path d="M14.8966 16.4828H14.1035V17.2759H14.8966V16.4828Z" fill="#2F80ED"/>
<path d="M14.8966 17.2759H14.1035V18.069H14.8966V17.2759Z" fill="#2F80ED"/>
<path d="M14.8966 18.069H14.1035V18.8621H14.8966V18.069Z" fill="#2F80ED"/>
<path d="M14.8966 19.6552H14.1035V20.4483H14.8966V19.6552Z" fill="#2F80ED"/>
<path d="M14.8966 20.4483H14.1035V21.2414H14.8966V20.4483Z" fill="#2F80ED"/>
<path d="M14.8966 22.0345H14.1035V22.8276H14.8966V22.0345Z" fill="#2F80ED"/>
<path d="M15.6896 6.17242H14.8965V6.96553H15.6896V6.17242Z" fill="#2F80ED"/>
<path d="M15.6896 6.96552H14.8965V7.75862H15.6896V6.96552Z" fill="#2F80ED"/>
<path d="M15.6896 8.55173H14.8965V9.34483H15.6896V8.55173Z" fill="#2F80ED"/>
<path d="M15.6896 10.1379H14.8965V10.931H15.6896V10.1379Z" fill="#2F80ED"/>
<path d="M15.6896 11.7242H14.8965V12.5173H15.6896V11.7242Z" fill="#2F80ED"/>
<path d="M15.6896 14.8965H14.8965V15.6896H15.6896V14.8965Z" fill="#2F80ED"/>
<path d="M15.6896 16.4828H14.8965V17.2759H15.6896V16.4828Z" fill="#2F80ED"/>
<path d="M15.6896 18.069H14.8965V18.8621H15.6896V18.069Z" fill="#2F80ED"/>
<path d="M15.6896 18.8621H14.8965V19.6552H15.6896V18.8621Z" fill="#2F80ED"/>
<path d="M15.6896 19.6552H14.8965V20.4483H15.6896V19.6552Z" fill="#2F80ED"/>
<path d="M15.6896 22.0345H14.8965V22.8276H15.6896V22.0345Z" fill="#2F80ED"/>
<path d="M16.4828 6.17242H15.6897V6.96553H16.4828V6.17242Z" fill="#2F80ED"/>
<path d="M16.4828 7.75864H15.6897V8.55174H16.4828V7.75864Z" fill="#2F80ED"/>
<path d="M16.4828 9.34485H15.6897V10.138H16.4828V9.34485Z" fill="#2F80ED"/>
<path d="M16.4828 10.1379H15.6897V10.931H16.4828V10.1379Z" fill="#2F80ED"/>
<path d="M16.4828 10.9311H15.6897V11.7242H16.4828V10.9311Z" fill="#2F80ED"/>
<path d="M16.4828 11.7242H15.6897V12.5173H16.4828V11.7242Z" fill="#2F80ED"/>
<path d="M16.4828 14.1035H15.6897V14.8966H16.4828V14.1035Z" fill="#2F80ED"/>
<path d="M16.4828 15.6897H15.6897V16.4828H16.4828V15.6897Z" fill="#2F80ED"/>
<path d="M16.4828 18.069H15.6897V18.8621H16.4828V18.069Z" fill="#2F80ED"/>
<path d="M16.4828 20.4483H15.6897V21.2414H16.4828V20.4483Z" fill="#2F80ED"/>
<path d="M16.4828 22.0345H15.6897V22.8276H16.4828V22.0345Z" fill="#2F80ED"/>
<path d="M17.2759 14.1035H16.4828V14.8966H17.2759V14.1035Z" fill="#2F80ED"/>
<path d="M17.2759 17.2759H16.4828V18.069H17.2759V17.2759Z" fill="#2F80ED"/>
<path d="M17.2759 18.069H16.4828V18.8621H17.2759V18.069Z" fill="#2F80ED"/>
<path d="M17.2759 21.2414H16.4828V22.0345H17.2759V21.2414Z" fill="#2F80ED"/>
<path d="M18.069 6.17242H17.2759V6.96553H18.069V6.17242Z" fill="#2F80ED"/>
<path d="M18.069 6.96552H17.2759V7.75862H18.069V6.96552Z" fill="#2F80ED"/>
<path d="M18.069 7.75864H17.2759V8.55174H18.069V7.75864Z" fill="#2F80ED"/>
<path d="M18.069 8.55173H17.2759V9.34483H18.069V8.55173Z" fill="#2F80ED"/>
<path d="M18.069 9.34485H17.2759V10.138H18.069V9.34485Z" fill="#2F80ED"/>
<path d="M18.069 10.1379H17.2759V10.931H18.069V10.1379Z" fill="#2F80ED"/>
<path d="M18.069 10.9311H17.2759V11.7242H18.069V10.9311Z" fill="#2F80ED"/>
<path d="M18.069 12.5173H17.2759V13.3104H18.069V12.5173Z" fill="#2F80ED"/>
<path d="M18.069 13.3104H17.2759V14.1035H18.069V13.3104Z" fill="#2F80ED"/>
<path d="M18.069 15.6897H17.2759V16.4828H18.069V15.6897Z" fill="#2F80ED"/>
<path d="M18.069 18.8621H17.2759V19.6552H18.069V18.8621Z" fill="#2F80ED"/>
<path d="M18.069 21.2414H17.2759V22.0345H18.069V21.2414Z" fill="#2F80ED"/>
<path d="M18.8621 6.17242H18.069V6.96553H18.8621V6.17242Z" fill="#2F80ED"/>
<path d="M18.8621 10.9311H18.069V11.7242H18.8621V10.9311Z" fill="#2F80ED"/>
<path d="M18.8621 12.5173H18.069V13.3104H18.8621V12.5173Z" fill="#2F80ED"/>
<path d="M18.8621 16.4828H18.069V17.2759H18.8621V16.4828Z" fill="#2F80ED"/>
<path d="M18.8621 17.2759H18.069V18.069H18.8621V17.2759Z" fill="#2F80ED"/>
<path d="M18.8621 18.069H18.069V18.8621H18.8621V18.069Z" fill="#2F80ED"/>
<path d="M18.8621 18.8621H18.069V19.6552H18.8621V18.8621Z" fill="#2F80ED"/>
<path d="M18.8621 19.6552H18.069V20.4483H18.8621V19.6552Z" fill="#2F80ED"/>
<path d="M18.8621 21.2414H18.069V22.0345H18.8621V21.2414Z" fill="#2F80ED"/>
<path d="M18.8621 22.0345H18.069V22.8276H18.8621V22.0345Z" fill="#2F80ED"/>
<path d="M19.6552 6.17242H18.8621V6.96553H19.6552V6.17242Z" fill="#2F80ED"/>
<path d="M19.6552 7.75864H18.8621V8.55174H19.6552V7.75864Z" fill="#2F80ED"/>
<path d="M19.6552 8.55173H18.8621V9.34483H19.6552V8.55173Z" fill="#2F80ED"/>
<path d="M19.6552 9.34485H18.8621V10.138H19.6552V9.34485Z" fill="#2F80ED"/>
<path d="M19.6552 10.9311H18.8621V11.7242H19.6552V10.9311Z" fill="#2F80ED"/>
<path d="M19.6552 12.5173H18.8621V13.3104H19.6552V12.5173Z" fill="#2F80ED"/>
<path d="M19.6552 15.6897H18.8621V16.4828H19.6552V15.6897Z" fill="#2F80ED"/>
<path d="M19.6552 16.4828H18.8621V17.2759H19.6552V16.4828Z" fill="#2F80ED"/>
<path d="M19.6552 18.069H18.8621V18.8621H19.6552V18.069Z" fill="#2F80ED"/>
<path d="M19.6552 18.8621H18.8621V19.6552H19.6552V18.8621Z" fill="#2F80ED"/>
<path d="M19.6552 20.4483H18.8621V21.2414H19.6552V20.4483Z" fill="#2F80ED"/>
<path d="M20.4483 6.17242H19.6552V6.96553H20.4483V6.17242Z" fill="#2F80ED"/>
<path d="M20.4483 7.75864H19.6552V8.55174H20.4483V7.75864Z" fill="#2F80ED"/>
<path d="M20.4483 8.55173H19.6552V9.34483H20.4483V8.55173Z" fill="#2F80ED"/>
<path d="M20.4483 9.34485H19.6552V10.138H20.4483V9.34485Z" fill="#2F80ED"/>
<path d="M20.4483 10.9311H19.6552V11.7242H20.4483V10.9311Z" fill="#2F80ED"/>
<path d="M20.4483 13.3104H19.6552V14.1035H20.4483V13.3104Z" fill="#2F80ED"/>
<path d="M20.4483 14.8965H19.6552V15.6896H20.4483V14.8965Z" fill="#2F80ED"/>
<path d="M20.4483 16.4828H19.6552V17.2759H20.4483V16.4828Z" fill="#2F80ED"/>
<path d="M20.4483 17.2759H19.6552V18.069H20.4483V17.2759Z" fill="#2F80ED"/>
<path d="M20.4483 20.4483H19.6552V21.2414H20.4483V20.4483Z" fill="#2F80ED"/>
<path d="M20.4483 22.0345H19.6552V22.8276H20.4483V22.0345Z" fill="#2F80ED"/>
<path d="M21.2414 6.17242H20.4483V6.96553H21.2414V6.17242Z" fill="#2F80ED"/>
<path d="M21.2414 7.75864H20.4483V8.55174H21.2414V7.75864Z" fill="#2F80ED"/>
<path d="M21.2414 8.55173H20.4483V9.34483H21.2414V8.55173Z" fill="#2F80ED"/>
<path d="M21.2414 9.34485H20.4483V10.138H21.2414V9.34485Z" fill="#2F80ED"/>
<path d="M21.2414 10.9311H20.4483V11.7242H21.2414V10.9311Z" fill="#2F80ED"/>
<path d="M21.2414 12.5173H20.4483V13.3104H21.2414V12.5173Z" fill="#2F80ED"/>
<path d="M21.2414 20.4483H20.4483V21.2414H21.2414V20.4483Z" fill="#2F80ED"/>
<path d="M22.0345 6.17242H21.2414V6.96553H22.0345V6.17242Z" fill="#2F80ED"/>
<path d="M22.0345 10.9311H21.2414V11.7242H22.0345V10.9311Z" fill="#2F80ED"/>
<path d="M22.0345 12.5173H21.2414V13.3104H22.0345V12.5173Z" fill="#2F80ED"/>
<path d="M22.0345 15.6897H21.2414V16.4828H22.0345V15.6897Z" fill="#2F80ED"/>
<path d="M22.0345 16.4828H21.2414V17.2759H22.0345V16.4828Z" fill="#2F80ED"/>
<path d="M22.0345 17.2759H21.2414V18.069H22.0345V17.2759Z" fill="#2F80ED"/>
<path d="M22.0345 19.6552H21.2414V20.4483H22.0345V19.6552Z" fill="#2F80ED"/>
<path d="M22.0345 22.0345H21.2414V22.8276H22.0345V22.0345Z" fill="#2F80ED"/>
<path d="M22.8277 6.17242H22.0345V6.96553H22.8277V6.17242Z" fill="#2F80ED"/>
<path d="M22.8277 6.96552H22.0345V7.75862H22.8277V6.96552Z" fill="#2F80ED"/>
<path d="M22.8277 7.75864H22.0345V8.55174H22.8277V7.75864Z" fill="#2F80ED"/>
<path d="M22.8277 8.55173H22.0345V9.34483H22.8277V8.55173Z" fill="#2F80ED"/>
<path d="M22.8277 9.34485H22.0345V10.138H22.8277V9.34485Z" fill="#2F80ED"/>
<path d="M22.8277 10.1379H22.0345V10.931H22.8277V10.1379Z" fill="#2F80ED"/>
<path d="M22.8277 10.9311H22.0345V11.7242H22.8277V10.9311Z" fill="#2F80ED"/>
<path d="M22.8277 13.3104H22.0345V14.1035H22.8277V13.3104Z" fill="#2F80ED"/>
<path d="M22.8277 14.1035H22.0345V14.8966H22.8277V14.1035Z" fill="#2F80ED"/>
<path d="M22.8277 14.8965H22.0345V15.6896H22.8277V14.8965Z" fill="#2F80ED"/>
<path d="M22.8277 15.6897H22.0345V16.4828H22.8277V15.6897Z" fill="#2F80ED"/>
<path d="M22.8277 16.4828H22.0345V17.2759H22.8277V16.4828Z" fill="#2F80ED"/>
<path d="M22.8277 18.8621H22.0345V19.6552H22.8277V18.8621Z" fill="#2F80ED"/>
<path d="M22.8277 19.6552H22.0345V20.4483H22.8277V19.6552Z" fill="#2F80ED"/>
<path d="M22.8277 20.4483H22.0345V21.2414H22.8277V20.4483Z" fill="#2F80ED"/>
</svg>
