<svg width="293" height="37" viewBox="0 0 293 37" fill="none" xmlns="http://www.w3.org/2000/svg">
<g clip-path="url(#clip0)">
<path d="M50.1994 22.7076C51.0228 23.5631 52.0198 24.237 53.1251 24.6854C54.4706 25.1807 55.8984 25.4217 57.334 25.3959C58.1553 25.3959 58.9234 25.295 59.5538 25.2424C60.1836 25.1619 60.8027 25.0148 61.4007 24.8038C61.9646 24.6504 62.4263 24.396 62.888 24.2469C63.2534 24.0411 63.6298 23.8552 64.0157 23.6899L63.443 22.5015C63.1367 22.655 62.8259 22.8041 62.4663 22.94C62.1317 23.092 61.7894 23.2267 61.4407 23.3435C61.0256 23.4816 60.5945 23.5671 60.1576 23.5979C59.5973 23.6886 59.029 23.7224 58.4617 23.6987C57.4384 23.7364 56.4249 23.4903 55.5359 22.9883C54.7872 22.5276 54.1554 21.9035 53.689 21.1639C53.2488 20.3037 52.9491 19.3801 52.8011 18.4274C52.6331 17.2859 52.5471 16.134 52.5436 14.9805C52.5436 14.0157 52.6457 13.0026 52.6989 11.9896C52.7766 11.0712 53.025 10.1748 53.4315 9.3452C53.7973 8.57213 54.3417 7.89467 55.0209 7.36737C55.8809 6.82923 56.8798 6.54754 57.8978 6.55607C58.9249 6.54278 59.93 6.84969 60.7703 7.43315C61.5916 7.9901 62.0534 8.90227 62.2576 10.1214H63.5407V6.23155C63.1322 6.07806 62.7193 5.92895 62.2576 5.793C61.7745 5.63887 61.2757 5.5374 60.7703 5.49041C60.2065 5.38954 59.7447 5.38954 59.1809 5.33692C58.7369 5.33692 58.2042 5.23605 57.849 5.23605C56.3295 5.21173 54.8176 5.45223 53.3827 5.94649C52.2134 6.37346 51.1675 7.07604 50.3357 7.99318C49.5039 8.91032 48.9115 10.0142 48.61 11.209C48.201 12.6092 48.0108 14.063 48.0461 15.5199C48.0136 16.9104 48.2039 18.2972 48.61 19.629C48.8769 20.7682 49.4227 21.8253 50.1994 22.7076Z" fill="#2F9A41"/>
<path d="M128.067 24.7383C128.987 24.6457 129.878 24.3697 130.687 23.927C131.5 23.4785 132.147 22.7857 132.534 21.9492C133.06 20.8412 133.306 19.624 133.253 18.4014C133.286 17.4694 133.135 16.54 132.809 15.6649C132.496 14.9167 131.982 14.2676 131.322 13.7879C130.492 13.2746 129.567 12.9302 128.6 12.7749C127.264 12.5302 125.905 12.4287 124.547 12.4723H122.851V7.8018C122.829 7.62869 122.845 7.4529 122.898 7.28642C122.95 7.11993 123.039 6.96665 123.157 6.837C123.566 6.68257 124.006 6.62986 124.44 6.68351H126.851C127.468 6.66049 128.087 6.69425 128.698 6.78438C129.106 6.80824 129.498 6.95006 129.826 7.19222C130.148 7.44475 130.396 7.77784 130.545 8.15702C130.779 8.69752 130.968 9.2564 131.109 9.82787H132.103V5.46875H117.452V6.07832C117.554 6.07832 117.608 6.17919 117.861 6.17919C118.118 6.28005 118.273 6.33268 118.305 6.43354C118.41 6.5673 118.497 6.71488 118.562 6.87209C118.562 7.12644 118.664 7.31063 118.664 7.68339V22.6903C118.687 22.9648 118.653 23.2411 118.562 23.5016C118.562 23.756 118.46 23.9051 118.305 23.9402C118.195 24.078 118.036 24.169 117.861 24.1945C117.735 24.26 117.595 24.2946 117.452 24.2954V24.905H124.844C125.921 24.9046 126.997 24.849 128.067 24.7383ZM123.224 23.3175C123.142 23.2489 123.077 23.1634 123.032 23.0672C122.988 22.971 122.965 22.8663 122.966 22.7605C122.966 22.5061 122.864 22.2036 122.864 21.7957V13.6344H124.56C126.047 13.6344 127.179 14.0379 127.845 14.8009C128.511 15.564 128.822 16.827 128.822 18.5549C128.849 19.4767 128.746 20.3977 128.516 21.2914C128.349 21.8765 128.045 22.4144 127.628 22.8614C127.263 23.1418 126.867 23.3802 126.447 23.5718C125.974 23.6729 125.492 23.7243 125.008 23.7253C124.565 23.6244 124.121 23.6244 123.881 23.5718C123.637 23.5713 123.403 23.4805 123.224 23.3175Z" fill="#2F9A41"/>
<path d="M107.125 24.2823C107.023 24.2823 106.969 24.1814 106.716 24.1814C106.459 24.0806 106.304 24.028 106.272 23.9271C106.241 23.8262 106.117 23.6727 106.015 23.4886C106.015 23.2342 105.913 23.05 105.913 22.6772V17.2832H107.915C108.896 17.2783 109.874 17.1932 110.841 17.0288C111.711 16.8924 112.547 16.5948 113.305 16.1517C114.046 15.7057 114.636 15.0525 115.001 14.2748C115.456 13.2542 115.667 12.1437 115.618 11.0295C115.634 10.0054 115.443 8.98841 115.054 8.03868C114.659 7.35777 114.113 6.77443 113.456 6.33275C112.752 5.92428 111.962 5.68121 111.147 5.62231C110.244 5.51785 109.335 5.4666 108.426 5.46882H100.607V6.07839C100.71 6.07839 100.763 6.17926 101.02 6.17926C101.278 6.28012 101.429 6.33275 101.464 6.43361C101.57 6.56728 101.657 6.71487 101.722 6.87216C101.722 7.12651 101.824 7.3107 101.824 7.68346V22.6422C101.848 22.9167 101.813 23.1931 101.722 23.4535C101.722 23.7078 101.62 23.8569 101.464 23.892C101.355 24.0298 101.196 24.1209 101.02 24.1464C100.893 24.2125 100.751 24.2471 100.607 24.2472V24.8042H107.076L107.125 24.2472V24.2823ZM106.046 7.65276C106.034 7.49972 106.07 7.34673 106.148 7.21422C106.152 7.15611 106.168 7.09943 106.195 7.04748C106.222 6.99552 106.259 6.94934 106.304 6.91162C106.426 6.8058 106.585 6.75081 106.748 6.75813C107.005 6.75813 107.191 6.65727 107.635 6.65727C108.117 6.68319 108.598 6.73443 109.074 6.81076C109.512 6.96707 109.913 7.20866 110.255 7.5212C110.592 7.91794 110.869 8.36115 111.076 8.83683C111.25 9.49832 111.337 10.1794 111.334 10.8629C111.334 12.5337 111.076 13.7529 110.614 14.6168C110.153 15.4808 109.283 15.9325 108.048 15.9325H106.046V7.65276Z" fill="#2F9A41"/>
<path d="M98.042 20.4275H96.759C96.6477 21.0437 96.4994 21.6529 96.315 22.2518C96.2288 22.6478 96.0117 23.0042 95.6979 23.2648C95.5477 23.4044 95.3701 23.5122 95.1762 23.5816C94.9823 23.6509 94.7761 23.6805 94.5702 23.6683C93.9075 23.7642 93.2371 23.7979 92.5679 23.7691C91.9504 23.799 91.3314 23.7652 90.721 23.6683C90.3638 23.6279 90.0166 23.5255 89.6954 23.3657C89.5824 23.3044 89.4861 23.2169 89.415 23.1107C89.3438 23.0045 89.2999 22.8828 89.287 22.7561C89.1922 22.3927 89.1578 22.0165 89.1849 21.6422V15.4588H92.5901C92.8964 15.4588 93.2072 15.5596 93.5668 15.5596C93.8955 15.5896 94.2217 15.6409 94.5436 15.7131C94.828 15.783 95.1036 15.8845 95.3649 16.0157V13.4809C95.1177 13.6417 94.8369 13.7451 94.5436 13.7835C93.8988 13.9017 93.2483 13.9866 92.5945 14.0379H89.1538V7.5913C89.1548 7.29234 89.2073 6.99573 89.3092 6.71421C89.4646 6.56072 89.7221 6.56072 90.1305 6.56072H92.2882C92.9057 6.53775 93.524 6.57151 94.1351 6.66158C94.5409 6.6935 94.9305 6.83288 95.2628 7.06505C95.5853 7.31757 95.8336 7.65067 95.982 8.02984C96.2165 8.57191 96.4051 9.13224 96.5459 9.70507H97.5714V5.46875H83.875V6.07832C83.9771 6.07832 84.0304 6.17919 84.2835 6.17919C84.541 6.28005 84.6919 6.33268 84.7274 6.43354C84.8334 6.56721 84.9201 6.71481 84.9849 6.87209C84.9849 7.12644 85.087 7.31063 85.087 7.68339V22.6421C85.1106 22.9166 85.0758 23.1929 84.9849 23.4534C84.9849 23.7078 84.8828 23.8569 84.7274 23.8919C84.6179 24.0298 84.459 24.1208 84.2835 24.1463C84.1575 24.2118 84.0174 24.2464 83.875 24.2472V24.8041H98.042V20.4275Z" fill="#2F9A41"/>
<path d="M76.38 24.7383C77.2997 24.6457 78.1909 24.3697 78.9994 23.927C79.8162 23.467 80.4773 22.779 80.8996 21.9492C81.4259 20.8413 81.6726 19.624 81.6189 18.4014C81.6521 17.4694 81.5013 16.5399 81.1749 15.6649C80.8621 14.9167 80.3477 14.2676 79.6876 13.7879C78.8578 13.2746 77.9325 12.9302 76.9661 12.7749C75.6299 12.5301 74.2709 12.4287 72.9126 12.4723H71.2167V7.8018C71.1949 7.6287 71.211 7.45299 71.2638 7.28655C71.3167 7.12011 71.405 6.96681 71.523 6.837C71.9315 6.68257 72.3721 6.62986 72.8061 6.68351H75.2168C75.8343 6.66051 76.4526 6.69428 77.0637 6.78438C77.4699 6.81759 77.8595 6.95849 78.1914 7.19222C78.5139 7.44475 78.7623 7.77784 78.9107 8.15702C79.1455 8.69743 79.3341 9.25633 79.4745 9.82787H80.5001V5.46875H65.8047V6.07832C65.9068 6.07832 65.9601 6.17919 66.2176 6.17919C66.4751 6.28005 66.626 6.33268 66.6616 6.43354C66.7674 6.5673 66.8541 6.71488 66.919 6.87209C66.919 7.12644 67.0212 7.31063 67.0212 7.68339V22.6421C67.0409 22.9165 67.0062 23.1921 66.919 23.4534C66.919 23.7078 66.8169 23.8569 66.6616 23.8919C66.552 24.0298 66.3931 24.1208 66.2176 24.1463C66.0903 24.2125 65.9486 24.2471 65.8047 24.2472V24.9576H73.1968C74.3866 24.8918 75.35 24.8918 76.38 24.7383ZM71.5541 23.3175C71.4726 23.2489 71.4072 23.1634 71.3628 23.0672C71.3183 22.971 71.2957 22.8663 71.2966 22.7605C71.2966 22.5061 71.1945 22.2036 71.1945 21.7957V13.6344H72.8904C74.3777 13.6344 75.5098 14.0379 76.1758 14.8009C76.8418 15.564 77.1525 16.827 77.1525 18.5549C77.1792 19.4767 77.0761 20.3976 76.8462 21.2914C76.6795 21.8765 76.3753 22.4144 75.9583 22.8614C75.5933 23.1419 75.1971 23.3802 74.7773 23.5718C74.3046 23.673 73.8225 23.7244 73.3388 23.7253C72.8949 23.6244 72.5175 23.6244 72.2112 23.5718C72.0899 23.576 71.969 23.5556 71.8559 23.5119C71.7429 23.4681 71.6402 23.402 71.5541 23.3175Z" fill="#2F9A41"/>
<path d="M192.39 30.4131H47.9443V32.2901H192.39V30.4131Z" fill="#2F9A41"/>
<path d="M180.837 17.59C181.25 18.147 181.556 18.6031 181.965 19.0592C182.271 19.4977 182.684 20.024 182.99 20.48C183.298 20.9769 183.641 21.4517 184.016 21.9009C184.394 22.4004 184.737 22.925 185.042 23.4709C185.348 23.9094 185.605 24.4839 185.863 24.94L192.522 25.0409C191.803 24.3304 191.191 23.62 190.471 22.9096C189.854 22.1991 189.29 21.5939 188.877 21.1861C188.26 20.4756 187.697 19.8705 187.186 19.3091C186.675 18.7478 186.16 18.1426 185.699 17.5857C185.223 17.0359 184.778 16.4606 184.367 15.8622C184.007 15.3052 183.479 14.5948 183.084 13.9852L183.39 13.5818C183.834 12.9722 184.416 12.3144 185.086 11.5557C185.698 10.7496 186.367 9.98751 187.088 9.27526C187.738 8.53178 188.427 7.82325 189.153 7.15271C189.735 6.6235 190.352 6.13274 191 5.68359H186.378C186.17 6.17215 185.929 6.64678 185.659 7.10447C185.334 7.73529 184.957 8.3382 184.531 8.90688C184.123 9.51646 183.643 10.2225 183.248 10.933C182.853 11.6434 182.36 12.2486 181.916 12.9108C181.472 13.573 181.028 14.1782 180.633 14.6343C180.225 15.1912 179.914 15.5991 179.656 15.9499C180.016 16.4718 180.424 17.0331 180.837 17.59Z" fill="#2F9A41"/>
<path d="M180.273 24.2823C180.171 24.2823 180.118 24.1815 179.86 24.1815C179.603 24.0806 179.452 24.028 179.416 23.9271C179.31 23.7935 179.224 23.6459 179.159 23.4886C179.159 23.2342 179.057 23.05 179.057 22.6773V7.76679C179.033 7.49228 179.068 7.21589 179.159 6.95549C179.159 6.70113 179.261 6.55203 179.416 6.51694C179.552 6.41216 179.701 6.32655 179.86 6.26259C179.988 6.19642 180.129 6.1618 180.273 6.16172V5.50391H173.805V6.11348C173.907 6.11348 173.96 6.21435 174.218 6.21435C174.475 6.31521 174.626 6.36784 174.662 6.4687C174.768 6.60227 174.854 6.74989 174.919 6.90725C174.919 7.1616 175.021 7.34579 175.021 7.71855V22.6773C175.045 22.9518 175.01 23.2282 174.919 23.4886C174.919 23.7429 174.817 23.892 174.662 23.9271C174.552 24.0653 174.393 24.1564 174.218 24.1815C174.09 24.2476 173.949 24.2822 173.805 24.2823V24.8393H180.273V24.2823Z" fill="#2F9A41"/>
<path d="M137.43 22.5584C137.688 21.4445 138.15 19.8701 138.762 17.8923H145.075L145.963 20.4271C146.334 21.3485 146.631 22.2972 146.851 23.2644C147.065 23.8181 147.203 24.3979 147.26 24.9879H152.29C152.032 24.5845 151.846 24.0231 151.469 23.4179C151.037 22.529 150.661 21.6152 150.341 20.6814L145.777 7.90228C145.588 7.44457 145.45 6.96823 145.364 6.4814C145.262 6.07794 145.262 5.77096 145.209 5.5166H139.566V6.12618C139.668 6.12618 139.721 6.22704 139.974 6.22704C140.232 6.32791 140.383 6.38053 140.418 6.4814C140.524 6.615 140.611 6.76261 140.676 6.91994V7.3234C140.68 7.75896 140.592 8.19062 140.418 8.59079L137.235 16.296C136.671 17.7169 136.107 18.9843 135.748 19.8964C135.388 20.8086 134.926 21.7208 134.722 22.3303C134.416 22.9399 134.158 23.4969 133.901 23.9003C133.695 24.2281 133.507 24.5662 133.337 24.9134H136.929C137.048 24.1192 137.216 23.3328 137.43 22.5584ZM141.95 8.66534L144.534 16.524H139.104L141.95 8.66534Z" fill="#2F9A41"/>
<path d="M159.788 24.2822H159.629C159.526 24.2822 159.473 24.1814 159.216 24.1814C158.958 24.0805 158.807 24.0279 158.772 23.927C158.666 23.7933 158.579 23.6457 158.514 23.4885C158.514 23.2341 158.412 23.0499 158.412 22.6772V15.2219H166.062V22.6246C166.085 22.8991 166.051 23.1755 165.96 23.4359C165.96 23.6902 165.857 23.8393 165.702 23.8744C165.593 24.0122 165.434 24.1033 165.258 24.1288C165.132 24.1942 164.992 24.2288 164.85 24.2296V24.8392H171.318V24.2296C171.216 24.2296 171.163 24.1288 170.91 24.1288C170.652 24.0279 170.497 23.9753 170.466 23.8744C170.359 23.741 170.273 23.5934 170.208 23.4359C170.208 23.1815 170.106 22.9973 170.106 22.6246V7.5913C170.082 7.31678 170.117 7.04039 170.208 6.77999C170.208 6.52564 170.31 6.37653 170.466 6.34145C170.601 6.23676 170.751 6.15116 170.91 6.08709C171.036 6.02161 171.176 5.98702 171.318 5.98623V5.46875H164.956V6.07832C165.058 6.07832 165.112 6.17919 165.365 6.17919C165.622 6.28005 165.778 6.33268 165.809 6.43354C165.915 6.56721 166.001 6.71481 166.066 6.87209C166.066 7.12644 166.168 7.31063 166.168 7.68339V13.937H158.612V7.65269C158.589 7.37819 158.623 7.10191 158.714 6.84139C158.714 6.58703 158.816 6.43793 158.971 6.40285C159.107 6.29792 159.256 6.2123 159.415 6.14849C159.54 6.07816 159.681 6.04324 159.824 6.04763V5.46875H153.373V6.07832C153.475 6.07832 153.528 6.17919 153.781 6.17919C154.039 6.28005 154.19 6.33268 154.225 6.43354C154.331 6.5673 154.418 6.71488 154.483 6.87209C154.483 7.12644 154.585 7.31063 154.585 7.68339V22.6903C154.605 22.9648 154.57 23.2404 154.483 23.5016C154.483 23.756 154.381 23.9051 154.225 23.9402C154.116 24.078 153.957 24.169 153.781 24.1945C153.655 24.26 153.515 24.2946 153.373 24.2954V24.905H159.842L159.788 24.2472V24.2822Z" fill="#2F9A41"/>
<path d="M34.8025 7.49945C34.3896 6.9425 33.9812 6.38555 33.6216 5.82422L11.5475 18.349L0.892211 12.3147C0.647659 12.9658 0.498171 13.648 0.448242 14.3407L11.6496 20.7478L34.8025 7.49945Z" fill="#2F9A41"/>
<path d="M11.5479 23.0627L0.102387 16.5722C0.0176898 16.9715 -0.0166089 17.3795 0.000274082 17.787C0.000274082 22.7493 1.99593 27.5084 5.54823 31.0173C9.10053 34.5262 13.9185 36.4974 18.9422 36.4974C23.9659 36.4974 28.7839 34.5262 32.3362 31.0173C35.8885 27.5084 37.8841 22.7493 37.8841 17.787C37.9053 14.8264 37.2016 11.9045 35.833 9.27051L11.5479 23.0627Z" fill="#2F9A41"/>
<path d="M32.0812 4.25389C31.5417 3.75093 30.9756 3.27664 30.3852 2.83301L11.5476 13.6343L2.46404 8.51214C2.1577 9.06909 1.84692 9.67866 1.4873 10.3365L11.4455 16.0156L32.0812 4.25389Z" fill="#2F9A41"/>
<path d="M28.5379 1.61781C27.8249 1.19621 27.0832 0.824017 26.318 0.503906L11.5472 8.90639L4.92761 5.21824C4.48364 5.65679 4.03967 6.23128 3.5957 6.78823L11.4983 11.2526L28.5379 1.61781Z" fill="#2F9A41"/>
</g>
<path d="M252.926 13.5977C252.878 17.3437 256.253 19.4343 258.795 20.6771C261.407 21.9524 262.284 22.7702 262.274 23.9105C262.254 25.6559 260.191 26.4261 258.259 26.4561C254.89 26.5086 252.931 25.5434 251.373 24.8132L250.159 30.5122C251.722 31.2349 254.615 31.8651 257.616 31.8926C264.66 31.8926 269.268 28.4042 269.293 22.9952C269.32 16.1309 259.829 15.7508 259.894 12.6825C259.917 11.7522 260.801 10.7595 262.74 10.5069C263.7 10.3794 266.349 10.2818 269.353 11.6697L270.532 6.15575C268.916 5.56559 266.84 5.00044 264.256 5.00044C257.626 5.00044 252.963 8.53638 252.926 13.5977ZM281.859 5.47556C280.573 5.47556 279.489 6.22827 279.005 7.38357L268.944 31.4875H275.982L277.383 27.6039H285.984L286.797 31.4875H293L287.587 5.47556H281.859ZM282.844 12.5024L284.875 22.27H279.312L282.844 12.5024ZM244.392 5.47556L238.844 31.4875H245.551L251.096 5.47556H244.392ZM234.47 5.47556L227.489 23.1803L224.665 8.12627C224.333 6.44582 223.025 5.47556 221.572 5.47556H210.16L210 6.23077C212.343 6.7409 215.005 7.56362 216.617 8.44386C217.604 8.9815 217.886 9.45162 218.21 10.7295L223.558 31.4875H230.647L241.513 5.47556H234.47Z" fill="url(#paint0_linear)"/>
<line x1="202.5" y1="1" x2="202.5" y2="35" stroke="#C4C4C4"/>
<defs>
<linearGradient id="paint0_linear" x1="248.159" y1="32.4321" x2="248.94" y2="4.81358" gradientUnits="userSpaceOnUse">
<stop stop-color="#222357"/>
<stop offset="1" stop-color="#254AA5"/>
</linearGradient>
<clipPath id="clip0">
<rect y="0.5" width="192.54" height="36" fill="white"/>
</clipPath>
</defs>
</svg>
