<svg width="152" height="29" viewBox="0 0 152 29" fill="none" xmlns="http://www.w3.org/2000/svg">
<g clip-path="url(#clip0)">
<path d="M39.6298 17.8896C40.2798 18.5787 41.0669 19.1217 41.9395 19.4829C43.0017 19.8819 44.1288 20.076 45.2621 20.0552C45.9105 20.0552 46.5169 19.9739 47.0146 19.9315C47.5117 19.8667 48.0005 19.7482 48.4726 19.5783C48.9177 19.4546 49.2822 19.2497 49.6467 19.1296C49.9352 18.9638 50.2324 18.814 50.537 18.681L50.0849 17.7236C49.843 17.8472 49.5977 17.9673 49.3138 18.0769C49.0497 18.1993 48.7794 18.3078 48.5042 18.4019C48.1765 18.5131 47.8361 18.582 47.4912 18.6068C47.0489 18.6798 46.6002 18.7071 46.1524 18.688C45.3446 18.7184 44.5444 18.5201 43.8426 18.1157C43.2516 17.7446 42.7528 17.2418 42.3846 16.6461C42.0371 15.9532 41.8005 15.2092 41.6836 14.4417C41.5511 13.5221 41.4831 12.5942 41.4804 11.665C41.4804 10.8878 41.561 10.0717 41.603 9.25569C41.6644 8.51584 41.8604 7.79371 42.1813 7.12546C42.4701 6.50271 42.8999 5.95698 43.4361 5.53221C44.115 5.09871 44.9036 4.87179 45.7073 4.87866C46.518 4.86795 47.3115 5.11519 47.9749 5.5852C48.6233 6.03386 48.9878 6.76866 49.149 7.75075H50.162V4.61724C49.8395 4.4936 49.5136 4.37348 49.149 4.26397C48.7677 4.13981 48.3739 4.05807 47.9749 4.02021C47.5298 3.93896 47.1653 3.93896 46.7202 3.89657C46.3697 3.89657 45.9491 3.81531 45.6687 3.81531C44.4692 3.79573 43.2756 3.98946 42.1428 4.38761C41.2197 4.73156 40.394 5.29753 39.7374 6.03634C39.0807 6.77514 38.6131 7.66442 38.375 8.62686C38.0521 9.75483 37.902 10.9259 37.9299 12.0995C37.9042 13.2197 38.0544 14.3368 38.375 15.4097C38.5857 16.3273 39.0166 17.1789 39.6298 17.8896Z" fill="white"/>
<path d="M101.102 19.5253C101.828 19.4507 102.532 19.2283 103.17 18.8717C103.812 18.5105 104.322 17.9523 104.628 17.2785C105.043 16.3859 105.238 15.4054 105.196 14.4205C105.222 13.6698 105.103 12.9211 104.845 12.2161C104.598 11.6134 104.192 11.0905 103.671 10.7041C103.016 10.2906 102.286 10.0132 101.523 9.88805C100.468 9.69095 99.3949 9.60922 98.3226 9.6443H96.9838V5.88196C96.9663 5.74251 96.9789 5.60091 97.0206 5.4668C97.0624 5.33268 97.1323 5.20921 97.2256 5.10477C97.5481 4.98037 97.8959 4.9379 98.2385 4.98112H100.142C100.629 4.96257 101.117 4.98978 101.6 5.06238C101.922 5.0816 102.232 5.19584 102.49 5.39092C102.745 5.59434 102.941 5.86267 103.058 6.16811C103.243 6.60351 103.392 7.05373 103.503 7.51407H104.288V4.00256H92.7218V4.49361C92.8024 4.49361 92.8445 4.57486 93.0443 4.57486C93.2476 4.65611 93.3702 4.69851 93.3948 4.77976C93.4784 4.88751 93.5468 5.00639 93.598 5.13303C93.598 5.33793 93.6787 5.4863 93.6787 5.78658V17.8755C93.697 18.0966 93.6696 18.3192 93.598 18.5291C93.598 18.734 93.5174 18.8541 93.3948 18.8823C93.3083 18.9933 93.1828 19.0667 93.0443 19.0872C92.9448 19.14 92.8342 19.1678 92.7218 19.1685V19.6595H98.5575C99.4074 19.6592 100.257 19.6144 101.102 19.5253ZM97.2782 18.3807C97.2138 18.3254 97.1623 18.2566 97.1271 18.1791C97.092 18.1016 97.0742 18.0172 97.0749 17.932C97.0749 17.7271 96.9943 17.4834 96.9943 17.1548V10.5805H98.3331C99.5073 10.5805 100.401 10.9055 100.927 11.5202C101.452 12.1349 101.698 13.1523 101.698 14.5442C101.719 15.2867 101.638 16.0287 101.456 16.7486C101.324 17.2199 101.084 17.6532 100.755 18.0133C100.467 18.2392 100.154 18.4312 99.8227 18.5856C99.4496 18.667 99.0689 18.7085 98.6871 18.7092C98.3366 18.628 97.9862 18.628 97.7969 18.5856C97.6046 18.5852 97.4195 18.5121 97.2782 18.3807Z" fill="white"/>
<path d="M84.5695 19.1579C84.4888 19.1579 84.4468 19.0766 84.247 19.0766C84.0437 18.9954 83.9211 18.953 83.8965 18.8717C83.872 18.7905 83.7738 18.6668 83.6932 18.5185C83.6932 18.3136 83.6126 18.1652 83.6126 17.8649V13.5197H85.1933C85.9675 13.5158 86.7401 13.4472 87.503 13.3148C88.1898 13.2049 88.8498 12.9651 89.4483 12.6082C90.0332 12.249 90.4992 11.7227 90.7871 11.0962C91.1465 10.2741 91.3132 9.37958 91.2743 8.48203C91.2871 7.65702 91.1358 6.83779 90.8292 6.07272C90.5173 5.52421 90.0859 5.0543 89.5674 4.6985C89.0115 4.36946 88.3879 4.17365 87.7449 4.1262C87.0318 4.04206 86.3144 4.00077 85.5964 4.00256H79.4243V4.4936C79.5049 4.4936 79.547 4.57486 79.7502 4.57486C79.9535 4.65611 80.0727 4.6985 80.1007 4.77975C80.1844 4.88743 80.2529 5.00632 80.304 5.13302C80.304 5.33792 80.3846 5.48629 80.3846 5.78657V17.8366C80.4034 18.0578 80.376 18.2804 80.304 18.4902C80.304 18.6951 80.2234 18.8152 80.1007 18.8435C80.0142 18.9545 79.8888 19.0278 79.7502 19.0484C79.6497 19.1017 79.5379 19.1295 79.4243 19.1296V19.5783H84.5309L84.5695 19.1296V19.1579ZM83.7178 5.76185C83.7084 5.63856 83.7365 5.51532 83.7984 5.40857C83.8017 5.36177 83.8143 5.31611 83.8354 5.27425C83.8564 5.2324 83.8856 5.1952 83.9211 5.16482C84.0177 5.07957 84.1433 5.03527 84.2715 5.04117C84.4748 5.04117 84.622 4.95992 84.9725 4.95992C85.353 4.9808 85.732 5.02208 86.1081 5.08357C86.4538 5.20948 86.7708 5.4041 87.0404 5.65586C87.3065 5.97546 87.525 6.33249 87.6888 6.71568C87.8264 7.24855 87.8947 7.79717 87.8921 8.34779C87.8921 9.69375 87.6888 10.6758 87.3243 11.3718C86.9598 12.0677 86.2728 12.4316 85.2985 12.4316H83.7178V5.76185Z" fill="white"/>
<path d="M77.3985 16.0526H76.3855C76.2977 16.5491 76.1806 17.0398 76.0351 17.5222C75.967 17.8412 75.7956 18.1283 75.5479 18.3383C75.4293 18.4507 75.2891 18.5376 75.136 18.5934C74.983 18.6493 74.8202 18.6731 74.6576 18.6633C74.1344 18.7405 73.6052 18.7677 73.0769 18.7445C72.5894 18.7686 72.1008 18.7413 71.6189 18.6633C71.3369 18.6308 71.0628 18.5483 70.8093 18.4195C70.72 18.3702 70.644 18.2997 70.5879 18.2142C70.5317 18.1286 70.497 18.0306 70.4868 17.9285C70.412 17.6357 70.3848 17.3327 70.4062 17.0312V12.0501H73.0944C73.3363 12.0501 73.5816 12.1313 73.8655 12.1313C74.125 12.1555 74.3825 12.1968 74.6366 12.255C74.8612 12.3113 75.0787 12.393 75.285 12.4987V10.4568C75.0899 10.5863 74.8682 10.6696 74.6366 10.7006C74.1276 10.7958 73.614 10.8642 73.098 10.9055H70.3817V5.71239C70.3824 5.47156 70.4239 5.23263 70.5043 5.00585C70.627 4.88221 70.8303 4.88221 71.1527 4.88221H72.8561C73.3436 4.8637 73.8317 4.8909 74.3141 4.96346C74.6345 4.98917 74.942 5.10144 75.2044 5.28847C75.459 5.49189 75.655 5.76022 75.7722 6.06566C75.9573 6.50233 76.1062 6.95371 76.2173 7.41516H77.0269V4.00256H66.2143V4.49361C66.295 4.49361 66.337 4.57486 66.5368 4.57486C66.7401 4.65611 66.8592 4.69851 66.8873 4.77976C66.971 4.88743 67.0394 5.00633 67.0906 5.13303C67.0906 5.33793 67.1712 5.4863 67.1712 5.78658V17.8366C67.1898 18.0578 67.1623 18.2804 67.0906 18.4902C67.0906 18.6951 67.01 18.8152 66.8873 18.8435C66.8008 18.9545 66.6753 19.0278 66.5368 19.0484C66.4373 19.1011 66.3267 19.129 66.2143 19.1296V19.5783H77.3985V16.0526Z" fill="white"/>
<path d="M60.2981 19.5253C61.0242 19.4507 61.7277 19.2283 62.366 18.8717C63.0108 18.5012 63.5327 17.9469 63.8661 17.2785C64.2815 16.386 64.4763 15.4054 64.4339 14.4205C64.4601 13.6698 64.3411 12.921 64.0834 12.2161C63.8364 11.6134 63.4303 11.0905 62.9092 10.7041C62.2541 10.2906 61.5237 10.0132 60.7607 9.88805C59.7059 9.69089 58.633 9.60916 57.5608 9.6443H56.2219V5.88196C56.2047 5.74252 56.2174 5.60098 56.2591 5.4669C56.3008 5.33283 56.3706 5.20933 56.4638 5.10477C56.7862 4.98037 57.1341 4.9379 57.4767 4.98112H59.3798C59.8673 4.96259 60.3554 4.9898 60.8379 5.06238C61.1585 5.08913 61.4661 5.20263 61.7281 5.39092C61.9827 5.59434 62.1787 5.86267 62.2959 6.16811C62.4813 6.60344 62.6302 7.05367 62.741 7.51407H63.5506V4.00256H51.9495V4.49361C52.0301 4.49361 52.0721 4.57486 52.2754 4.57486C52.4787 4.65611 52.5979 4.69851 52.6259 4.77976C52.7095 4.88751 52.7779 5.00639 52.8292 5.13303C52.8292 5.33793 52.9098 5.4863 52.9098 5.78658V17.8366C52.9254 18.0577 52.898 18.2797 52.8292 18.4902C52.8292 18.6951 52.7486 18.8152 52.6259 18.8435C52.5394 18.9545 52.414 19.0278 52.2754 19.0484C52.1749 19.1017 52.063 19.1296 51.9495 19.1296V19.7019H57.7851C58.7244 19.6489 59.485 19.6489 60.2981 19.5253ZM56.4883 18.3807C56.4239 18.3254 56.3724 18.2566 56.3372 18.1791C56.3021 18.1016 56.2843 18.0172 56.285 17.932C56.285 17.7271 56.2044 17.4834 56.2044 17.1548V10.5805H57.5433C58.7174 10.5805 59.6111 10.9055 60.1369 11.5202C60.6626 12.1349 60.9079 13.1523 60.9079 14.5442C60.929 15.2867 60.8476 16.0286 60.6661 16.7486C60.5345 17.2199 60.2943 17.6532 59.9651 18.0133C59.677 18.2393 59.3642 18.4313 59.0328 18.5856C58.6597 18.6671 58.279 18.7085 57.8973 18.7092C57.5468 18.628 57.2488 18.628 57.007 18.5856C56.9112 18.589 56.8158 18.5725 56.7266 18.5373C56.6374 18.5021 56.5563 18.4488 56.4883 18.3807Z" fill="white"/>
<path d="M151.881 24.0966H37.8493V25.6086H151.881V24.0966Z" fill="white"/>
<path d="M142.761 13.767C143.087 14.2156 143.329 14.583 143.651 14.9504C143.893 15.3037 144.219 15.7276 144.461 16.095C144.704 16.4952 144.974 16.8777 145.271 17.2396C145.569 17.642 145.839 18.0645 146.08 18.5043C146.322 18.8576 146.525 19.3204 146.729 19.6878L151.986 19.769C151.418 19.1967 150.934 18.6244 150.367 18.0521C149.88 17.4798 149.434 16.9923 149.108 16.6638C148.621 16.0915 148.176 15.604 147.773 15.1518C147.37 14.6996 146.963 14.2121 146.599 13.7634C146.223 13.3206 145.872 12.8571 145.547 12.3751C145.264 11.9264 144.847 11.3541 144.535 10.8631L144.776 10.5381C145.127 10.047 145.586 9.51711 146.115 8.90596C146.598 8.25659 147.127 7.6427 147.696 7.06895C148.209 6.47003 148.753 5.89927 149.326 5.35912C149.785 4.93281 150.273 4.53747 150.784 4.17566H147.135C146.971 4.56922 146.781 4.95156 146.567 5.32026C146.311 5.82842 146.014 6.31409 145.677 6.7722C145.355 7.26325 144.976 7.83201 144.664 8.40431C144.352 8.97661 143.963 9.46412 143.613 9.99756C143.262 10.531 142.912 11.0185 142.6 11.3859C142.277 11.8346 142.032 12.1631 141.829 12.4457C142.113 12.8661 142.435 13.3183 142.761 13.767Z" fill="white"/>
<path d="M142.316 19.1579C142.235 19.1579 142.193 19.0766 141.99 19.0766C141.787 18.9954 141.668 18.953 141.64 18.8717C141.556 18.7641 141.487 18.6452 141.436 18.5185C141.436 18.3136 141.356 18.1652 141.356 17.8649V5.8537C141.337 5.63257 141.364 5.40992 141.436 5.20015C141.436 4.99525 141.517 4.87514 141.64 4.84688C141.746 4.76247 141.864 4.69351 141.99 4.64198C142.091 4.58868 142.202 4.5608 142.316 4.56073V4.03082H137.209V4.52187C137.29 4.52187 137.332 4.60312 137.535 4.60312C137.739 4.68437 137.858 4.72677 137.886 4.80802C137.97 4.91562 138.038 5.03453 138.089 5.16129C138.089 5.36619 138.17 5.51456 138.17 5.81484V17.8649C138.189 18.086 138.161 18.3087 138.089 18.5185C138.089 18.7234 138.008 18.8435 137.886 18.8717C137.8 18.983 137.674 19.0564 137.535 19.0766C137.435 19.1299 137.323 19.1578 137.209 19.1579V19.6065H142.316V19.1579Z" fill="white"/>
<path d="M108.494 17.7695C108.697 16.8722 109.062 15.604 109.545 14.0107H114.529L115.23 16.0526C115.523 16.7949 115.757 17.5591 115.931 18.3383C116.1 18.7843 116.209 19.2513 116.254 19.7266H120.225C120.021 19.4016 119.874 18.9494 119.576 18.4619C119.236 17.7459 118.938 17.0097 118.686 16.2575L115.083 5.96321C114.934 5.5945 114.825 5.21078 114.757 4.81861C114.676 4.4936 114.676 4.24631 114.634 4.04141H110.18V4.53246C110.26 4.53246 110.302 4.61371 110.502 4.61371C110.705 4.69496 110.825 4.73736 110.853 4.81861C110.936 4.92623 111.005 5.04514 111.056 5.17188V5.49689C111.059 5.84775 110.99 6.19548 110.853 6.51784L108.34 12.7248C107.894 13.8694 107.449 14.8904 107.165 15.6252C106.882 16.36 106.517 17.0948 106.356 17.5858C106.114 18.0769 105.911 18.5255 105.707 18.8505C105.545 19.1145 105.396 19.3869 105.262 19.6666H108.098C108.192 19.0268 108.324 18.3934 108.494 17.7695ZM112.062 6.5779L114.102 12.9085H109.815L112.062 6.5779Z" fill="white"/>
<path d="M126.144 19.1579H126.018C125.938 19.1579 125.896 19.0766 125.692 19.0766C125.489 18.9954 125.37 18.953 125.342 18.8717C125.258 18.764 125.19 18.6451 125.139 18.5185C125.139 18.3136 125.058 18.1652 125.058 17.8649V11.8593H131.097V17.8225C131.116 18.0437 131.088 18.2663 131.016 18.4761C131.016 18.681 130.936 18.8011 130.813 18.8293C130.726 18.9404 130.601 19.0137 130.462 19.0342C130.363 19.087 130.252 19.1149 130.14 19.1155V19.6065H135.247V19.1155C135.166 19.1155 135.124 19.0342 134.924 19.0342C134.721 18.953 134.598 18.9106 134.574 18.8293C134.49 18.7219 134.421 18.603 134.37 18.4761C134.37 18.2712 134.29 18.1228 134.29 17.8225V5.71239C134.271 5.49126 134.298 5.26861 134.37 5.05884C134.37 4.85395 134.451 4.73383 134.574 4.70557C134.681 4.62124 134.799 4.55228 134.924 4.50067C135.024 4.44793 135.134 4.42006 135.247 4.41942V4.00256H130.224V4.49361C130.305 4.49361 130.347 4.57486 130.547 4.57486C130.75 4.65611 130.873 4.69851 130.897 4.77976C130.981 4.88743 131.049 5.00633 131.1 5.13303C131.1 5.33793 131.181 5.4863 131.181 5.78658V10.8242H125.216V5.76185C125.197 5.54072 125.225 5.31816 125.296 5.1083C125.296 4.9034 125.377 4.78329 125.5 4.75503C125.606 4.67051 125.724 4.60153 125.85 4.55013C125.948 4.49348 126.06 4.46535 126.172 4.46888V4.00256H121.08V4.49361C121.16 4.49361 121.203 4.57486 121.402 4.57486C121.606 4.65611 121.725 4.69851 121.753 4.77976C121.836 4.88751 121.905 5.00639 121.956 5.13303C121.956 5.33793 122.037 5.4863 122.037 5.78658V17.8755C122.052 18.0966 122.025 18.3186 121.956 18.5291C121.956 18.734 121.875 18.8541 121.753 18.8823C121.666 18.9933 121.541 19.0667 121.402 19.0872C121.303 19.14 121.192 19.1678 121.08 19.1685V19.6595H126.186L126.144 19.1296V19.1579Z" fill="white"/>
<path d="M27.4748 5.63819C27.1489 5.18954 26.8264 4.74088 26.5425 4.2887L9.11622 14.3781L0.704485 9.5171C0.511425 10.0416 0.393412 10.5912 0.353996 11.1492L9.19683 16.3105L27.4748 5.63819Z" fill="white"/>
<path d="M9.11621 18.1758L0.0806089 12.9474C0.0137453 13.269 -0.0133316 13.5977 -3.38512e-06 13.9259C-3.38512e-06 17.9234 1.57546 21.7571 4.37981 24.5837C7.18415 27.4103 10.9877 28.9982 14.9536 28.9982C18.9195 28.9982 22.7231 27.4103 25.5274 24.5837C28.3317 21.7571 29.9072 17.9234 29.9072 13.9259C29.924 11.541 29.3684 9.18729 28.288 7.06543L9.11621 18.1758Z" fill="white"/>
<path d="M25.3263 3.02399C24.9005 2.61883 24.4535 2.23676 23.9875 1.87939L9.11621 10.5805L1.94521 6.45425C1.70337 6.9029 1.45803 7.39395 1.17413 7.92386L9.0356 12.4987L25.3263 3.02399Z" fill="white"/>
<path d="M22.5294 0.900848C21.9666 0.561231 21.381 0.261407 20.777 0.00354004L9.11621 6.77221L3.89043 3.8012C3.53994 4.15447 3.18945 4.61726 2.83896 5.06591L9.07766 8.66221L22.5294 0.900848Z" fill="white"/>
</g>
<defs>
<clipPath id="clip0">
<rect width="152" height="29" fill="white"/>
</clipPath>
</defs>
</svg>
