<svg width="370" height="37" viewBox="0 0 370 37" fill="none" xmlns="http://www.w3.org/2000/svg">
<path d="M329.926 13.5973C329.878 17.3433 333.253 19.4339 335.795 20.6767C338.407 21.952 339.284 22.7698 339.274 23.9101C339.254 25.6555 337.191 26.4257 335.259 26.4557C331.89 26.5082 329.931 25.543 328.373 24.8128L327.159 30.5118C328.722 31.2345 331.615 31.8647 334.616 31.8922C341.66 31.8922 346.268 28.4038 346.293 22.9948C346.32 16.1305 336.829 15.7504 336.894 12.6821C336.917 11.7518 337.801 10.7591 339.74 10.5065C340.7 10.379 343.349 10.2814 346.353 11.6693L347.532 6.15531C345.916 5.56515 343.84 5 341.256 5C334.626 5 329.963 8.53594 329.926 13.5973ZM358.859 5.47512C357.573 5.47512 356.489 6.22783 356.005 7.38313L345.944 31.4871H352.982L354.383 27.6035H362.984L363.797 31.4871H370L364.587 5.47512H358.859ZM359.844 12.502L361.875 22.2696H356.312L359.844 12.502ZM321.392 5.47512L315.844 31.4871H322.551L328.096 5.47512H321.392ZM311.47 5.47512L304.489 23.1799L301.665 8.12583C301.333 6.44538 300.025 5.47512 298.572 5.47512H287.16L287 6.23033C289.343 6.74046 292.005 7.56318 293.617 8.44342C294.604 8.98106 294.886 9.45118 295.21 10.7291L300.558 31.4871H307.647L318.513 5.47512H311.47Z" fill="url(#paint0_linear)"/>
<path d="M51.1994 22.7076C52.0228 23.5631 53.0198 24.237 54.1251 24.6854C55.4706 25.1807 56.8984 25.4217 58.334 25.3959C59.1553 25.3959 59.9234 25.295 60.5538 25.2424C61.1836 25.1619 61.8027 25.0148 62.4007 24.8038C62.9646 24.6504 63.4263 24.396 63.888 24.2469C64.2534 24.0411 64.6298 23.8552 65.0157 23.6899L64.443 22.5015C64.1367 22.655 63.8259 22.8041 63.4663 22.94C63.1317 23.092 62.7894 23.2267 62.4407 23.3435C62.0256 23.4816 61.5945 23.5671 61.1576 23.5979C60.5973 23.6886 60.029 23.7224 59.4617 23.6987C58.4384 23.7364 57.4249 23.4903 56.5359 22.9883C55.7872 22.5276 55.1554 21.9035 54.689 21.1639C54.2488 20.3037 53.9491 19.3801 53.8011 18.4274C53.6331 17.2859 53.5471 16.134 53.5436 14.9805C53.5436 14.0157 53.6457 13.0026 53.6989 11.9896C53.7766 11.0712 54.025 10.1748 54.4315 9.3452C54.7973 8.57213 55.3417 7.89467 56.0209 7.36737C56.8809 6.82923 57.8798 6.54754 58.8978 6.55607C59.9249 6.54278 60.93 6.84969 61.7703 7.43315C62.5916 7.9901 63.0534 8.90227 63.2576 10.1214H64.5407V6.23155C64.1322 6.07806 63.7193 5.92895 63.2576 5.793C62.7745 5.63887 62.2757 5.5374 61.7703 5.49041C61.2065 5.38954 60.7447 5.38954 60.1809 5.33692C59.7369 5.33692 59.2042 5.23605 58.849 5.23605C57.3295 5.21173 55.8176 5.45223 54.3827 5.94649C53.2134 6.37346 52.1675 7.07604 51.3357 7.99318C50.5039 8.91032 49.9115 10.0142 49.61 11.209C49.201 12.6092 49.0108 14.063 49.0461 15.5199C49.0136 16.9104 49.2039 18.2972 49.61 19.629C49.8769 20.7682 50.4227 21.8253 51.1994 22.7076Z" fill="#2F9A41"/>
<path d="M129.067 24.7383C129.987 24.6457 130.878 24.3697 131.687 23.927C132.5 23.4785 133.147 22.7857 133.534 21.9492C134.06 20.8412 134.306 19.624 134.253 18.4014C134.286 17.4694 134.135 16.54 133.809 15.6649C133.496 14.9167 132.982 14.2676 132.322 13.7879C131.492 13.2746 130.567 12.9302 129.6 12.7749C128.264 12.5302 126.905 12.4287 125.547 12.4723H123.851V7.8018C123.829 7.62869 123.845 7.4529 123.898 7.28642C123.95 7.11993 124.039 6.96665 124.157 6.837C124.566 6.68257 125.006 6.62986 125.44 6.68351H127.851C128.468 6.66049 129.087 6.69425 129.698 6.78438C130.106 6.80824 130.498 6.95006 130.826 7.19222C131.148 7.44475 131.396 7.77784 131.545 8.15702C131.779 8.69752 131.968 9.2564 132.109 9.82787H133.103V5.46875H118.452V6.07832C118.554 6.07832 118.608 6.17919 118.861 6.17919C119.118 6.28005 119.273 6.33268 119.305 6.43354C119.41 6.5673 119.497 6.71488 119.562 6.87209C119.562 7.12644 119.664 7.31063 119.664 7.68339V22.6903C119.687 22.9648 119.653 23.2411 119.562 23.5016C119.562 23.756 119.46 23.9051 119.305 23.9402C119.195 24.078 119.036 24.169 118.861 24.1945C118.735 24.26 118.595 24.2946 118.452 24.2954V24.905H125.844C126.921 24.9046 127.997 24.849 129.067 24.7383ZM124.224 23.3175C124.142 23.2489 124.077 23.1634 124.032 23.0672C123.988 22.971 123.965 22.8663 123.966 22.7605C123.966 22.5061 123.864 22.2036 123.864 21.7957V13.6344H125.56C127.047 13.6344 128.179 14.0379 128.845 14.8009C129.511 15.564 129.822 16.827 129.822 18.5549C129.849 19.4767 129.746 20.3977 129.516 21.2914C129.349 21.8765 129.045 22.4144 128.628 22.8614C128.263 23.1418 127.867 23.3802 127.447 23.5718C126.974 23.6729 126.492 23.7243 126.008 23.7253C125.565 23.6244 125.121 23.6244 124.881 23.5718C124.637 23.5713 124.403 23.4805 124.224 23.3175Z" fill="#2F9A41"/>
<path d="M108.125 24.2823C108.023 24.2823 107.969 24.1814 107.716 24.1814C107.459 24.0806 107.304 24.028 107.272 23.9271C107.241 23.8262 107.117 23.6727 107.015 23.4886C107.015 23.2342 106.913 23.05 106.913 22.6772V17.2832H108.915C109.896 17.2783 110.874 17.1932 111.841 17.0288C112.711 16.8924 113.547 16.5948 114.305 16.1517C115.046 15.7057 115.636 15.0525 116.001 14.2748C116.456 13.2542 116.667 12.1437 116.618 11.0295C116.634 10.0054 116.443 8.98841 116.054 8.03868C115.659 7.35777 115.113 6.77443 114.456 6.33275C113.752 5.92428 112.962 5.68121 112.147 5.62231C111.244 5.51785 110.335 5.4666 109.426 5.46882H101.607V6.07839C101.71 6.07839 101.763 6.17926 102.02 6.17926C102.278 6.28012 102.429 6.33275 102.464 6.43361C102.57 6.56728 102.657 6.71487 102.722 6.87216C102.722 7.12651 102.824 7.3107 102.824 7.68346V22.6422C102.848 22.9167 102.813 23.1931 102.722 23.4535C102.722 23.7078 102.62 23.8569 102.464 23.892C102.355 24.0298 102.196 24.1209 102.02 24.1464C101.893 24.2125 101.751 24.2471 101.607 24.2472V24.8042H108.076L108.125 24.2472V24.2823ZM107.046 7.65276C107.034 7.49972 107.07 7.34673 107.148 7.21422C107.152 7.15611 107.168 7.09943 107.195 7.04748C107.222 6.99552 107.259 6.94934 107.304 6.91162C107.426 6.8058 107.585 6.75081 107.748 6.75813C108.005 6.75813 108.191 6.65727 108.635 6.65727C109.117 6.68319 109.598 6.73443 110.074 6.81076C110.512 6.96707 110.913 7.20866 111.255 7.5212C111.592 7.91794 111.869 8.36115 112.076 8.83683C112.25 9.49832 112.337 10.1794 112.334 10.8629C112.334 12.5337 112.076 13.7529 111.614 14.6168C111.153 15.4808 110.283 15.9325 109.048 15.9325H107.046V7.65276Z" fill="#2F9A41"/>
<path d="M99.042 20.4275H97.759C97.6477 21.0437 97.4994 21.6529 97.315 22.2518C97.2288 22.6478 97.0117 23.0042 96.6979 23.2648C96.5477 23.4044 96.3701 23.5122 96.1762 23.5816C95.9823 23.6509 95.7761 23.6805 95.5702 23.6683C94.9075 23.7642 94.2371 23.7979 93.5679 23.7691C92.9504 23.799 92.3314 23.7652 91.721 23.6683C91.3638 23.6279 91.0166 23.5255 90.6954 23.3657C90.5824 23.3044 90.4861 23.2169 90.415 23.1107C90.3438 23.0045 90.2999 22.8828 90.287 22.7561C90.1922 22.3927 90.1578 22.0165 90.1849 21.6422V15.4588H93.5901C93.8964 15.4588 94.2072 15.5596 94.5668 15.5596C94.8955 15.5896 95.2217 15.6409 95.5436 15.7131C95.828 15.783 96.1036 15.8845 96.3649 16.0157V13.4809C96.1177 13.6417 95.8369 13.7451 95.5436 13.7835C94.8988 13.9017 94.2483 13.9866 93.5945 14.0379H90.1538V7.5913C90.1548 7.29234 90.2073 6.99573 90.3092 6.71421C90.4646 6.56072 90.7221 6.56072 91.1305 6.56072H93.2882C93.9057 6.53775 94.524 6.57151 95.1351 6.66158C95.5409 6.6935 95.9305 6.83288 96.2628 7.06505C96.5853 7.31757 96.8336 7.65067 96.982 8.02984C97.2165 8.57191 97.4051 9.13224 97.5459 9.70507H98.5714V5.46875H84.875V6.07832C84.9771 6.07832 85.0304 6.17919 85.2835 6.17919C85.541 6.28005 85.6919 6.33268 85.7274 6.43354C85.8334 6.56721 85.9201 6.71481 85.9849 6.87209C85.9849 7.12644 86.087 7.31063 86.087 7.68339V22.6421C86.1106 22.9166 86.0758 23.1929 85.9849 23.4534C85.9849 23.7078 85.8828 23.8569 85.7274 23.8919C85.6179 24.0298 85.459 24.1208 85.2835 24.1463C85.1575 24.2118 85.0174 24.2464 84.875 24.2472V24.8041H99.042V20.4275Z" fill="#2F9A41"/>
<path d="M77.38 24.7383C78.2997 24.6457 79.1909 24.3697 79.9994 23.927C80.8162 23.467 81.4773 22.779 81.8996 21.9492C82.4259 20.8413 82.6726 19.624 82.6189 18.4014C82.6521 17.4694 82.5013 16.5399 82.1749 15.6649C81.8621 14.9167 81.3477 14.2676 80.6876 13.7879C79.8578 13.2746 78.9325 12.9302 77.9661 12.7749C76.6299 12.5301 75.2709 12.4287 73.9126 12.4723H72.2167V7.8018C72.1949 7.6287 72.211 7.45299 72.2638 7.28655C72.3167 7.12011 72.405 6.96681 72.523 6.837C72.9315 6.68257 73.3721 6.62986 73.8061 6.68351H76.2168C76.8343 6.66051 77.4526 6.69428 78.0637 6.78438C78.4699 6.81759 78.8595 6.95849 79.1914 7.19222C79.5139 7.44475 79.7623 7.77784 79.9107 8.15702C80.1455 8.69743 80.3341 9.25633 80.4745 9.82787H81.5001V5.46875H66.8047V6.07832C66.9068 6.07832 66.9601 6.17919 67.2176 6.17919C67.4751 6.28005 67.626 6.33268 67.6616 6.43354C67.7674 6.5673 67.8541 6.71488 67.919 6.87209C67.919 7.12644 68.0212 7.31063 68.0212 7.68339V22.6421C68.0409 22.9165 68.0062 23.1921 67.919 23.4534C67.919 23.7078 67.8169 23.8569 67.6616 23.8919C67.552 24.0298 67.3931 24.1208 67.2176 24.1463C67.0903 24.2125 66.9486 24.2471 66.8047 24.2472V24.9576H74.1968C75.3866 24.8918 76.35 24.8918 77.38 24.7383ZM72.5541 23.3175C72.4726 23.2489 72.4072 23.1634 72.3628 23.0672C72.3183 22.971 72.2957 22.8663 72.2966 22.7605C72.2966 22.5061 72.1945 22.2036 72.1945 21.7957V13.6344H73.8904C75.3777 13.6344 76.5098 14.0379 77.1758 14.8009C77.8418 15.564 78.1525 16.827 78.1525 18.5549C78.1792 19.4767 78.0761 20.3976 77.8462 21.2914C77.6795 21.8765 77.3753 22.4144 76.9583 22.8614C76.5933 23.1419 76.1971 23.3802 75.7773 23.5718C75.3046 23.673 74.8225 23.7244 74.3388 23.7253C73.8949 23.6244 73.5175 23.6244 73.2112 23.5718C73.0899 23.576 72.969 23.5556 72.8559 23.5119C72.7429 23.4681 72.6402 23.402 72.5541 23.3175Z" fill="#2F9A41"/>
<path d="M193.39 30.4131H48.9443V32.2901H193.39V30.4131Z" fill="#2F9A41"/>
<path d="M181.837 17.59C182.25 18.147 182.556 18.6031 182.965 19.0592C183.271 19.4977 183.684 20.024 183.99 20.48C184.298 20.9769 184.641 21.4517 185.016 21.9009C185.394 22.4004 185.737 22.925 186.042 23.4709C186.348 23.9094 186.605 24.4839 186.863 24.94L193.522 25.0409C192.803 24.3304 192.191 23.62 191.471 22.9096C190.854 22.1991 190.29 21.5939 189.877 21.1861C189.26 20.4756 188.697 19.8705 188.186 19.3091C187.675 18.7478 187.16 18.1426 186.699 17.5857C186.223 17.0359 185.778 16.4606 185.367 15.8622C185.007 15.3052 184.479 14.5948 184.084 13.9852L184.39 13.5818C184.834 12.9722 185.416 12.3144 186.086 11.5557C186.698 10.7496 187.367 9.98751 188.088 9.27526C188.738 8.53178 189.427 7.82325 190.153 7.15271C190.735 6.6235 191.352 6.13274 192 5.68359H187.378C187.17 6.17215 186.929 6.64678 186.659 7.10447C186.334 7.73529 185.957 8.3382 185.531 8.90688C185.123 9.51646 184.643 10.2225 184.248 10.933C183.853 11.6434 183.36 12.2486 182.916 12.9108C182.472 13.573 182.028 14.1782 181.633 14.6343C181.225 15.1912 180.914 15.5991 180.656 15.9499C181.016 16.4718 181.424 17.0331 181.837 17.59Z" fill="#2F9A41"/>
<path d="M181.273 24.2823C181.171 24.2823 181.118 24.1815 180.86 24.1815C180.603 24.0806 180.452 24.028 180.416 23.9271C180.31 23.7935 180.224 23.6459 180.159 23.4886C180.159 23.2342 180.057 23.05 180.057 22.6773V7.76679C180.033 7.49228 180.068 7.21589 180.159 6.95549C180.159 6.70113 180.261 6.55203 180.416 6.51694C180.552 6.41216 180.701 6.32655 180.86 6.26259C180.988 6.19642 181.129 6.1618 181.273 6.16172V5.50391H174.805V6.11348C174.907 6.11348 174.96 6.21435 175.218 6.21435C175.475 6.31521 175.626 6.36784 175.662 6.4687C175.768 6.60227 175.854 6.74989 175.919 6.90725C175.919 7.1616 176.021 7.34579 176.021 7.71855V22.6773C176.045 22.9518 176.01 23.2282 175.919 23.4886C175.919 23.7429 175.817 23.892 175.662 23.9271C175.552 24.0653 175.393 24.1564 175.218 24.1815C175.09 24.2476 174.949 24.2822 174.805 24.2823V24.8393H181.273V24.2823Z" fill="#2F9A41"/>
<path d="M138.43 22.5584C138.688 21.4445 139.15 19.8701 139.762 17.8923H146.075L146.963 20.4271C147.334 21.3485 147.631 22.2972 147.851 23.2644C148.065 23.8181 148.203 24.3979 148.26 24.9879H153.29C153.032 24.5845 152.846 24.0231 152.469 23.4179C152.037 22.529 151.661 21.6152 151.341 20.6814L146.777 7.90228C146.588 7.44457 146.45 6.96823 146.364 6.4814C146.262 6.07794 146.262 5.77096 146.209 5.5166H140.566V6.12618C140.668 6.12618 140.721 6.22704 140.974 6.22704C141.232 6.32791 141.383 6.38053 141.418 6.4814C141.524 6.615 141.611 6.76261 141.676 6.91994V7.3234C141.68 7.75896 141.592 8.19062 141.418 8.59079L138.235 16.296C137.671 17.7169 137.107 18.9843 136.748 19.8964C136.388 20.8086 135.926 21.7208 135.722 22.3303C135.416 22.9399 135.158 23.4969 134.901 23.9003C134.695 24.2281 134.507 24.5662 134.337 24.9134H137.929C138.048 24.1192 138.216 23.3328 138.43 22.5584ZM142.95 8.66534L145.534 16.524H140.104L142.95 8.66534Z" fill="#2F9A41"/>
<path d="M160.788 24.2822H160.629C160.526 24.2822 160.473 24.1814 160.216 24.1814C159.958 24.0805 159.807 24.0279 159.772 23.927C159.666 23.7933 159.579 23.6457 159.514 23.4885C159.514 23.2341 159.412 23.0499 159.412 22.6772V15.2219H167.062V22.6246C167.085 22.8991 167.051 23.1755 166.96 23.4359C166.96 23.6902 166.857 23.8393 166.702 23.8744C166.593 24.0122 166.434 24.1033 166.258 24.1288C166.132 24.1942 165.992 24.2288 165.85 24.2296V24.8392H172.318V24.2296C172.216 24.2296 172.163 24.1288 171.91 24.1288C171.652 24.0279 171.497 23.9753 171.466 23.8744C171.359 23.741 171.273 23.5934 171.208 23.4359C171.208 23.1815 171.106 22.9973 171.106 22.6246V7.5913C171.082 7.31678 171.117 7.04039 171.208 6.77999C171.208 6.52564 171.31 6.37653 171.466 6.34145C171.601 6.23676 171.751 6.15116 171.91 6.08709C172.036 6.02161 172.176 5.98702 172.318 5.98623V5.46875H165.956V6.07832C166.058 6.07832 166.112 6.17919 166.365 6.17919C166.622 6.28005 166.778 6.33268 166.809 6.43354C166.915 6.56721 167.001 6.71481 167.066 6.87209C167.066 7.12644 167.168 7.31063 167.168 7.68339V13.937H159.612V7.65269C159.589 7.37819 159.623 7.10191 159.714 6.84139C159.714 6.58703 159.816 6.43793 159.971 6.40285C160.107 6.29792 160.256 6.2123 160.415 6.14849C160.54 6.07816 160.681 6.04324 160.824 6.04763V5.46875H154.373V6.07832C154.475 6.07832 154.528 6.17919 154.781 6.17919C155.039 6.28005 155.19 6.33268 155.225 6.43354C155.331 6.5673 155.418 6.71488 155.483 6.87209C155.483 7.12644 155.585 7.31063 155.585 7.68339V22.6903C155.605 22.9648 155.57 23.2404 155.483 23.5016C155.483 23.756 155.381 23.9051 155.225 23.9402C155.116 24.078 154.957 24.169 154.781 24.1945C154.655 24.26 154.515 24.2946 154.373 24.2954V24.905H160.842L160.788 24.2472V24.2822Z" fill="#2F9A41"/>
<path d="M35.8025 7.49945C35.3896 6.9425 34.9812 6.38555 34.6216 5.82422L12.5475 18.349L1.89221 12.3147C1.64766 12.9658 1.49817 13.648 1.44824 14.3407L12.6496 20.7478L35.8025 7.49945Z" fill="#2F9A41"/>
<path d="M12.5479 23.0627L1.10239 16.5722C1.01769 16.9715 0.983391 17.3795 1.00027 17.787C1.00027 22.7493 2.99593 27.5084 6.54823 31.0173C10.1005 34.5262 14.9185 36.4974 19.9422 36.4974C24.9659 36.4974 29.7839 34.5262 33.3362 31.0173C36.8885 27.5084 38.8841 22.7493 38.8841 17.787C38.9053 14.8264 38.2016 11.9045 36.833 9.27051L12.5479 23.0627Z" fill="#2F9A41"/>
<path d="M33.0812 4.25389C32.5417 3.75093 31.9756 3.27664 31.3852 2.83301L12.5476 13.6343L3.46404 8.51214C3.1577 9.06909 2.84692 9.67866 2.4873 10.3365L12.4455 16.0156L33.0812 4.25389Z" fill="#2F9A41"/>
<path d="M29.5379 1.61781C28.8249 1.19621 28.0832 0.824017 27.318 0.503906L12.5472 8.90639L5.92761 5.21824C5.48364 5.65679 5.03967 6.23128 4.5957 6.78823L12.4983 11.2526L29.5379 1.61781Z" fill="#2F9A41"/>
<defs>
<linearGradient id="paint0_linear" x1="325.159" y1="32.4317" x2="325.94" y2="4.81314" gradientUnits="userSpaceOnUse">
<stop stop-color="#222357"/>
<stop offset="1" stop-color="#254AA5"/>
</linearGradient>
</defs>
</svg>
