<svg width="29" height="29" viewBox="0 0 29 29" fill="none" xmlns="http://www.w3.org/2000/svg">
<path d="M28.3716 18.7298C28.3849 18.6301 28.3958 18.5304 28.3958 18.4271C28.3958 17.7534 28.1463 17.1154 27.6986 16.6206C27.7596 16.4219 27.7916 16.2164 27.7916 16.0104C27.7916 15.3754 27.5016 14.7852 27.028 14.3906C27.1325 14.1387 27.1875 13.8686 27.1875 13.5938C27.1875 12.4277 26.2389 11.4792 25.0729 11.4792C24.9696 11.4792 24.8705 11.4955 24.7708 11.51V3.02084C24.7708 2.74352 24.5817 2.50246 24.3129 2.4348L17.0629 0.622295C16.8363 0.564295 16.5928 0.646462 16.4448 0.830733L11.6115 6.8724C11.5257 6.97994 11.4791 7.11225 11.4791 7.25V10.2817C11.4725 10.4835 11.4713 10.6799 11.4683 10.878L7.33698 10.2775C7.31644 10.2745 7.29529 10.2769 7.27475 10.2757C7.26569 10.2757 7.25844 10.2708 7.24998 10.2708C7.24333 10.2708 7.2379 10.2745 7.23125 10.2745C7.15935 10.2763 7.08988 10.2896 7.02402 10.3161C7.01435 10.3204 7.0059 10.3258 6.99623 10.3306C6.94246 10.356 6.89292 10.3899 6.8476 10.4309C6.83612 10.4412 6.82404 10.4503 6.81317 10.4618C6.80713 10.4684 6.79927 10.4726 6.79323 10.4793L3.16823 14.6668C3.07338 14.7767 3.02081 14.9169 3.02081 15.0625V27.1875H1.81248C1.47838 27.1875 1.20831 27.4576 1.20831 27.7917C1.20831 28.1258 1.47838 28.3958 1.81248 28.3958H27.7916C28.1257 28.3958 28.3958 28.1258 28.3958 27.7917C28.3958 27.4576 28.1257 27.1875 27.7916 27.1875H25.375V24.743C25.4753 24.7545 25.575 24.7708 25.6771 24.7708C27.176 24.7708 28.3958 23.551 28.3958 22.0521C28.3958 21.5065 28.2351 20.9851 27.9366 20.5417C28.2351 20.0982 28.3958 19.5768 28.3958 19.0313C28.3958 18.9322 28.3855 18.8355 28.3716 18.7298ZM6.64581 25.5768C6.4265 25.1116 6.22531 24.6228 6.04165 24.1201V13.2917C6.04165 13.2633 6.02956 13.2397 6.02594 13.2125L6.64581 12.496V25.5768ZM7.85415 11.5734L11.4695 12.099C11.4725 12.2428 11.4749 12.3878 11.4791 12.5292V27.1875H7.85415V11.5734ZM12.6875 19.9629C13.8499 23.722 15.5494 26.0988 16.4684 27.1875H12.6875V19.9629ZM14.4613 5.24477L15.1041 4.44123V22.7704C14.8872 22.3234 14.6728 21.8388 14.4649 21.3186C14.4819 21.263 14.5 21.2069 14.5 21.1458V5.4375C14.5 5.36923 14.4819 5.30579 14.4613 5.24477ZM16.9166 2.17561V25.7919C16.7239 25.5321 16.5125 25.23 16.2895 24.885C16.2974 24.8464 16.3125 24.8113 16.3125 24.7708V3.02084C16.3125 2.99546 16.301 2.97371 16.298 2.94894L16.9166 2.17561ZM13.2916 6.70686V17.4441C12.972 15.9651 12.7503 14.3109 12.6875 12.476V7.46207L13.2916 6.70686ZM4.83331 14.5894V19.6723C4.41281 17.568 4.24908 15.8956 4.22915 15.6818V15.2872L4.83331 14.5894ZM4.22915 22.4049C4.6871 24.0736 5.30517 25.784 6.12925 27.1875H4.22915V22.4049ZM24.1666 27.1875H18.125V2.13332L23.5625 3.49269V12.0833C23.5625 12.0936 23.5679 12.1015 23.5679 12.1117C23.1921 12.4936 22.9583 13.0168 22.9583 13.5938C22.9583 13.7019 22.9668 13.8088 22.9831 13.914C21.9475 14.0499 21.1458 14.9386 21.1458 16.0104C21.1458 16.4182 21.2606 16.8067 21.4763 17.1426C21.2588 17.5378 21.1458 17.9746 21.1458 18.4271C21.1458 18.7993 21.2219 19.163 21.3694 19.5007C20.8437 20.007 20.5416 20.7024 20.5416 21.4479C20.5416 22.9469 21.7615 24.1667 23.2604 24.1667C23.4743 24.1667 23.6857 24.1413 23.893 24.0918C23.9788 24.1673 24.0736 24.2295 24.1666 24.2929V27.1875ZM27.1669 18.8397C27.1754 18.9026 27.1875 18.966 27.1875 19.0313C27.1875 19.4391 27.025 19.8221 26.7313 20.1097C26.6153 20.2233 26.5495 20.3791 26.5495 20.5417C26.5495 20.7042 26.6147 20.8595 26.7313 20.9736C27.025 21.2612 27.1875 21.6443 27.1875 22.0521C27.1875 22.8852 26.5102 23.5625 25.6771 23.5625C25.2366 23.5625 24.8173 23.3631 24.5261 23.0151C24.4089 22.875 24.2373 22.7988 24.0627 22.7988C23.9854 22.7988 23.9069 22.8133 23.8325 22.8441C23.6489 22.9203 23.4555 22.9583 23.2604 22.9583C22.4272 22.9583 21.75 22.2811 21.75 21.4479C21.75 20.9265 22.0182 20.4486 22.4683 20.1689C22.6097 20.0807 22.7088 19.9369 22.7414 19.7732C22.7746 19.6094 22.7372 19.4385 22.6393 19.3031C22.4532 19.0427 22.3541 18.74 22.3541 18.4271C22.3541 17.9987 22.5402 17.6785 22.6955 17.4852C22.8937 17.2399 22.8695 16.8834 22.6399 16.6671C22.4556 16.4925 22.3541 16.2593 22.3541 16.0104C22.3541 15.5108 22.7607 15.1042 23.2604 15.1042C23.5456 15.1042 23.8096 15.2389 23.9842 15.4733C24.0978 15.6262 24.2772 15.7162 24.4687 15.7162H24.4693C24.6602 15.7162 24.8397 15.6256 24.9539 15.4721C24.9702 15.4504 24.9883 15.4304 25.0058 15.4099C25.1394 15.2606 25.1907 15.0546 25.1418 14.8607C25.0934 14.6661 24.9521 14.5085 24.7636 14.4396C24.4059 14.3097 24.1666 13.9689 24.1666 13.5938C24.1666 13.0941 24.5732 12.6875 25.0729 12.6875C25.5725 12.6875 25.9791 13.0941 25.9791 13.5938C25.9791 13.8729 25.8511 14.0741 25.7441 14.1937C25.61 14.3435 25.5592 14.5489 25.6082 14.7429C25.6565 14.9374 25.7979 15.0951 25.9864 15.164C26.3441 15.2945 26.5833 15.6352 26.5833 16.0104C26.5833 16.1663 26.5404 16.3185 26.4546 16.4635C26.3012 16.7245 26.3646 17.058 26.6026 17.2453C26.9742 17.5365 27.1875 17.9673 27.1875 18.4271C27.1875 18.4923 27.1754 18.5558 27.1633 18.641C27.1542 18.6996 27.1579 18.7805 27.1669 18.8397Z" fill="white"/>
<path d="M24.3207 20.5616C24.2615 20.5459 24.1582 20.5115 24.1274 20.4535C24.0839 20.3725 24.1087 20.21 24.1322 20.1393C24.2434 19.8276 24.0827 19.4844 23.7715 19.3702C23.4586 19.2566 23.1112 19.4149 22.9958 19.7285C22.9698 19.7986 22.7529 20.4299 23.055 21.0099C23.1837 21.257 23.4544 21.5827 24.0132 21.7295C24.0646 21.7434 24.1159 21.75 24.1673 21.75C24.4343 21.75 24.6796 21.5706 24.7509 21.2999C24.8355 20.9773 24.6434 20.6468 24.3207 20.5616Z" fill="white"/>
<path d="M24.917 16.9348C24.5938 16.8514 24.2373 17.0405 24.1558 17.365C24.0748 17.6888 24.244 18.0072 24.5672 18.0881C24.569 18.0887 24.6959 18.1546 24.8506 18.4247C24.9617 18.6198 25.1653 18.7292 25.3756 18.7292C25.4771 18.7292 25.5804 18.7038 25.6746 18.6494C25.964 18.4839 26.0649 18.1147 25.8994 17.8253C25.5006 17.1275 25.0469 16.9668 24.917 16.9348Z" fill="white"/>
</svg>
