<svg width="48" height="48" viewBox="0 0 48 48" fill="none" xmlns="http://www.w3.org/2000/svg">
<path d="M41 41H6C3.2 41 1 38.8 1 36V13C1 10.2 3.2 8 6 8H41C43.8 8 46 10.2 46 13V36C46 38.8 43.8 41 41 41ZM6 10C4.3 10 3 11.3 3 13V36C3 37.7 4.3 39 6 39H41C42.7 39 44 37.7 44 36V13C44 11.3 42.7 10 41 10H6Z" fill="white"/>
<path d="M46 15H1V17H46V15Z" fill="white"/>
<path d="M12 33C11.6 33 11.2 32.7 11.1 32.4L8.3 25H7C6.4 25 6 24.6 6 24C6 23.4 6.4 23 7 23H9C9.4 23 9.8 23.3 9.9 23.6L12.1 29.5L15.1 23.6C15.3 23.1 15.9 22.9 16.4 23.2C16.9 23.4 17.1 24 16.8 24.5L12.8 32.5C12.7 32.8 12.4 33 12 33Z" fill="white"/>
<path d="M20 33C19.4 33 19 32.6 19 32V24C19 23.4 19.4 23 20 23C20.6 23 21 23.4 21 24V32C21 32.6 20.6 33 20 33Z" fill="white"/>
<path d="M26.3 33C24.4 33 23.5 31.9 23.2 31.5C22.9 31.1 22.9 30.4 23.3 30.1C23.7 29.8 24.3 29.8 24.7 30.2H24.8C25.1 30.5 25.4 30.9 26.4 30.9C26.8 30.9 27.2 30.6 27.3 30.2C27.4 29.6 26.8 29 25.5 28.5C24 28 23.1 26.8 23.4 25.3C23.6 23.9 24.9 22.9 26.4 22.9C27.9 22.9 28.9 23.9 29.2 24.5C29.4 25 29.2 25.6 28.7 25.8C28.2 26 27.6 25.9 27.4 25.4C27.4 25.3 27.1 24.9 26.4 24.9C25.8 24.9 25.5 25.3 25.4 25.7C25.3 26.2 25.6 26.5 26.2 26.7C28.8 27.6 29.5 29.2 29.3 30.5C28.9 32 27.7 33 26.3 33Z" fill="white"/>
<path d="M38 33C37.6 33 37.1 32.7 37 32.2L35.3 25.5L31.8 32.4C31.6 32.9 31 33.1 30.5 32.8C30 32.6 29.8 32 30.1 31.5L34.1 23.5C34.3 23.2 34.6 22.9 35 22.9H36C36.5 22.9 36.9 23.2 37 23.7L39 31.7C39.1 32.2 38.8 32.8 38.3 32.9C38.2 33 38.1 33 38 33Z" fill="white"/>
<path d="M37 30H33C32.4 30 32 29.6 32 29C32 28.4 32.4 28 33 28H37C37.6 28 38 28.4 38 29C38 29.6 37.6 30 37 30Z" fill="white"/>
</svg>
