<svg width="48" height="48" viewBox="0 0 48 48" fill="none" xmlns="http://www.w3.org/2000/svg">
<path d="M46.96 31.001C46.982 30.836 47 30.671 47 30.5C47 29.385 46.587 28.329 45.846 27.51C45.947 27.181 46 26.841 46 26.5C46 25.449 45.52 24.472 44.736 23.819C44.909 23.402 45 22.955 45 22.5C45 20.57 43.43 19 41.5 19C41.329 19 41.165 19.027 41 19.051V5.00001C41 4.54101 40.687 4.14201 40.242 4.03001L28.242 1.03001C27.867 0.93401 27.464 1.07001 27.219 1.37501L19.219 11.375C19.077 11.553 19 11.772 19 12V17.018C18.989 17.352 18.987 17.677 18.982 18.005L12.144 17.011C12.11 17.006 12.075 17.01 12.041 17.008C12.026 17.008 12.014 17 12 17C11.989 17 11.98 17.006 11.969 17.006C11.85 17.009 11.735 17.031 11.626 17.075C11.61 17.082 11.596 17.091 11.58 17.099C11.491 17.141 11.409 17.197 11.334 17.265C11.315 17.282 11.295 17.297 11.277 17.316C11.267 17.327 11.254 17.334 11.244 17.345L5.244 24.276C5.087 24.458 5 24.69 5 24.931V45H3C2.447 45 2 45.447 2 46C2 46.553 2.447 47 3 47H46C46.553 47 47 46.553 47 46C47 45.447 46.553 45 46 45H42V40.954C42.166 40.973 42.331 41 42.5 41C44.981 41 47 38.981 47 36.5C47 35.597 46.734 34.734 46.24 34C46.734 33.266 47 32.403 47 31.5C47 31.336 46.983 31.176 46.96 31.001ZM11 42.334C10.637 41.564 10.304 40.755 10 39.923V22C10 21.953 9.98 21.914 9.974 21.869L11 20.683V42.334ZM13 19.156L18.984 20.026C18.989 20.264 18.993 20.504 19 20.738V45H13V19.156ZM21 33.042C22.924 39.264 25.737 43.198 27.258 45H21V33.042ZM23.936 8.68101L25 7.35101V37.689C24.641 36.949 24.286 36.147 23.942 35.286C23.97 35.194 24 35.101 24 35V9.00001C24 8.88701 23.97 8.78201 23.936 8.68101ZM28 3.60101V42.69C27.681 42.26 27.331 41.76 26.962 41.189C26.975 41.125 27 41.067 27 41V5.00001C27 4.95801 26.981 4.92201 26.976 4.88101L28 3.60101ZM22 11.101V28.873C21.471 26.425 21.104 23.687 21 20.65V12.351L22 11.101ZM8 24.148V32.561C7.304 29.078 7.033 26.31 7 25.956V25.303L8 24.148ZM7 37.084C7.758 39.846 8.781 42.677 10.145 45H7V37.084ZM40 45H30V3.53101L39 5.78101V20C39 20.017 39.009 20.03 39.009 20.047C38.387 20.679 38 21.545 38 22.5C38 22.679 38.014 22.856 38.041 23.03C36.327 23.255 35 24.726 35 26.5C35 27.175 35.19 27.818 35.547 28.374C35.187 29.028 35 29.751 35 30.5C35 31.116 35.126 31.718 35.37 32.277C34.5 33.115 34 34.266 34 35.5C34 37.981 36.019 40 38.5 40C38.854 40 39.204 39.958 39.547 39.876C39.689 40.001 39.846 40.104 40 40.209V45ZM44.966 31.183C44.98 31.287 45 31.392 45 31.5C45 32.175 44.731 32.809 44.245 33.285C44.053 33.473 43.944 33.731 43.944 34C43.944 34.269 44.052 34.526 44.245 34.715C44.731 35.191 45 35.825 45 36.5C45 37.879 43.879 39 42.5 39C41.771 39 41.077 38.67 40.595 38.094C40.401 37.862 40.117 37.736 39.828 37.736C39.7 37.736 39.57 37.76 39.447 37.811C39.143 37.937 38.823 38 38.5 38C37.121 38 36 36.879 36 35.5C36 34.637 36.444 33.846 37.189 33.383C37.423 33.237 37.587 32.999 37.641 32.728C37.696 32.457 37.634 32.174 37.472 31.95C37.164 31.519 37 31.018 37 30.5C37 29.791 37.308 29.261 37.565 28.941C37.893 28.535 37.853 27.945 37.473 27.587C37.168 27.298 37 26.912 37 26.5C37 25.673 37.673 25 38.5 25C38.972 25 39.409 25.223 39.698 25.611C39.886 25.864 40.183 26.013 40.5 26.013H40.501C40.817 26.013 41.114 25.863 41.303 25.609C41.33 25.573 41.36 25.54 41.389 25.506C41.61 25.259 41.695 24.918 41.614 24.597C41.534 24.275 41.3 24.014 40.988 23.9C40.396 23.685 40 23.121 40 22.5C40 21.673 40.673 21 41.5 21C42.327 21 43 21.673 43 22.5C43 22.962 42.788 23.295 42.611 23.493C42.389 23.741 42.305 24.081 42.386 24.402C42.466 24.724 42.7 24.985 43.012 25.099C43.604 25.315 44 25.879 44 26.5C44 26.758 43.929 27.01 43.787 27.25C43.533 27.682 43.638 28.234 44.032 28.544C44.647 29.026 45 29.739 45 30.5C45 30.608 44.98 30.713 44.96 30.854C44.945 30.951 44.951 31.085 44.966 31.183Z" fill="white"/>
<path d="M40.255 34.033C40.157 34.007 39.986 33.95 39.935 33.854C39.863 33.72 39.904 33.451 39.943 33.334C40.127 32.818 39.861 32.25 39.346 32.061C38.828 31.873 38.253 32.135 38.062 32.654C38.019 32.77 37.66 33.815 38.16 34.775C38.373 35.184 38.821 35.723 39.746 35.966C39.831 35.989 39.916 36 40.001 36C40.443 36 40.849 35.703 40.967 35.255C41.107 34.721 40.789 34.174 40.255 34.033Z" fill="white"/>
<path d="M41.242 28.03C40.707 27.892 40.117 28.205 39.982 28.742C39.848 29.278 40.128 29.805 40.663 29.939C40.666 29.94 40.876 30.049 41.132 30.496C41.316 30.819 41.653 31 42.001 31C42.169 31 42.34 30.958 42.496 30.868C42.975 30.594 43.142 29.983 42.868 29.504C42.208 28.349 41.457 28.083 41.242 28.03Z" fill="white"/>
</svg>
