<svg width="28" height="28" viewBox="0 0 28 28" fill="none" xmlns="http://www.w3.org/2000/svg">
<g clip-path="url(#clip0)">
<path d="M12.1522 24.3043C9.74872 24.3043 7.39921 23.5917 5.40079 22.2563C3.40237 20.9211 1.84481 19.0231 0.925034 16.8026C0.00526533 14.5821 -0.235388 12.1387 0.233506 9.78142C0.702402 7.42413 1.85978 5.2588 3.55929 3.55929C5.2588 1.85978 7.42413 0.702402 9.78142 0.233506C12.1387 -0.235388 14.5821 0.00526533 16.8026 0.925034C19.0231 1.84481 20.9211 3.40237 22.2563 5.40079C23.5917 7.39921 24.3043 9.74872 24.3043 12.1522C24.3 15.3738 23.0181 18.4621 20.7401 20.7401C18.4621 23.0181 15.3738 24.3 12.1522 24.3043ZM12.1522 1.13044C9.9723 1.13044 7.84133 1.77685 6.02883 2.98794C4.21631 4.19901 2.80362 5.92038 1.96942 7.93435C1.13521 9.9483 0.916944 12.1644 1.34222 14.3024C1.7675 16.4404 2.81722 18.4043 4.35864 19.9457C5.90004 21.4872 7.86395 22.5369 10.0019 22.9621C12.1399 23.3874 14.3561 23.1691 16.37 22.3349C18.384 21.5007 20.1053 20.088 21.3164 18.2755C22.5275 16.463 23.1739 14.3321 23.1739 12.1522C23.1694 9.23041 22.0068 6.42959 19.9408 4.3636C17.8748 2.29758 15.074 1.13493 12.1522 1.13044Z" fill="#007AFF"/>
<path d="M12.1523 3.67389C12.0024 3.67389 11.8586 3.61435 11.7526 3.50834C11.6466 3.40236 11.587 3.25859 11.587 3.10869V1.97824C11.587 1.82834 11.6466 1.68457 11.7526 1.57857C11.8586 1.47258 12.0024 1.41302 12.1523 1.41302C12.3022 1.41302 12.4459 1.47258 12.5519 1.57857C12.6579 1.68457 12.7175 1.82834 12.7175 1.97824V3.10869C12.7175 3.25859 12.6579 3.40236 12.5519 3.50834C12.4459 3.61435 12.3022 3.67389 12.1523 3.67389Z" fill="#007AFF"/>
<path d="M12.1523 22.8913C12.0024 22.8913 11.8586 22.8317 11.7526 22.7258C11.6466 22.6198 11.587 22.476 11.587 22.3261V21.1957C11.587 21.0458 11.6466 20.902 11.7526 20.796C11.8586 20.69 12.0024 20.6304 12.1523 20.6304C12.3022 20.6304 12.4459 20.69 12.5519 20.796C12.6579 20.902 12.7175 21.0458 12.7175 21.1957V22.3261C12.7175 22.476 12.6579 22.6198 12.5519 22.7258C12.4459 22.8317 12.3022 22.8913 12.1523 22.8913Z" fill="#007AFF"/>
<path d="M22.326 12.7174H21.1956C21.0457 12.7174 20.9019 12.6578 20.7959 12.5518C20.6899 12.4458 20.6304 12.3021 20.6304 12.1522C20.6304 12.0023 20.6899 11.8585 20.7959 11.7525C20.9019 11.6465 21.0457 11.5869 21.1956 11.5869H22.326C22.4759 11.5869 22.6197 11.6465 22.7257 11.7525C22.8317 11.8585 22.8913 12.0023 22.8913 12.1522C22.8913 12.3021 22.8317 12.4458 22.7257 12.5518C22.6197 12.6578 22.4759 12.7174 22.326 12.7174Z" fill="#007AFF"/>
<path d="M3.10875 12.7174H1.9783C1.8284 12.7174 1.68463 12.6578 1.57863 12.5518C1.47264 12.4458 1.41309 12.3021 1.41309 12.1522C1.41309 12.0023 1.47264 11.8585 1.57863 11.7525C1.68463 11.6465 1.8284 11.5869 1.9783 11.5869H3.10875C3.25866 11.5869 3.40242 11.6465 3.5084 11.7525C3.61441 11.8585 3.67395 12.0023 3.67395 12.1522C3.67395 12.3021 3.61441 12.4458 3.5084 12.5518C3.40242 12.6578 3.25866 12.7174 3.10875 12.7174Z" fill="#007AFF"/>
<path d="M18.7087 6.16091C18.6343 6.16134 18.5606 6.14707 18.4917 6.11897C18.4229 6.09084 18.3602 6.04938 18.3074 5.997C18.2022 5.89109 18.1431 5.74783 18.1431 5.59851C18.1431 5.44921 18.2022 5.30595 18.3074 5.20004L19.0365 4.47091C19.0872 4.41175 19.1496 4.36369 19.2197 4.32976C19.2898 4.29585 19.3662 4.27676 19.444 4.27377C19.5219 4.27077 19.5995 4.28388 19.672 4.31229C19.7446 4.34071 19.8105 4.38381 19.8655 4.43888C19.9206 4.49398 19.9637 4.55984 19.9921 4.63237C20.0205 4.70491 20.0337 4.78254 20.0306 4.86037C20.0276 4.93823 20.0086 5.01461 19.9747 5.08472C19.9407 5.15484 19.8927 5.21719 19.8335 5.26786L19.1044 5.997C18.9991 6.10141 18.857 6.16028 18.7087 6.16091Z" fill="#007AFF"/>
<path d="M4.86652 20.0031C4.71744 20.001 4.57523 19.94 4.47086 19.8335C4.3656 19.7276 4.30652 19.5844 4.30652 19.4351C4.30652 19.2857 4.3656 19.1425 4.47086 19.0366L5.2 18.3075C5.30813 18.2148 5.4472 18.1664 5.58947 18.172C5.73173 18.1775 5.86666 18.2364 5.96732 18.3371C6.06799 18.4377 6.12695 18.5727 6.13244 18.7149C6.13793 18.8572 6.08956 18.9963 5.99695 19.1044L5.26782 19.8335C5.21548 19.8869 5.15305 19.9294 5.08417 19.9585C5.01529 19.9876 4.9413 20.0028 4.86652 20.0031Z" fill="#007AFF"/>
<path d="M19.438 20.0031C19.3632 20.0028 19.2892 19.9876 19.2203 19.9585C19.1514 19.9294 19.089 19.8869 19.0367 19.8335L18.3075 19.1044C18.2149 18.9963 18.1665 18.8572 18.1721 18.7149C18.1775 18.5727 18.2365 18.4377 18.3372 18.3371C18.4378 18.2364 18.5728 18.1775 18.715 18.172C18.8573 18.1664 18.9964 18.2148 19.1045 18.3075L19.8336 19.0366C19.9389 19.1425 19.998 19.2857 19.998 19.4351C19.998 19.5844 19.9389 19.7276 19.8336 19.8335C19.7293 19.94 19.5871 20.001 19.438 20.0031Z" fill="#007AFF"/>
<path d="M5.59552 6.16081C5.44726 6.16018 5.30514 6.10131 5.19989 5.9969L4.47075 5.26777C4.37814 5.15963 4.32977 5.02056 4.33526 4.8783C4.34075 4.73604 4.39972 4.6011 4.50038 4.50044C4.60104 4.39978 4.736 4.34081 4.87824 4.33532C5.0205 4.32983 5.15957 4.3782 5.2677 4.47081L5.99684 5.19995C6.1021 5.30583 6.16119 5.44909 6.16119 5.59841C6.16119 5.74774 6.1021 5.89099 5.99684 5.9969C5.94402 6.04929 5.88138 6.09072 5.81252 6.11885C5.74366 6.14698 5.66992 6.16125 5.59552 6.16081Z" fill="#007AFF"/>
<path d="M9.00955 3.99608C8.89338 3.99603 8.78007 3.96018 8.68499 3.89345C8.58992 3.8267 8.51775 3.73228 8.47825 3.62303L8.1278 2.65651C8.10182 2.58676 8.08985 2.51253 8.09253 2.43813C8.09524 2.36374 8.11258 2.29059 8.14354 2.22289C8.1745 2.15518 8.21849 2.09424 8.27303 2.04354C8.32755 1.99284 8.39152 1.95337 8.46127 1.92739C8.53105 1.90141 8.60525 1.88943 8.67967 1.89213C8.75407 1.89483 8.82721 1.91215 8.8949 1.94312C8.96263 1.97409 9.02357 2.01809 9.07427 2.07261C9.12496 2.12712 9.16443 2.1911 9.19041 2.26087L9.54084 3.2274C9.56691 3.29749 9.57881 3.37208 9.57586 3.44681C9.57289 3.52157 9.55513 3.59498 9.52357 3.66279C9.49203 3.73061 9.44734 3.79149 9.3921 3.84191C9.33683 3.89234 9.27213 3.93128 9.20173 3.95651C9.14027 3.98019 9.07533 3.99354 9.00955 3.99608Z" fill="#007AFF"/>
<path d="M15.6452 22.4052C15.529 22.4051 15.4157 22.3693 15.3207 22.3025C15.2256 22.2358 15.1534 22.1414 15.1139 22.0321L14.7635 21.0656C14.7126 20.9247 14.7197 20.7693 14.7833 20.6337C14.8469 20.498 14.9617 20.3931 15.1026 20.3421C15.2435 20.2912 15.3989 20.2984 15.5345 20.3619C15.6702 20.4255 15.7751 20.5404 15.8261 20.6812L16.1765 21.6478C16.2274 21.7887 16.2203 21.944 16.1567 22.0797C16.0931 22.2154 15.9782 22.3202 15.8374 22.3712C15.7758 22.3936 15.7108 22.4051 15.6452 22.4052Z" fill="#007AFF"/>
<path d="M20.8734 9.57472C20.7405 9.57458 20.612 9.52761 20.5103 9.44209C20.4086 9.35657 20.3403 9.23796 20.3173 9.10709C20.2944 8.97619 20.3183 8.84143 20.3848 8.72642C20.4514 8.61142 20.5563 8.52353 20.6812 8.4782L21.6477 8.12777C21.7175 8.1018 21.7917 8.0898 21.8661 8.09251C21.9405 8.09522 22.0137 8.11253 22.0814 8.14349C22.1491 8.17447 22.21 8.21847 22.2607 8.27298C22.3114 8.3275 22.3509 8.39147 22.3769 8.46125C22.4029 8.53102 22.4148 8.60523 22.4121 8.67962C22.4094 8.75402 22.3921 8.82718 22.3611 8.89488C22.3302 8.96258 22.2862 9.02352 22.2316 9.07422C22.1771 9.12494 22.1132 9.16441 22.0434 9.19038L21.0769 9.54082C21.0115 9.56379 20.9427 9.57528 20.8734 9.57472Z" fill="#007AFF"/>
<path d="M2.46433 16.2104C2.33046 16.213 2.20002 16.168 2.09625 16.0834C1.99247 15.9988 1.9221 15.8801 1.89767 15.7484C1.87324 15.6168 1.89634 15.4807 1.96285 15.3646C2.02937 15.2483 2.13497 15.1595 2.26085 15.1139L3.22738 14.7635C3.36829 14.7126 3.52366 14.7197 3.65932 14.7833C3.79498 14.8469 3.89985 14.9617 3.95086 15.1026C4.00235 15.2421 3.99681 15.3962 3.93545 15.5316C3.87409 15.6671 3.76184 15.7728 3.62304 15.8261L2.65652 16.1765C2.59489 16.1989 2.52988 16.2104 2.46433 16.2104Z" fill="#007AFF"/>
<path d="M16.0918 4.32953C16.0093 4.32979 15.9279 4.31042 15.8544 4.273C15.7188 4.20927 15.614 4.09429 15.5631 3.95331C15.5122 3.81236 15.5194 3.65694 15.5831 3.52128L16.0183 2.58866C16.049 2.52009 16.093 2.4583 16.1478 2.40694C16.2026 2.35556 16.2671 2.31563 16.3375 2.28947C16.4079 2.26331 16.4828 2.25145 16.5579 2.25458C16.6329 2.25771 16.7066 2.27577 16.7746 2.3077C16.8426 2.33963 16.9035 2.38479 16.9539 2.44055C17.0042 2.4963 17.0429 2.56153 17.0678 2.63241C17.0926 2.7033 17.1031 2.77843 17.0985 2.8534C17.094 2.9284 17.0746 3.00171 17.0414 3.06909L16.6062 4.00171C16.5607 4.09981 16.4882 4.18284 16.397 4.24096C16.3058 4.29905 16.1999 4.32979 16.0918 4.32953Z" fill="#007AFF"/>
<path d="M7.77172 22.0435C7.68985 22.044 7.60886 22.0266 7.53434 21.9926C7.3987 21.9289 7.2939 21.8139 7.24304 21.6729C7.19215 21.532 7.19936 21.3766 7.26304 21.2409L7.69825 20.3083C7.72891 20.2397 7.77291 20.1779 7.82772 20.1266C7.88252 20.0752 7.94703 20.0353 8.01743 20.0091C8.08784 19.9829 8.16277 19.9711 8.23781 19.9742C8.31286 19.9774 8.38653 19.9954 8.45452 20.0273C8.52253 20.0593 8.58346 20.1044 8.63381 20.1602C8.68414 20.2159 8.72287 20.2812 8.74771 20.352C8.77255 20.4229 8.78299 20.4981 8.77847 20.5731C8.77392 20.648 8.7545 20.7213 8.72129 20.7887L8.28609 21.7213C8.23987 21.8184 8.16693 21.9002 8.07582 21.9573C7.98471 22.0144 7.87923 22.0443 7.77172 22.0435Z" fill="#007AFF"/>
<path d="M21.4782 17.0978C21.3957 17.0985 21.3142 17.0791 21.2408 17.0413L20.3082 16.6061C20.2396 16.5754 20.1778 16.5314 20.1265 16.4766C20.0751 16.4218 20.0352 16.3573 20.009 16.2869C19.9829 16.2165 19.971 16.1416 19.9741 16.0665C19.9773 15.9915 19.9953 15.9178 20.0272 15.8498C20.0592 15.7818 20.1043 15.7209 20.1601 15.6705C20.2158 15.6202 20.2811 15.5815 20.352 15.5566C20.4228 15.5318 20.498 15.5213 20.573 15.5259C20.6479 15.5304 20.7213 15.5498 20.7886 15.583L21.7212 16.0182C21.8569 16.082 21.9617 16.197 22.0125 16.3379C22.0634 16.4789 22.0562 16.6343 21.9925 16.77C21.9471 16.8681 21.8746 16.9511 21.7834 17.0092C21.6922 17.0673 21.5863 17.0981 21.4782 17.0978Z" fill="#007AFF"/>
<path d="M3.76418 8.77779C3.67985 8.77851 3.59652 8.75914 3.52116 8.72126L2.58855 8.28606C2.45289 8.22233 2.34811 8.10732 2.29724 7.96634C2.24636 7.82539 2.25355 7.66997 2.31724 7.53431C2.38097 7.39867 2.49596 7.29387 2.63692 7.24301C2.7779 7.19212 2.93332 7.19933 3.06898 7.26301L4.00159 7.69822C4.11928 7.75184 4.21503 7.8442 4.27286 7.95991C4.33067 8.07562 4.34707 8.20765 4.31928 8.33397C4.29151 8.46029 4.22125 8.57327 4.12023 8.65405C4.0192 8.73481 3.89353 8.77849 3.76418 8.77779Z" fill="#007AFF"/>
<path d="M12.1522 20.6982C10.4619 20.6982 8.80962 20.197 7.40422 19.2579C5.99882 18.3189 4.90346 16.9841 4.25662 15.4226C3.60979 13.861 3.44054 12.1426 3.77029 10.4848C4.10004 8.82708 4.91398 7.3043 6.10918 6.10912C7.30438 4.91392 8.82713 4.09999 10.4849 3.77024C12.1427 3.44048 13.861 3.60971 15.4226 4.25654C16.9842 4.90338 18.3189 5.99876 19.258 7.40416C20.197 8.80954 20.6983 10.4619 20.6983 12.1521C20.6968 14.4182 19.7959 16.5911 18.1935 18.1934C16.5911 19.7958 14.4183 20.6967 12.1522 20.6982ZM12.1522 4.73647C10.6855 4.73647 9.25177 5.17138 8.03226 5.98621C6.81275 6.80106 5.86229 7.95923 5.301 9.31426C4.73974 10.6693 4.59288 12.1603 4.879 13.5988C5.16515 15.0373 5.87143 16.3587 6.90853 17.3958C7.94563 18.4329 9.26696 19.1391 10.7054 19.4253C12.144 19.7114 13.635 19.5645 14.99 19.0033C16.3451 18.442 17.5032 17.4915 18.3181 16.272C19.1329 15.0525 19.5678 13.6188 19.5678 12.1521C19.5663 10.1858 18.7846 8.30048 17.3942 6.91009C16.0038 5.51973 14.1185 4.73794 12.1522 4.73647Z" fill="#007AFF"/>
<path d="M13.8478 26C12.0374 25.9995 10.2501 25.5932 8.61751 24.8105C6.98493 24.028 5.54861 22.8893 4.41436 21.4782C4.32843 21.3693 4.28559 21.2325 4.29401 21.094C4.30243 20.9555 4.36149 20.8249 4.45995 20.7272C4.55841 20.6294 4.6894 20.5713 4.82797 20.5639C4.9665 20.5564 5.10296 20.6002 5.21131 20.6869C7.3266 22.3881 9.99556 23.2484 12.7061 23.1028C15.4167 22.9572 17.9781 21.8158 19.899 19.8978C21.8198 17.9797 22.9649 15.42 23.1145 12.7096C23.2641 9.99926 22.4077 7.32907 20.7096 5.21127C20.636 5.10391 20.6018 4.97447 20.6126 4.84478C20.6234 4.7151 20.6787 4.59313 20.769 4.49945C20.8594 4.40578 20.9793 4.34616 21.1085 4.33066C21.2377 4.31515 21.3683 4.34469 21.4783 4.41432C23.4284 5.99374 24.8415 8.13841 25.5233 10.5535C26.2051 12.9687 26.1219 15.5357 25.2856 17.9017C24.4492 20.2677 22.9006 22.3167 20.8525 23.7668C18.8043 25.2169 16.3573 25.9971 13.8478 26ZM9.6539 24.0443C11.6663 24.871 13.8781 25.0838 16.0112 24.6565C18.1443 24.2289 20.1033 23.1799 21.6416 21.6416C23.1799 20.1032 24.2289 18.1443 24.6565 16.0112C25.0839 13.8781 24.871 11.6662 24.0444 9.65389C24.4161 11.4231 24.3883 13.2529 23.9631 15.01C23.538 16.7671 22.7261 18.4072 21.5868 19.8108C20.4474 21.2144 19.0093 22.3461 17.3772 23.1235C15.745 23.9008 13.96 24.3043 12.1522 24.3043C11.3127 24.3031 10.4756 24.216 9.6539 24.0443Z" fill="#007AFF"/>
<path fill-rule="evenodd" clip-rule="evenodd" d="M12.4571 6.54669C12.3454 6.25836 11.9374 6.25836 11.8257 6.54669L10.6004 9.70814C10.5523 9.83209 10.4362 9.91648 10.3035 9.92386L6.9181 10.1123C6.60937 10.1294 6.48329 10.5174 6.72297 10.7128L9.35107 12.8551C9.45411 12.9391 9.49846 13.0756 9.46448 13.2041L8.59751 16.482C8.51844 16.781 8.84849 17.0207 9.10834 16.8532L11.9579 15.0157C12.0696 14.9437 12.2132 14.9437 12.3249 15.0157L15.1745 16.8532C15.4343 17.0207 15.7644 16.781 15.6853 16.482L14.8183 13.2041C14.7844 13.0756 14.8287 12.9391 14.9318 12.8551L17.5598 10.7128C17.7995 10.5174 17.6735 10.1294 17.3647 10.1123L13.9793 9.92386C13.8466 9.91648 13.7305 9.83209 13.6825 9.70814L12.4571 6.54669ZM12.2767 8.71748C12.2288 8.59391 12.054 8.59391 12.0061 8.71748L11.2216 10.7416C11.201 10.7947 11.1512 10.8309 11.0944 10.834L8.9269 10.9546C8.79458 10.962 8.74055 11.1283 8.84326 11.212L10.5259 12.5836C10.57 12.6196 10.5891 12.6781 10.5745 12.7332L10.0194 14.8319C9.98555 14.96 10.127 15.0627 10.2384 14.9909L12.0628 13.8145C12.1107 13.7836 12.1722 13.7836 12.22 13.8145L14.0445 14.9909C14.1558 15.0627 14.2973 14.96 14.2634 14.8319L13.7083 12.7332C13.6938 12.6781 13.7128 12.6196 13.7569 12.5836L15.4395 11.212C15.5423 11.1283 15.4882 10.962 15.3559 10.9546L13.1885 10.834C13.1316 10.8309 13.0818 10.7947 13.0612 10.7416L12.2767 8.71748Z" fill="#007AFF"/>
</g>
<defs>
<clipPath id="clip0">
<rect width="26" height="26" fill="white"/>
</clipPath>
</defs>
</svg>
