<svg width="29" height="28" viewBox="0 0 28 29" fill="none" xmlns="http://www.w3.org/2000/svg">
<path d="M11.4422 18.0585C8.40989 18.0585 6.57539 14.4531 6.153 13.3123H6.10889C5.93094 13.2212 5.78069 13.0841 5.67391 12.9152C4.99936 11.6924 4.81653 10.7406 5.15695 9.98419C5.28522 9.72241 5.48669 9.50344 5.73693 9.35388C5.73387 8.54654 5.83126 7.74197 6.02692 6.95868C6.36734 5.69806 7.91815 3.32175 11.4422 3.32175C14.9662 3.32175 16.517 5.69806 16.8511 6.95868C17.0459 7.74439 17.1454 8.5507 17.1474 9.36018C17.3942 9.51205 17.5931 9.73055 17.7211 9.99049C18.0615 10.7154 17.885 11.6987 17.1915 12.9215C17.0848 13.0795 16.9394 13.2075 16.7692 13.2934H16.725C16.3026 14.4531 14.4997 18.0585 11.4422 18.0585ZM6.72038 12.184L6.77711 12.2155C7.0158 12.3207 7.20366 12.5154 7.30036 12.7576C7.54622 13.6148 9.19159 16.7979 11.4422 16.7979C13.6927 16.7979 15.3381 13.6148 15.584 12.7576C15.631 12.6371 15.7014 12.5272 15.7913 12.4341C15.8811 12.341 15.9885 12.2668 16.1072 12.2155L16.1576 12.184C16.7565 11.081 16.6305 10.6334 16.58 10.52C16.5434 10.4418 16.4779 10.3807 16.3972 10.3498C16.2504 10.3229 16.1178 10.2449 16.0231 10.1294C15.9284 10.014 15.8778 9.86871 15.8803 9.71946C15.9083 8.89693 15.8256 8.07434 15.6344 7.27384C15.6029 7.17299 14.8338 4.57608 11.4422 4.57608C8.05055 4.57608 7.24993 7.25492 7.24364 7.28014C7.04911 8.07789 6.96846 8.89912 7.00408 9.71946C7.0065 9.86871 6.95587 10.014 6.86122 10.1294C6.76654 10.2449 6.63399 10.3229 6.48712 10.3498C6.44313 10.364 6.40281 10.3878 6.36905 10.4194C6.33528 10.451 6.30888 10.4896 6.2917 10.5326C6.24756 10.646 6.13411 11.0998 6.72038 12.184Z" fill="#007AFF"/>
<path d="M11.4421 26.7506C7.77123 26.7775 4.10627 26.4504 0.498183 25.7736C0.354806 25.7429 0.226639 25.6631 0.135739 25.5481C0.0448395 25.433 -0.00310588 25.2899 0.000156114 25.1433C0.246017 20.0252 3.42329 18.4368 5.79364 17.6741C6.79941 17.3821 7.73047 16.8769 8.52332 16.1928C8.64287 16.0758 8.80401 16.0111 8.9713 16.0128C9.1386 16.0146 9.29832 16.0827 9.41536 16.2023C9.53239 16.3218 9.59715 16.4829 9.59539 16.6502C9.5936 16.8174 9.52546 16.9772 9.40591 17.0942C8.47246 17.9197 7.36813 18.5288 6.17189 18.878C3.95913 19.565 1.67075 20.8257 1.29881 24.6454C4.64956 25.2163 8.04311 25.4989 11.4421 25.49C14.8391 25.4987 18.2305 25.2161 21.5792 24.6454C21.2072 20.8257 18.9125 19.565 16.7061 18.8906C15.5106 18.5395 14.4067 17.9306 13.4721 17.1068C13.3525 16.9898 13.2844 16.83 13.2826 16.6628C13.2808 16.4955 13.3456 16.3344 13.4626 16.2149C13.5797 16.0954 13.7394 16.0272 13.9067 16.0254C14.074 16.0237 14.2351 16.0884 14.3547 16.2054C15.1521 16.8836 16.0847 17.3842 17.0906 17.6741C19.4547 18.4178 22.6383 19.9999 22.8778 25.1055C22.8811 25.2521 22.8331 25.3952 22.7422 25.5103C22.6513 25.6253 22.5232 25.7051 22.3798 25.7358C18.775 26.425 15.1122 26.7648 11.4421 26.7506Z" fill="#007AFF"/>
<path d="M22.4807 23.8323C22.3135 23.849 22.1465 23.7986 22.0165 23.6922C21.8864 23.5858 21.804 23.4321 21.7873 23.265C21.7705 23.0978 21.8209 22.9308 21.9273 22.8008C22.0337 22.6708 22.1874 22.5883 22.3546 22.5716C24.432 22.1637 26.2935 21.0228 27.5997 19.357C26.5931 17.7473 25.0942 16.505 23.3255 15.8146C20.8795 14.97 20.3499 14.6486 20.3499 13.1484C20.3443 13.0077 20.386 12.8693 20.4682 12.755C20.5505 12.6408 20.6686 12.5574 20.8038 12.5181C21.2882 12.4139 21.7841 12.3737 22.279 12.3983C23.1363 12.3983 24.208 12.3983 24.5611 11.9193C24.9141 11.4402 24.7313 11.2385 24.1135 10.2931C23.9622 10.0598 23.8046 9.81403 23.647 9.5493C22.842 8.35544 22.3658 6.97057 22.2664 5.53419V5.32617C22.0079 2.80491 20.6651 1.43712 18.2695 1.26063C16.1766 1.41821 14.8779 2.52126 14.4114 4.45004C14.3981 4.53596 14.3671 4.6182 14.3205 4.69159C14.2738 4.76497 14.2124 4.82789 14.1403 4.87641C14.0681 4.92493 13.9867 4.95799 13.9011 4.97353C13.8155 4.98907 13.7277 4.98673 13.643 4.96666C13.5584 4.94659 13.4789 4.90925 13.4094 4.85695C13.3399 4.80465 13.282 4.73857 13.2393 4.66279C13.1966 4.58704 13.17 4.50327 13.1613 4.41677C13.1525 4.33025 13.1618 4.24286 13.1884 4.1601C13.781 1.63882 15.5714 0.176489 18.2317 0H18.2822C21.3208 0.208004 23.1742 2.04853 23.4957 5.20012V5.4081C23.5798 6.66616 24 7.87859 24.7124 8.91898C24.8574 9.1648 25.0024 9.3917 25.1411 9.60601C25.7336 10.5074 26.4019 11.497 25.5445 12.6757C24.8196 13.64 23.4011 13.6527 22.2601 13.659H21.6738C21.844 13.9237 22.3042 14.1128 23.71 14.5918C25.9346 15.4354 27.7854 17.0446 28.9298 19.1301C28.9873 19.2416 29.0104 19.3678 28.9957 19.4924C28.9813 19.6171 28.9296 19.7345 28.8479 19.8297L28.7533 19.9432C27.245 21.9347 25.0577 23.3029 22.6068 23.7881C22.5675 23.8096 22.5249 23.8245 22.4807 23.8323Z" fill="#007AFF"/>
</svg>
