<?xml version="1.0" encoding="utf-8"?>
<!-- Generator: Adobe Illustrator 17.0.0, SVG Export Plug-In . SVG Version: 6.00 Build 0)  -->
<!DOCTYPE svg PUBLIC "-//W3C//DTD SVG 1.1//EN" "http://www.w3.org/Graphics/SVG/1.1/DTD/svg11.dtd">
<svg version="1.1" xmlns="http://www.w3.org/2000/svg" xmlns:xlink="http://www.w3.org/1999/xlink" x="0px" y="0px" width="48px"
	 height="48px" viewBox="0 0 48 48" enable-background="new 0 0 48 48" xml:space="preserve">
<g id="Layer_1">
</g>
<g id="good_luck_bird">
</g>
<g id="event-go">
</g>
<g id="cancel-date">
</g>
<g id="evet-date">
</g>
<g id="event-list">
</g>
<g id="flight">
</g>
<g id="travel-bag">
</g>
<g id="limejuice">
</g>
<g id="beach-2_1_">
</g>
<g id="beach-2">
</g>
<g id="soks">
</g>
<g id="eye_wear">
</g>
<g id="skin-doll">
</g>
<g id="dec-bell">
</g>
<g id="dec-egg-2">
</g>
<g id="dec-egg">
</g>
<g id="flower-1">
</g>
<g id="flower">
</g>
<g id="light_house-2">
</g>
<g id="light-house">
</g>
<g id="snow-mountain">
</g>
<g id="light">
</g>
<g id="corn-ice">
</g>
<g id="beach-stand">
</g>
<g id="umberlla">
</g>
<g id="lifeguard">
</g>
<g id="direct">
</g>
<g id="bag-2">
</g>
<g id="bag-1">
</g>
<g id="balloon_1_">
</g>
<g id="balloon">
</g>
<g id="stars">
</g>
<g id="star-large">
</g>
<g id="decorate">
</g>
<g id="star">
</g>
<g id="ball-tree">
</g>
<g id="giftballoon">
</g>
<g id="decorate-1">
</g>
<g id="ribbon">
</g>
<g id="places">
</g>
<g id="bag">
</g>
<g id="christmass-ball-4">
</g>
<g id="christmas-ball-3">
</g>
<g id="cristmass-ball-2">
</g>
<g id="basket-gift">
	<path fill="#007AFF" d="M45,21H3c-0.553,0-1-0.448-1-1v-9c0-0.552,0.447-1,1-1h42c0.553,0,1,0.448,1,1v9C46,20.552,45.553,21,45,21
		z M4,19h40v-7H4V19z"/>
	<path fill="#007AFF" d="M38,47H10c-2.757,0-5-2.243-5-5V20c0-0.552,0.447-1,1-1h36c0.553,0,1,0.448,1,1v22
		C43,44.757,40.757,47,38,47z M7,21v21c0,1.654,1.346,3,3,3h28c1.654,0,3-1.346,3-3V21H7z"/>
	<path fill="#007AFF" d="M20,47c-0.553,0-1-0.448-1-1V20c0-0.552,0.447-1,1-1s1,0.448,1,1v26C21,46.552,20.553,47,20,47z"/>
	<path fill="#007AFF" d="M28,47c-0.553,0-1-0.448-1-1V20c0-0.552,0.447-1,1-1s1,0.448,1,1v26C29,46.552,28.553,47,28,47z"/>
	<path fill="#007AFF" d="M18,21c-0.553,0-1-0.448-1-1v-9c0-0.552,0.447-1,1-1s1,0.448,1,1v9C19,20.552,18.553,21,18,21z"/>
	<path fill="#007AFF" d="M30,21c-0.553,0-1-0.448-1-1v-9c0-0.552,0.447-1,1-1s1,0.448,1,1v9C31,20.552,30.553,21,30,21z"/>
	<path fill="#007AFF" d="M24.821,12.011c-0.552,0-1-0.447-1-1c0-0.552,0.448-1,1-1c6.306,0,9.178-2.175,9.178-4.196
		c0-0.531-0.221-1.023-0.621-1.388c-0.461-0.418-1.108-0.64-1.874-0.64c-0.553,0-1-0.447-1-1c0-0.552,0.447-1,1-1
		c1.253,0,2.396,0.412,3.219,1.16c0.823,0.748,1.276,1.767,1.276,2.868C35.998,8.899,32.542,12.011,24.821,12.011z"/>
	<path fill="#007AFF" d="M24.164,12.011L24.164,12.011c-7.721,0-11.177-3.112-11.177-6.196c-0.001-1.101,0.453-2.12,1.276-2.868
		c0.822-0.748,1.966-1.16,3.219-1.16c0.553,0,1,0.448,1,1c0,0.553-0.447,1-1,1c-0.766,0-1.414,0.221-1.874,0.64
		c-0.401,0.364-0.621,0.856-0.621,1.387c0,2.021,2.872,4.196,9.178,4.196c0.552,0,0.999,0.448,0.999,1
		C25.164,11.564,24.717,12.011,24.164,12.011z"/>
</g>
<g id="hot_coffee">
</g>
<g id="lollipop-2">
</g>
<g id="lollipop_2">
</g>
<g id="ribbon_hold">
</g>
<g id="ribbons">
</g>
<g id="offer">
</g>
<g id="candels">
</g>
<g id="halloween">
</g>
<g id="egg-dec">
</g>
<g id="shore">
</g>
<g id="hot_air_balloon">
</g>
<g id="leef">
</g>
<g id="puppies">
</g>
<g id="ship">
</g>
<g id="goat">
</g>
<g id="tend">
</g>
<g id="watermelon">
</g>
<g id="lollipop">
</g>
<g id="sun-set">
</g>
<g id="ball-dec-1">
</g>
<g id="ball-dec">
</g>
<g id="snow_doll_1_">
</g>
<g id="snow_doll">
</g>
<g id="stick">
</g>
<g id="cracker-3">
</g>
<g id="crackers">
</g>
<g id="gift">
</g>
<g id="candle_glass">
</g>
<g id="wine_glass">
</g>
<g id="snowflake-8_1_">
</g>
<g id="snowflake-8">
</g>
<g id="snowflake-7">
</g>
<g id="snowflake6">
</g>
<g id="snowflake-5">
</g>
<g id="snowflake-4">
</g>
<g id="snowflake-3">
</g>
<g id="snowflake-2">
</g>
<g id="snowflake-1">
</g>
<g id="snowflake">
</g>
<g id="tree-2">
</g>
<g id="star_tree">
</g>
<g id="trees">
</g>
<g id="tree">
</g>
<g id="x-mashat">
</g>
<g id="x-mas-hat">
</g>
<g id="candle">
</g>
<g id="drink">
</g>
<g id="bell-2">
</g>
<g id="bell">
</g>
<g id="Layer_2">
</g>
<g id="Layer_3">
</g>
<g id="magicstic">
</g>
<g id="christmas-ball">
</g>
<g id="leef-dec">
</g>
<g id="navigator">
</g>
<g id="gift-3">
</g>
<g id="eye-wear-2">
</g>
</svg>
