<svg width="48" height="48" viewBox="0 0 48 48" fill="none" xmlns="http://www.w3.org/2000/svg">
<path d="M38.4 34H18.4C17.1 34 15.9 33.2 15.5 31.9L7.3 5H3C2.4 5 2 4.6 2 4C2 3.4 2.4 3 3 3H8.7L17.5 31.3C17.6 31.7 18 32 18.5 32H38.5C39 32 39.4 31.7 39.5 31.2L43 16.8C43.1 16.3 43.7 15.9 44.2 16.1C44.7 16.2 45.1 16.8 44.9 17.3L41.3 31.8C41 33.1 39.8 34 38.4 34Z" fill="white"/>
<path d="M22 46C19.2 46 17 43.8 17 41C17 38.2 19.2 36 22 36C24.8 36 27 38.2 27 41C27 43.8 24.8 46 22 46ZM22 38C20.3 38 19 39.3 19 41C19 42.7 20.3 44 22 44C23.7 44 25 42.7 25 41C25 39.3 23.7 38 22 38Z" fill="white"/>
<path d="M37 46C34.2 46 32 43.8 32 41C32 38.2 34.2 36 37 36C39.8 36 42 38.2 42 41C42 43.8 39.8 46 37 46ZM37 38C35.3 38 34 39.3 34 41C34 42.7 35.3 44 37 44C38.7 44 40 42.7 40 41C40 39.3 38.7 38 37 38Z" fill="white"/>
<path d="M43 22H19C18.4 22 18 21.6 18 21C18 20.4 18.4 20 19 20H43C43.6 20 44 20.4 44 21C44 21.6 43.6 22 43 22Z" fill="white"/>
<path d="M37 22C36.6 22 36.2 21.8 36.1 21.4C35.9 20.9 36.1 20.3 36.7 20.1L39.6 18.9C39.9 18.8 40.1 18.6 40.2 18.3C40.3 18 40.3 17.7 40.1 17.5L36 10.1C35.8 9.60002 35.2 9.50002 34.7 9.70002L26.3 13.2C26 13.3 25.8 13.5 25.7 13.8C25.6 14.1 25.6 14.3 25.7 14.6L28.7 20.7C28.9 21.2 28.7 21.8 28.3 22C27.8 22.2 27.2 22 27 21.6L24 15.5C23.6 14.8 23.6 13.9 23.9 13.1C24.2 12.3 24.8 11.7 25.6 11.4L34 7.80002C35.4 7.20002 37.1 7.80002 37.8 9.10002L41.9 16.5C42.3 17.3 42.4 18.1 42.1 19C41.8 19.9 41.2 20.5 40.4 20.8L37.5 22C37.2 22 37.1 22 37 22Z" fill="white"/>
<path d="M19 22C18.4 22 18 21.6 18 21V16C18 14.9 18.9 14 20 14H25C25.6 14 26 14.4 26 15C26 15.6 25.6 16 25 16H20V21C20 21.6 19.6 22 19 22Z" fill="white"/>
<path d="M22 16C21.4 16 21 15.6 21 15V9C21 7.9 21.9 7 23 7H28C29.1 7 30 7.9 30 9V10C30 10.6 29.6 11 29 11C28.4 11 28 10.6 28 10V9H23V15C23 15.6 22.6 16 22 16Z" fill="white"/>
</svg>
