<svg width="42" height="42" viewBox="0 0 42 42" fill="none" xmlns="http://www.w3.org/2000/svg">
<rect width="42" height="42" rx="21" fill="#0D6AED"/>
<path d="M16.1932 8.25411L12.3596 12.0881L10.3487 10.7477C9.94895 10.4809 9.41109 10.5893 9.14597 10.9883C8.88001 11.3868 8.98758 11.9255 9.38653 12.191L11.9886 13.9257C12.1351 14.0236 12.3028 14.0714 12.4697 14.0714C12.6933 14.0714 12.9152 13.985 13.0829 13.8173L17.4196 9.48059C17.7585 9.14178 17.7585 8.59291 17.4196 8.25411C17.0808 7.9153 16.532 7.9153 16.1932 8.25411Z" fill="white"/>
<path d="M32.0102 11H19.8673C19.3879 11 19 11.3884 19 11.8673C19 12.3463 19.3879 12.7347 19.8673 12.7347H32.0102C32.4896 12.7347 32.8776 12.3463 32.8776 11.8673C32.8776 11.3884 32.4896 11 32.0102 11Z" fill="white"/>
<path d="M16.0503 17.7847L12.2167 21.6188L10.2059 20.2784C9.80612 20.0116 9.26827 20.12 9.00315 20.5189C8.73719 20.9174 8.84476 21.4561 9.2437 21.7217L11.8457 23.4564C11.9923 23.5542 12.16 23.6021 12.3269 23.6021C12.5505 23.6021 12.7724 23.5157 12.9401 23.348L17.2768 19.0112C17.6156 18.6724 17.6156 18.1236 17.2768 17.7847C16.938 17.4459 16.3892 17.4459 16.0503 17.7847Z" fill="white"/>
<path d="M32.0102 20H19.8673C19.3879 20 19 20.3884 19 20.8673C19 21.3463 19.3879 21.7347 19.8673 21.7347H32.0102C32.4896 21.7347 32.8776 21.3463 32.8776 20.8673C32.8776 20.3884 32.4896 20 32.0102 20Z" fill="white"/>
<path d="M15.3214 30.0357C15.3214 31.2981 14.2981 32.3214 13.0357 32.3214C11.7733 32.3214 10.75 31.2981 10.75 30.0357C10.75 28.7733 11.7733 27.75 13.0357 27.75C14.2981 27.75 15.3214 28.7733 15.3214 30.0357Z" stroke="white" stroke-width="1.5"/>
<path d="M32.0102 29H19.8673C19.3879 29 19 29.3884 19 29.8673C19 30.3463 19.3879 30.7347 19.8673 30.7347H32.0102C32.4896 30.7347 32.8776 30.3463 32.8776 29.8673C32.8776 29.3884 32.4896 29 32.0102 29Z" fill="white"/>
</svg>
