<svg width="42" height="42" viewBox="0 0 42 42" fill="none" xmlns="http://www.w3.org/2000/svg">
<rect width="42" height="42" rx="21" fill="#0D6AED"/>
<path d="M24.0513 32.864C21.029 32.864 18.1229 31.411 16.3212 28.9699L17.2511 28.2724C18.8785 30.4811 21.3196 31.7016 24.0513 31.7016C25.3881 31.7016 26.6087 31.411 27.8292 30.8298C28.0617 30.7135 28.2942 30.7717 28.4685 30.946C29.3985 31.8178 31.6652 31.7016 33.1764 31.5272C31.2584 29.1443 31.6652 26.9938 31.7233 26.8775C31.7233 26.8194 31.7233 26.8194 31.7815 26.7613C32.3046 25.657 32.537 24.4364 32.537 23.2159C32.537 20.8329 31.549 18.6243 29.8635 16.9969L30.6772 16.1251C32.5952 17.9268 33.6995 20.4842 33.7576 23.1578C33.7576 24.5527 33.467 25.8895 32.9439 27.11C32.8858 27.4587 32.7695 29.3767 34.8038 31.4691C34.9781 31.6435 35.0363 31.8178 34.9781 32.0503C34.92 32.2828 34.7457 32.3991 34.5132 32.4572C34.0482 32.5734 30.0378 33.329 28.0617 31.9922C26.7249 32.5734 25.4462 32.864 24.0513 32.864Z" fill="white"/>
<path d="M18.3555 27.2263C16.9024 27.2263 15.5075 26.9356 14.2289 26.3544C13.4733 26.8775 12.2527 27.1681 10.7416 27.1681C9.05605 27.1681 7.54489 26.8775 7.48677 26.8194C7.25428 26.7613 7.13804 26.645 7.0218 26.4126C6.96367 26.1801 7.0218 26.0057 7.19616 25.8313C9.40477 23.6227 9.23041 21.5885 9.17229 21.2397C8.59107 19.9611 8.30047 18.5662 8.30047 17.1131C8.30047 11.5335 12.8339 7 18.4136 7C23.9933 7 28.5267 11.5335 28.5267 17.1131C28.5267 22.6928 23.877 27.2263 18.3555 27.2263ZM14.1126 25.0758C14.2289 25.0758 14.287 25.0758 14.3451 25.1339C15.5656 25.7732 16.9024 26.0638 18.2974 26.0638C23.2377 26.0638 27.2481 22.0534 27.2481 17.1131C27.2481 12.1728 23.2377 8.10431 18.3555 8.10431C13.4733 8.10431 9.40477 12.1728 9.40477 17.1131C9.40477 18.3918 9.69538 19.6705 10.2185 20.8329C10.2185 20.891 10.2766 20.891 10.2766 20.9491C10.2766 21.0654 10.7416 23.3321 8.70732 25.8313C9.23041 25.8895 9.98599 25.9476 10.6834 25.9476C12.1365 25.9476 13.1827 25.7151 13.7058 25.192C13.822 25.1339 13.9964 25.0758 14.1126 25.0758Z" fill="white"/>
</svg>
