# Blender v2.90.1 OBJ File: 'URBAN2.2.blend'
# www.blender.org
mtllib business_2tower_2lvl.mtl
o business_2tower_2lvl_Mesh.167
v -0.388320 3.536376 -0.710500
v -0.388320 3.536376 0.303850
v 0.664685 3.536376 0.303850
v -0.654868 -0.020792 -0.758707
v 0.664685 3.536376 -0.710500
v -0.388320 0.918510 -0.710499
v -0.388320 0.918511 0.303851
v 0.664685 0.918511 0.303850
v 0.664685 0.918511 -0.710499
v -0.654743 0.059087 -0.759695
v -0.626520 0.067799 -0.710499
v -0.626520 0.067799 0.303851
v -0.654782 -0.012633 0.345708
v -0.626520 0.918510 -0.710499
v -0.626520 0.918511 0.303851
v -0.654743 0.059087 0.353047
v -0.410715 3.557496 -0.756652
v -0.410715 3.557496 0.350003
v 0.687081 3.557496 0.350003
v 0.687081 3.557496 -0.756652
v -0.410715 3.642017 -0.756652
v -0.410715 3.642017 0.350003
v 0.687081 3.642017 0.350003
v 0.687081 3.642017 -0.756652
v -0.366950 3.641782 -0.666460
v -0.366950 3.641782 0.259811
v 0.643315 3.641782 0.259810
v 0.643315 3.641782 -0.666460
v -0.366950 3.520597 -0.666460
v -0.366950 3.520597 0.259811
v 0.643315 3.520597 0.259810
v 0.643315 3.520597 -0.666460
v 0.843661 -0.012632 0.345708
v 0.843690 -0.020792 -0.758707
v 0.814516 0.918511 0.303850
v 0.814515 0.918511 -0.710499
v 0.843660 0.059087 0.353046
v 0.843660 0.059087 -0.759695
v 0.814516 0.067799 0.303850
v 0.814515 0.067799 -0.710499
v -0.162889 4.481145 -0.245934
v -0.162889 4.481145 -0.160716
v 0.439255 4.481145 -0.160716
v 0.439255 4.481145 -0.245933
vt 0.635325 0.009839
vt 0.642787 0.016925
vt 0.474020 0.016925
vt 0.474020 0.008715
vt 0.195517 0.092457
vt 0.195517 0.092457
vt 0.364284 0.092457
vt 0.356822 0.105197
vt 0.589540 0.631347
vt 0.589540 0.991285
vt 0.456558 0.991285
vt 0.456558 0.631347
vt 0.899944 0.113824
vt 0.899944 0.124743
vt 0.887020 0.124743
vt 0.887020 0.113824
vt 0.633729 0.138516
vt 0.633729 0.498454
vt 0.479885 0.498454
vt 0.479885 0.138516
vt 0.357765 0.631347
vt 0.357765 0.991285
vt 0.224783 0.991285
vt 0.224783 0.631347
vt 0.805406 0.138516
vt 0.805406 0.498454
vt 0.651562 0.498454
vt 0.651562 0.138516
vt 0.805406 0.515884
vt 0.177683 0.092457
vt 0.170222 0.105197
vt 0.016378 0.105197
vt 0.008917 0.092457
vt 0.008917 0.498454
vt 0.016378 0.485714
vt 0.170222 0.485714
vt 0.177683 0.498454
vt 0.977083 0.328951
vt 0.977083 0.444414
vt 0.823240 0.444414
vt 0.823240 0.328951
vt 0.008917 0.515884
vt 0.977083 0.196057
vt 0.977083 0.311520
vt 0.823240 0.311520
vt 0.823240 0.196057
vt 0.008917 0.631347
vt 0.823240 0.991285
vt 0.823240 0.780304
vt 0.977083 0.780304
vt 0.977083 0.991285
vt 0.805406 0.631347
vt 0.963725 0.030889
vt 0.963725 0.042510
vt 0.795881 0.042510
vt 0.795881 0.030889
vt 0.293269 0.008715
vt 0.293269 0.020336
vt 0.148185 0.020336
vt 0.148185 0.008715
vt 0.316029 0.037766
vt 0.316029 0.049387
vt 0.148185 0.049387
vt 0.148185 0.037766
vt 0.456186 0.008715
vt 0.456186 0.020336
vt 0.311103 0.020336
vt 0.311103 0.008715
vt 0.991083 0.621074
vt 0.977404 0.632631
vt 0.836919 0.632631
vt 0.823240 0.621074
vt 0.991083 0.762874
vt 0.977404 0.751318
vt 0.823240 0.762874
vt 0.836919 0.751318
vt 0.651562 0.098184
vt 0.651562 0.081522
vt 0.792047 0.081522
vt 0.792047 0.098184
vt 0.008917 0.049387
vt 0.008917 0.032725
vt 0.130352 0.032725
vt 0.130352 0.049387
vt 0.493243 0.064092
vt 0.493243 0.047430
vt 0.633729 0.047430
vt 0.633729 0.064092
vt 0.651562 0.064092
vt 0.651562 0.047430
vt 0.772997 0.047430
vt 0.772997 0.064092
vt 0.195517 0.474963
vt 0.356822 0.496011
vt 0.424314 0.075027
vt 0.008917 0.075027
vt 0.008917 0.066817
vt 0.432247 0.066815
vt 0.364284 0.498454
vt 0.177651 0.118112
vt 0.416078 0.631347
vt 0.416078 0.515884
vt 0.633729 0.081522
vt 0.633729 0.121086
vt 0.479885 0.121086
vt 0.479885 0.081522
vt 0.398245 0.515884
vt 0.398245 0.631347
vt 0.963725 0.059940
vt 0.823240 0.059940
vt 0.963725 0.178627
vt 0.823240 0.178627
vn -1.0000 0.0011 0.0000
vn 1.0000 0.0002 0.0000
vn -0.0000 -0.0000 -1.0000
vn 0.0000 1.0000 0.0000
vn -1.0000 -0.0000 0.0000
vn 0.0000 0.0000 1.0000
vn 1.0000 0.0000 -0.0000
vn -0.2936 0.9559 -0.0001
vn -0.2952 0.9554 -0.0005
vn -0.2952 0.9554 0.0005
vn -0.2936 0.9559 0.0001
vn 0.2829 0.9591 0.0001
vn 0.2869 0.9580 0.0011
vn 0.2869 0.9580 -0.0011
vn 0.2830 0.9591 -0.0001
vn 0.0054 1.0000 0.0000
vn -0.0000 1.0000 -0.0026
vn -0.0054 1.0000 0.0000
vn -0.0000 1.0000 0.0026
vn 0.0000 -1.0000 0.0074
vn -0.0000 -0.0124 -0.9999
vn 0.0000 -0.1018 0.9948
vn -0.0000 0.9847 -0.1744
vn 0.0002 0.9845 -0.1755
vn -0.0023 0.9842 -0.1772
vn 0.0000 0.9847 0.1744
vn -0.0022 0.9842 0.1771
vn 0.0002 0.9845 0.1755
vn -0.9782 0.2078 0.0000
vn 0.0000 0.4010 0.9161
vn 0.9782 0.2078 -0.0000
vn 0.0000 0.4010 -0.9161
usemtl House_19
s off
f 13/1/1 16/2/1 10/3/1 4/4/1
f 34/5/2 38/6/2 37/7/2 33/8/2
f 6/9/3 1/10/3 5/11/3 9/12/3
f 42/13/4 43/14/4 44/15/4 41/16/4
f 7/17/5 2/18/5 1/19/5 6/20/5
f 8/21/6 3/22/6 2/23/6 7/24/6
f 9/25/7 5/26/7 3/27/7 8/28/7
f 9/12/3 11/29/3 6/9/3
f 16/30/8 12/31/9 11/32/10 10/33/11
f 38/34/12 40/35/13 39/36/14 37/37/15
f 12/38/5 15/39/5 14/40/5 11/41/5
f 12/42/6 8/21/6 7/24/6
f 40/43/7 36/44/7 35/45/7 39/46/7
f 7/24/6 15/47/6 12/42/6
f 6/48/4 14/49/4 15/50/4 7/51/4
f 11/29/3 14/52/3 6/9/3
f 18/53/5 22/54/5 21/55/5 17/56/5
f 19/57/6 23/58/6 22/59/6 18/60/6
f 20/61/7 24/62/7 23/63/7 19/64/7
f 17/65/3 21/66/3 24/67/3 20/68/3
f 22/69/16 26/70/16 25/71/16 21/72/16
f 23/73/17 27/74/17 26/70/17 22/69/17
f 24/75/18 28/76/18 27/74/18 23/73/18
f 21/72/19 25/71/19 28/76/19 24/75/19
f 26/77/7 30/78/7 29/79/7 25/80/7
f 27/81/3 31/82/3 30/83/3 26/84/3
f 28/85/5 32/86/5 31/87/5 27/88/5
f 25/89/6 29/90/6 32/91/6 28/92/6
f 4/93/20 34/5/20 33/8/20 13/94/20
f 10/95/21 38/96/21 34/97/21 4/98/21
f 13/94/22 33/8/22 37/7/22 16/99/22
f 11/32/23 40/35/24 38/34/25 10/33/23
f 16/100/26 37/37/27 39/36/28 12/31/26
f 9/12/3 36/101/3 40/102/3 11/29/3
f 8/103/4 35/104/4 36/105/4 9/106/4
f 12/42/6 39/107/6 35/108/6 8/21/6
f 30/109/29 42/13/29 41/16/29 29/110/29
f 31/111/30 43/14/30 42/13/30 30/109/30
f 32/112/31 44/15/31 43/14/31 31/111/31
f 29/110/32 41/16/32 44/15/32 32/112/32
o Tree_2_3_61.045_Mesh.306
v -0.614510 0.221272 0.873072
v -0.627780 0.621524 0.886270
v -0.540192 0.221272 0.873072
v -0.526922 0.621524 0.886270
v -0.540192 0.221272 0.799160
v -0.526922 0.621524 0.785962
v -0.614510 0.221272 0.799160
v -0.627780 0.621524 0.785962
v -0.627780 0.454707 0.886270
v -0.526922 0.454707 0.886270
v -0.526922 0.454707 0.785962
v -0.627780 0.454707 0.785962
v -0.656488 0.270959 0.914821
v -0.498214 0.270959 0.914821
v -0.498214 0.270959 0.757411
v -0.656488 0.270959 0.757411
v -0.614510 0.265729 0.873072
v -0.540192 0.265729 0.873072
v -0.540192 0.265729 0.799160
v -0.614510 0.265729 0.799160
v -0.656488 0.452252 0.914821
v -0.498214 0.452252 0.914821
v -0.498214 0.452252 0.757411
v -0.656488 0.452252 0.757411
v -0.581816 0.217868 0.840556
v -0.572886 0.217868 0.840556
v -0.577351 0.217868 0.831675
v -0.581816 -0.004262 0.840556
v -0.572886 -0.004262 0.840556
v -0.577351 -0.004262 0.831675
vt 0.950649 0.914160
vt 0.950649 0.991044
vt 0.829960 0.991044
vt 0.829960 0.914160
vt 0.949991 0.629771
vt 0.949991 0.706655
vt 0.829960 0.706655
vt 0.829960 0.629771
vt 0.950649 0.819363
vt 0.950649 0.896248
vt 0.829960 0.896248
vt 0.829960 0.819363
vt 0.171307 0.039673
vt 0.171307 0.328165
vt 0.008410 0.328165
vt 0.008410 0.039673
vt 0.531634 0.154692
vt 0.531634 0.328165
vt 0.367844 0.328165
vt 0.367844 0.154692
vt 0.717096 0.080976
vt 0.717096 0.369467
vt 0.553306 0.369467
vt 0.553306 0.080976
vt 0.351024 0.039673
vt 0.351024 0.328165
vt 0.188127 0.328165
vt 0.188127 0.039673
vt 0.897707 0.080976
vt 0.897707 0.369467
vt 0.733916 0.369467
vt 0.733916 0.080976
vt 0.602730 0.941668
vt 0.556110 0.991044
vt 0.556110 0.718819
vt 0.602730 0.768195
vt 0.265440 0.677516
vt 0.265440 0.991044
vt 0.008410 0.991044
vt 0.008410 0.677516
vt 0.536486 0.346077
vt 0.536486 0.659604
vt 0.280858 0.659604
vt 0.280858 0.346077
vt 0.539290 0.677516
vt 0.539290 0.991044
vt 0.282260 0.991044
vt 0.282260 0.677516
vt 0.829960 0.801451
vt 0.829960 0.724567
vt 0.949991 0.724567
vt 0.949991 0.801451
vt 0.008410 0.659604
vt 0.008410 0.346077
vt 0.264038 0.346077
vt 0.264038 0.659604
vt 0.813140 0.718819
vt 0.766520 0.768195
vt 0.813140 0.991044
vt 0.766520 0.941668
vt 0.977168 0.465127
vt 0.977168 0.080976
vt 0.991590 0.080976
vt 0.991590 0.465127
vt 0.945847 0.465127
vt 0.945847 0.080976
vt 0.960348 0.080976
vt 0.960348 0.465127
vt 0.967469 0.991044
vt 0.967469 0.606893
vt 0.981891 0.606893
vt 0.981891 0.991044
vn 0.0000 -0.0000 1.0000
vn 1.0000 0.0000 0.0000
vn 0.0000 0.0000 -1.0000
vn -1.0000 0.0000 0.0000
vn 0.0000 1.0000 0.0000
vn -0.0852 0.9964 0.0000
vn 0.0000 0.9963 0.0857
vn 0.0852 0.9964 0.0000
vn 0.0000 0.9963 -0.0857
vn 0.8934 0.0000 -0.4492
vn -0.8934 0.0000 -0.4492
usemtl Tree_2.003
s 1
f 47/113/33 62/114/33 61/115/33 45/116/33
f 49/117/34 63/118/34 62/119/34 47/120/34
f 51/121/35 64/122/35 63/123/35 49/124/35
f 53/125/36 46/126/36 52/127/36 56/128/36
f 48/129/37 50/130/37 52/131/37 46/132/37
f 54/133/33 48/134/33 46/135/33 53/136/33
f 55/137/34 50/138/34 48/139/34 54/140/34
f 56/141/35 52/142/35 50/143/35 55/144/35
f 56/145/38 68/146/38 65/147/38 53/148/38
f 58/149/33 66/150/33 65/151/33 57/152/33
f 59/153/34 67/154/34 66/155/34 58/156/34
f 60/157/35 68/158/35 67/159/35 59/160/35
f 64/161/36 51/162/36 45/163/36 61/164/36
f 68/165/36 60/166/36 57/167/36 65/168/36
f 66/169/39 54/170/39 53/148/39 65/147/39
f 67/171/40 55/172/40 54/170/40 66/169/40
f 68/146/41 56/145/41 55/172/41 67/171/41
f 70/173/42 73/174/42 74/175/42 71/176/42
f 69/177/33 72/178/33 73/179/33 70/180/33
f 71/181/43 74/182/43 72/183/43 69/184/43
o Tree_3_499_2.027_Mesh.307
v -0.131440 0.207787 0.830090
v -0.136011 0.571036 0.838935
v -0.006155 0.206690 0.826744
v 0.005239 0.569799 0.835163
v -0.009481 0.206957 0.702139
v 0.001490 0.570100 0.694678
v -0.134765 0.208054 0.705485
v -0.139760 0.571337 0.698450
v -0.136438 0.522554 0.838843
v 0.004812 0.521317 0.835071
v 0.001063 0.521618 0.694586
v -0.140188 0.522855 0.698358
v -0.184740 0.253240 0.886513
v 0.050868 0.251176 0.880220
v 0.044614 0.251678 0.645888
v -0.190994 0.253742 0.652181
v -0.131084 0.248129 0.830167
v -0.005800 0.247031 0.826821
v -0.009125 0.247298 0.702216
v -0.134410 0.248396 0.705562
v -0.182385 0.520639 0.887022
v 0.053224 0.518575 0.880730
v 0.046970 0.519077 0.646398
v -0.188639 0.521141 0.652690
v -0.074697 0.204312 0.770525
v -0.066049 0.204236 0.770294
v -0.070602 0.204293 0.761808
v -0.076472 0.002747 0.770141
v -0.067824 0.002671 0.769910
v -0.072378 0.002728 0.761424
vt 0.861275 0.031624
vt 0.861275 0.085158
vt 0.693591 0.085158
vt 0.693591 0.031624
vt 0.547108 0.027812
vt 0.547108 0.081347
vt 0.380339 0.081347
vt 0.380339 0.027812
vt 0.362350 0.027812
vt 0.362350 0.081347
vt 0.194667 0.081347
vt 0.194667 0.027812
vt 0.382689 0.099188
vt 0.382689 0.163525
vt 0.194667 0.163525
vt 0.194667 0.099188
vt 0.861275 0.102999
vt 0.861275 0.289486
vt 0.672221 0.289486
vt 0.672221 0.102999
vt 0.383720 0.181367
vt 0.383720 0.245704
vt 0.194667 0.245704
vt 0.194667 0.181367
vt 0.588699 0.099188
vt 0.588699 0.163525
vt 0.400677 0.163525
vt 0.400677 0.099188
vt 0.590762 0.181367
vt 0.590762 0.245704
vt 0.401708 0.245704
vt 0.401708 0.181367
vt 0.738807 0.928791
vt 0.675661 0.991079
vt 0.675661 0.680015
vt 0.738807 0.742304
vt 0.657672 0.636233
vt 0.657672 0.991079
vt 0.342328 0.991079
vt 0.342328 0.636233
vt 0.654233 0.263546
vt 0.654233 0.618392
vt 0.340608 0.618392
vt 0.340608 0.263546
vt 0.324339 0.636233
vt 0.324339 0.991079
vt 0.008994 0.991079
vt 0.008994 0.636233
vt 0.008994 0.062455
vt 0.008994 0.008921
vt 0.175764 0.008921
vt 0.175764 0.062455
vt 0.008994 0.618392
vt 0.008994 0.263546
vt 0.322619 0.263546
vt 0.322619 0.618392
vt 0.991006 0.680015
vt 0.927860 0.742304
vt 0.991006 0.991079
vt 0.927860 0.928791
vt 0.967891 0.289486
vt 0.967891 0.022004
vt 0.979403 0.022004
vt 0.979403 0.289486
vt 0.879263 0.289486
vt 0.879263 0.022004
vt 0.890838 0.022004
vt 0.890838 0.289486
vt 0.938390 0.289486
vt 0.938390 0.022004
vt 0.949902 0.022004
vt 0.949902 0.289486
vn 0.0267 -0.0021 0.9996
vn 0.9996 -0.0088 -0.0267
vn -0.0267 0.0021 -0.9996
vn -0.9996 0.0088 0.0267
vn 0.0088 1.0000 0.0019
vn -0.0383 0.9993 0.0032
vn 0.0101 0.9987 0.0493
vn 0.0559 0.9984 0.0006
vn 0.0075 0.9989 -0.0455
vn 0.8811 -0.0069 -0.4729
vn -0.9051 0.0088 -0.4252
usemtl Tree_3.003
s 1
f 77/185/44 92/186/44 91/187/44 75/188/44
f 79/189/45 93/190/45 92/191/45 77/192/45
f 81/193/46 94/194/46 93/195/46 79/196/46
f 83/197/47 76/198/47 82/199/47 86/200/47
f 78/201/48 80/202/48 82/203/48 76/204/48
f 84/205/44 78/206/44 76/207/44 83/208/44
f 85/209/45 80/210/45 78/211/45 84/212/45
f 86/213/46 82/214/46 80/215/46 85/216/46
f 86/217/49 98/218/49 95/219/49 83/220/49
f 88/221/44 96/222/44 95/223/44 87/224/44
f 89/225/45 97/226/45 96/227/45 88/228/45
f 90/229/46 98/230/46 97/231/46 89/232/46
f 94/233/47 81/234/47 75/235/47 91/236/47
f 98/237/47 90/238/47 87/239/47 95/240/47
f 96/241/50 84/242/50 83/220/50 95/219/50
f 97/243/51 85/244/51 84/242/51 96/241/51
f 98/218/52 86/217/52 85/244/52 97/243/52
f 100/245/53 103/246/53 104/247/53 101/248/53
f 99/249/44 102/250/44 103/251/44 100/252/44
f 101/253/54 104/254/54 102/255/54 99/256/54
o Tree_3_499_2.028_Mesh.308
v 0.464830 0.207787 0.836193
v 0.460258 0.571036 0.845038
v 0.590114 0.206690 0.832847
v 0.601508 0.569799 0.841266
v 0.586788 0.206957 0.708241
v 0.597759 0.570100 0.700781
v 0.461504 0.208054 0.711587
v 0.456509 0.571337 0.704553
v 0.459831 0.522554 0.844946
v 0.601081 0.521317 0.841173
v 0.597332 0.521618 0.700688
v 0.456082 0.522855 0.704461
v 0.411529 0.253240 0.892615
v 0.647137 0.251176 0.886323
v 0.640883 0.251678 0.651991
v 0.405275 0.253742 0.658283
v 0.465185 0.248129 0.836270
v 0.590469 0.247031 0.832924
v 0.587144 0.247298 0.708318
v 0.461859 0.248396 0.711664
v 0.413884 0.520639 0.893125
v 0.649493 0.518575 0.886833
v 0.643239 0.519077 0.652500
v 0.407631 0.521141 0.658793
v 0.521572 0.204312 0.776627
v 0.530221 0.204236 0.776397
v 0.525667 0.204293 0.767911
v 0.519797 0.002747 0.776243
v 0.528445 0.002671 0.776012
v 0.523891 0.002728 0.767526
vt 0.861275 0.031624
vt 0.861275 0.085158
vt 0.693591 0.085158
vt 0.693591 0.031624
vt 0.547108 0.027812
vt 0.547108 0.081347
vt 0.380339 0.081347
vt 0.380339 0.027812
vt 0.362350 0.027812
vt 0.362350 0.081347
vt 0.194667 0.081347
vt 0.194667 0.027812
vt 0.382689 0.099188
vt 0.382689 0.163525
vt 0.194667 0.163525
vt 0.194667 0.099188
vt 0.861275 0.102999
vt 0.861275 0.289486
vt 0.672221 0.289486
vt 0.672221 0.102999
vt 0.383720 0.181367
vt 0.383720 0.245704
vt 0.194667 0.245704
vt 0.194667 0.181367
vt 0.588699 0.099188
vt 0.588699 0.163525
vt 0.400677 0.163525
vt 0.400677 0.099188
vt 0.590762 0.181367
vt 0.590762 0.245704
vt 0.401708 0.245704
vt 0.401708 0.181367
vt 0.738807 0.928791
vt 0.675661 0.991079
vt 0.675661 0.680015
vt 0.738807 0.742304
vt 0.657672 0.636233
vt 0.657672 0.991079
vt 0.342328 0.991079
vt 0.342328 0.636233
vt 0.654233 0.263546
vt 0.654233 0.618392
vt 0.340608 0.618392
vt 0.340608 0.263546
vt 0.324339 0.636233
vt 0.324339 0.991079
vt 0.008994 0.991079
vt 0.008994 0.636233
vt 0.008994 0.062455
vt 0.008994 0.008921
vt 0.175764 0.008921
vt 0.175764 0.062455
vt 0.008994 0.618392
vt 0.008994 0.263546
vt 0.322619 0.263546
vt 0.322619 0.618392
vt 0.991006 0.680015
vt 0.927860 0.742304
vt 0.991006 0.991079
vt 0.927860 0.928791
vt 0.967891 0.289486
vt 0.967891 0.022004
vt 0.979403 0.022004
vt 0.979403 0.289486
vt 0.879263 0.289486
vt 0.879263 0.022004
vt 0.890838 0.022004
vt 0.890838 0.289486
vt 0.938390 0.289486
vt 0.938390 0.022004
vt 0.949902 0.022004
vt 0.949902 0.289486
vn 0.0267 -0.0021 0.9996
vn 0.9996 -0.0088 -0.0267
vn -0.0267 0.0021 -0.9996
vn -0.9996 0.0088 0.0267
vn 0.0088 1.0000 0.0019
vn -0.0383 0.9993 0.0032
vn 0.0101 0.9987 0.0493
vn 0.0559 0.9984 0.0006
vn 0.0075 0.9989 -0.0455
vn 0.8811 -0.0069 -0.4729
vn -0.9051 0.0088 -0.4252
usemtl Tree_3.003
s 1
f 107/257/55 122/258/55 121/259/55 105/260/55
f 109/261/56 123/262/56 122/263/56 107/264/56
f 111/265/57 124/266/57 123/267/57 109/268/57
f 113/269/58 106/270/58 112/271/58 116/272/58
f 108/273/59 110/274/59 112/275/59 106/276/59
f 114/277/55 108/278/55 106/279/55 113/280/55
f 115/281/56 110/282/56 108/283/56 114/284/56
f 116/285/57 112/286/57 110/287/57 115/288/57
f 116/289/60 128/290/60 125/291/60 113/292/60
f 118/293/55 126/294/55 125/295/55 117/296/55
f 119/297/56 127/298/56 126/299/56 118/300/56
f 120/301/57 128/302/57 127/303/57 119/304/57
f 124/305/58 111/306/58 105/307/58 121/308/58
f 128/309/58 120/310/58 117/311/58 125/312/58
f 126/313/61 114/314/61 113/292/61 125/291/61
f 127/315/62 115/316/62 114/314/62 126/313/62
f 128/290/63 116/289/63 115/316/63 127/315/63
f 130/317/64 133/318/64 134/319/64 131/320/64
f 129/321/55 132/322/55 133/323/55 130/324/55
f 131/325/65 134/326/65 132/327/65 129/328/65
