# Blender v2.90.1 OBJ File: 'URBAN2.2.blend'
# www.blender.org
mtllib business_2tower_1lvl.mtl
o business_2tower_1lvl_Mesh.9254
v 0.688069 0.093597 0.347528
v 0.715592 0.963663 0.370609
v 0.688032 0.076279 -0.829579
v 0.715592 0.963664 -0.829578
v -0.690328 0.076280 -0.829579
v -0.715591 0.963665 -0.829578
v -0.688069 0.093598 0.347528
v -0.715591 0.963663 0.370609
v 0.588445 0.969205 0.263985
v 0.588445 0.969207 -0.722953
v -0.588445 0.969207 -0.722953
v -0.588445 0.969205 0.263984
v 0.588446 4.150491 0.263989
v 0.588446 4.150493 -0.722949
v -0.588444 4.150493 -0.722949
v -0.588444 4.150491 0.263988
v 0.731417 0.084645 0.384607
v 0.730817 0.066236 -0.866658
v -0.731288 0.066236 -0.866658
v -0.731417 0.084645 0.384606
v 0.731417 -0.047702 0.384606
v 0.730817 -0.066111 -0.866658
v -0.730338 -0.066111 -0.866658
v -0.731417 -0.047702 0.384606
v 0.544312 4.154093 0.226978
v 0.544312 4.154095 -0.685939
v -0.544311 4.154095 -0.685939
v -0.544311 4.154093 0.226978
v 0.544312 4.088893 0.226978
v 0.544312 4.088895 -0.685939
v -0.544311 4.088895 -0.685939
v -0.544311 4.088893 0.226978
vt 0.929800 0.582811
vt 0.929800 0.750677
vt 0.758956 0.750677
vt 0.762241 0.586087
vt 0.579257 0.206060
vt 0.583544 0.373926
vt 0.340694 0.373926
vt 0.345370 0.206060
vt 0.926515 0.402039
vt 0.929800 0.566629
vt 0.758956 0.566629
vt 0.758956 0.398763
vt 0.839185 0.209336
vt 0.843855 0.373926
vt 0.601005 0.373926
vt 0.605676 0.209336
vt 0.991269 0.209336
vt 0.991269 0.380520
vt 0.861317 0.380520
vt 0.861317 0.209336
vt 0.929800 0.766859
vt 0.914622 0.786852
vt 0.774134 0.786852
vt 0.758956 0.766859
vt 0.929800 0.991909
vt 0.914622 0.971915
vt 0.758956 0.991909
vt 0.774134 0.971915
vt 0.741494 0.390108
vt 0.741494 0.991909
vt 0.601005 0.991909
vt 0.601005 0.390108
vt 0.208431 0.390108
vt 0.208431 0.991909
vt 0.008731 0.991909
vt 0.008731 0.390108
vt 0.583544 0.390108
vt 0.583544 0.991909
vt 0.443055 0.991909
vt 0.443055 0.390108
vt 0.425593 0.390108
vt 0.425593 0.991909
vt 0.225893 0.991909
vt 0.225893 0.390108
vt 0.181568 0.367465
vt 0.186846 0.373906
vt 0.008731 0.373926
vt 0.014009 0.367110
vt 0.181568 0.150721
vt 0.186846 0.143993
vt 0.014009 0.150715
vt 0.008731 0.143898
vt 0.274413 0.124234
vt 0.274413 0.099198
vt 0.452528 0.102680
vt 0.452528 0.127716
vt 0.008731 0.127716
vt 0.008731 0.102680
vt 0.256667 0.102680
vt 0.256828 0.127716
vt 0.813154 0.193154
vt 0.813154 0.168118
vt 0.991269 0.164636
vt 0.991269 0.189672
vt 0.204308 0.172417
vt 0.204308 0.147381
vt 0.452528 0.147381
vt 0.452528 0.172417
vt 0.741494 0.008091
vt 0.736226 0.015031
vt 0.606274 0.015031
vt 0.601005 0.008091
vt 0.741494 0.193154
vt 0.736226 0.186215
vt 0.601005 0.193154
vt 0.606274 0.186215
vt 0.806546 0.091422
vt 0.806546 0.079088
vt 0.936498 0.079088
vt 0.936498 0.091422
vt 0.806546 0.148454
vt 0.806546 0.136120
vt 0.991269 0.136120
vt 0.991269 0.148454
vt 0.008731 0.086498
vt 0.008731 0.074165
vt 0.138683 0.074165
vt 0.138683 0.086498
vt 0.806546 0.119938
vt 0.806546 0.107604
vt 0.991269 0.107604
vt 0.991269 0.119938
vn 0.9995 -0.0313 0.0002
vn 0.0000 0.0000 -1.0000
vn -0.9995 -0.0300 0.0012
vn -0.0000 -0.0265 0.9996
vn -0.0000 1.0000 0.0000
vn 0.0194 0.9994 -0.0298
vn 0.0226 0.9994 -0.0246
vn 0.0226 0.9994 0.0246
vn 0.0194 0.9994 0.0299
vn -0.0194 0.9994 -0.0298
vn -0.0226 0.9994 -0.0246
vn -0.0194 0.9994 0.0299
vn -0.0226 0.9994 0.0246
vn 1.0000 -0.0000 0.0000
vn -1.0000 0.0000 -0.0000
vn -0.0000 -0.0000 1.0000
vn -0.1155 0.9842 -0.1341
vn -0.1002 0.9826 -0.1561
vn -0.1002 0.9865 0.1294
vn -0.1155 0.9877 0.1058
vn 0.1129 0.9845 -0.1340
vn 0.0981 0.9828 -0.1567
vn 0.1130 0.9880 0.1056
vn 0.0980 0.9868 0.1292
vn -1.0000 -0.0036 -0.0004
vn 1.0000 0.0000 -0.0005
vn 0.0364 0.9978 -0.0557
vn 0.0422 0.9980 -0.0461
vn 0.0422 0.9980 0.0461
vn 0.0364 0.9978 0.0557
vn -0.0364 0.9978 -0.0557
vn -0.0422 0.9980 -0.0461
vn -0.0364 0.9978 0.0557
vn -0.0422 0.9980 0.0461
usemtl House_9
s 1
f 3/1/1 4/2/1 2/3/1 1/4/1
f 5/5/2 6/6/2 4/7/2 3/8/2
f 7/9/3 8/10/3 6/11/3 5/12/3
f 1/13/4 2/14/4 8/15/4 7/16/4
f 30/17/5 31/18/5 32/19/5 29/20/5
f 4/21/6 10/22/7 9/23/8 2/24/9
f 6/25/10 11/26/11 10/22/7 4/21/6
f 8/27/12 12/28/13 11/26/11 6/25/10
f 2/24/9 9/23/8 12/28/13 8/27/12
f 10/29/14 14/30/14 13/31/14 9/32/14
f 11/33/2 15/34/2 14/35/2 10/36/2
f 12/37/15 16/38/15 15/39/15 11/40/15
f 9/41/16 13/42/16 16/43/16 12/44/16
f 5/45/17 19/46/18 20/47/19 7/48/20
f 3/49/21 18/50/22 19/46/18 5/45/17
f 1/51/23 17/52/24 18/50/22 3/49/21
f 7/48/20 20/47/19 17/52/24 1/51/23
f 19/53/25 23/54/25 24/55/25 20/56/25
f 18/57/2 22/58/2 23/59/2 19/60/2
f 17/61/26 21/62/26 22/63/26 18/64/26
f 20/65/16 24/66/16 21/67/16 17/68/16
f 14/69/27 26/70/28 25/71/29 13/72/30
f 15/73/31 27/74/32 26/70/28 14/69/27
f 16/75/33 28/76/34 27/74/32 15/73/31
f 13/72/30 25/71/29 28/76/34 16/75/33
f 26/77/15 30/78/15 29/79/15 25/80/15
f 27/81/16 31/82/16 30/83/16 26/84/16
f 28/85/14 32/86/14 31/87/14 27/88/14
f 25/89/2 29/90/2 32/91/2 28/92/2
o Tree_2_3_61.401_Mesh.9258
v -0.752392 0.186917 0.758199
v -0.765662 0.587168 0.771397
v -0.678074 0.186917 0.758199
v -0.664804 0.587168 0.771397
v -0.678074 0.186917 0.684287
v -0.664804 0.587169 0.671089
v -0.752392 0.186917 0.684287
v -0.765662 0.587169 0.671089
v -0.765662 0.420352 0.771397
v -0.664804 0.420352 0.771397
v -0.664804 0.420352 0.671089
v -0.765662 0.420352 0.671089
v -0.794370 0.236604 0.799948
v -0.636096 0.236604 0.799948
v -0.636096 0.236604 0.642538
v -0.794370 0.236604 0.642538
v -0.752392 0.231374 0.758199
v -0.678074 0.231374 0.758199
v -0.678074 0.231374 0.684287
v -0.752392 0.231374 0.684287
v -0.794370 0.417897 0.799948
v -0.636096 0.417897 0.799948
v -0.636096 0.417897 0.642538
v -0.794370 0.417897 0.642538
v -0.719698 0.183513 0.725683
v -0.710768 0.183513 0.725683
v -0.715233 0.183513 0.716802
v -0.719698 -0.038617 0.725683
v -0.710768 -0.038617 0.725683
v -0.715233 -0.038617 0.716802
vt 0.950649 0.914160
vt 0.950649 0.991044
vt 0.829960 0.991044
vt 0.829960 0.914160
vt 0.949991 0.629771
vt 0.949991 0.706655
vt 0.829960 0.706655
vt 0.829960 0.629771
vt 0.950649 0.819363
vt 0.950649 0.896248
vt 0.829960 0.896248
vt 0.829960 0.819363
vt 0.171307 0.039673
vt 0.171307 0.328165
vt 0.008410 0.328165
vt 0.008410 0.039673
vt 0.531634 0.154692
vt 0.531634 0.328165
vt 0.367844 0.328165
vt 0.367844 0.154692
vt 0.717096 0.080976
vt 0.717096 0.369467
vt 0.553306 0.369467
vt 0.553306 0.080976
vt 0.351024 0.039673
vt 0.351024 0.328165
vt 0.188127 0.328165
vt 0.188127 0.039673
vt 0.897707 0.080976
vt 0.897707 0.369467
vt 0.733916 0.369467
vt 0.733916 0.080976
vt 0.602730 0.941668
vt 0.556110 0.991044
vt 0.556110 0.718819
vt 0.602730 0.768195
vt 0.265440 0.677516
vt 0.265440 0.991044
vt 0.008410 0.991044
vt 0.008410 0.677516
vt 0.536486 0.346077
vt 0.536486 0.659604
vt 0.280858 0.659604
vt 0.280858 0.346077
vt 0.539290 0.677516
vt 0.539290 0.991044
vt 0.282260 0.991044
vt 0.282260 0.677516
vt 0.829960 0.801451
vt 0.829960 0.724567
vt 0.949991 0.724567
vt 0.949991 0.801451
vt 0.008410 0.659604
vt 0.008410 0.346077
vt 0.264038 0.346077
vt 0.264038 0.659604
vt 0.813140 0.718819
vt 0.766520 0.768195
vt 0.813140 0.991044
vt 0.766520 0.941668
vt 0.977168 0.465127
vt 0.977168 0.080976
vt 0.991590 0.080976
vt 0.991590 0.465127
vt 0.945847 0.465127
vt 0.945847 0.080976
vt 0.960348 0.080976
vt 0.960348 0.465127
vt 0.967469 0.991044
vt 0.967469 0.606893
vt 0.981891 0.606893
vt 0.981891 0.991044
vn 0.0000 -0.0000 1.0000
vn 1.0000 0.0000 0.0000
vn 0.0000 0.0000 -1.0000
vn -1.0000 0.0000 0.0000
vn 0.0000 1.0000 0.0000
vn -0.0852 0.9964 0.0000
vn 0.0000 0.9963 0.0857
vn 0.0852 0.9964 0.0000
vn 0.0000 0.9963 -0.0857
vn 0.8934 0.0000 -0.4492
vn -0.8934 0.0000 -0.4492
usemtl Tree_2.003
s 1
f 35/93/35 50/94/35 49/95/35 33/96/35
f 37/97/36 51/98/36 50/99/36 35/100/36
f 39/101/37 52/102/37 51/103/37 37/104/37
f 41/105/38 34/106/38 40/107/38 44/108/38
f 36/109/39 38/110/39 40/111/39 34/112/39
f 42/113/35 36/114/35 34/115/35 41/116/35
f 43/117/36 38/118/36 36/119/36 42/120/36
f 44/121/37 40/122/37 38/123/37 43/124/37
f 44/125/40 56/126/40 53/127/40 41/128/40
f 46/129/35 54/130/35 53/131/35 45/132/35
f 47/133/36 55/134/36 54/135/36 46/136/36
f 48/137/37 56/138/37 55/139/37 47/140/37
f 52/141/38 39/142/38 33/143/38 49/144/38
f 56/145/38 48/146/38 45/147/38 53/148/38
f 54/149/41 42/150/41 41/128/41 53/127/41
f 55/151/42 43/152/42 42/150/42 54/149/42
f 56/126/43 44/125/43 43/152/43 55/151/43
f 58/153/44 61/154/44 62/155/44 59/156/44
f 57/157/35 60/158/35 61/159/35 58/160/35
f 59/161/45 62/162/45 60/163/45 57/164/45
o Tree_3_499_2.243_Mesh.9259
v -0.272892 0.172846 0.814278
v -0.277464 0.536095 0.823123
v -0.147608 0.171749 0.810932
v -0.136213 0.534858 0.819351
v -0.150933 0.172016 0.686326
v -0.139962 0.535159 0.678866
v -0.276217 0.173113 0.689672
v -0.281213 0.536396 0.682638
v -0.277891 0.487613 0.823031
v -0.136640 0.486376 0.819258
v -0.140390 0.486677 0.678773
v -0.281640 0.487914 0.682546
v -0.326193 0.218299 0.870700
v -0.090584 0.216235 0.864408
v -0.096838 0.216737 0.630076
v -0.332447 0.218801 0.636368
v -0.272537 0.213188 0.814355
v -0.147252 0.212090 0.811009
v -0.150578 0.212357 0.686403
v -0.275862 0.213455 0.689749
v -0.323837 0.485698 0.871210
v -0.088229 0.483634 0.864918
v -0.094482 0.484136 0.630585
v -0.330091 0.486200 0.636878
v -0.216149 0.169371 0.754712
v -0.207501 0.169295 0.754481
v -0.212055 0.169352 0.745995
v -0.217925 -0.032194 0.754328
v -0.209277 -0.032270 0.754097
v -0.213830 -0.032213 0.745611
vt 0.861275 0.031624
vt 0.861275 0.085158
vt 0.693591 0.085158
vt 0.693591 0.031624
vt 0.547108 0.027812
vt 0.547108 0.081347
vt 0.380339 0.081347
vt 0.380339 0.027812
vt 0.362350 0.027812
vt 0.362350 0.081347
vt 0.194667 0.081347
vt 0.194667 0.027812
vt 0.382689 0.099188
vt 0.382689 0.163525
vt 0.194667 0.163525
vt 0.194667 0.099188
vt 0.861275 0.102999
vt 0.861275 0.289486
vt 0.672221 0.289486
vt 0.672221 0.102999
vt 0.383720 0.181367
vt 0.383720 0.245704
vt 0.194667 0.245704
vt 0.194667 0.181367
vt 0.588699 0.099188
vt 0.588699 0.163525
vt 0.400677 0.163525
vt 0.400677 0.099188
vt 0.590762 0.181367
vt 0.590762 0.245704
vt 0.401708 0.245704
vt 0.401708 0.181367
vt 0.738807 0.928791
vt 0.675661 0.991079
vt 0.675661 0.680015
vt 0.738807 0.742304
vt 0.657672 0.636233
vt 0.657672 0.991079
vt 0.342328 0.991079
vt 0.342328 0.636233
vt 0.654233 0.263546
vt 0.654233 0.618392
vt 0.340608 0.618392
vt 0.340608 0.263546
vt 0.324339 0.636233
vt 0.324339 0.991079
vt 0.008994 0.991079
vt 0.008994 0.636233
vt 0.008994 0.062455
vt 0.008994 0.008921
vt 0.175764 0.008921
vt 0.175764 0.062455
vt 0.008994 0.618392
vt 0.008994 0.263546
vt 0.322619 0.263546
vt 0.322619 0.618392
vt 0.991006 0.680015
vt 0.927860 0.742304
vt 0.991006 0.991079
vt 0.927860 0.928791
vt 0.967891 0.289486
vt 0.967891 0.022004
vt 0.979403 0.022004
vt 0.979403 0.289486
vt 0.879263 0.289486
vt 0.879263 0.022004
vt 0.890838 0.022004
vt 0.890838 0.289486
vt 0.938390 0.289486
vt 0.938390 0.022004
vt 0.949902 0.022004
vt 0.949902 0.289486
vn 0.0267 -0.0021 0.9996
vn 0.9996 -0.0088 -0.0267
vn -0.0267 0.0021 -0.9996
vn -0.9996 0.0088 0.0267
vn 0.0088 1.0000 0.0019
vn -0.0383 0.9993 0.0032
vn 0.0101 0.9987 0.0493
vn 0.0559 0.9984 0.0006
vn 0.0075 0.9989 -0.0455
vn 0.8811 -0.0069 -0.4729
vn -0.9051 0.0088 -0.4252
usemtl Tree_3.003
s 1
f 65/165/46 80/166/46 79/167/46 63/168/46
f 67/169/47 81/170/47 80/171/47 65/172/47
f 69/173/48 82/174/48 81/175/48 67/176/48
f 71/177/49 64/178/49 70/179/49 74/180/49
f 66/181/50 68/182/50 70/183/50 64/184/50
f 72/185/46 66/186/46 64/187/46 71/188/46
f 73/189/47 68/190/47 66/191/47 72/192/47
f 74/193/48 70/194/48 68/195/48 73/196/48
f 74/197/51 86/198/51 83/199/51 71/200/51
f 76/201/46 84/202/46 83/203/46 75/204/46
f 77/205/47 85/206/47 84/207/47 76/208/47
f 78/209/48 86/210/48 85/211/48 77/212/48
f 82/213/49 69/214/49 63/215/49 79/216/49
f 86/217/49 78/218/49 75/219/49 83/220/49
f 84/221/52 72/222/52 71/200/52 83/199/52
f 85/223/53 73/224/53 72/222/53 84/221/53
f 86/198/54 74/197/54 73/224/54 85/223/54
f 88/225/55 91/226/55 92/227/55 89/228/55
f 87/229/46 90/230/46 91/231/46 88/232/46
f 89/233/56 92/234/56 90/235/56 87/236/56
o Tree_2_3_61.402_Mesh.9260
v 0.200028 0.186917 0.815862
v 0.186757 0.587168 0.829060
v 0.274345 0.186917 0.815862
v 0.287616 0.587168 0.829060
v 0.274345 0.186917 0.741949
v 0.287616 0.587169 0.728752
v 0.200028 0.186917 0.741949
v 0.186757 0.587169 0.728752
v 0.186757 0.420352 0.829060
v 0.287616 0.420352 0.829060
v 0.287616 0.420352 0.728752
v 0.186757 0.420352 0.728752
v 0.158050 0.236603 0.857611
v 0.316323 0.236603 0.857611
v 0.316323 0.236604 0.700201
v 0.158050 0.236604 0.700201
v 0.200028 0.231374 0.815862
v 0.274345 0.231374 0.815862
v 0.274345 0.231374 0.741950
v 0.200028 0.231374 0.741950
v 0.158050 0.417897 0.857611
v 0.316323 0.417897 0.857611
v 0.316323 0.417897 0.700201
v 0.158050 0.417897 0.700201
v 0.232722 0.183513 0.783346
v 0.241651 0.183513 0.783346
v 0.237186 0.183513 0.774465
v 0.232722 -0.038617 0.783346
v 0.241651 -0.038617 0.783346
v 0.237186 -0.038617 0.774465
vt 0.950649 0.914160
vt 0.950649 0.991044
vt 0.829960 0.991044
vt 0.829960 0.914160
vt 0.949991 0.629771
vt 0.949991 0.706655
vt 0.829960 0.706655
vt 0.829960 0.629771
vt 0.950649 0.819363
vt 0.950649 0.896248
vt 0.829960 0.896248
vt 0.829960 0.819363
vt 0.171307 0.039673
vt 0.171307 0.328165
vt 0.008410 0.328165
vt 0.008410 0.039673
vt 0.531634 0.154692
vt 0.531634 0.328165
vt 0.367844 0.328165
vt 0.367844 0.154692
vt 0.717096 0.080976
vt 0.717096 0.369467
vt 0.553306 0.369467
vt 0.553306 0.080976
vt 0.351024 0.039673
vt 0.351024 0.328165
vt 0.188127 0.328165
vt 0.188127 0.039673
vt 0.897707 0.080976
vt 0.897707 0.369467
vt 0.733916 0.369467
vt 0.733916 0.080976
vt 0.602730 0.941668
vt 0.556110 0.991044
vt 0.556110 0.718819
vt 0.602730 0.768195
vt 0.265440 0.677516
vt 0.265440 0.991044
vt 0.008410 0.991044
vt 0.008410 0.677516
vt 0.536486 0.346077
vt 0.536486 0.659604
vt 0.280858 0.659604
vt 0.280858 0.346077
vt 0.539290 0.677516
vt 0.539290 0.991044
vt 0.282260 0.991044
vt 0.282260 0.677516
vt 0.829960 0.801451
vt 0.829960 0.724567
vt 0.949991 0.724567
vt 0.949991 0.801451
vt 0.008410 0.659604
vt 0.008410 0.346077
vt 0.264038 0.346077
vt 0.264038 0.659604
vt 0.813140 0.718819
vt 0.766520 0.768195
vt 0.813140 0.991044
vt 0.766520 0.941668
vt 0.977168 0.465127
vt 0.977168 0.080976
vt 0.991590 0.080976
vt 0.991590 0.465127
vt 0.945847 0.465127
vt 0.945847 0.080976
vt 0.960348 0.080976
vt 0.960348 0.465127
vt 0.967469 0.991044
vt 0.967469 0.606893
vt 0.981891 0.606893
vt 0.981891 0.991044
vn 0.0000 -0.0000 1.0000
vn 1.0000 -0.0000 0.0000
vn 0.0000 0.0000 -1.0000
vn -1.0000 -0.0000 0.0000
vn 0.0000 1.0000 0.0000
vn -0.0852 0.9964 0.0000
vn 0.0000 0.9963 0.0857
vn 0.0852 0.9964 0.0000
vn 0.0000 0.9963 -0.0857
vn 0.8934 0.0000 -0.4492
vn -0.8934 0.0000 -0.4492
usemtl Tree_2.003
s 1
f 95/237/57 110/238/57 109/239/57 93/240/57
f 97/241/58 111/242/58 110/243/58 95/244/58
f 99/245/59 112/246/59 111/247/59 97/248/59
f 101/249/60 94/250/60 100/251/60 104/252/60
f 96/253/61 98/254/61 100/255/61 94/256/61
f 102/257/57 96/258/57 94/259/57 101/260/57
f 103/261/58 98/262/58 96/263/58 102/264/58
f 104/265/59 100/266/59 98/267/59 103/268/59
f 104/269/62 116/270/62 113/271/62 101/272/62
f 106/273/57 114/274/57 113/275/57 105/276/57
f 107/277/58 115/278/58 114/279/58 106/280/58
f 108/281/59 116/282/59 115/283/59 107/284/59
f 112/285/60 99/286/60 93/287/60 109/288/60
f 116/289/60 108/290/60 105/291/60 113/292/60
f 114/293/63 102/294/63 101/272/63 113/271/63
f 115/295/64 103/296/64 102/294/64 114/293/64
f 116/270/65 104/269/65 103/296/65 115/295/65
f 118/297/66 121/298/66 122/299/66 119/300/66
f 117/301/57 120/302/57 121/303/57 118/304/57
f 119/305/67 122/306/67 120/307/67 117/308/67
o Tree_2_3_61.403_Mesh.9261
v 0.610949 0.186917 0.785466
v 0.597678 0.587168 0.798665
v 0.685266 0.186917 0.785466
v 0.698537 0.587168 0.798665
v 0.685266 0.186917 0.711554
v 0.698537 0.587169 0.698356
v 0.610949 0.186917 0.711554
v 0.597678 0.587169 0.698356
v 0.597678 0.420352 0.798665
v 0.698537 0.420352 0.798665
v 0.698537 0.420352 0.698356
v 0.597678 0.420352 0.698356
v 0.568971 0.236603 0.827215
v 0.727244 0.236603 0.827215
v 0.727244 0.236604 0.669805
v 0.568971 0.236604 0.669805
v 0.610949 0.231374 0.785466
v 0.685266 0.231374 0.785466
v 0.685266 0.231374 0.711554
v 0.610949 0.231374 0.711554
v 0.568971 0.417897 0.827216
v 0.727244 0.417897 0.827216
v 0.727244 0.417897 0.669805
v 0.568971 0.417897 0.669805
v 0.643643 0.183513 0.752951
v 0.652572 0.183513 0.752951
v 0.648108 0.183513 0.744070
v 0.643643 -0.038617 0.752950
v 0.652572 -0.038617 0.752950
v 0.648108 -0.038617 0.744070
vt 0.950649 0.914160
vt 0.950649 0.991044
vt 0.829960 0.991044
vt 0.829960 0.914160
vt 0.949991 0.629771
vt 0.949991 0.706655
vt 0.829960 0.706655
vt 0.829960 0.629771
vt 0.950649 0.819363
vt 0.950649 0.896248
vt 0.829960 0.896248
vt 0.829960 0.819363
vt 0.171307 0.039673
vt 0.171307 0.328165
vt 0.008410 0.328165
vt 0.008410 0.039673
vt 0.531634 0.154692
vt 0.531634 0.328165
vt 0.367844 0.328165
vt 0.367844 0.154692
vt 0.717096 0.080976
vt 0.717096 0.369467
vt 0.553306 0.369467
vt 0.553306 0.080976
vt 0.351024 0.039673
vt 0.351024 0.328165
vt 0.188127 0.328165
vt 0.188127 0.039673
vt 0.897707 0.080976
vt 0.897707 0.369467
vt 0.733916 0.369467
vt 0.733916 0.080976
vt 0.602730 0.941668
vt 0.556110 0.991044
vt 0.556110 0.718819
vt 0.602730 0.768195
vt 0.265440 0.677516
vt 0.265440 0.991044
vt 0.008410 0.991044
vt 0.008410 0.677516
vt 0.536486 0.346077
vt 0.536486 0.659604
vt 0.280858 0.659604
vt 0.280858 0.346077
vt 0.539290 0.677516
vt 0.539290 0.991044
vt 0.282260 0.991044
vt 0.282260 0.677516
vt 0.829960 0.801451
vt 0.829960 0.724567
vt 0.949991 0.724567
vt 0.949991 0.801451
vt 0.008410 0.659604
vt 0.008410 0.346077
vt 0.264038 0.346077
vt 0.264038 0.659604
vt 0.813140 0.718819
vt 0.766520 0.768195
vt 0.813140 0.991044
vt 0.766520 0.941668
vt 0.977168 0.465127
vt 0.977168 0.080976
vt 0.991590 0.080976
vt 0.991590 0.465127
vt 0.945847 0.465127
vt 0.945847 0.080976
vt 0.960348 0.080976
vt 0.960348 0.465127
vt 0.967469 0.991044
vt 0.967469 0.606893
vt 0.981891 0.606893
vt 0.981891 0.991044
vn 0.0000 -0.0000 1.0000
vn 1.0000 -0.0000 0.0000
vn 0.0000 0.0000 -1.0000
vn -1.0000 0.0000 0.0000
vn 0.0000 1.0000 0.0000
vn -0.0852 0.9964 0.0000
vn 0.0000 0.9963 0.0857
vn 0.0852 0.9964 0.0000
vn 0.0000 0.9963 -0.0857
vn 0.8934 0.0000 -0.4492
vn -0.8934 0.0000 -0.4492
usemtl Tree_2.003
s 1
f 125/309/68 140/310/68 139/311/68 123/312/68
f 127/313/69 141/314/69 140/315/69 125/316/69
f 129/317/70 142/318/70 141/319/70 127/320/70
f 131/321/71 124/322/71 130/323/71 134/324/71
f 126/325/72 128/326/72 130/327/72 124/328/72
f 132/329/68 126/330/68 124/331/68 131/332/68
f 133/333/69 128/334/69 126/335/69 132/336/69
f 134/337/70 130/338/70 128/339/70 133/340/70
f 134/341/73 146/342/73 143/343/73 131/344/73
f 136/345/68 144/346/68 143/347/68 135/348/68
f 137/349/69 145/350/69 144/351/69 136/352/69
f 138/353/70 146/354/70 145/355/70 137/356/70
f 142/357/71 129/358/71 123/359/71 139/360/71
f 146/361/71 138/362/71 135/363/71 143/364/71
f 144/365/74 132/366/74 131/344/74 143/343/74
f 145/367/75 133/368/75 132/366/75 144/365/75
f 146/342/76 134/341/76 133/368/76 145/367/76
f 148/369/77 151/370/77 152/371/77 149/372/77
f 147/373/68 150/374/68 151/375/68 148/376/68
f 149/377/78 152/378/78 150/379/78 147/380/78
