# Blender v2.90.1 OBJ File: 'URBAN2.2.blend'
# www.blender.org
mtllib business_2tower_3lvl.mtl
o business_2tower_3lvl_Mesh.168
v 0.443503 0.009216 0.443503
v 0.543178 0.009216 0.313604
v 0.627207 0.009216 0.000000
v 0.443503 0.009216 -0.443503
v 0.000000 0.009216 -0.627207
v -0.313604 0.009216 -0.543178
v -0.443502 0.009216 -0.443503
v -0.627207 0.009216 0.000000
v -0.605836 0.009216 0.162333
v -0.543177 0.009216 0.313604
v -0.443502 0.009216 0.443503
v 0.313604 0.009216 -0.543178
v -0.162333 0.009216 -0.605836
v -0.162333 0.009216 0.605836
v 0.000000 3.972075 0.612194
v 0.158447 3.972075 0.591334
v 0.306097 3.972075 0.530176
v 0.432887 3.972075 0.432886
v 0.530175 3.972075 0.306097
v 0.591334 3.972075 0.158448
v 0.612194 3.972075 0.000000
v 0.591334 3.972075 -0.158448
v 0.530175 3.972075 -0.306097
v 0.432887 3.972075 -0.432886
v 0.306097 3.972075 -0.530176
v 0.158447 3.972075 -0.591334
v 0.000000 3.972075 -0.612194
v -0.158447 3.972075 -0.591334
v -0.306097 3.972075 -0.530176
v -0.432887 3.972075 -0.432886
v -0.530175 3.972075 -0.306097
v -0.591334 3.972075 -0.158448
v -0.612194 3.972075 -0.000000
v -0.591334 3.972075 0.158448
v -0.530175 3.972075 0.306097
v -0.432887 3.972075 0.432886
v -0.306097 3.972075 0.530176
v -0.158447 3.972075 0.591334
v 0.000000 0.009216 0.627207
v 0.162333 0.009216 0.605836
v 0.313604 0.009216 0.543178
v 0.605836 0.009216 0.162333
v 0.605836 0.009216 -0.162333
v 0.543178 0.009216 -0.313604
v 0.162333 0.009216 -0.605836
v -0.543177 0.009216 -0.313604
v -0.605836 0.009216 -0.162333
v -0.313604 0.009216 0.543178
vt 0.493010 0.375861
vt 0.492997 0.990986
vt 0.462065 0.990986
vt 0.462065 0.375861
vt 0.546876 0.375861
vt 0.546572 0.990986
vt 0.521821 0.990986
vt 0.521846 0.375861
vt 0.246661 0.375861
vt 0.246307 0.990986
vt 0.217483 0.990986
vt 0.217458 0.375861
vt 0.362050 0.375861
vt 0.361746 0.990986
vt 0.336995 0.990986
vt 0.337020 0.375861
vt 0.616313 0.375861
vt 0.615959 0.990986
vt 0.587135 0.990986
vt 0.587110 0.375862
vt 0.308171 0.990986
vt 0.308184 0.375861
vt 0.562384 0.990986
vt 0.562080 0.375862
vt 0.647270 0.375861
vt 0.646891 0.990986
vt 0.678202 0.375861
vt 0.677823 0.990986
vt 0.706672 0.375861
vt 0.706647 0.990986
vt 0.007906 0.990986
vt 0.007602 0.375861
vt 0.032632 0.375861
vt 0.032657 0.990986
vt 0.061481 0.990986
vt 0.061102 0.375861
vt 0.092413 0.375861
vt 0.092413 0.990986
vt 0.731702 0.375861
vt 0.731398 0.990986
vt 0.377558 0.990986
vt 0.377254 0.375861
vt 0.402284 0.375861
vt 0.402309 0.990986
vt 0.192732 0.990986
vt 0.192428 0.375861
vt 0.277239 0.375861
vt 0.277239 0.990986
vt 0.123358 0.375861
vt 0.123345 0.990986
vt 0.152169 0.990986
vt 0.151865 0.375861
vt 0.177224 0.375861
vt 0.176920 0.990986
vt 0.431120 0.375861
vt 0.431133 0.990986
vt 0.916212 0.744750
vt 0.942667 0.760024
vt 0.964267 0.781624
vt 0.979541 0.808079
vt 0.987448 0.837586
vt 0.987448 0.868134
vt 0.979541 0.897640
vt 0.964267 0.924095
vt 0.942667 0.945696
vt 0.916212 0.960970
vt 0.886705 0.968876
vt 0.856158 0.968876
vt 0.826651 0.960970
vt 0.800196 0.945696
vt 0.778595 0.924095
vt 0.763322 0.897640
vt 0.755415 0.868134
vt 0.755415 0.837586
vt 0.763322 0.808079
vt 0.778596 0.781624
vt 0.800196 0.760024
vt 0.826651 0.744750
vt 0.856158 0.736844
vt 0.886705 0.736844
vn 0.1305 0.0038 0.9914
vn 0.6088 0.0038 0.7933
vn 0.9239 0.0038 0.3827
vn 0.7933 0.0038 -0.6088
vn 0.3827 0.0038 -0.9239
vn 0.3827 0.0038 0.9239
vn 0.9239 0.0038 -0.3827
vn 0.6088 0.0038 -0.7933
vn 0.1305 0.0038 -0.9914
vn -0.1305 0.0038 -0.9914
vn -0.3827 0.0038 -0.9239
vn -0.7933 0.0038 -0.6088
vn -0.9914 0.0038 -0.1305
vn -0.6088 0.0038 -0.7933
vn -0.9239 0.0038 -0.3827
vn -0.6088 0.0038 0.7933
vn 0.7933 0.0038 0.6088
vn 0.9914 0.0038 0.1305
vn -0.9914 0.0038 0.1305
vn -0.7933 0.0038 0.6088
vn -0.3827 0.0038 0.9239
vn 0.9914 0.0038 -0.1305
vn -0.9239 0.0038 0.3827
vn -0.1305 0.0038 0.9914
vn 0.0000 1.0000 -0.0000
usemtl House_5
s 1
f 40/1/1 16/2/1 15/3/1 39/4/1
f 1/5/2 18/6/2 17/7/2 41/8/2
f 42/9/3 20/10/3 19/11/3 2/12/3
f 4/13/4 24/14/4 23/15/4 44/16/4
f 45/17/5 26/18/5 25/19/5 12/20/5
f 16/2/6 40/1/6 41/8/6 17/7/6
f 22/21/7 43/22/7 44/16/7 23/15/7
f 24/23/8 4/24/8 12/20/8 25/19/8
f 26/18/9 45/17/9 5/25/9 27/26/9
f 27/26/10 5/25/10 13/27/10 28/28/10
f 28/28/11 13/27/11 6/29/11 29/30/11
f 30/31/12 7/32/12 46/33/12 31/34/12
f 32/35/13 47/36/13 8/37/13 33/38/13
f 29/30/14 6/29/14 7/39/14 30/40/14
f 31/34/15 46/33/15 47/36/15 32/35/15
f 36/41/16 11/42/16 48/43/16 37/44/16
f 18/45/17 1/46/17 2/12/17 19/11/17
f 20/10/18 42/9/18 3/47/18 21/48/18
f 33/38/19 8/37/19 9/49/19 34/50/19
f 35/51/20 10/52/20 11/53/20 36/54/20
f 37/44/21 48/43/21 14/55/21 38/56/21
f 21/48/22 3/47/22 43/22/22 22/21/22
f 34/50/23 9/49/23 10/52/23 35/51/23
f 38/56/24 14/55/24 39/4/24 15/3/24
f 16/57/25 17/58/25 18/59/25 19/60/25 20/61/25 21/62/25 22/63/25 23/64/25 24/65/25 25/66/25 26/67/25 27/68/25 28/69/25 29/70/25 30/71/25 31/72/25 32/73/25 33/74/25 34/75/25 35/76/25 36/77/25 37/78/25 38/79/25 15/80/25
o Tree_2_3_61.050_Mesh.313
v -0.683336 0.208117 -0.715839
v -0.696607 0.608368 -0.702640
v -0.609018 0.208117 -0.715839
v -0.595748 0.608368 -0.702640
v -0.609018 0.208117 -0.789751
v -0.595748 0.608368 -0.802949
v -0.683336 0.208117 -0.789751
v -0.696607 0.608368 -0.802949
v -0.696607 0.441552 -0.702640
v -0.595748 0.441552 -0.702640
v -0.595748 0.441552 -0.802949
v -0.696607 0.441552 -0.802949
v -0.725314 0.257803 -0.674089
v -0.567040 0.257803 -0.674089
v -0.567040 0.257803 -0.831500
v -0.725314 0.257803 -0.831500
v -0.683336 0.252574 -0.715838
v -0.609018 0.252574 -0.715838
v -0.609018 0.252574 -0.789751
v -0.683336 0.252574 -0.789751
v -0.725314 0.439097 -0.674089
v -0.567040 0.439097 -0.674089
v -0.567040 0.439097 -0.831500
v -0.725314 0.439097 -0.831500
v -0.650642 0.204713 -0.748354
v -0.641713 0.204713 -0.748354
v -0.646177 0.204713 -0.757235
v -0.650642 -0.017417 -0.748354
v -0.641713 -0.017417 -0.748354
v -0.646177 -0.017417 -0.757235
vt 0.950649 0.914160
vt 0.950649 0.991044
vt 0.829960 0.991044
vt 0.829960 0.914160
vt 0.949991 0.629771
vt 0.949991 0.706655
vt 0.829960 0.706655
vt 0.829960 0.629771
vt 0.950649 0.819363
vt 0.950649 0.896248
vt 0.829960 0.896248
vt 0.829960 0.819363
vt 0.171307 0.039673
vt 0.171307 0.328165
vt 0.008410 0.328165
vt 0.008410 0.039673
vt 0.531634 0.154692
vt 0.531634 0.328165
vt 0.367844 0.328165
vt 0.367844 0.154692
vt 0.717096 0.080976
vt 0.717096 0.369467
vt 0.553306 0.369467
vt 0.553306 0.080976
vt 0.351024 0.039673
vt 0.351024 0.328165
vt 0.188127 0.328165
vt 0.188127 0.039673
vt 0.897707 0.080976
vt 0.897707 0.369467
vt 0.733916 0.369467
vt 0.733916 0.080976
vt 0.602730 0.941668
vt 0.556110 0.991044
vt 0.556110 0.718819
vt 0.602730 0.768195
vt 0.265440 0.677516
vt 0.265440 0.991044
vt 0.008410 0.991044
vt 0.008410 0.677516
vt 0.536486 0.346077
vt 0.536486 0.659604
vt 0.280858 0.659604
vt 0.280858 0.346077
vt 0.539290 0.677516
vt 0.539290 0.991044
vt 0.282260 0.991044
vt 0.282260 0.677516
vt 0.829960 0.801451
vt 0.829960 0.724567
vt 0.949991 0.724567
vt 0.949991 0.801451
vt 0.008410 0.659604
vt 0.008410 0.346077
vt 0.264038 0.346077
vt 0.264038 0.659604
vt 0.813140 0.718819
vt 0.766520 0.768195
vt 0.813140 0.991044
vt 0.766520 0.941668
vt 0.977168 0.465127
vt 0.977168 0.080976
vt 0.991590 0.080976
vt 0.991590 0.465127
vt 0.945847 0.465127
vt 0.945847 0.080976
vt 0.960348 0.080976
vt 0.960348 0.465127
vt 0.967469 0.991044
vt 0.967469 0.606893
vt 0.981891 0.606893
vt 0.981891 0.991044
vn 0.0000 -0.0000 1.0000
vn 1.0000 0.0000 0.0000
vn 0.0000 0.0000 -1.0000
vn -1.0000 0.0000 0.0000
vn 0.0000 1.0000 0.0000
vn -0.0852 0.9964 0.0000
vn 0.0000 0.9963 0.0857
vn 0.0852 0.9964 0.0000
vn 0.0000 0.9963 -0.0857
vn 0.8934 0.0000 -0.4492
vn -0.8934 0.0000 -0.4492
usemtl Tree_2.003
s 1
f 51/81/26 66/82/26 65/83/26 49/84/26
f 53/85/27 67/86/27 66/87/27 51/88/27
f 55/89/28 68/90/28 67/91/28 53/92/28
f 57/93/29 50/94/29 56/95/29 60/96/29
f 52/97/30 54/98/30 56/99/30 50/100/30
f 58/101/26 52/102/26 50/103/26 57/104/26
f 59/105/27 54/106/27 52/107/27 58/108/27
f 60/109/28 56/110/28 54/111/28 59/112/28
f 60/113/31 72/114/31 69/115/31 57/116/31
f 62/117/26 70/118/26 69/119/26 61/120/26
f 63/121/27 71/122/27 70/123/27 62/124/27
f 64/125/28 72/126/28 71/127/28 63/128/28
f 68/129/29 55/130/29 49/131/29 65/132/29
f 72/133/29 64/134/29 61/135/29 69/136/29
f 70/137/32 58/138/32 57/116/32 69/115/32
f 71/139/33 59/140/33 58/138/33 70/137/33
f 72/114/34 60/113/34 59/140/34 71/139/34
f 74/141/35 77/142/35 78/143/35 75/144/35
f 73/145/26 76/146/26 77/147/26 74/148/26
f 75/149/36 78/150/36 76/151/36 73/152/36
o Tree_2_3_61.051_Mesh.314
v 0.704544 0.208117 -0.715839
v 0.691274 0.608368 -0.702640
v 0.778862 0.208117 -0.715839
v 0.792132 0.608368 -0.702640
v 0.778862 0.208117 -0.789751
v 0.792132 0.608368 -0.802949
v 0.704544 0.208117 -0.789751
v 0.691274 0.608368 -0.802949
v 0.691274 0.441552 -0.702640
v 0.792132 0.441552 -0.702640
v 0.792132 0.441552 -0.802949
v 0.691274 0.441552 -0.802949
v 0.662566 0.257803 -0.674089
v 0.820840 0.257803 -0.674089
v 0.820840 0.257803 -0.831500
v 0.662566 0.257803 -0.831500
v 0.704544 0.252574 -0.715838
v 0.778862 0.252574 -0.715838
v 0.778862 0.252574 -0.789751
v 0.704544 0.252574 -0.789751
v 0.662566 0.439097 -0.674089
v 0.820840 0.439097 -0.674089
v 0.820840 0.439097 -0.831500
v 0.662566 0.439097 -0.831500
v 0.737238 0.204713 -0.748354
v 0.746168 0.204713 -0.748354
v 0.741703 0.204713 -0.757235
v 0.737238 -0.017417 -0.748354
v 0.746168 -0.017417 -0.748354
v 0.741703 -0.017417 -0.757235
vt 0.950649 0.914160
vt 0.950649 0.991044
vt 0.829960 0.991044
vt 0.829960 0.914160
vt 0.949991 0.629771
vt 0.949991 0.706655
vt 0.829960 0.706655
vt 0.829960 0.629771
vt 0.950649 0.819363
vt 0.950649 0.896248
vt 0.829960 0.896248
vt 0.829960 0.819363
vt 0.171307 0.039673
vt 0.171307 0.328165
vt 0.008410 0.328165
vt 0.008410 0.039673
vt 0.531634 0.154692
vt 0.531634 0.328165
vt 0.367844 0.328165
vt 0.367844 0.154692
vt 0.717096 0.080976
vt 0.717096 0.369467
vt 0.553306 0.369467
vt 0.553306 0.080976
vt 0.351024 0.039673
vt 0.351024 0.328165
vt 0.188127 0.328165
vt 0.188127 0.039673
vt 0.897707 0.080976
vt 0.897707 0.369467
vt 0.733916 0.369467
vt 0.733916 0.080976
vt 0.602730 0.941668
vt 0.556110 0.991044
vt 0.556110 0.718819
vt 0.602730 0.768195
vt 0.265440 0.677516
vt 0.265440 0.991044
vt 0.008410 0.991044
vt 0.008410 0.677516
vt 0.536486 0.346077
vt 0.536486 0.659604
vt 0.280858 0.659604
vt 0.280858 0.346077
vt 0.539290 0.677516
vt 0.539290 0.991044
vt 0.282260 0.991044
vt 0.282260 0.677516
vt 0.829960 0.801451
vt 0.829960 0.724567
vt 0.949991 0.724567
vt 0.949991 0.801451
vt 0.008410 0.659604
vt 0.008410 0.346077
vt 0.264038 0.346077
vt 0.264038 0.659604
vt 0.813140 0.718819
vt 0.766520 0.768195
vt 0.813140 0.991044
vt 0.766520 0.941668
vt 0.977168 0.465127
vt 0.977168 0.080976
vt 0.991590 0.080976
vt 0.991590 0.465127
vt 0.945847 0.465127
vt 0.945847 0.080976
vt 0.960348 0.080976
vt 0.960348 0.465127
vt 0.967469 0.991044
vt 0.967469 0.606893
vt 0.981891 0.606893
vt 0.981891 0.991044
vn 0.0000 -0.0000 1.0000
vn 1.0000 0.0000 0.0000
vn 0.0000 0.0000 -1.0000
vn -1.0000 0.0000 0.0000
vn 0.0000 1.0000 0.0000
vn -0.0852 0.9964 0.0000
vn 0.0000 0.9963 0.0857
vn 0.0852 0.9964 0.0000
vn 0.0000 0.9963 -0.0857
vn 0.8934 0.0000 -0.4492
vn -0.8934 0.0000 -0.4492
usemtl Tree_2.003
s 1
f 81/153/37 96/154/37 95/155/37 79/156/37
f 83/157/38 97/158/38 96/159/38 81/160/38
f 85/161/39 98/162/39 97/163/39 83/164/39
f 87/165/40 80/166/40 86/167/40 90/168/40
f 82/169/41 84/170/41 86/171/41 80/172/41
f 88/173/37 82/174/37 80/175/37 87/176/37
f 89/177/38 84/178/38 82/179/38 88/180/38
f 90/181/39 86/182/39 84/183/39 89/184/39
f 90/185/42 102/186/42 99/187/42 87/188/42
f 92/189/37 100/190/37 99/191/37 91/192/37
f 93/193/38 101/194/38 100/195/38 92/196/38
f 94/197/39 102/198/39 101/199/39 93/200/39
f 98/201/40 85/202/40 79/203/40 95/204/40
f 102/205/40 94/206/40 91/207/40 99/208/40
f 100/209/43 88/210/43 87/188/43 99/187/43
f 101/211/44 89/212/44 88/210/44 100/209/44
f 102/186/45 90/185/45 89/212/45 101/211/45
f 104/213/46 107/214/46 108/215/46 105/216/46
f 103/217/37 106/218/37 107/219/37 104/220/37
f 105/221/47 108/222/47 106/223/47 103/224/47
o Tree_2_3_61.052_Mesh.315
v -0.683336 0.208117 0.772980
v -0.696607 0.608368 0.786178
v -0.609018 0.208117 0.772980
v -0.595748 0.608368 0.786178
v -0.609018 0.208117 0.699067
v -0.595748 0.608368 0.685869
v -0.683336 0.208117 0.699067
v -0.696607 0.608368 0.685869
v -0.696607 0.441552 0.786178
v -0.595748 0.441552 0.786178
v -0.595748 0.441552 0.685869
v -0.696607 0.441552 0.685869
v -0.725314 0.257803 0.814729
v -0.567040 0.257803 0.814729
v -0.567040 0.257803 0.657318
v -0.725314 0.257803 0.657318
v -0.683336 0.252574 0.772980
v -0.609018 0.252574 0.772980
v -0.609018 0.252574 0.699067
v -0.683336 0.252574 0.699067
v -0.725314 0.439097 0.814729
v -0.567040 0.439097 0.814729
v -0.567040 0.439097 0.657318
v -0.725314 0.439097 0.657318
v -0.650642 0.204713 0.740464
v -0.641713 0.204713 0.740464
v -0.646177 0.204713 0.731583
v -0.650642 -0.017417 0.740464
v -0.641713 -0.017417 0.740464
v -0.646177 -0.017417 0.731583
vt 0.950649 0.914160
vt 0.950649 0.991044
vt 0.829960 0.991044
vt 0.829960 0.914160
vt 0.949991 0.629771
vt 0.949991 0.706655
vt 0.829960 0.706655
vt 0.829960 0.629771
vt 0.950649 0.819363
vt 0.950649 0.896248
vt 0.829960 0.896248
vt 0.829960 0.819363
vt 0.171307 0.039673
vt 0.171307 0.328165
vt 0.008410 0.328165
vt 0.008410 0.039673
vt 0.531634 0.154692
vt 0.531634 0.328165
vt 0.367844 0.328165
vt 0.367844 0.154692
vt 0.717096 0.080976
vt 0.717096 0.369467
vt 0.553306 0.369467
vt 0.553306 0.080976
vt 0.351024 0.039673
vt 0.351024 0.328165
vt 0.188127 0.328165
vt 0.188127 0.039673
vt 0.897707 0.080976
vt 0.897707 0.369467
vt 0.733916 0.369467
vt 0.733916 0.080976
vt 0.602730 0.941668
vt 0.556110 0.991044
vt 0.556110 0.718819
vt 0.602730 0.768195
vt 0.265440 0.677516
vt 0.265440 0.991044
vt 0.008410 0.991044
vt 0.008410 0.677516
vt 0.536486 0.346077
vt 0.536486 0.659604
vt 0.280858 0.659604
vt 0.280858 0.346077
vt 0.539290 0.677516
vt 0.539290 0.991044
vt 0.282260 0.991044
vt 0.282260 0.677516
vt 0.829960 0.801451
vt 0.829960 0.724567
vt 0.949991 0.724567
vt 0.949991 0.801451
vt 0.008410 0.659604
vt 0.008410 0.346077
vt 0.264038 0.346077
vt 0.264038 0.659604
vt 0.813140 0.718819
vt 0.766520 0.768195
vt 0.813140 0.991044
vt 0.766520 0.941668
vt 0.977168 0.465127
vt 0.977168 0.080976
vt 0.991590 0.080976
vt 0.991590 0.465127
vt 0.945847 0.465127
vt 0.945847 0.080976
vt 0.960348 0.080976
vt 0.960348 0.465127
vt 0.967469 0.991044
vt 0.967469 0.606893
vt 0.981891 0.606893
vt 0.981891 0.991044
vn 0.0000 -0.0000 1.0000
vn 1.0000 0.0000 0.0000
vn 0.0000 0.0000 -1.0000
vn -1.0000 0.0000 0.0000
vn 0.0000 1.0000 0.0000
vn -0.0852 0.9964 0.0000
vn 0.0000 0.9963 0.0857
vn 0.0852 0.9964 0.0000
vn 0.0000 0.9963 -0.0857
vn 0.8934 0.0000 -0.4492
vn -0.8934 0.0000 -0.4492
usemtl Tree_2.003
s 1
f 111/225/48 126/226/48 125/227/48 109/228/48
f 113/229/49 127/230/49 126/231/49 111/232/49
f 115/233/50 128/234/50 127/235/50 113/236/50
f 117/237/51 110/238/51 116/239/51 120/240/51
f 112/241/52 114/242/52 116/243/52 110/244/52
f 118/245/48 112/246/48 110/247/48 117/248/48
f 119/249/49 114/250/49 112/251/49 118/252/49
f 120/253/50 116/254/50 114/255/50 119/256/50
f 120/257/53 132/258/53 129/259/53 117/260/53
f 122/261/48 130/262/48 129/263/48 121/264/48
f 123/265/49 131/266/49 130/267/49 122/268/49
f 124/269/50 132/270/50 131/271/50 123/272/50
f 128/273/51 115/274/51 109/275/51 125/276/51
f 132/277/51 124/278/51 121/279/51 129/280/51
f 130/281/54 118/282/54 117/260/54 129/259/54
f 131/283/55 119/284/55 118/282/55 130/281/55
f 132/258/56 120/257/56 119/284/56 131/283/56
f 134/285/57 137/286/57 138/287/57 135/288/57
f 133/289/48 136/290/48 137/291/48 134/292/48
f 135/293/58 138/294/58 136/295/58 133/296/58
o Tree_2_3_61.053_Mesh.316
v 0.704544 0.208117 0.772980
v 0.691274 0.608368 0.786178
v 0.778862 0.208117 0.772980
v 0.792132 0.608368 0.786178
v 0.778862 0.208117 0.699067
v 0.792132 0.608368 0.685869
v 0.704544 0.208117 0.699067
v 0.691274 0.608368 0.685869
v 0.691274 0.441552 0.786178
v 0.792132 0.441552 0.786178
v 0.792132 0.441552 0.685869
v 0.691274 0.441552 0.685869
v 0.662566 0.257803 0.814729
v 0.820840 0.257803 0.814729
v 0.820840 0.257803 0.657318
v 0.662566 0.257803 0.657318
v 0.704544 0.252574 0.772980
v 0.778862 0.252574 0.772980
v 0.778862 0.252574 0.699067
v 0.704544 0.252574 0.699067
v 0.662566 0.439097 0.814729
v 0.820840 0.439097 0.814729
v 0.820840 0.439097 0.657318
v 0.662566 0.439097 0.657318
v 0.737238 0.204713 0.740464
v 0.746168 0.204713 0.740464
v 0.741703 0.204713 0.731583
v 0.737238 -0.017417 0.740464
v 0.746168 -0.017417 0.740464
v 0.741703 -0.017417 0.731583
vt 0.950649 0.914160
vt 0.950649 0.991044
vt 0.829960 0.991044
vt 0.829960 0.914160
vt 0.949991 0.629771
vt 0.949991 0.706655
vt 0.829960 0.706655
vt 0.829960 0.629771
vt 0.950649 0.819363
vt 0.950649 0.896248
vt 0.829960 0.896248
vt 0.829960 0.819363
vt 0.171307 0.039673
vt 0.171307 0.328165
vt 0.008410 0.328165
vt 0.008410 0.039673
vt 0.531634 0.154692
vt 0.531634 0.328165
vt 0.367844 0.328165
vt 0.367844 0.154692
vt 0.717096 0.080976
vt 0.717096 0.369467
vt 0.553306 0.369467
vt 0.553306 0.080976
vt 0.351024 0.039673
vt 0.351024 0.328165
vt 0.188127 0.328165
vt 0.188127 0.039673
vt 0.897707 0.080976
vt 0.897707 0.369467
vt 0.733916 0.369467
vt 0.733916 0.080976
vt 0.602730 0.941668
vt 0.556110 0.991044
vt 0.556110 0.718819
vt 0.602730 0.768195
vt 0.265440 0.677516
vt 0.265440 0.991044
vt 0.008410 0.991044
vt 0.008410 0.677516
vt 0.536486 0.346077
vt 0.536486 0.659604
vt 0.280858 0.659604
vt 0.280858 0.346077
vt 0.539290 0.677516
vt 0.539290 0.991044
vt 0.282260 0.991044
vt 0.282260 0.677516
vt 0.829960 0.801451
vt 0.829960 0.724567
vt 0.949991 0.724567
vt 0.949991 0.801451
vt 0.008410 0.659604
vt 0.008410 0.346077
vt 0.264038 0.346077
vt 0.264038 0.659604
vt 0.813140 0.718819
vt 0.766520 0.768195
vt 0.813140 0.991044
vt 0.766520 0.941668
vt 0.977168 0.465127
vt 0.977168 0.080976
vt 0.991590 0.080976
vt 0.991590 0.465127
vt 0.945847 0.465127
vt 0.945847 0.080976
vt 0.960348 0.080976
vt 0.960348 0.465127
vt 0.967469 0.991044
vt 0.967469 0.606893
vt 0.981891 0.606893
vt 0.981891 0.991044
vn 0.0000 -0.0000 1.0000
vn 1.0000 0.0000 0.0000
vn 0.0000 0.0000 -1.0000
vn -1.0000 0.0000 0.0000
vn 0.0000 1.0000 0.0000
vn -0.0852 0.9964 0.0000
vn 0.0000 0.9963 0.0857
vn 0.0852 0.9964 0.0000
vn 0.0000 0.9963 -0.0857
vn 0.8934 0.0000 -0.4492
vn -0.8934 0.0000 -0.4492
usemtl Tree_2.003
s 1
f 141/297/59 156/298/59 155/299/59 139/300/59
f 143/301/60 157/302/60 156/303/60 141/304/60
f 145/305/61 158/306/61 157/307/61 143/308/61
f 147/309/62 140/310/62 146/311/62 150/312/62
f 142/313/63 144/314/63 146/315/63 140/316/63
f 148/317/59 142/318/59 140/319/59 147/320/59
f 149/321/60 144/322/60 142/323/60 148/324/60
f 150/325/61 146/326/61 144/327/61 149/328/61
f 150/329/64 162/330/64 159/331/64 147/332/64
f 152/333/59 160/334/59 159/335/59 151/336/59
f 153/337/60 161/338/60 160/339/60 152/340/60
f 154/341/61 162/342/61 161/343/61 153/344/61
f 158/345/62 145/346/62 139/347/62 155/348/62
f 162/349/62 154/350/62 151/351/62 159/352/62
f 160/353/65 148/354/65 147/332/65 159/331/65
f 161/355/66 149/356/66 148/354/66 160/353/66
f 162/330/67 150/329/67 149/356/67 161/355/67
f 164/357/68 167/358/68 168/359/68 165/360/68
f 163/361/59 166/362/59 167/363/59 164/364/59
f 165/365/69 168/366/69 166/367/69 163/368/69
