# Blender v2.90.1 OBJ File: 'URBAN2.2.blend'
# www.blender.org
mtllib business_shop_1lvl.mtl
o business_shop_1lvl_Mesh.4803
v -0.599933 -0.010976 0.559829
v -0.548045 0.375168 0.507941
v 0.879954 -0.010976 0.559829
v 0.828066 0.375168 0.507941
v 0.879954 -0.010976 -0.920058
v 0.828066 0.375168 -0.868170
v -0.599933 -0.010976 -0.920058
v -0.548045 0.375168 -0.868170
v -0.599933 0.036178 0.559829
v 0.879954 0.036178 0.559829
v 0.879954 0.036178 -0.920058
v -0.599933 0.036178 -0.920058
v -0.548045 0.036496 0.507941
v 0.828066 0.036496 0.507941
v 0.828066 0.036496 -0.868170
v -0.548045 0.036496 -0.868170
v -0.616878 0.374210 0.576774
v 0.896899 0.374210 0.576774
v 0.896899 0.374210 -0.937003
v -0.616878 0.374210 -0.937003
v -0.616878 0.405234 0.576774
v 0.896899 0.405234 0.576774
v 0.896899 0.405234 -0.937003
v -0.616878 0.405234 -0.937003
v -0.417205 0.726620 0.377101
v 0.697226 0.726620 0.377101
v 0.697226 0.726620 -0.737330
v -0.417205 0.726620 -0.737330
v -0.263414 0.748391 0.223310
v 0.543435 0.748391 0.223310
v 0.543435 0.748391 -0.583539
v -0.263414 0.748391 -0.583539
v -0.183132 0.607858 0.143028
v 0.463153 0.607858 0.143028
v 0.463153 0.607858 -0.503257
v -0.183132 0.607858 -0.503257
vt 0.991445 0.066631
vt 0.991445 0.076576
vt 0.622041 0.076576
vt 0.622041 0.066631
vt 0.377959 0.078326
vt 0.377959 0.088270
vt 0.008555 0.088270
vt 0.008555 0.078326
vt 0.991445 0.092374
vt 0.991445 0.102319
vt 0.622041 0.102319
vt 0.622041 0.092374
vt 0.352054 0.104069
vt 0.352054 0.175493
vt 0.008555 0.175493
vt 0.008555 0.104069
vt 0.584891 0.110878
vt 0.584891 0.259833
vt 0.423568 0.259833
vt 0.423568 0.110878
vt 0.772932 0.651017
vt 0.759980 0.662977
vt 0.416481 0.662977
vt 0.403529 0.651017
vt 0.772932 0.992100
vt 0.759980 0.980141
vt 0.403529 0.992100
vt 0.416481 0.980141
vt 0.008555 0.062527
vt 0.008555 0.052583
vt 0.377959 0.052583
vt 0.377959 0.062527
vt 0.352054 0.191292
vt 0.352054 0.262715
vt 0.008555 0.262715
vt 0.008555 0.191292
vt 0.965540 0.119691
vt 0.965540 0.191114
vt 0.622041 0.191114
vt 0.622041 0.119691
vt 0.965540 0.206913
vt 0.965540 0.278336
vt 0.622041 0.278336
vt 0.622041 0.206913
vt 0.991445 0.044290
vt 0.991445 0.050832
vt 0.613582 0.050832
vt 0.613582 0.044290
vt 0.386418 0.007900
vt 0.386418 0.014442
vt 0.008555 0.014442
vt 0.008555 0.007900
vt 0.991445 0.021948
vt 0.991445 0.028491
vt 0.613582 0.028491
vt 0.613582 0.021948
vt 0.386418 0.030241
vt 0.386418 0.036784
vt 0.008555 0.036784
vt 0.008555 0.030241
vt 0.386418 0.643207
vt 0.336576 0.689227
vt 0.058397 0.689227
vt 0.008555 0.643207
vt 0.386418 0.992100
vt 0.336576 0.946080
vt 0.008555 0.992100
vt 0.058397 0.946080
vt 0.298188 0.724673
vt 0.096786 0.724673
vt 0.298188 0.910634
vt 0.096786 0.910634
vt 0.604931 0.092374
vt 0.403529 0.092374
vt 0.604931 0.278336
vt 0.403529 0.278336
vn 0.0000 0.0000 1.0000
vn 1.0000 0.0000 0.0000
vn 0.0000 0.0000 -1.0000
vn -1.0000 0.0000 0.0000
vn 0.0000 1.0000 0.0000
vn 0.0031 1.0000 0.0031
vn -0.0031 1.0000 0.0031
vn 0.0031 1.0000 -0.0031
vn -0.0031 1.0000 -0.0031
vn 0.0000 0.5277 0.8494
vn 0.8494 0.5277 0.0000
vn 0.0000 0.5277 -0.8494
vn -0.8494 0.5277 0.0000
vn 0.0000 0.9901 0.1402
vn 0.1402 0.9901 0.0000
vn 0.0000 0.9901 -0.1402
vn -0.1402 0.9901 0.0000
vn 0.0000 0.4960 -0.8683
vn -0.8683 0.4960 0.0000
vn 0.0000 0.4960 0.8683
vn 0.8683 0.4960 0.0000
usemtl House_12
s 1
f 3/1/1 10/2/1 9/3/1 1/4/1
f 5/5/2 11/6/2 10/7/2 3/8/2
f 7/9/3 12/10/3 11/11/3 5/12/3
f 13/13/4 2/14/4 8/15/4 16/16/4
f 34/17/5 35/18/5 36/19/5 33/20/5
f 10/21/6 14/22/6 13/23/7 9/24/7
f 11/25/8 15/26/8 14/22/6 10/21/6
f 12/27/9 16/28/9 15/26/8 11/25/8
f 12/29/4 7/30/4 1/31/4 9/32/4
f 16/28/9 12/27/9 9/24/7 13/23/7
f 14/33/1 4/34/1 2/35/1 13/36/1
f 15/37/2 6/38/2 4/39/2 14/40/2
f 16/41/3 8/42/3 6/43/3 15/44/3
f 18/45/1 22/46/1 21/47/1 17/48/1
f 19/49/2 23/50/2 22/51/2 18/52/2
f 20/53/3 24/54/3 23/55/3 19/56/3
f 17/57/4 21/58/4 24/59/4 20/60/4
f 22/61/10 26/62/10 25/63/10 21/64/10
f 23/65/11 27/66/11 26/62/11 22/61/11
f 24/67/12 28/68/12 27/66/12 23/65/12
f 21/64/13 25/63/13 28/68/13 24/67/13
f 26/62/14 30/69/14 29/70/14 25/63/14
f 27/66/15 31/71/15 30/69/15 26/62/15
f 28/68/16 32/72/16 31/71/16 27/66/16
f 25/63/17 29/70/17 32/72/17 28/68/17
f 30/73/18 34/17/18 33/20/18 29/74/18
f 31/75/19 35/18/19 34/17/19 30/73/19
f 32/76/20 36/19/20 35/18/20 31/75/20
f 29/74/21 33/20/21 36/19/21 32/76/21
o Cube_51.012_Mesh.194
v 0.494713 0.134083 0.715577
v 0.500132 0.115799 0.852981
v 0.507346 -0.002789 0.696865
v 0.512765 -0.021073 0.834269
v 0.369307 -0.016033 0.700547
v 0.374727 -0.034317 0.837951
v 0.356675 0.120839 0.719259
v 0.362094 0.102555 0.856663
vt 1.000000 0.000000
vt 0.000000 0.000000
vt 0.000000 1.000000
vt 1.000000 1.000000
vt 1.000000 0.000000
vt 0.000000 0.000000
vt 0.000000 1.000000
vt 1.000000 1.000000
vt 1.000000 0.000000
vt 0.000000 0.000000
vt 0.000000 1.000000
vt 1.000000 1.000000
vt 1.000000 0.000000
vt 0.000000 0.000000
vt 1.000000 1.000000
vt 1.000000 0.000000
vt 0.000000 1.000000
vt 1.000000 1.000000
vn 0.9951 0.0955 -0.0265
vn -0.9951 -0.0955 0.0265
vn -0.0911 0.9867 0.1349
vn 0.0391 -0.1318 0.9905
vn -0.0391 0.1318 -0.9905
usemtl Grass.003
s 1
f 39/77/22 37/78/22 38/79/22 40/80/22
f 43/81/23 41/82/23 42/83/23 44/84/23
f 37/85/24 43/86/24 44/87/24 38/88/24
f 40/89/25 38/90/25 44/87/25 42/91/25
f 41/92/26 43/86/26 37/93/26 39/94/26
o Cube_51.013_Mesh.195
v 0.649863 0.110056 0.677249
v 0.677168 0.125527 0.812374
v 0.650931 -0.027784 0.692815
v 0.678236 -0.012314 0.827939
v 0.514928 -0.025761 0.720065
v 0.542233 -0.010290 0.855190
v 0.513860 0.112080 0.704500
v 0.541165 0.127551 0.839625
vt 1.000000 0.000000
vt 0.000000 0.000000
vt 0.000000 1.000000
vt 1.000000 1.000000
vt 1.000000 0.000000
vt 0.000000 0.000000
vt 0.000000 1.000000
vt 1.000000 1.000000
vt 1.000000 0.000000
vt 0.000000 0.000000
vt 0.000000 1.000000
vt 1.000000 1.000000
vt 1.000000 0.000000
vt 0.000000 0.000000
vt 1.000000 1.000000
vt 1.000000 0.000000
vt 0.000000 1.000000
vt 1.000000 1.000000
vn 0.9804 -0.0146 -0.1964
vn -0.9804 0.0146 0.1964
vn -0.0077 0.9937 -0.1122
vn 0.1968 0.1115 0.9741
vn -0.1968 -0.1115 -0.9741
usemtl Grass.003
s 1
f 47/95/27 45/96/27 46/97/27 48/98/27
f 51/99/28 49/100/28 50/101/28 52/102/28
f 45/103/29 51/104/29 52/105/29 46/106/29
f 48/107/30 46/108/30 52/105/30 50/109/30
f 49/110/31 51/104/31 45/111/31 47/112/31
o Tree_2_3_61.002_Mesh.208
v -0.918535 0.221273 0.395452
v -0.931806 0.621525 0.408650
v -0.844217 0.221273 0.395452
v -0.830947 0.621525 0.408650
v -0.844217 0.221273 0.321539
v -0.830947 0.621525 0.308342
v -0.918535 0.221273 0.321539
v -0.931806 0.621525 0.308342
v -0.931806 0.454708 0.408650
v -0.830947 0.454708 0.408650
v -0.830947 0.454708 0.308341
v -0.931806 0.454708 0.308341
v -0.960513 0.270960 0.437201
v -0.802239 0.270960 0.437201
v -0.802239 0.270960 0.279790
v -0.960513 0.270960 0.279790
v -0.918535 0.265730 0.395452
v -0.844217 0.265730 0.395452
v -0.844217 0.265730 0.321539
v -0.918535 0.265730 0.321539
v -0.960513 0.452253 0.437201
v -0.802239 0.452253 0.437201
v -0.802239 0.452253 0.279790
v -0.960513 0.452253 0.279790
v -0.885841 0.217869 0.362936
v -0.876912 0.217869 0.362936
v -0.881376 0.217869 0.354055
v -0.885841 -0.004261 0.362936
v -0.876912 -0.004261 0.362936
v -0.881376 -0.004261 0.354055
vt 0.950649 0.914160
vt 0.950649 0.991044
vt 0.829960 0.991044
vt 0.829960 0.914160
vt 0.949991 0.629771
vt 0.949991 0.706655
vt 0.829960 0.706655
vt 0.829960 0.629771
vt 0.950649 0.819363
vt 0.950649 0.896248
vt 0.829960 0.896248
vt 0.829960 0.819363
vt 0.171307 0.039673
vt 0.171307 0.328165
vt 0.008410 0.328165
vt 0.008410 0.039673
vt 0.531634 0.154692
vt 0.531634 0.328165
vt 0.367844 0.328165
vt 0.367844 0.154692
vt 0.717096 0.080976
vt 0.717096 0.369467
vt 0.553306 0.369467
vt 0.553306 0.080976
vt 0.351024 0.039673
vt 0.351024 0.328165
vt 0.188127 0.328165
vt 0.188127 0.039673
vt 0.897707 0.080976
vt 0.897707 0.369467
vt 0.733916 0.369467
vt 0.733916 0.080976
vt 0.602730 0.941668
vt 0.556110 0.991044
vt 0.556110 0.718819
vt 0.602730 0.768195
vt 0.265440 0.677516
vt 0.265440 0.991044
vt 0.008410 0.991044
vt 0.008410 0.677516
vt 0.536486 0.346077
vt 0.536486 0.659604
vt 0.280858 0.659604
vt 0.280858 0.346077
vt 0.539290 0.677516
vt 0.539290 0.991044
vt 0.282260 0.991044
vt 0.282260 0.677516
vt 0.829960 0.801451
vt 0.829960 0.724567
vt 0.949991 0.724567
vt 0.949991 0.801451
vt 0.008410 0.659604
vt 0.008410 0.346077
vt 0.264038 0.346077
vt 0.264038 0.659604
vt 0.813140 0.718819
vt 0.766520 0.768195
vt 0.813140 0.991044
vt 0.766520 0.941668
vt 0.977168 0.465127
vt 0.977168 0.080976
vt 0.991590 0.080976
vt 0.991590 0.465127
vt 0.945847 0.465127
vt 0.945847 0.080976
vt 0.960348 0.080976
vt 0.960348 0.465127
vt 0.967469 0.991044
vt 0.967469 0.606893
vt 0.981891 0.606893
vt 0.981891 0.991044
vn 0.0000 -0.0000 1.0000
vn 1.0000 0.0000 0.0000
vn 0.0000 0.0000 -1.0000
vn -1.0000 0.0000 0.0000
vn 0.0000 1.0000 0.0000
vn -0.0852 0.9964 0.0000
vn 0.0000 0.9963 0.0857
vn 0.0852 0.9964 0.0000
vn 0.0000 0.9963 -0.0857
vn 0.8934 -0.0000 -0.4492
vn -0.8934 0.0000 -0.4492
usemtl Tree_2.003
s 1
f 55/113/32 70/114/32 69/115/32 53/116/32
f 57/117/33 71/118/33 70/119/33 55/120/33
f 59/121/34 72/122/34 71/123/34 57/124/34
f 61/125/35 54/126/35 60/127/35 64/128/35
f 56/129/36 58/130/36 60/131/36 54/132/36
f 62/133/32 56/134/32 54/135/32 61/136/32
f 63/137/33 58/138/33 56/139/33 62/140/33
f 64/141/34 60/142/34 58/143/34 63/144/34
f 64/145/37 76/146/37 73/147/37 61/148/37
f 66/149/32 74/150/32 73/151/32 65/152/32
f 67/153/33 75/154/33 74/155/33 66/156/33
f 68/157/34 76/158/34 75/159/34 67/160/34
f 72/161/35 59/162/35 53/163/35 69/164/35
f 76/165/35 68/166/35 65/167/35 73/168/35
f 74/169/38 62/170/38 61/148/38 73/147/38
f 75/171/39 63/172/39 62/170/39 74/169/39
f 76/146/40 64/145/40 63/172/40 75/171/40
f 78/173/41 81/174/41 82/175/41 79/176/41
f 77/177/32 80/178/32 81/179/32 78/180/32
f 79/181/42 82/182/42 80/183/42 77/184/42
o Tree_3_499_2.001_Mesh.209
v -0.892639 0.207788 0.909778
v -0.897211 0.571037 0.918623
v -0.767355 0.206691 0.906432
v -0.755960 0.569800 0.914851
v -0.770680 0.206958 0.781827
v -0.759710 0.570100 0.774366
v -0.895965 0.208055 0.785173
v -0.900960 0.571338 0.778138
v -0.897638 0.522555 0.918531
v -0.756387 0.521318 0.914758
v -0.760137 0.521618 0.774273
v -0.901387 0.522855 0.778046
v -0.945940 0.253241 0.966201
v -0.710331 0.251177 0.959908
v -0.716585 0.251679 0.725576
v -0.952194 0.253742 0.731869
v -0.892284 0.248130 0.909855
v -0.766999 0.247032 0.906509
v -0.770325 0.247299 0.781904
v -0.895609 0.248396 0.785250
v -0.943584 0.520640 0.966710
v -0.707976 0.518576 0.960418
v -0.714229 0.519078 0.726086
v -0.949838 0.521141 0.732378
v -0.835896 0.204313 0.850213
v -0.827248 0.204237 0.849982
v -0.831802 0.204294 0.841496
v -0.837672 0.002748 0.849829
v -0.829024 0.002672 0.849598
v -0.833577 0.002729 0.841112
vt 0.861275 0.031624
vt 0.861275 0.085158
vt 0.693591 0.085158
vt 0.693591 0.031624
vt 0.547108 0.027812
vt 0.547108 0.081347
vt 0.380339 0.081347
vt 0.380339 0.027812
vt 0.362350 0.027812
vt 0.362350 0.081347
vt 0.194667 0.081347
vt 0.194667 0.027812
vt 0.382689 0.099188
vt 0.382689 0.163525
vt 0.194667 0.163525
vt 0.194667 0.099188
vt 0.861275 0.102999
vt 0.861275 0.289486
vt 0.672221 0.289486
vt 0.672221 0.102999
vt 0.383720 0.181367
vt 0.383720 0.245704
vt 0.194667 0.245704
vt 0.194667 0.181367
vt 0.588699 0.099188
vt 0.588699 0.163525
vt 0.400677 0.163525
vt 0.400677 0.099188
vt 0.590762 0.181367
vt 0.590762 0.245704
vt 0.401708 0.245704
vt 0.401708 0.181367
vt 0.738807 0.928791
vt 0.675661 0.991079
vt 0.675661 0.680015
vt 0.738807 0.742304
vt 0.657672 0.636233
vt 0.657672 0.991079
vt 0.342328 0.991079
vt 0.342328 0.636233
vt 0.654233 0.263546
vt 0.654233 0.618392
vt 0.340608 0.618392
vt 0.340608 0.263546
vt 0.324339 0.636233
vt 0.324339 0.991079
vt 0.008994 0.991079
vt 0.008994 0.636233
vt 0.008994 0.062455
vt 0.008994 0.008921
vt 0.175764 0.008921
vt 0.175764 0.062455
vt 0.008994 0.618392
vt 0.008994 0.263546
vt 0.322619 0.263546
vt 0.322619 0.618392
vt 0.991006 0.680015
vt 0.927860 0.742304
vt 0.991006 0.991079
vt 0.927860 0.928791
vt 0.967891 0.289486
vt 0.967891 0.022004
vt 0.979403 0.022004
vt 0.979403 0.289486
vt 0.879263 0.289486
vt 0.879263 0.022004
vt 0.890838 0.022004
vt 0.890838 0.289486
vt 0.938390 0.289486
vt 0.938390 0.022004
vt 0.949902 0.022004
vt 0.949902 0.289486
vn 0.0267 -0.0021 0.9996
vn 0.9996 -0.0088 -0.0267
vn -0.0267 0.0021 -0.9996
vn -0.9996 0.0088 0.0267
vn 0.0088 1.0000 0.0019
vn -0.0383 0.9993 0.0032
vn 0.0101 0.9987 0.0493
vn 0.0559 0.9984 0.0006
vn 0.0075 0.9989 -0.0455
vn 0.8811 -0.0069 -0.4729
vn -0.9051 0.0088 -0.4252
usemtl Tree_3.003
s 1
f 85/185/43 100/186/43 99/187/43 83/188/43
f 87/189/44 101/190/44 100/191/44 85/192/44
f 89/193/45 102/194/45 101/195/45 87/196/45
f 91/197/46 84/198/46 90/199/46 94/200/46
f 86/201/47 88/202/47 90/203/47 84/204/47
f 92/205/43 86/206/43 84/207/43 91/208/43
f 93/209/44 88/210/44 86/211/44 92/212/44
f 94/213/45 90/214/45 88/215/45 93/216/45
f 94/217/48 106/218/48 103/219/48 91/220/48
f 96/221/43 104/222/43 103/223/43 95/224/43
f 97/225/44 105/226/44 104/227/44 96/228/44
f 98/229/45 106/230/45 105/231/45 97/232/45
f 102/233/46 89/234/46 83/235/46 99/236/46
f 106/237/46 98/238/46 95/239/46 103/240/46
f 104/241/49 92/242/49 91/220/49 103/219/49
f 105/243/50 93/244/50 92/242/50 104/241/50
f 106/218/51 94/217/51 93/244/51 105/243/51
f 108/245/52 111/246/52 112/247/52 109/248/52
f 107/249/43 110/250/43 111/251/43 108/252/43
f 109/253/53 112/254/53 110/255/53 107/256/53
o Tree_2_3_61.003_Mesh.210
v -0.424253 0.221273 0.898759
v -0.437524 0.621525 0.911957
v -0.349936 0.221273 0.898759
v -0.336665 0.621525 0.911957
v -0.349936 0.221273 0.824846
v -0.336665 0.621525 0.811648
v -0.424253 0.221273 0.824846
v -0.437524 0.621525 0.811648
v -0.437524 0.454708 0.911957
v -0.336665 0.454708 0.911957
v -0.336665 0.454708 0.811648
v -0.437524 0.454708 0.811648
v -0.466231 0.270960 0.940508
v -0.307958 0.270960 0.940508
v -0.307958 0.270960 0.783097
v -0.466231 0.270960 0.783097
v -0.424253 0.265730 0.898759
v -0.349936 0.265730 0.898759
v -0.349936 0.265730 0.824846
v -0.424253 0.265730 0.824846
v -0.466231 0.452253 0.940508
v -0.307958 0.452253 0.940508
v -0.307958 0.452253 0.783097
v -0.466231 0.452253 0.783097
v -0.391559 0.217869 0.866243
v -0.382630 0.217869 0.866243
v -0.387094 0.217869 0.857362
v -0.391559 -0.004261 0.866243
v -0.382630 -0.004261 0.866243
v -0.387094 -0.004261 0.857362
vt 0.950649 0.914160
vt 0.950649 0.991044
vt 0.829960 0.991044
vt 0.829960 0.914160
vt 0.949991 0.629771
vt 0.949991 0.706655
vt 0.829960 0.706655
vt 0.829960 0.629771
vt 0.950649 0.819363
vt 0.950649 0.896248
vt 0.829960 0.896248
vt 0.829960 0.819363
vt 0.171307 0.039673
vt 0.171307 0.328165
vt 0.008410 0.328165
vt 0.008410 0.039673
vt 0.531634 0.154692
vt 0.531634 0.328165
vt 0.367844 0.328165
vt 0.367844 0.154692
vt 0.717096 0.080976
vt 0.717096 0.369467
vt 0.553306 0.369467
vt 0.553306 0.080976
vt 0.351024 0.039673
vt 0.351024 0.328165
vt 0.188127 0.328165
vt 0.188127 0.039673
vt 0.897707 0.080976
vt 0.897707 0.369467
vt 0.733916 0.369467
vt 0.733916 0.080976
vt 0.602730 0.941668
vt 0.556110 0.991044
vt 0.556110 0.718819
vt 0.602730 0.768195
vt 0.265440 0.677516
vt 0.265440 0.991044
vt 0.008410 0.991044
vt 0.008410 0.677516
vt 0.536486 0.346077
vt 0.536486 0.659604
vt 0.280858 0.659604
vt 0.280858 0.346077
vt 0.539290 0.677516
vt 0.539290 0.991044
vt 0.282260 0.991044
vt 0.282260 0.677516
vt 0.829960 0.801451
vt 0.829960 0.724567
vt 0.949991 0.724567
vt 0.949991 0.801451
vt 0.008410 0.659604
vt 0.008410 0.346077
vt 0.264038 0.346077
vt 0.264038 0.659604
vt 0.813140 0.718819
vt 0.766520 0.768195
vt 0.813140 0.991044
vt 0.766520 0.941668
vt 0.977168 0.465127
vt 0.977168 0.080976
vt 0.991590 0.080976
vt 0.991590 0.465127
vt 0.945847 0.465127
vt 0.945847 0.080976
vt 0.960348 0.080976
vt 0.960348 0.465127
vt 0.967469 0.991044
vt 0.967469 0.606893
vt 0.981891 0.606893
vt 0.981891 0.991044
vn 0.0000 0.0000 1.0000
vn 1.0000 0.0000 0.0000
vn 0.0000 0.0000 -1.0000
vn -1.0000 0.0000 0.0000
vn 0.0000 1.0000 0.0000
vn -0.0852 0.9964 0.0000
vn 0.0000 0.9963 0.0857
vn 0.0852 0.9964 0.0000
vn 0.0000 0.9963 -0.0857
vn 0.8934 0.0000 -0.4492
vn -0.8934 0.0000 -0.4492
usemtl Tree_2.003
s 1
f 115/257/54 130/258/54 129/259/54 113/260/54
f 117/261/55 131/262/55 130/263/55 115/264/55
f 119/265/56 132/266/56 131/267/56 117/268/56
f 121/269/57 114/270/57 120/271/57 124/272/57
f 116/273/58 118/274/58 120/275/58 114/276/58
f 122/277/54 116/278/54 114/279/54 121/280/54
f 123/281/55 118/282/55 116/283/55 122/284/55
f 124/285/56 120/286/56 118/287/56 123/288/56
f 124/289/59 136/290/59 133/291/59 121/292/59
f 126/293/54 134/294/54 133/295/54 125/296/54
f 127/297/55 135/298/55 134/299/55 126/300/55
f 128/301/56 136/302/56 135/303/56 127/304/56
f 132/305/57 119/306/57 113/307/57 129/308/57
f 136/309/57 128/310/57 125/311/57 133/312/57
f 134/313/60 122/314/60 121/292/60 133/291/60
f 135/315/61 123/316/61 122/314/61 134/313/61
f 136/290/62 124/289/62 123/316/62 135/315/62
f 138/317/63 141/318/63 142/319/63 139/320/63
f 137/321/54 140/322/54 141/323/54 138/324/54
f 139/325/64 142/326/64 140/327/64 137/328/64
