# Blender v2.90.1 OBJ File: 'URBAN2.3.blend'
# www.blender.org
mtllib business_tower_3lvl.mtl
o business_tower_3lvl_Mesh.4806
v 0.433783 0.024777 -0.433804
v 0.433783 4.673127 -0.433803
v -0.433788 0.024777 -0.433804
v -0.433788 4.673127 -0.433803
v -0.433788 0.024777 0.433768
v -0.433788 3.823947 0.433768
v 0.433784 0.024777 0.433768
v 0.433783 3.823947 0.433768
v 0.460679 0.019376 -0.460699
v -0.460683 0.019376 -0.460699
v -0.460683 0.019376 0.460662
v 0.460679 0.019376 0.460662
v 0.460679 -0.031813 -0.460699
v -0.460683 -0.031813 -0.460699
v -0.460683 -0.031813 0.460662
v 0.460679 -0.031813 0.460662
vt 0.386719 0.008968
vt 0.386719 0.991032
vt 0.206580 0.991032
vt 0.206580 0.008968
vt 0.782252 0.008968
vt 0.782252 0.811625
vt 0.602112 0.991032
vt 0.602112 0.008968
vt 0.188953 0.008968
vt 0.188953 0.811625
vt 0.008814 0.811625
vt 0.008814 0.008968
vt 0.584485 0.008968
vt 0.584485 0.991032
vt 0.404346 0.811625
vt 0.404346 0.008968
vt 0.008814 0.991032
vt 0.188953 0.991032
vt 0.985602 0.985350
vt 0.991186 0.991032
vt 0.799879 0.991032
vt 0.805463 0.985350
vt 0.985602 0.802057
vt 0.991186 0.796375
vt 0.805463 0.802057
vt 0.799879 0.796375
vt 0.799879 0.537095
vt 0.799879 0.526280
vt 0.991186 0.526280
vt 0.991186 0.537095
vt 0.799879 0.508345
vt 0.799879 0.497530
vt 0.991186 0.497530
vt 0.991186 0.508345
vt 0.799879 0.565846
vt 0.799879 0.555031
vt 0.991186 0.555031
vt 0.991186 0.565846
vt 0.799879 0.479594
vt 0.799879 0.468779
vt 0.991186 0.468779
vt 0.991186 0.479594
vn -0.0000 0.0000 -1.0000
vn -1.0000 -0.0000 0.0000
vn 0.0000 -0.0000 1.0000
vn 0.0000 0.3876 0.9218
vn 1.0000 0.0000 -0.0000
vn 0.0000 0.7146 0.6995
vn -0.0994 0.9901 0.0994
vn 0.0994 0.9901 0.0994
vn -0.0994 0.9901 -0.0994
vn 0.0994 0.9901 -0.0994
usemtl House_10
s 1
f 3/1/1 4/2/1 2/3/1 1/4/1
f 5/5/2 6/6/2 4/7/2 3/8/2
f 7/9/3 8/10/4 6/11/4 5/12/3
f 1/13/5 2/14/5 8/15/5 7/16/5
f 4/17/6 6/11/4 8/10/4 2/18/6
f 5/19/7 11/20/7 12/21/8 7/22/8
f 3/23/9 10/24/9 11/20/7 5/19/7
f 1/25/10 9/26/10 10/24/9 3/23/9
f 7/22/8 12/21/8 9/26/10 1/25/10
f 11/27/3 15/28/3 16/29/3 12/30/3
f 10/31/2 14/32/2 15/33/2 11/34/2
f 9/35/1 13/36/1 14/37/1 10/38/1
f 12/39/5 16/40/5 13/41/5 9/42/5
o Tree_2_3_61.041_Mesh.302
v -0.582812 0.187969 0.823748
v -0.596082 0.588221 0.836946
v -0.508494 0.187969 0.823748
v -0.495224 0.588221 0.836946
v -0.508494 0.187969 0.749836
v -0.495224 0.588221 0.736638
v -0.582812 0.187969 0.749836
v -0.596082 0.588221 0.736638
v -0.596082 0.421404 0.836946
v -0.495224 0.421404 0.836946
v -0.495224 0.421404 0.736638
v -0.596082 0.421404 0.736638
v -0.624790 0.237656 0.865497
v -0.466516 0.237656 0.865497
v -0.466516 0.237656 0.708087
v -0.624790 0.237656 0.708087
v -0.582812 0.232427 0.823748
v -0.508494 0.232427 0.823748
v -0.508494 0.232427 0.749836
v -0.582812 0.232427 0.749836
v -0.624790 0.418949 0.865497
v -0.466516 0.418949 0.865497
v -0.466516 0.418949 0.708087
v -0.624790 0.418949 0.708087
v -0.550118 0.184566 0.791232
v -0.541188 0.184566 0.791232
v -0.545653 0.184566 0.782351
v -0.550118 -0.037565 0.791232
v -0.541188 -0.037565 0.791232
v -0.545653 -0.037565 0.782351
vt 0.950649 0.914160
vt 0.950649 0.991044
vt 0.829960 0.991044
vt 0.829960 0.914160
vt 0.949991 0.629771
vt 0.949991 0.706655
vt 0.829960 0.706655
vt 0.829960 0.629771
vt 0.950649 0.819363
vt 0.950649 0.896248
vt 0.829960 0.896248
vt 0.829960 0.819363
vt 0.171307 0.039673
vt 0.171307 0.328165
vt 0.008410 0.328165
vt 0.008410 0.039673
vt 0.531634 0.154692
vt 0.531634 0.328165
vt 0.367844 0.328165
vt 0.367844 0.154692
vt 0.717096 0.080976
vt 0.717096 0.369467
vt 0.553306 0.369467
vt 0.553306 0.080976
vt 0.351024 0.039673
vt 0.351024 0.328165
vt 0.188127 0.328165
vt 0.188127 0.039673
vt 0.897707 0.080976
vt 0.897707 0.369467
vt 0.733916 0.369467
vt 0.733916 0.080976
vt 0.602730 0.941668
vt 0.556110 0.991044
vt 0.556110 0.718819
vt 0.602730 0.768195
vt 0.265440 0.677516
vt 0.265440 0.991044
vt 0.008410 0.991044
vt 0.008410 0.677516
vt 0.536486 0.346077
vt 0.536486 0.659604
vt 0.280858 0.659604
vt 0.280858 0.346077
vt 0.539290 0.677516
vt 0.539290 0.991044
vt 0.282260 0.991044
vt 0.282260 0.677516
vt 0.829960 0.801451
vt 0.829960 0.724567
vt 0.949991 0.724567
vt 0.949991 0.801451
vt 0.008410 0.659604
vt 0.008410 0.346077
vt 0.264038 0.346077
vt 0.264038 0.659604
vt 0.813140 0.718819
vt 0.766520 0.768195
vt 0.813140 0.991044
vt 0.766520 0.941668
vt 0.977168 0.465127
vt 0.977168 0.080976
vt 0.991590 0.080976
vt 0.991590 0.465127
vt 0.945847 0.465127
vt 0.945847 0.080976
vt 0.960348 0.080976
vt 0.960348 0.465127
vt 0.967469 0.991044
vt 0.967469 0.606893
vt 0.981891 0.606893
vt 0.981891 0.991044
vn 0.0000 -0.0000 1.0000
vn 1.0000 -0.0000 0.0000
vn 0.0000 0.0000 -1.0000
vn -1.0000 0.0000 0.0000
vn 0.0000 1.0000 0.0000
vn -0.0852 0.9964 0.0000
vn 0.0000 0.9963 0.0857
vn 0.0852 0.9964 0.0000
vn 0.0000 0.9963 -0.0857
vn 0.8934 0.0000 -0.4492
vn -0.8934 0.0000 -0.4492
usemtl Tree_2.003
s 1
f 19/43/11 34/44/11 33/45/11 17/46/11
f 21/47/12 35/48/12 34/49/12 19/50/12
f 23/51/13 36/52/13 35/53/13 21/54/13
f 25/55/14 18/56/14 24/57/14 28/58/14
f 20/59/15 22/60/15 24/61/15 18/62/15
f 26/63/11 20/64/11 18/65/11 25/66/11
f 27/67/12 22/68/12 20/69/12 26/70/12
f 28/71/13 24/72/13 22/73/13 27/74/13
f 28/75/16 40/76/16 37/77/16 25/78/16
f 30/79/11 38/80/11 37/81/11 29/82/11
f 31/83/12 39/84/12 38/85/12 30/86/12
f 32/87/13 40/88/13 39/89/13 31/90/13
f 36/91/14 23/92/14 17/93/14 33/94/14
f 40/95/14 32/96/14 29/97/14 37/98/14
f 38/99/17 26/100/17 25/78/17 37/77/17
f 39/101/18 27/102/18 26/100/18 38/99/18
f 40/76/19 28/75/19 27/102/19 39/101/19
f 42/103/20 45/104/20 46/105/20 43/106/20
f 41/107/11 44/108/11 45/109/11 42/110/11
f 43/111/21 46/112/21 44/113/21 41/114/21
o Tree_2_3_61.042_Mesh.303
v -0.155661 0.187969 0.836857
v -0.168931 0.588221 0.850055
v -0.081343 0.187969 0.836857
v -0.068072 0.588221 0.850055
v -0.081343 0.187969 0.762945
v -0.068072 0.588221 0.749747
v -0.155661 0.187969 0.762945
v -0.168931 0.588221 0.749747
v -0.168931 0.421404 0.850055
v -0.068072 0.421404 0.850055
v -0.068072 0.421404 0.749747
v -0.168931 0.421404 0.749747
v -0.197638 0.237656 0.878606
v -0.039365 0.237656 0.878606
v -0.039365 0.237656 0.721196
v -0.197638 0.237656 0.721196
v -0.155661 0.232427 0.836857
v -0.081343 0.232427 0.836857
v -0.081343 0.232427 0.762945
v -0.155661 0.232427 0.762945
v -0.197638 0.418949 0.878606
v -0.039365 0.418949 0.878606
v -0.039365 0.418949 0.721196
v -0.197638 0.418949 0.721196
v -0.122966 0.184566 0.804341
v -0.114037 0.184566 0.804341
v -0.118502 0.184566 0.795461
v -0.122966 -0.037565 0.804341
v -0.114037 -0.037565 0.804341
v -0.118502 -0.037565 0.795461
vt 0.950649 0.914160
vt 0.950649 0.991044
vt 0.829960 0.991044
vt 0.829960 0.914160
vt 0.949991 0.629771
vt 0.949991 0.706655
vt 0.829960 0.706655
vt 0.829960 0.629771
vt 0.950649 0.819363
vt 0.950649 0.896248
vt 0.829960 0.896248
vt 0.829960 0.819363
vt 0.171307 0.039673
vt 0.171307 0.328165
vt 0.008410 0.328165
vt 0.008410 0.039673
vt 0.531634 0.154692
vt 0.531634 0.328165
vt 0.367844 0.328165
vt 0.367844 0.154692
vt 0.717096 0.080976
vt 0.717096 0.369467
vt 0.553306 0.369467
vt 0.553306 0.080976
vt 0.351024 0.039673
vt 0.351024 0.328165
vt 0.188127 0.328165
vt 0.188127 0.039673
vt 0.897707 0.080976
vt 0.897707 0.369467
vt 0.733916 0.369467
vt 0.733916 0.080976
vt 0.602730 0.941668
vt 0.556110 0.991044
vt 0.556110 0.718819
vt 0.602730 0.768195
vt 0.265440 0.677516
vt 0.265440 0.991044
vt 0.008410 0.991044
vt 0.008410 0.677516
vt 0.536486 0.346077
vt 0.536486 0.659604
vt 0.280858 0.659604
vt 0.280858 0.346077
vt 0.539290 0.677516
vt 0.539290 0.991044
vt 0.282260 0.991044
vt 0.282260 0.677516
vt 0.829960 0.801451
vt 0.829960 0.724567
vt 0.949991 0.724567
vt 0.949991 0.801451
vt 0.008410 0.659604
vt 0.008410 0.346077
vt 0.264038 0.346077
vt 0.264038 0.659604
vt 0.813140 0.718819
vt 0.766520 0.768195
vt 0.813140 0.991044
vt 0.766520 0.941668
vt 0.977168 0.465127
vt 0.977168 0.080976
vt 0.991590 0.080976
vt 0.991590 0.465127
vt 0.945847 0.465127
vt 0.945847 0.080976
vt 0.960348 0.080976
vt 0.960348 0.465127
vt 0.967469 0.991044
vt 0.967469 0.606893
vt 0.981891 0.606893
vt 0.981891 0.991044
vn 0.0000 -0.0000 1.0000
vn 1.0000 0.0000 0.0000
vn 0.0000 0.0000 -1.0000
vn -1.0000 0.0000 0.0000
vn 0.0000 1.0000 0.0000
vn -0.0852 0.9964 0.0000
vn 0.0000 0.9963 0.0857
vn 0.0852 0.9964 0.0000
vn 0.0000 0.9963 -0.0857
vn 0.8934 0.0000 -0.4492
vn -0.8934 0.0000 -0.4492
usemtl Tree_2.003
s 1
f 49/115/22 64/116/22 63/117/22 47/118/22
f 51/119/23 65/120/23 64/121/23 49/122/23
f 53/123/24 66/124/24 65/125/24 51/126/24
f 55/127/25 48/128/25 54/129/25 58/130/25
f 50/131/26 52/132/26 54/133/26 48/134/26
f 56/135/22 50/136/22 48/137/22 55/138/22
f 57/139/23 52/140/23 50/141/23 56/142/23
f 58/143/24 54/144/24 52/145/24 57/146/24
f 58/147/27 70/148/27 67/149/27 55/150/27
f 60/151/22 68/152/22 67/153/22 59/154/22
f 61/155/23 69/156/23 68/157/23 60/158/23
f 62/159/24 70/160/24 69/161/24 61/162/24
f 66/163/25 53/164/25 47/165/25 63/166/25
f 70/167/25 62/168/25 59/169/25 67/170/25
f 68/171/28 56/172/28 55/150/28 67/149/28
f 69/173/29 57/174/29 56/172/29 68/171/29
f 70/148/30 58/147/30 57/174/30 69/173/30
f 72/175/31 75/176/31 76/177/31 73/178/31
f 71/179/22 74/180/22 75/181/22 72/182/22
f 73/183/32 76/184/32 74/185/32 71/186/32
o Tree_2_3_61.063_Mesh.329
v -0.806567 0.251647 -0.676745
v -0.819838 0.651899 -0.663547
v -0.732249 0.251647 -0.676745
v -0.718979 0.651899 -0.663547
v -0.732249 0.251647 -0.750657
v -0.718979 0.651899 -0.763855
v -0.806567 0.251647 -0.750657
v -0.819838 0.651899 -0.763855
v -0.819838 0.485083 -0.663547
v -0.718979 0.485083 -0.663547
v -0.718979 0.485083 -0.763855
v -0.819838 0.485083 -0.763855
v -0.848545 0.301334 -0.634996
v -0.690271 0.301334 -0.634996
v -0.690271 0.301334 -0.792406
v -0.848545 0.301334 -0.792406
v -0.806567 0.296105 -0.676745
v -0.732249 0.296105 -0.676745
v -0.732249 0.296105 -0.750657
v -0.806567 0.296105 -0.750657
v -0.848545 0.482628 -0.634996
v -0.690271 0.482628 -0.634996
v -0.690271 0.482628 -0.792406
v -0.848545 0.482628 -0.792406
v -0.773873 0.248244 -0.709261
v -0.764944 0.248244 -0.709261
v -0.769408 0.248244 -0.718142
v -0.773873 0.026113 -0.709261
v -0.764944 0.026113 -0.709261
v -0.769408 0.026113 -0.718142
vt 0.950649 0.914160
vt 0.950649 0.991044
vt 0.829960 0.991044
vt 0.829960 0.914160
vt 0.949991 0.629771
vt 0.949991 0.706655
vt 0.829960 0.706655
vt 0.829960 0.629771
vt 0.950649 0.819363
vt 0.950649 0.896248
vt 0.829960 0.896248
vt 0.829960 0.819363
vt 0.171307 0.039673
vt 0.171307 0.328165
vt 0.008410 0.328165
vt 0.008410 0.039673
vt 0.531634 0.154692
vt 0.531634 0.328165
vt 0.367844 0.328165
vt 0.367844 0.154692
vt 0.717096 0.080976
vt 0.717096 0.369467
vt 0.553306 0.369467
vt 0.553306 0.080976
vt 0.351024 0.039673
vt 0.351024 0.328165
vt 0.188127 0.328165
vt 0.188127 0.039673
vt 0.897707 0.080976
vt 0.897707 0.369467
vt 0.733916 0.369467
vt 0.733916 0.080976
vt 0.602730 0.941668
vt 0.556110 0.991044
vt 0.556110 0.718819
vt 0.602730 0.768195
vt 0.265440 0.677516
vt 0.265440 0.991044
vt 0.008410 0.991044
vt 0.008410 0.677516
vt 0.536486 0.346077
vt 0.536486 0.659604
vt 0.280858 0.659604
vt 0.280858 0.346077
vt 0.539290 0.677516
vt 0.539290 0.991044
vt 0.282260 0.991044
vt 0.282260 0.677516
vt 0.829960 0.801451
vt 0.829960 0.724567
vt 0.949991 0.724567
vt 0.949991 0.801451
vt 0.008410 0.659604
vt 0.008410 0.346077
vt 0.264038 0.346077
vt 0.264038 0.659604
vt 0.813140 0.718819
vt 0.766520 0.768195
vt 0.813140 0.991044
vt 0.766520 0.941668
vt 0.977168 0.465127
vt 0.977168 0.080976
vt 0.991590 0.080976
vt 0.991590 0.465127
vt 0.945847 0.465127
vt 0.945847 0.080976
vt 0.960348 0.080976
vt 0.960348 0.465127
vt 0.967469 0.991044
vt 0.967469 0.606893
vt 0.981891 0.606893
vt 0.981891 0.991044
vn 0.0000 -0.0000 1.0000
vn 1.0000 -0.0000 0.0000
vn 0.0000 0.0000 -1.0000
vn -1.0000 0.0000 0.0000
vn 0.0000 1.0000 0.0000
vn -0.0852 0.9964 0.0000
vn 0.0000 0.9963 0.0857
vn 0.0852 0.9964 0.0000
vn 0.0000 0.9963 -0.0857
vn 0.8934 0.0000 -0.4492
vn -0.8934 0.0000 -0.4492
usemtl Tree_2.003
s 1
f 79/187/33 94/188/33 93/189/33 77/190/33
f 81/191/34 95/192/34 94/193/34 79/194/34
f 83/195/35 96/196/35 95/197/35 81/198/35
f 85/199/36 78/200/36 84/201/36 88/202/36
f 80/203/37 82/204/37 84/205/37 78/206/37
f 86/207/33 80/208/33 78/209/33 85/210/33
f 87/211/34 82/212/34 80/213/34 86/214/34
f 88/215/35 84/216/35 82/217/35 87/218/35
f 88/219/38 100/220/38 97/221/38 85/222/38
f 90/223/33 98/224/33 97/225/33 89/226/33
f 91/227/34 99/228/34 98/229/34 90/230/34
f 92/231/35 100/232/35 99/233/35 91/234/35
f 96/235/36 83/236/36 77/237/36 93/238/36
f 100/239/36 92/240/36 89/241/36 97/242/36
f 98/243/39 86/244/39 85/222/39 97/221/39
f 99/245/40 87/246/40 86/244/40 98/243/40
f 100/220/41 88/219/41 87/246/41 99/245/41
f 102/247/42 105/248/42 106/249/42 103/250/42
f 101/251/33 104/252/33 105/253/33 102/254/33
f 103/255/43 106/256/43 104/257/43 101/258/43
o Tree_2_3_61.064_Mesh.330
v 0.671920 0.187969 -0.502634
v 0.658650 0.588221 -0.489436
v 0.746238 0.187969 -0.502634
v 0.759508 0.588221 -0.489436
v 0.746238 0.187969 -0.576546
v 0.759508 0.588221 -0.589744
v 0.671920 0.187969 -0.576546
v 0.658650 0.588221 -0.589744
v 0.658650 0.421404 -0.489436
v 0.759508 0.421404 -0.489436
v 0.759508 0.421404 -0.589744
v 0.658650 0.421404 -0.589744
v 0.629942 0.237656 -0.460885
v 0.788216 0.237656 -0.460885
v 0.788216 0.237656 -0.618295
v 0.629942 0.237656 -0.618295
v 0.671920 0.232427 -0.502634
v 0.746238 0.232427 -0.502634
v 0.746238 0.232427 -0.576546
v 0.671920 0.232427 -0.576546
v 0.629942 0.418949 -0.460885
v 0.788216 0.418949 -0.460885
v 0.788216 0.418949 -0.618295
v 0.629942 0.418949 -0.618295
v 0.704614 0.184566 -0.535150
v 0.713543 0.184566 -0.535150
v 0.709079 0.184566 -0.544030
v 0.704614 -0.037565 -0.535150
v 0.713543 -0.037565 -0.535150
v 0.709079 -0.037565 -0.544030
vt 0.950649 0.914160
vt 0.950649 0.991044
vt 0.829960 0.991044
vt 0.829960 0.914160
vt 0.949991 0.629771
vt 0.949991 0.706655
vt 0.829960 0.706655
vt 0.829960 0.629771
vt 0.950649 0.819363
vt 0.950649 0.896248
vt 0.829960 0.896248
vt 0.829960 0.819363
vt 0.171307 0.039673
vt 0.171307 0.328165
vt 0.008410 0.328165
vt 0.008410 0.039673
vt 0.531634 0.154692
vt 0.531634 0.328165
vt 0.367844 0.328165
vt 0.367844 0.154692
vt 0.717096 0.080976
vt 0.717096 0.369467
vt 0.553306 0.369467
vt 0.553306 0.080976
vt 0.351024 0.039673
vt 0.351024 0.328165
vt 0.188127 0.328165
vt 0.188127 0.039673
vt 0.897707 0.080976
vt 0.897707 0.369467
vt 0.733916 0.369467
vt 0.733916 0.080976
vt 0.602730 0.941668
vt 0.556110 0.991044
vt 0.556110 0.718819
vt 0.602730 0.768195
vt 0.265440 0.677516
vt 0.265440 0.991044
vt 0.008410 0.991044
vt 0.008410 0.677516
vt 0.536486 0.346077
vt 0.536486 0.659604
vt 0.280858 0.659604
vt 0.280858 0.346077
vt 0.539290 0.677516
vt 0.539290 0.991044
vt 0.282260 0.991044
vt 0.282260 0.677516
vt 0.829960 0.801451
vt 0.829960 0.724567
vt 0.949991 0.724567
vt 0.949991 0.801451
vt 0.008410 0.659604
vt 0.008410 0.346077
vt 0.264038 0.346077
vt 0.264038 0.659604
vt 0.813140 0.718819
vt 0.766520 0.768195
vt 0.813140 0.991044
vt 0.766520 0.941668
vt 0.977168 0.465127
vt 0.977168 0.080976
vt 0.991590 0.080976
vt 0.991590 0.465127
vt 0.945847 0.465127
vt 0.945847 0.080976
vt 0.960348 0.080976
vt 0.960348 0.465127
vt 0.967469 0.991044
vt 0.967469 0.606893
vt 0.981891 0.606893
vt 0.981891 0.991044
vn 0.0000 -0.0000 1.0000
vn 1.0000 -0.0000 0.0000
vn 0.0000 0.0000 -1.0000
vn -1.0000 0.0000 0.0000
vn 0.0000 1.0000 0.0000
vn -0.0852 0.9964 0.0000
vn 0.0000 0.9963 0.0857
vn 0.0852 0.9964 0.0000
vn 0.0000 0.9963 -0.0857
vn 0.8934 0.0000 -0.4492
vn -0.8934 0.0000 -0.4492
usemtl Tree_2.003
s 1
f 109/259/44 124/260/44 123/261/44 107/262/44
f 111/263/45 125/264/45 124/265/45 109/266/45
f 113/267/46 126/268/46 125/269/46 111/270/46
f 115/271/47 108/272/47 114/273/47 118/274/47
f 110/275/48 112/276/48 114/277/48 108/278/48
f 116/279/44 110/280/44 108/281/44 115/282/44
f 117/283/45 112/284/45 110/285/45 116/286/45
f 118/287/46 114/288/46 112/289/46 117/290/46
f 118/291/49 130/292/49 127/293/49 115/294/49
f 120/295/44 128/296/44 127/297/44 119/298/44
f 121/299/45 129/300/45 128/301/45 120/302/45
f 122/303/46 130/304/46 129/305/46 121/306/46
f 126/307/47 113/308/47 107/309/47 123/310/47
f 130/311/47 122/312/47 119/313/47 127/314/47
f 128/315/50 116/316/50 115/294/50 127/293/50
f 129/317/51 117/318/51 116/316/51 128/315/51
f 130/292/52 118/291/52 117/318/52 129/317/52
f 132/319/53 135/320/53 136/321/53 133/322/53
f 131/323/44 134/324/44 135/325/44 132/326/44
f 133/327/54 136/328/54 134/329/54 131/330/54
