<?xml version="1.0" encoding="utf-8"?>
<!-- Generator: Adobe Illustrator 22.1.0, SVG Export Plug-In . SVG Version: 6.00 Build 0)  -->
<svg version="1.1" id="Calque_1" xmlns="http://www.w3.org/2000/svg" xmlns:xlink="http://www.w3.org/1999/xlink" x="0px" y="0px"
	 viewBox="0 0 211.8 7.5" style="enable-background:new 0 0 211.8 7.5;" xml:space="preserve">
<style type="text/css">
	.st0{opacity:0.4;enable-background:new    ;}
</style>
<g id="XMLID_13_">
	<path id="XMLID_17_" d="M179.3,6.7c0,0.2-0.1,0.3-0.3,0.3h-0.9c-0.2,0-0.3-0.1-0.3-0.3V0.5c0-0.2,0.1-0.3,0.3-0.3h0.9
		c0.2,0,0.3,0.1,0.3,0.3V6.7z"/>
	<path id="XMLID_16_" d="M176.5,6.7c0,0.2-0.1,0.3-0.3,0.3h-0.9c-0.2,0-0.3-0.1-0.3-0.3V2.2c0-0.2,0.1-0.3,0.3-0.3h0.9
		c0.2,0,0.3,0.1,0.3,0.3V6.7z"/>
	<path id="XMLID_15_" d="M173.7,6.7c0,0.2-0.1,0.3-0.3,0.3h-0.9c-0.2,0-0.3-0.1-0.3-0.3V3.5c0-0.2,0.1-0.3,0.3-0.3h0.9
		c0.2,0,0.3,0.1,0.3,0.3V6.7z"/>
	<path id="XMLID_14_" d="M170.8,6.7c0,0.2-0.1,0.3-0.3,0.3h-0.9c-0.2,0-0.3-0.1-0.3-0.3v-2c0-0.2,0.1-0.3,0.3-0.3h0.9
		c0.2,0,0.3,0.1,0.3,0.3V6.7z"/>
</g>
<g id="XMLID_9_">
	<path id="XMLID_12_" d="M184,3.3c-0.4-0.4-0.8-0.8-1.2-1.2c2.5-2.6,7-2.7,9.6,0c-0.4,0.4-0.8,0.8-1.2,1.2c-1-0.9-2.2-1.5-3.6-1.5
		C186.2,1.9,185,2.4,184,3.3z"/>
	<path id="XMLID_11_" d="M185.8,5.1c-0.4-0.4-0.8-0.8-1.2-1.2c1.6-1.6,4.4-1.7,6,0c-0.4,0.4-0.8,0.8-1.2,1.2
		C188.2,4.2,187,4.2,185.8,5.1z"/>
	<path id="XMLID_10_" d="M188.8,5.7c-0.4,0.4-0.8,0.8-1.2,1.2c-0.4-0.4-0.8-0.8-1.2-1.2C186.9,5.1,188.1,5,188.8,5.7z"/>
</g>
<g id="XMLID_3_">
	<path id="XMLID_6_" class="st0" d="M207.8,0h-10.6c-0.8,0-1.5,0.7-1.5,1.5v4.1c0,0.8,0.7,1.5,1.5,1.5h10.6c0.8,0,1.5-0.7,1.5-1.5
		V1.5C209.3,0.7,208.6,0,207.8,0z M208.7,5.7c0,0.5-0.4,0.9-0.9,0.9h-10.6c-0.5,0-0.9-0.4-0.9-0.9V1.5c0-0.5,0.4-0.9,0.9-0.9h10.6
		c0.5,0,0.9,0.4,0.9,0.9V5.7z"/>
	<path id="XMLID_5_" d="M208.1,5.7c0,0.2-0.1,0.3-0.3,0.3h-10.6c-0.2,0-0.3-0.1-0.3-0.3V1.5c0-0.2,0.1-0.3,0.3-0.3h10.6
		c0.2,0,0.3,0.1,0.3,0.3V5.7z"/>
	<path id="XMLID_4_" d="M210.8,3.6c0,0.5-0.4,0.8-0.8,0.8c0-0.6,0-1.2,0-1.7C210.4,2.8,210.8,3.1,210.8,3.6z"/>
</g>
</svg>
