# Blender v2.90.1 OBJ File: 'URBAN2.2.blend'
# www.blender.org
mtllib living_yellow_3lvl.mtl
o Tree_2_3_61.461_Mesh.131
v -0.651693 0.221273 0.742356
v -0.664963 0.621525 0.755554
v -0.577375 0.221273 0.742356
v -0.564105 0.621525 0.755554
v -0.577375 0.221273 0.668443
v -0.564105 0.621525 0.655245
v -0.651693 0.221273 0.668443
v -0.664963 0.621525 0.655245
v -0.664963 0.454708 0.755554
v -0.564105 0.454708 0.755554
v -0.564105 0.454708 0.655245
v -0.664963 0.454708 0.655245
v -0.693671 0.270960 0.784105
v -0.535397 0.270960 0.784105
v -0.535397 0.270960 0.626694
v -0.693671 0.270960 0.626694
v -0.651693 0.265730 0.742356
v -0.577375 0.265730 0.742356
v -0.577375 0.265730 0.668443
v -0.651693 0.265730 0.668443
v -0.693671 0.452253 0.784105
v -0.535397 0.452253 0.784105
v -0.535397 0.452253 0.626694
v -0.693671 0.452253 0.626694
v -0.618999 0.217869 0.709840
v -0.610069 0.217869 0.709840
v -0.614534 0.217869 0.700959
v -0.618999 -0.004261 0.709840
v -0.610069 -0.004261 0.709840
v -0.614534 -0.004261 0.700959
vt 0.950649 0.914160
vt 0.950649 0.991044
vt 0.829960 0.991044
vt 0.829960 0.914160
vt 0.949991 0.629771
vt 0.949991 0.706655
vt 0.829960 0.706655
vt 0.829960 0.629771
vt 0.950649 0.819363
vt 0.950649 0.896248
vt 0.829960 0.896248
vt 0.829960 0.819363
vt 0.171307 0.039673
vt 0.171307 0.328165
vt 0.008410 0.328165
vt 0.008410 0.039673
vt 0.531634 0.154692
vt 0.531634 0.328165
vt 0.367844 0.328165
vt 0.367844 0.154692
vt 0.717096 0.080976
vt 0.717096 0.369467
vt 0.553306 0.369467
vt 0.553306 0.080976
vt 0.351024 0.039673
vt 0.351024 0.328165
vt 0.188127 0.328165
vt 0.188127 0.039673
vt 0.897707 0.080976
vt 0.897707 0.369467
vt 0.733916 0.369467
vt 0.733916 0.080976
vt 0.602730 0.941668
vt 0.556110 0.991044
vt 0.556110 0.718819
vt 0.602730 0.768195
vt 0.265440 0.677516
vt 0.265440 0.991044
vt 0.008410 0.991044
vt 0.008410 0.677516
vt 0.536486 0.346077
vt 0.536486 0.659604
vt 0.280858 0.659604
vt 0.280858 0.346077
vt 0.539290 0.677516
vt 0.539290 0.991044
vt 0.282260 0.991044
vt 0.282260 0.677516
vt 0.829960 0.801451
vt 0.829960 0.724567
vt 0.949991 0.724567
vt 0.949991 0.801451
vt 0.008410 0.659604
vt 0.008410 0.346077
vt 0.264038 0.346077
vt 0.264038 0.659604
vt 0.813140 0.718819
vt 0.766520 0.768195
vt 0.813140 0.991044
vt 0.766520 0.941668
vt 0.977168 0.465127
vt 0.977168 0.080976
vt 0.991590 0.080976
vt 0.991590 0.465127
vt 0.945847 0.465127
vt 0.945847 0.080976
vt 0.960348 0.080976
vt 0.960348 0.465127
vt 0.967469 0.991044
vt 0.967469 0.606893
vt 0.981891 0.606893
vt 0.981891 0.991044
vn 0.0000 -0.0000 1.0000
vn 1.0000 0.0000 0.0000
vn 0.0000 0.0000 -1.0000
vn -1.0000 0.0000 0.0000
vn 0.0000 1.0000 0.0000
vn -0.0852 0.9964 0.0000
vn 0.0000 0.9963 0.0857
vn 0.0852 0.9964 0.0000
vn 0.0000 0.9963 -0.0857
vn 0.8934 0.0000 -0.4492
vn -0.8934 0.0000 -0.4492
usemtl Tree_2.003
s 1
f 3/1/1 18/2/1 17/3/1 1/4/1
f 5/5/2 19/6/2 18/7/2 3/8/2
f 7/9/3 20/10/3 19/11/3 5/12/3
f 9/13/4 2/14/4 8/15/4 12/16/4
f 4/17/5 6/18/5 8/19/5 2/20/5
f 10/21/1 4/22/1 2/23/1 9/24/1
f 11/25/2 6/26/2 4/27/2 10/28/2
f 12/29/3 8/30/3 6/31/3 11/32/3
f 12/33/6 24/34/6 21/35/6 9/36/6
f 14/37/1 22/38/1 21/39/1 13/40/1
f 15/41/2 23/42/2 22/43/2 14/44/2
f 16/45/3 24/46/3 23/47/3 15/48/3
f 20/49/4 7/50/4 1/51/4 17/52/4
f 24/53/4 16/54/4 13/55/4 21/56/4
f 22/57/7 10/58/7 9/36/7 21/35/7
f 23/59/8 11/60/8 10/58/8 22/57/8
f 24/34/9 12/33/9 11/60/9 23/59/9
f 26/61/10 29/62/10 30/63/10 27/64/10
f 25/65/1 28/66/1 29/67/1 26/68/1
f 27/69/11 30/70/11 28/71/11 25/72/11
o Tree_2_3_61.462_Mesh.132
v 0.793339 0.221273 0.737777
v 0.780068 0.621525 0.750976
v 0.867657 0.221273 0.737777
v 0.880927 0.621525 0.750976
v 0.867657 0.221273 0.663865
v 0.880927 0.621525 0.650667
v 0.793339 0.221273 0.663865
v 0.780068 0.621525 0.650667
v 0.780068 0.454708 0.750976
v 0.880927 0.454708 0.750976
v 0.880927 0.454708 0.650667
v 0.780068 0.454708 0.650667
v 0.751361 0.270960 0.779527
v 0.909635 0.270960 0.779527
v 0.909635 0.270960 0.622116
v 0.751361 0.270960 0.622116
v 0.793339 0.265730 0.737778
v 0.867657 0.265730 0.737778
v 0.867657 0.265730 0.663865
v 0.793339 0.265730 0.663865
v 0.751361 0.452253 0.779527
v 0.909635 0.452253 0.779527
v 0.909635 0.452253 0.622116
v 0.751361 0.452253 0.622116
v 0.826033 0.217869 0.705262
v 0.834962 0.217869 0.705262
v 0.830498 0.217869 0.696381
v 0.826033 -0.004261 0.705262
v 0.834962 -0.004261 0.705262
v 0.830498 -0.004261 0.696381
vt 0.950649 0.914160
vt 0.950649 0.991044
vt 0.829960 0.991044
vt 0.829960 0.914160
vt 0.949991 0.629771
vt 0.949991 0.706655
vt 0.829960 0.706655
vt 0.829960 0.629771
vt 0.950649 0.819363
vt 0.950649 0.896248
vt 0.829960 0.896248
vt 0.829960 0.819363
vt 0.171307 0.039673
vt 0.171307 0.328165
vt 0.008410 0.328165
vt 0.008410 0.039673
vt 0.531634 0.154692
vt 0.531634 0.328165
vt 0.367844 0.328165
vt 0.367844 0.154692
vt 0.717096 0.080976
vt 0.717096 0.369467
vt 0.553306 0.369467
vt 0.553306 0.080976
vt 0.351024 0.039673
vt 0.351024 0.328165
vt 0.188127 0.328165
vt 0.188127 0.039673
vt 0.897707 0.080976
vt 0.897707 0.369467
vt 0.733916 0.369467
vt 0.733916 0.080976
vt 0.602730 0.941668
vt 0.556110 0.991044
vt 0.556110 0.718819
vt 0.602730 0.768195
vt 0.265440 0.677516
vt 0.265440 0.991044
vt 0.008410 0.991044
vt 0.008410 0.677516
vt 0.536486 0.346077
vt 0.536486 0.659604
vt 0.280858 0.659604
vt 0.280858 0.346077
vt 0.539290 0.677516
vt 0.539290 0.991044
vt 0.282260 0.991044
vt 0.282260 0.677516
vt 0.829960 0.801451
vt 0.829960 0.724567
vt 0.949991 0.724567
vt 0.949991 0.801451
vt 0.008410 0.659604
vt 0.008410 0.346077
vt 0.264038 0.346077
vt 0.264038 0.659604
vt 0.813140 0.718819
vt 0.766520 0.768195
vt 0.813140 0.991044
vt 0.766520 0.941668
vt 0.977168 0.465127
vt 0.977168 0.080976
vt 0.991590 0.080976
vt 0.991590 0.465127
vt 0.945847 0.465127
vt 0.945847 0.080976
vt 0.960348 0.080976
vt 0.960348 0.465127
vt 0.967469 0.991044
vt 0.967469 0.606893
vt 0.981891 0.606893
vt 0.981891 0.991044
vn 0.0000 -0.0000 1.0000
vn 1.0000 -0.0000 0.0000
vn 0.0000 0.0000 -1.0000
vn -1.0000 0.0000 0.0000
vn 0.0000 1.0000 0.0000
vn -0.0852 0.9964 0.0000
vn 0.0000 0.9963 0.0857
vn 0.0852 0.9964 0.0000
vn 0.0000 0.9963 -0.0857
vn 0.8934 0.0000 -0.4492
vn -0.8934 0.0000 -0.4492
usemtl Tree_2.003
s 1
f 33/73/12 48/74/12 47/75/12 31/76/12
f 35/77/13 49/78/13 48/79/13 33/80/13
f 37/81/14 50/82/14 49/83/14 35/84/14
f 39/85/15 32/86/15 38/87/15 42/88/15
f 34/89/16 36/90/16 38/91/16 32/92/16
f 40/93/12 34/94/12 32/95/12 39/96/12
f 41/97/13 36/98/13 34/99/13 40/100/13
f 42/101/14 38/102/14 36/103/14 41/104/14
f 42/105/17 54/106/17 51/107/17 39/108/17
f 44/109/12 52/110/12 51/111/12 43/112/12
f 45/113/13 53/114/13 52/115/13 44/116/13
f 46/117/14 54/118/14 53/119/14 45/120/14
f 50/121/15 37/122/15 31/123/15 47/124/15
f 54/125/15 46/126/15 43/127/15 51/128/15
f 52/129/18 40/130/18 39/108/18 51/107/18
f 53/131/19 41/132/19 40/130/19 52/129/19
f 54/106/20 42/105/20 41/132/20 53/131/20
f 56/133/21 59/134/21 60/135/21 57/136/21
f 55/137/12 58/138/12 59/139/12 56/140/12
f 57/141/22 60/142/22 58/143/22 55/144/22
o Tree_2_3_61.463_Mesh.137
v 0.198796 0.221273 0.778241
v 0.185526 0.621525 0.791439
v 0.273114 0.221273 0.778241
v 0.286385 0.621525 0.791439
v 0.273114 0.221273 0.704328
v 0.286385 0.621525 0.691131
v 0.198796 0.221273 0.704328
v 0.185526 0.621525 0.691131
v 0.185526 0.454708 0.791439
v 0.286385 0.454708 0.791439
v 0.286385 0.454708 0.691131
v 0.185526 0.454708 0.691131
v 0.156818 0.270960 0.819990
v 0.315092 0.270960 0.819990
v 0.315092 0.270960 0.662579
v 0.156818 0.270960 0.662579
v 0.198796 0.265730 0.778241
v 0.273114 0.265730 0.778241
v 0.273114 0.265730 0.704328
v 0.198796 0.265730 0.704328
v 0.156818 0.452253 0.819990
v 0.315092 0.452253 0.819990
v 0.315092 0.452253 0.662579
v 0.156818 0.452253 0.662579
v 0.231491 0.217869 0.745725
v 0.240420 0.217869 0.745725
v 0.235955 0.217869 0.736844
v 0.231491 -0.004261 0.745725
v 0.240420 -0.004261 0.745725
v 0.235955 -0.004261 0.736844
vt 0.950649 0.914160
vt 0.950649 0.991044
vt 0.829960 0.991044
vt 0.829960 0.914160
vt 0.949991 0.629771
vt 0.949991 0.706655
vt 0.829960 0.706655
vt 0.829960 0.629771
vt 0.950649 0.819363
vt 0.950649 0.896248
vt 0.829960 0.896248
vt 0.829960 0.819363
vt 0.171307 0.039673
vt 0.171307 0.328165
vt 0.008410 0.328165
vt 0.008410 0.039673
vt 0.531634 0.154692
vt 0.531634 0.328165
vt 0.367844 0.328165
vt 0.367844 0.154692
vt 0.717096 0.080976
vt 0.717096 0.369467
vt 0.553306 0.369467
vt 0.553306 0.080976
vt 0.351024 0.039673
vt 0.351024 0.328165
vt 0.188127 0.328165
vt 0.188127 0.039673
vt 0.897707 0.080976
vt 0.897707 0.369467
vt 0.733916 0.369467
vt 0.733916 0.080976
vt 0.602730 0.941668
vt 0.556110 0.991044
vt 0.556110 0.718819
vt 0.602730 0.768195
vt 0.265440 0.677516
vt 0.265440 0.991044
vt 0.008410 0.991044
vt 0.008410 0.677516
vt 0.536486 0.346077
vt 0.536486 0.659604
vt 0.280858 0.659604
vt 0.280858 0.346077
vt 0.539290 0.677516
vt 0.539290 0.991044
vt 0.282260 0.991044
vt 0.282260 0.677516
vt 0.829960 0.801451
vt 0.829960 0.724567
vt 0.949991 0.724567
vt 0.949991 0.801451
vt 0.008410 0.659604
vt 0.008410 0.346077
vt 0.264038 0.346077
vt 0.264038 0.659604
vt 0.813140 0.718819
vt 0.766520 0.768195
vt 0.813140 0.991044
vt 0.766520 0.941668
vt 0.977168 0.465127
vt 0.977168 0.080976
vt 0.991590 0.080976
vt 0.991590 0.465127
vt 0.945847 0.465127
vt 0.945847 0.080976
vt 0.960348 0.080976
vt 0.960348 0.465127
vt 0.967469 0.991044
vt 0.967469 0.606893
vt 0.981891 0.606893
vt 0.981891 0.991044
vn 0.0000 -0.0000 1.0000
vn 1.0000 0.0000 0.0000
vn 0.0000 0.0000 -1.0000
vn -1.0000 0.0000 0.0000
vn 0.0000 1.0000 0.0000
vn -0.0852 0.9964 0.0000
vn 0.0000 0.9963 0.0857
vn 0.0852 0.9964 0.0000
vn 0.0000 0.9963 -0.0857
vn 0.8934 0.0000 -0.4492
vn -0.8934 0.0000 -0.4492
usemtl Tree_2.003
s 1
f 63/145/23 78/146/23 77/147/23 61/148/23
f 65/149/24 79/150/24 78/151/24 63/152/24
f 67/153/25 80/154/25 79/155/25 65/156/25
f 69/157/26 62/158/26 68/159/26 72/160/26
f 64/161/27 66/162/27 68/163/27 62/164/27
f 70/165/23 64/166/23 62/167/23 69/168/23
f 71/169/24 66/170/24 64/171/24 70/172/24
f 72/173/25 68/174/25 66/175/25 71/176/25
f 72/177/28 84/178/28 81/179/28 69/180/28
f 74/181/23 82/182/23 81/183/23 73/184/23
f 75/185/24 83/186/24 82/187/24 74/188/24
f 76/189/25 84/190/25 83/191/25 75/192/25
f 80/193/26 67/194/26 61/195/26 77/196/26
f 84/197/26 76/198/26 73/199/26 81/200/26
f 82/201/29 70/202/29 69/180/29 81/179/29
f 83/203/30 71/204/30 70/202/30 82/201/30
f 84/178/31 72/177/31 71/204/31 83/203/31
f 86/205/32 89/206/32 90/207/32 87/208/32
f 85/209/23 88/210/23 89/211/23 86/212/23
f 87/213/33 90/214/33 88/215/33 85/216/33
o living_yellow_3lvl_Mesh.9800
v -0.618934 0.151749 -0.763222
v -0.618934 3.086216 -0.763222
v -0.618934 0.151749 0.472862
v -0.618934 3.086216 0.472862
v 0.617149 0.151749 0.472862
v 0.617150 3.086216 0.472862
v 0.617149 0.151749 -0.763222
v 0.617149 3.086216 -0.763222
v -0.649836 3.091137 -0.794124
v -0.649836 3.091137 0.503764
v 0.648052 3.091137 0.503764
v 0.648052 3.091137 -0.794124
v -0.649836 3.180883 -0.794124
v -0.649836 3.180883 0.503764
v 0.648052 3.180883 0.503764
v 0.648052 3.180883 -0.794124
v -0.608304 3.183792 -0.752591
v -0.608304 3.183792 0.462232
v 0.606519 3.183792 0.462231
v 0.606519 3.183792 -0.752591
v -0.608304 3.090652 -0.752591
v -0.608304 3.090652 0.462232
v 0.606519 3.090652 0.462231
v 0.606519 3.090652 -0.752591
v -0.647364 0.143640 -0.791651
v -0.647364 0.143640 0.501292
v 0.645579 0.143640 0.501292
v 0.645579 0.143640 -0.791651
v -0.647364 0.019187 -0.791651
v -0.647364 0.019187 0.501292
v 0.645579 0.019187 0.501292
v 0.645579 0.019187 -0.791651
vt 0.469740 0.518224
vt 0.469740 0.991339
vt 0.247606 0.991339
vt 0.247606 0.518224
vt 0.947971 0.518224
vt 0.947971 0.991339
vt 0.725837 0.991339
vt 0.725837 0.518224
vt 0.708856 0.518224
vt 0.708856 0.991339
vt 0.486722 0.991339
vt 0.486722 0.518224
vt 0.230625 0.518224
vt 0.230625 0.991339
vt 0.008491 0.991339
vt 0.008491 0.518224
vt 0.491953 0.022981
vt 0.491953 0.245668
vt 0.273640 0.245668
vt 0.273640 0.022981
vt 0.240843 0.008661
vt 0.240843 0.245668
vt 0.008491 0.245668
vt 0.008491 0.008661
vt 0.486400 0.495238
vt 0.491953 0.500903
vt 0.258713 0.500903
vt 0.264266 0.495238
vt 0.486400 0.268654
vt 0.491953 0.262990
vt 0.264266 0.268654
vt 0.258713 0.262990
vt 0.742176 0.081651
vt 0.742176 0.096120
vt 0.508935 0.096120
vt 0.508935 0.081651
vt 0.742176 0.018068
vt 0.742176 0.032538
vt 0.508935 0.032538
vt 0.508935 0.018068
vt 0.742176 0.049860
vt 0.742176 0.064329
vt 0.508935 0.064329
vt 0.508935 0.049860
vt 0.991509 0.262990
vt 0.991509 0.277459
vt 0.758269 0.277459
vt 0.758269 0.262990
vt 0.241731 0.262990
vt 0.234268 0.270603
vt 0.015954 0.270603
vt 0.008491 0.262990
vt 0.241731 0.500903
vt 0.234268 0.493289
vt 0.008491 0.500903
vt 0.015954 0.493289
vt 0.758269 0.309797
vt 0.758269 0.294781
vt 0.976582 0.294781
vt 0.976582 0.309797
vt 0.758269 0.374474
vt 0.758269 0.359458
vt 0.976582 0.359458
vt 0.976582 0.374474
vt 0.758269 0.342136
vt 0.758269 0.327119
vt 0.976582 0.327119
vt 0.976582 0.342136
vt 0.758269 0.406813
vt 0.758269 0.391796
vt 0.976582 0.391796
vt 0.976582 0.406813
vt 0.736178 0.494785
vt 0.741287 0.499996
vt 0.508935 0.499996
vt 0.514044 0.494785
vt 0.736178 0.268201
vt 0.741287 0.262990
vt 0.514044 0.268201
vt 0.508935 0.262990
vt 0.508935 0.245668
vt 0.508935 0.225603
vt 0.741287 0.225603
vt 0.741287 0.245668
vt 0.508935 0.170894
vt 0.508935 0.150829
vt 0.741287 0.150829
vt 0.741287 0.170894
vt 0.508935 0.208281
vt 0.508935 0.188216
vt 0.741287 0.188216
vt 0.741287 0.208281
vt 0.508935 0.133507
vt 0.508935 0.113442
vt 0.741287 0.113442
vt 0.741287 0.133507
vn -1.0000 0.0000 0.0000
vn 0.0000 -0.0000 1.0000
vn 1.0000 -0.0000 -0.0000
vn -0.0000 0.0000 -1.0000
vn 0.0000 1.0000 0.0000
vn -0.0000 -1.0000 0.0000
vn -0.0791 -0.9937 0.0791
vn -0.0791 -0.9937 -0.0791
vn 0.0791 -0.9937 0.0791
vn 0.0791 -0.9937 -0.0791
vn -0.0350 0.9988 0.0350
vn -0.0350 0.9988 -0.0350
vn 0.0350 0.9988 0.0350
vn 0.0350 0.9988 -0.0350
vn 0.1398 0.9803 0.1398
vn 0.1398 0.9803 -0.1398
vn -0.1398 0.9803 0.1398
vn -0.1398 0.9803 -0.1398
usemtl House_1
s 1
f 93/217/34 94/218/34 92/219/34 91/220/34
f 95/221/35 96/222/35 94/223/35 93/224/35
f 97/225/36 98/226/36 96/227/36 95/228/36
f 91/229/37 92/230/37 98/231/37 97/232/37
f 112/233/38 113/234/38 114/235/38 111/236/38
f 121/237/39 120/238/39 119/239/39 122/240/39
f 94/241/40 100/242/40 99/243/41 92/244/41
f 96/245/42 101/246/42 100/242/40 94/241/40
f 98/247/43 102/248/43 101/246/42 96/245/42
f 92/244/41 99/243/41 102/248/43 98/247/43
f 100/249/34 104/250/34 103/251/34 99/252/34
f 101/253/35 105/254/35 104/255/35 100/256/35
f 102/257/36 106/258/36 105/259/36 101/260/36
f 99/261/37 103/262/37 106/263/37 102/264/37
f 104/265/44 108/266/44 107/267/45 103/268/45
f 105/269/46 109/270/46 108/266/44 104/265/44
f 106/271/47 110/272/47 109/270/46 105/269/46
f 103/268/45 107/267/45 110/272/47 106/271/47
f 108/273/36 112/274/36 111/275/36 107/276/36
f 109/277/37 113/278/37 112/279/37 108/280/37
f 110/281/34 114/282/34 113/283/34 109/284/34
f 107/285/35 111/286/35 114/287/35 110/288/35
f 95/289/48 117/290/48 118/291/49 97/292/49
f 93/293/50 116/294/50 117/290/48 95/289/48
f 91/295/51 115/296/51 116/294/50 93/293/50
f 97/292/49 118/291/49 115/296/51 91/295/51
f 117/297/36 121/298/36 122/299/36 118/300/36
f 116/301/35 120/302/35 121/303/35 117/304/35
f 115/305/34 119/306/34 120/307/34 116/308/34
f 118/309/37 122/310/37 119/311/37 115/312/37
