# Blender v2.90.1 OBJ File: 'URBAN2.2.blend'
# www.blender.org
mtllib living_education_3lvl.mtl
o living_education_3lvl_Mesh.166
v -0.627167 0.097525 0.588492
v -0.627167 1.434468 0.588492
v 0.623472 0.097525 0.588492
v 0.623472 1.434468 0.588492
v 0.623472 0.097525 -0.662147
v 0.623472 1.434468 -0.662147
v -0.627167 0.097525 -0.662147
v -0.627167 1.434468 -0.662147
v -0.547357 1.440405 0.508683
v 0.543663 1.440405 0.508683
v 0.543663 1.440405 -0.582337
v -0.547357 1.440405 -0.582337
v -0.547357 2.689376 0.508683
v 0.543663 2.689376 0.508683
v 0.543663 2.689376 -0.582337
v -0.547357 2.689376 -0.582337
v -0.483421 2.689479 0.444747
v 0.479726 2.689479 0.444747
v 0.479726 2.689479 -0.518400
v -0.483421 2.689479 -0.518400
v -0.483421 3.773169 0.444747
v 0.479726 3.773169 0.444747
v 0.479726 3.773169 -0.518400
v -0.483421 3.773169 -0.518400
v -0.418890 3.778103 0.380216
v 0.415195 3.778103 0.380216
v 0.415195 3.778103 -0.453869
v -0.418890 3.778103 -0.453869
v -0.050723 4.774403 0.012048
v 0.047028 4.774403 0.012048
v 0.047028 4.774403 -0.085702
v -0.050723 4.774403 -0.085702
v -0.015575 4.777376 -0.023099
v 0.011880 4.777376 -0.023099
v 0.011880 4.777376 -0.050554
v -0.015575 4.777376 -0.050554
v -0.015575 5.669216 -0.023099
v 0.011880 5.669216 -0.023099
v 0.011880 5.669216 -0.050554
v -0.015575 5.669216 -0.050554
v -0.674066 0.095866 0.635391
v 0.670372 0.095866 0.635391
v 0.670372 0.095866 -0.709045
v -0.674066 0.095866 -0.709045
v -0.674066 0.005887 0.635391
v 0.670372 0.005887 0.635391
v 0.670372 0.005887 -0.709045
v -0.674066 0.005887 -0.709045
vt 0.449593 0.360719
vt 0.449593 0.556939
vt 0.244310 0.556939
vt 0.244310 0.360719
vt 0.449593 0.572832
vt 0.449593 0.769052
vt 0.244310 0.769052
vt 0.244310 0.572832
vt 0.670630 0.795833
vt 0.670630 0.992054
vt 0.465346 0.992054
vt 0.465346 0.795833
vt 0.670630 0.583720
vt 0.670630 0.779940
vt 0.465346 0.779940
vt 0.465346 0.583720
vt 0.449593 0.784945
vt 0.436493 0.798162
vt 0.257410 0.798162
vt 0.244310 0.784945
vt 0.449593 0.992054
vt 0.436493 0.978837
vt 0.244310 0.992054
vt 0.257410 0.978837
vt 0.186960 0.331676
vt 0.186960 0.514984
vt 0.007876 0.514984
vt 0.007876 0.331676
vt 0.644430 0.161517
vt 0.644430 0.344826
vt 0.465346 0.344826
vt 0.465346 0.161517
vt 0.644430 0.360719
vt 0.644430 0.544027
vt 0.465346 0.544027
vt 0.465346 0.360719
vt 0.449593 0.161517
vt 0.449593 0.344826
vt 0.270510 0.344826
vt 0.270510 0.161517
vt 0.839266 0.363352
vt 0.828771 0.373940
vt 0.670677 0.373940
vt 0.660183 0.363352
vt 0.839266 0.544027
vt 0.828771 0.533439
vt 0.660183 0.544027
vt 0.670677 0.533439
vt 0.844477 0.833003
vt 0.844477 0.992054
vt 0.686383 0.992054
vt 0.686383 0.833003
vt 0.844477 0.658059
vt 0.844477 0.817110
vt 0.686383 0.817110
vt 0.686383 0.658059
vt 0.165970 0.156732
vt 0.165970 0.315783
vt 0.007876 0.315783
vt 0.007876 0.156732
vt 0.992123 0.161966
vt 0.992123 0.321017
vt 0.834030 0.321017
vt 0.834030 0.161966
vt 0.818277 0.161517
vt 0.807684 0.172204
vt 0.670775 0.172204
vt 0.660183 0.161517
vt 0.818277 0.321017
vt 0.807684 0.310330
vt 0.660183 0.321017
vt 0.670775 0.310330
vt 0.970939 0.007946
vt 0.910507 0.068916
vt 0.894462 0.068916
vt 0.834030 0.007946
vt 0.970939 0.146073
vt 0.910507 0.085104
vt 0.834030 0.146073
vt 0.894462 0.085104
vt 0.904738 0.074736
vt 0.900231 0.074736
vt 0.904738 0.079283
vt 0.900231 0.079283
vt 0.866086 0.855057
vt 0.866086 0.985950
vt 0.861580 0.985950
vt 0.861580 0.855057
vt 0.208569 0.225098
vt 0.208569 0.355992
vt 0.204063 0.355992
vt 0.204063 0.225098
vt 0.253407 0.207829
vt 0.253407 0.338723
vt 0.248901 0.338723
vt 0.248901 0.207829
vt 0.208569 0.377988
vt 0.208569 0.508881
vt 0.204063 0.508881
vt 0.204063 0.377988
vt 0.220858 0.745752
vt 0.228557 0.753519
vt 0.007876 0.753519
vt 0.015575 0.745752
vt 0.220858 0.538644
vt 0.228557 0.530877
vt 0.015575 0.538644
vt 0.007876 0.530877
vt 0.465346 0.145624
vt 0.465346 0.132418
vt 0.686026 0.132418
vt 0.686026 0.145624
vt 0.228913 0.116525
vt 0.228913 0.103320
vt 0.449593 0.103320
vt 0.449593 0.116525
vt 0.228913 0.145624
vt 0.228913 0.132418
vt 0.449593 0.132418
vt 0.449593 0.145624
vt 0.465346 0.116525
vt 0.465346 0.103320
vt 0.686026 0.103320
vt 0.686026 0.116525
vn 0.0000 -0.0000 1.0000
vn 1.0000 -0.0000 0.0000
vn 0.0000 0.0000 -1.0000
vn -1.0000 0.0000 0.0000
vn 0.0371 0.9986 0.0371
vn -0.0371 0.9986 0.0371
vn 0.0371 0.9986 -0.0371
vn -0.0371 0.9986 -0.0371
vn 0.0008 1.0000 0.0008
vn -0.0008 1.0000 0.0008
vn 0.0008 1.0000 -0.0008
vn -0.0008 1.0000 -0.0008
vn 0.0382 0.9985 0.0382
vn -0.0382 0.9985 0.0382
vn 0.0382 0.9985 -0.0382
vn -0.0382 0.9985 -0.0382
vn 0.0000 0.3466 0.9380
vn 0.9380 0.3466 0.0000
vn 0.0000 0.3466 -0.9380
vn -0.9380 0.3466 0.0000
vn 0.0422 0.9982 0.0422
vn -0.0422 0.9982 0.0422
vn 0.0422 0.9982 -0.0422
vn -0.0422 0.9982 -0.0422
vn 0.4967 0.6374 0.5891
vn -0.4967 0.6373 0.5891
vn 0.5891 0.6374 -0.4968
vn -0.4967 0.6374 -0.5891
vn 0.0177 0.9997 -0.0177
vn -0.0177 0.9997 -0.0177
vn 0.0177 0.9997 0.0177
vn -0.0177 0.9997 0.0177
usemtl House_4
s 1
f 3/1/1 4/2/1 2/3/1 1/4/1
f 5/5/2 6/6/2 4/7/2 3/8/2
f 7/9/3 8/10/3 6/11/3 5/12/3
f 1/13/4 2/14/4 8/15/4 7/16/4
f 4/17/5 10/18/5 9/19/6 2/20/6
f 6/21/7 11/22/7 10/18/5 4/17/5
f 8/23/8 12/24/8 11/22/7 6/21/7
f 2/20/6 9/19/6 12/24/8 8/23/8
f 10/25/1 14/26/1 13/27/1 9/28/1
f 11/29/2 15/30/2 14/31/2 10/32/2
f 12/33/3 16/34/3 15/35/3 11/36/3
f 9/37/4 13/38/4 16/39/4 12/40/4
f 14/41/9 18/42/9 17/43/10 13/44/10
f 15/45/11 19/46/11 18/42/9 14/41/9
f 16/47/12 20/48/12 19/46/11 15/45/11
f 13/44/10 17/43/10 20/48/12 16/47/12
f 18/49/1 22/50/1 21/51/1 17/52/1
f 19/53/2 23/54/2 22/55/2 18/56/2
f 20/57/3 24/58/3 23/59/3 19/60/3
f 17/61/4 21/62/4 24/63/4 20/64/4
f 22/65/13 26/66/13 25/67/14 21/68/14
f 23/69/15 27/70/15 26/66/13 22/65/13
f 24/71/16 28/72/16 27/70/15 23/69/15
f 21/68/14 25/67/14 28/72/16 24/71/16
f 26/73/17 30/74/17 29/75/17 25/76/17
f 27/77/18 31/78/18 30/74/18 26/73/18
f 28/79/19 32/80/19 31/78/19 27/77/19
f 25/76/20 29/75/20 32/80/20 28/79/20
f 30/74/21 34/81/21 33/82/22 29/75/22
f 31/78/23 35/83/23 34/81/21 30/74/21
f 32/80/24 36/84/24 35/83/23 31/78/23
f 29/75/22 33/82/22 36/84/24 32/80/24
f 34/85/1 38/86/25 37/87/26 33/88/1
f 35/89/2 39/90/27 38/91/25 34/92/2
f 36/93/3 40/94/28 39/95/27 35/96/3
f 33/97/4 37/98/26 40/99/28 36/100/4
f 5/101/29 43/102/29 44/103/30 7/104/30
f 3/105/31 42/106/31 43/102/29 5/101/29
f 1/107/32 41/108/32 42/106/31 3/105/31
f 7/104/30 44/103/30 41/108/32 1/107/32
f 43/109/3 47/110/3 48/111/3 44/112/3
f 42/113/2 46/114/2 47/115/2 43/116/2
f 41/117/1 45/118/1 46/119/1 42/120/1
f 44/121/4 48/122/4 45/123/4 41/124/4
f 37/98/26 38/91/25 39/95/27 40/99/28
o Tree_3_499_2.029_Mesh.321
v 0.792362 0.207788 0.908487
v 0.787791 0.571037 0.917332
v 0.917647 0.206691 0.905141
v 0.929041 0.569800 0.913560
v 0.914321 0.206958 0.780536
v 0.925292 0.570101 0.773075
v 0.789037 0.208055 0.783882
v 0.784041 0.571338 0.776847
v 0.787364 0.522555 0.917240
v 0.928614 0.521318 0.913468
v 0.924865 0.521619 0.772982
v 0.783614 0.522856 0.776755
v 0.739061 0.253241 0.964910
v 0.974670 0.251177 0.958617
v 0.968416 0.251679 0.724285
v 0.732808 0.253743 0.730577
v 0.792718 0.248130 0.908564
v 0.918002 0.247032 0.905218
v 0.914676 0.247299 0.780613
v 0.789392 0.248397 0.783958
v 0.741417 0.520640 0.965419
v 0.977026 0.518577 0.959127
v 0.970772 0.519078 0.724795
v 0.735163 0.521142 0.731087
v 0.849105 0.204313 0.848922
v 0.857753 0.204237 0.848691
v 0.853200 0.204294 0.840205
v 0.847329 0.002748 0.848538
v 0.855978 0.002672 0.848307
v 0.851424 0.002729 0.839821
vt 0.861275 0.031624
vt 0.861275 0.085158
vt 0.693591 0.085158
vt 0.693591 0.031624
vt 0.547108 0.027812
vt 0.547108 0.081347
vt 0.380339 0.081347
vt 0.380339 0.027812
vt 0.362350 0.027812
vt 0.362350 0.081347
vt 0.194667 0.081347
vt 0.194667 0.027812
vt 0.382689 0.099188
vt 0.382689 0.163525
vt 0.194667 0.163525
vt 0.194667 0.099188
vt 0.861275 0.102999
vt 0.861275 0.289486
vt 0.672221 0.289486
vt 0.672221 0.102999
vt 0.383720 0.181367
vt 0.383720 0.245704
vt 0.194667 0.245704
vt 0.194667 0.181367
vt 0.588699 0.099188
vt 0.588699 0.163525
vt 0.400677 0.163525
vt 0.400677 0.099188
vt 0.590762 0.181367
vt 0.590762 0.245704
vt 0.401708 0.245704
vt 0.401708 0.181367
vt 0.738807 0.928791
vt 0.675661 0.991079
vt 0.675661 0.680015
vt 0.738807 0.742304
vt 0.657672 0.636233
vt 0.657672 0.991079
vt 0.342328 0.991079
vt 0.342328 0.636233
vt 0.654233 0.263546
vt 0.654233 0.618392
vt 0.340608 0.618392
vt 0.340608 0.263546
vt 0.324339 0.636233
vt 0.324339 0.991079
vt 0.008994 0.991079
vt 0.008994 0.636233
vt 0.008994 0.062455
vt 0.008994 0.008921
vt 0.175764 0.008921
vt 0.175764 0.062455
vt 0.008994 0.618392
vt 0.008994 0.263546
vt 0.322619 0.263546
vt 0.322619 0.618392
vt 0.991006 0.680015
vt 0.927860 0.742304
vt 0.991006 0.991079
vt 0.927860 0.928791
vt 0.967891 0.289486
vt 0.967891 0.022004
vt 0.979403 0.022004
vt 0.979403 0.289486
vt 0.879263 0.289486
vt 0.879263 0.022004
vt 0.890838 0.022004
vt 0.890838 0.289486
vt 0.938390 0.289486
vt 0.938390 0.022004
vt 0.949902 0.022004
vt 0.949902 0.289486
vn 0.0267 -0.0021 0.9996
vn 0.9996 -0.0088 -0.0267
vn -0.0267 0.0021 -0.9996
vn -0.9996 0.0088 0.0267
vn 0.0088 1.0000 0.0019
vn -0.0383 0.9993 0.0032
vn 0.0101 0.9987 0.0493
vn 0.0559 0.9984 0.0006
vn 0.0075 0.9989 -0.0455
vn 0.8811 -0.0069 -0.4729
vn -0.9051 0.0088 -0.4252
usemtl Tree_3.003
s 1
f 51/125/33 66/126/33 65/127/33 49/128/33
f 53/129/34 67/130/34 66/131/34 51/132/34
f 55/133/35 68/134/35 67/135/35 53/136/35
f 57/137/36 50/138/36 56/139/36 60/140/36
f 52/141/37 54/142/37 56/143/37 50/144/37
f 58/145/33 52/146/33 50/147/33 57/148/33
f 59/149/34 54/150/34 52/151/34 58/152/34
f 60/153/35 56/154/35 54/155/35 59/156/35
f 60/157/38 72/158/38 69/159/38 57/160/38
f 62/161/33 70/162/33 69/163/33 61/164/33
f 63/165/34 71/166/34 70/167/34 62/168/34
f 64/169/35 72/170/35 71/171/35 63/172/35
f 68/173/36 55/174/36 49/175/36 65/176/36
f 72/177/36 64/178/36 61/179/36 69/180/36
f 70/181/39 58/182/39 57/160/39 69/159/39
f 71/183/40 59/184/40 58/182/40 70/181/40
f 72/158/41 60/157/41 59/184/41 71/183/41
f 74/185/42 77/186/42 78/187/42 75/188/42
f 73/189/33 76/190/33 77/191/33 74/192/33
f 75/193/43 78/194/43 76/195/43 73/196/43
o Tree_3_499_2.030_Mesh.322
v -0.904266 0.207788 0.906320
v -0.908838 0.571037 0.915165
v -0.778982 0.206691 0.902974
v -0.767588 0.569800 0.911393
v -0.782308 0.206958 0.778369
v -0.771337 0.570101 0.770908
v -0.907592 0.208055 0.781715
v -0.912587 0.571338 0.774680
v -0.909265 0.522555 0.915073
v -0.768015 0.521318 0.911301
v -0.771764 0.521619 0.770816
v -0.913014 0.522856 0.774588
v -0.957567 0.253241 0.962743
v -0.721959 0.251177 0.956450
v -0.728212 0.251679 0.722118
v -0.963821 0.253743 0.728411
v -0.903911 0.248130 0.906397
v -0.778627 0.247032 0.903051
v -0.781952 0.247299 0.778446
v -0.907236 0.248397 0.781792
v -0.955211 0.520640 0.963252
v -0.719603 0.518577 0.956960
v -0.725857 0.519078 0.722628
v -0.961465 0.521142 0.728920
v -0.847523 0.204313 0.846755
v -0.838875 0.204237 0.846524
v -0.843429 0.204294 0.838038
v -0.849299 0.002748 0.846371
v -0.840651 0.002672 0.846140
v -0.845205 0.002729 0.837654
vt 0.861275 0.031624
vt 0.861275 0.085158
vt 0.693591 0.085158
vt 0.693591 0.031624
vt 0.547108 0.027812
vt 0.547108 0.081347
vt 0.380339 0.081347
vt 0.380339 0.027812
vt 0.362350 0.027812
vt 0.362350 0.081347
vt 0.194667 0.081347
vt 0.194667 0.027812
vt 0.382689 0.099188
vt 0.382689 0.163525
vt 0.194667 0.163525
vt 0.194667 0.099188
vt 0.861275 0.102999
vt 0.861275 0.289486
vt 0.672221 0.289486
vt 0.672221 0.102999
vt 0.383720 0.181367
vt 0.383720 0.245704
vt 0.194667 0.245704
vt 0.194667 0.181367
vt 0.588699 0.099188
vt 0.588699 0.163525
vt 0.400677 0.163525
vt 0.400677 0.099188
vt 0.590762 0.181367
vt 0.590762 0.245704
vt 0.401708 0.245704
vt 0.401708 0.181367
vt 0.738807 0.928791
vt 0.675661 0.991079
vt 0.675661 0.680015
vt 0.738807 0.742304
vt 0.657672 0.636233
vt 0.657672 0.991079
vt 0.342328 0.991079
vt 0.342328 0.636233
vt 0.654233 0.263546
vt 0.654233 0.618392
vt 0.340608 0.618392
vt 0.340608 0.263546
vt 0.324339 0.636233
vt 0.324339 0.991079
vt 0.008994 0.991079
vt 0.008994 0.636233
vt 0.008994 0.062455
vt 0.008994 0.008921
vt 0.175764 0.008921
vt 0.175764 0.062455
vt 0.008994 0.618392
vt 0.008994 0.263546
vt 0.322619 0.263546
vt 0.322619 0.618392
vt 0.991006 0.680015
vt 0.927860 0.742304
vt 0.991006 0.991079
vt 0.927860 0.928791
vt 0.967891 0.289486
vt 0.967891 0.022004
vt 0.979403 0.022004
vt 0.979403 0.289486
vt 0.879263 0.289486
vt 0.879263 0.022004
vt 0.890838 0.022004
vt 0.890838 0.289486
vt 0.938390 0.289486
vt 0.938390 0.022004
vt 0.949902 0.022004
vt 0.949902 0.289486
vn 0.0267 -0.0021 0.9996
vn 0.9996 -0.0088 -0.0267
vn -0.0267 0.0021 -0.9996
vn -0.9996 0.0088 0.0267
vn 0.0088 1.0000 0.0019
vn -0.0383 0.9993 0.0032
vn 0.0101 0.9987 0.0493
vn 0.0559 0.9984 0.0006
vn 0.0075 0.9989 -0.0455
vn 0.8811 -0.0069 -0.4729
vn -0.9051 0.0088 -0.4252
usemtl Tree_3.003
s 1
f 81/197/44 96/198/44 95/199/44 79/200/44
f 83/201/45 97/202/45 96/203/45 81/204/45
f 85/205/46 98/206/46 97/207/46 83/208/46
f 87/209/47 80/210/47 86/211/47 90/212/47
f 82/213/48 84/214/48 86/215/48 80/216/48
f 88/217/44 82/218/44 80/219/44 87/220/44
f 89/221/45 84/222/45 82/223/45 88/224/45
f 90/225/46 86/226/46 84/227/46 89/228/46
f 90/229/49 102/230/49 99/231/49 87/232/49
f 92/233/44 100/234/44 99/235/44 91/236/44
f 93/237/45 101/238/45 100/239/45 92/240/45
f 94/241/46 102/242/46 101/243/46 93/244/46
f 98/245/47 85/246/47 79/247/47 95/248/47
f 102/249/47 94/250/47 91/251/47 99/252/47
f 100/253/50 88/254/50 87/232/50 99/231/50
f 101/255/51 89/256/51 88/254/51 100/253/51
f 102/230/52 90/229/52 89/256/52 101/255/52
f 104/257/53 107/258/53 108/259/53 105/260/53
f 103/261/44 106/262/44 107/263/44 104/264/44
f 105/265/54 108/266/54 106/267/54 103/268/54
o Tree_3_499_2.031_Mesh.323
v 0.785024 0.207788 -0.783855
v 0.780452 0.571037 -0.775010
v 0.910308 0.206691 -0.787201
v 0.921702 0.569800 -0.778782
v 0.906983 0.206958 -0.911806
v 0.917953 0.570101 -0.919267
v 0.781698 0.208055 -0.908460
v 0.776703 0.571338 -0.915495
v 0.780025 0.522555 -0.775102
v 0.921275 0.521318 -0.778874
v 0.917526 0.521619 -0.919359
v 0.776276 0.522856 -0.915587
v 0.731723 0.253241 -0.727432
v 0.967332 0.251177 -0.733725
v 0.961078 0.251679 -0.968057
v 0.725469 0.253743 -0.961764
v 0.785379 0.248130 -0.783778
v 0.910663 0.247032 -0.787124
v 0.907338 0.247299 -0.911729
v 0.782054 0.248397 -0.908383
v 0.734079 0.520640 -0.726923
v 0.969687 0.518577 -0.733215
v 0.963433 0.519078 -0.967547
v 0.727825 0.521142 -0.961255
v 0.841767 0.204313 -0.843420
v 0.850415 0.204237 -0.843651
v 0.845861 0.204294 -0.852137
v 0.839991 0.002748 -0.843804
v 0.848639 0.002672 -0.844035
v 0.844085 0.002729 -0.852521
vt 0.861275 0.031624
vt 0.861275 0.085158
vt 0.693591 0.085158
vt 0.693591 0.031624
vt 0.547108 0.027812
vt 0.547108 0.081347
vt 0.380339 0.081347
vt 0.380339 0.027812
vt 0.362350 0.027812
vt 0.362350 0.081347
vt 0.194667 0.081347
vt 0.194667 0.027812
vt 0.382689 0.099188
vt 0.382689 0.163525
vt 0.194667 0.163525
vt 0.194667 0.099188
vt 0.861275 0.102999
vt 0.861275 0.289486
vt 0.672221 0.289486
vt 0.672221 0.102999
vt 0.383720 0.181367
vt 0.383720 0.245704
vt 0.194667 0.245704
vt 0.194667 0.181367
vt 0.588699 0.099188
vt 0.588699 0.163525
vt 0.400677 0.163525
vt 0.400677 0.099188
vt 0.590762 0.181367
vt 0.590762 0.245704
vt 0.401708 0.245704
vt 0.401708 0.181367
vt 0.738807 0.928791
vt 0.675661 0.991079
vt 0.675661 0.680015
vt 0.738807 0.742304
vt 0.657672 0.636233
vt 0.657672 0.991079
vt 0.342328 0.991079
vt 0.342328 0.636233
vt 0.654233 0.263546
vt 0.654233 0.618392
vt 0.340608 0.618392
vt 0.340608 0.263546
vt 0.324339 0.636233
vt 0.324339 0.991079
vt 0.008994 0.991079
vt 0.008994 0.636233
vt 0.008994 0.062455
vt 0.008994 0.008921
vt 0.175764 0.008921
vt 0.175764 0.062455
vt 0.008994 0.618392
vt 0.008994 0.263546
vt 0.322619 0.263546
vt 0.322619 0.618392
vt 0.991006 0.680015
vt 0.927860 0.742304
vt 0.991006 0.991079
vt 0.927860 0.928791
vt 0.967891 0.289486
vt 0.967891 0.022004
vt 0.979403 0.022004
vt 0.979403 0.289486
vt 0.879263 0.289486
vt 0.879263 0.022004
vt 0.890838 0.022004
vt 0.890838 0.289486
vt 0.938390 0.289486
vt 0.938390 0.022004
vt 0.949902 0.022004
vt 0.949902 0.289486
vn 0.0267 -0.0021 0.9996
vn 0.9996 -0.0088 -0.0267
vn -0.0267 0.0021 -0.9996
vn -0.9996 0.0088 0.0267
vn 0.0088 1.0000 0.0019
vn -0.0383 0.9993 0.0032
vn 0.0101 0.9987 0.0493
vn 0.0559 0.9984 0.0006
vn 0.0075 0.9989 -0.0455
vn 0.8811 -0.0069 -0.4729
vn -0.9051 0.0088 -0.4252
usemtl Tree_3.003
s 1
f 111/269/55 126/270/55 125/271/55 109/272/55
f 113/273/56 127/274/56 126/275/56 111/276/56
f 115/277/57 128/278/57 127/279/57 113/280/57
f 117/281/58 110/282/58 116/283/58 120/284/58
f 112/285/59 114/286/59 116/287/59 110/288/59
f 118/289/55 112/290/55 110/291/55 117/292/55
f 119/293/56 114/294/56 112/295/56 118/296/56
f 120/297/57 116/298/57 114/299/57 119/300/57
f 120/301/60 132/302/60 129/303/60 117/304/60
f 122/305/55 130/306/55 129/307/55 121/308/55
f 123/309/56 131/310/56 130/311/56 122/312/56
f 124/313/57 132/314/57 131/315/57 123/316/57
f 128/317/58 115/318/58 109/319/58 125/320/58
f 132/321/58 124/322/58 121/323/58 129/324/58
f 130/325/61 118/326/61 117/304/61 129/303/61
f 131/327/62 119/328/62 118/326/62 130/325/62
f 132/302/63 120/301/63 119/328/63 131/327/63
f 134/329/64 137/330/64 138/331/64 135/332/64
f 133/333/55 136/334/55 137/335/55 134/336/55
f 135/337/65 138/338/65 136/339/65 133/340/65
