# Blender v2.90.1 OBJ File: 'URBAN2.2.blend'
# www.blender.org
mtllib living_blue_2lvl.mtl
o living_blue_2lvl_Mesh.001
v 0.670106 -0.001237 0.442915
v 0.670107 2.487593 0.442915
v 0.670107 -0.001237 -0.822165
v 0.670107 2.487593 -0.822165
v -0.594973 -0.001237 -0.822165
v -0.594973 2.487593 -0.822165
v -0.594974 -0.001237 0.442915
v -0.594973 2.487593 0.442915
v 0.670106 0.027344 0.442915
v 0.670107 0.027344 -0.822165
v -0.594973 0.027344 -0.822165
v -0.594974 0.027344 0.442915
v 0.670107 2.447743 0.442915
v 0.670107 2.447743 -0.822165
v -0.594973 2.447743 -0.822165
v -0.594973 2.447743 0.442915
v 0.653477 0.024554 0.426285
v 0.653477 0.024554 -0.805536
v -0.578344 0.024554 -0.805536
v -0.578344 0.024554 0.426285
v 0.653477 2.451697 0.426285
v 0.653477 2.451697 -0.805536
v -0.578344 2.451697 -0.805536
v -0.578344 2.451697 0.426285
v 0.554984 2.501378 0.327793
v 0.554985 2.501378 -0.707043
v -0.479851 2.501378 -0.707043
v -0.479851 2.501378 0.327792
v 0.554984 2.446274 0.327793
v 0.554985 2.446274 -0.707043
v -0.479851 2.446274 -0.707043
v -0.479851 2.446274 0.327792
v 0.554984 2.446274 0.054063
v -0.479851 2.446274 0.054063
v 0.166443 2.446274 0.327793
v 0.166443 2.446274 0.054063
v 0.554984 2.620937 0.327793
v 0.554984 2.620937 0.054063
v 0.166443 2.620937 0.327793
v 0.166443 2.620937 0.054063
vt 0.008227 0.101492
vt 0.008227 0.091764
vt 0.149664 0.091764
vt 0.200532 0.091764
vt 0.200532 0.101492
vt 0.008227 0.075163
vt 0.008227 0.065434
vt 0.059094 0.065434
vt 0.200532 0.065434
vt 0.200532 0.075163
vt 0.795188 0.870515
vt 0.795188 0.797661
vt 0.936625 0.797661
vt 0.936625 0.991699
vt 0.795188 0.991699
vt 0.744320 0.596730
vt 0.744320 0.587001
vt 0.816524 0.587001
vt 0.936625 0.587001
vt 0.936625 0.596730
vt 0.991773 0.473885
vt 0.991773 0.478931
vt 0.756682 0.478931
vt 0.756682 0.473885
vt 0.991773 0.452238
vt 0.991773 0.457284
vt 0.756682 0.457284
vt 0.756682 0.452238
vt 0.740228 0.010290
vt 0.740228 0.015336
vt 0.505136 0.015336
vt 0.505136 0.010290
vt 0.488683 0.008301
vt 0.488683 0.015336
vt 0.253591 0.015336
vt 0.253591 0.008301
vt 0.488683 0.055574
vt 0.485593 0.058692
vt 0.256682 0.058692
vt 0.253591 0.055574
vt 0.488683 0.292784
vt 0.485593 0.289666
vt 0.253591 0.292784
vt 0.256682 0.289666
vt 0.756682 0.435637
vt 0.756682 0.430591
vt 0.991773 0.430591
vt 0.991773 0.435637
vt 0.740228 0.031938
vt 0.740228 0.038973
vt 0.505136 0.038973
vt 0.505136 0.031938
vt 0.488683 0.031938
vt 0.488683 0.038973
vt 0.253591 0.038973
vt 0.253591 0.031938
vt 0.979412 0.563365
vt 0.979412 0.570400
vt 0.744320 0.570400
vt 0.744320 0.563365
vt 0.727867 0.563197
vt 0.727867 0.991699
vt 0.498956 0.991699
vt 0.498956 0.563197
vt 0.237138 0.563197
vt 0.237138 0.991699
vt 0.008227 0.991699
vt 0.008227 0.563197
vt 0.237138 0.118094
vt 0.237138 0.546596
vt 0.008227 0.546596
vt 0.008227 0.118094
vt 0.253591 0.991699
vt 0.253591 0.563197
vt 0.482502 0.563197
vt 0.482502 0.991699
vt 0.740228 0.309386
vt 0.718835 0.330972
vt 0.526530 0.330972
vt 0.505136 0.309386
vt 0.740228 0.546596
vt 0.718835 0.525010
vt 0.505136 0.546596
vt 0.526530 0.525010
vt 0.756682 0.319114
vt 0.756682 0.309386
vt 0.948987 0.309386
vt 0.948987 0.319114
vt 0.795188 0.781060
vt 0.744320 0.781060
vt 0.744320 0.708206
vt 0.795188 0.708206
vt 0.744320 0.991699
vt 0.744320 0.870515
vt 0.816524 0.660769
vt 0.816524 0.691605
vt 0.744320 0.691605
vt 0.744320 0.660769
vt 0.807549 0.335716
vt 0.807549 0.366552
vt 0.756682 0.366552
vt 0.756682 0.335716
vt 0.816524 0.613331
vt 0.816524 0.644167
vt 0.744320 0.644167
vt 0.744320 0.613331
vt 0.807549 0.383153
vt 0.807549 0.413989
vt 0.756682 0.413989
vt 0.756682 0.383153
vn -1.0000 0.0000 -0.0000
vn 1.0000 0.0000 0.0000
vn 0.0000 1.0000 -0.0000
vn 0.0000 0.0000 -1.0000
vn -0.0000 0.0000 1.0000
vn -0.0833 0.9930 0.0833
vn -0.0833 0.9930 -0.0833
vn 0.0833 0.9930 0.0833
vn 0.0833 0.9930 -0.0833
vn 0.0597 0.9964 -0.0597
vn 0.0597 0.9964 0.0597
vn -0.0597 0.9964 -0.0597
vn -0.0597 0.9964 0.0597
usemtl House_20_2
s 1
f 26/1/1 30/2/1 33/3/1 29/4/1 25/5/1
f 28/6/2 32/7/2 34/8/2 31/9/2 27/10/2
f 36/11/3 33/12/3 30/13/3 31/14/3 34/15/3
f 25/16/4 29/17/4 35/18/4 32/19/4 28/20/4
f 3/21/2 10/22/2 9/23/2 1/24/2
f 5/25/4 11/26/4 10/27/4 3/28/4
f 7/29/1 12/30/1 11/31/1 5/32/1
f 13/33/5 2/34/5 8/35/5 16/36/5
f 10/37/6 18/38/6 17/39/7 9/40/7
f 11/41/8 19/42/8 18/38/6 10/37/6
f 12/43/9 20/44/9 19/42/8 11/41/8
f 12/45/5 7/46/5 1/47/5 9/48/5
f 14/49/2 4/50/2 2/51/2 13/52/2
f 15/53/4 6/54/4 4/55/4 14/56/4
f 16/57/1 8/58/1 6/59/1 15/60/1
f 18/61/2 22/62/2 21/63/2 17/64/2
f 19/65/4 23/66/4 22/67/4 18/68/4
f 20/69/1 24/70/1 23/71/1 19/72/1
f 20/44/9 12/43/9 9/40/7 17/39/7
f 24/73/5 20/74/5 17/75/5 21/76/5
f 4/77/10 26/78/10 25/79/11 2/80/11
f 6/81/12 27/82/12 26/78/10 4/77/10
f 8/83/13 28/84/13 27/82/12 6/81/12
f 2/80/11 25/79/11 28/84/13 8/83/13
f 27/85/5 31/86/5 30/87/5 26/88/5
f 40/89/3 39/90/3 37/91/3 38/92/3
f 36/11/3 34/15/3 32/93/3 35/94/3
f 36/95/4 40/96/4 38/97/4 33/98/4
f 35/99/1 39/100/1 40/101/1 36/102/1
f 29/103/5 37/104/5 39/105/5 35/106/5
f 33/107/2 38/108/2 37/109/2 29/110/2
o Tree_3_499_2.186_Mesh.002
v -0.647033 0.207789 0.823362
v -0.651604 0.571037 0.832207
v -0.521748 0.206691 0.820016
v -0.510354 0.569800 0.828434
v -0.525074 0.206958 0.695410
v -0.514103 0.570101 0.687949
v -0.650358 0.208055 0.698756
v -0.655354 0.571338 0.691721
v -0.652031 0.522555 0.832114
v -0.510781 0.521318 0.828342
v -0.514530 0.521619 0.687857
v -0.655781 0.522856 0.691629
v -0.700333 0.253241 0.879784
v -0.464725 0.251178 0.873492
v -0.470979 0.251679 0.639160
v -0.706587 0.253743 0.645452
v -0.646677 0.248130 0.823438
v -0.521393 0.247033 0.820092
v -0.524719 0.247300 0.695487
v -0.650003 0.248397 0.698833
v -0.697978 0.520640 0.880293
v -0.462369 0.518577 0.874001
v -0.468623 0.519078 0.639669
v -0.704232 0.521142 0.645961
v -0.590290 0.204314 0.763796
v -0.581642 0.204238 0.763565
v -0.586195 0.204294 0.755079
v -0.592066 0.002748 0.763412
v -0.583417 0.002673 0.763181
v -0.587971 0.002729 0.754695
vt 0.861275 0.031624
vt 0.861275 0.085158
vt 0.693591 0.085158
vt 0.693591 0.031624
vt 0.547108 0.027812
vt 0.547108 0.081347
vt 0.380339 0.081347
vt 0.380339 0.027812
vt 0.362350 0.027812
vt 0.362350 0.081347
vt 0.194667 0.081347
vt 0.194667 0.027812
vt 0.382689 0.099188
vt 0.382689 0.163525
vt 0.194667 0.163525
vt 0.194667 0.099188
vt 0.861275 0.102999
vt 0.861275 0.289486
vt 0.672221 0.289486
vt 0.672221 0.102999
vt 0.383720 0.181367
vt 0.383720 0.245704
vt 0.194667 0.245704
vt 0.194667 0.181367
vt 0.588699 0.099188
vt 0.588699 0.163525
vt 0.400677 0.163525
vt 0.400677 0.099188
vt 0.590762 0.181367
vt 0.590762 0.245704
vt 0.401708 0.245704
vt 0.401708 0.181367
vt 0.738807 0.928791
vt 0.675661 0.991079
vt 0.675661 0.680015
vt 0.738807 0.742304
vt 0.657672 0.636233
vt 0.657672 0.991079
vt 0.342328 0.991079
vt 0.342328 0.636233
vt 0.654233 0.263546
vt 0.654233 0.618392
vt 0.340608 0.618392
vt 0.340608 0.263546
vt 0.324339 0.636233
vt 0.324339 0.991079
vt 0.008994 0.991079
vt 0.008994 0.636233
vt 0.008994 0.062455
vt 0.008994 0.008921
vt 0.175764 0.008921
vt 0.175764 0.062455
vt 0.008994 0.618392
vt 0.008994 0.263546
vt 0.322619 0.263546
vt 0.322619 0.618392
vt 0.991006 0.680015
vt 0.927860 0.742304
vt 0.991006 0.991079
vt 0.927860 0.928791
vt 0.967891 0.289486
vt 0.967891 0.022004
vt 0.979403 0.022004
vt 0.979403 0.289486
vt 0.879263 0.289486
vt 0.879263 0.022004
vt 0.890838 0.022004
vt 0.890838 0.289486
vt 0.938390 0.289486
vt 0.938390 0.022004
vt 0.949902 0.022004
vt 0.949902 0.289486
vn 0.0267 -0.0021 0.9996
vn 0.9996 -0.0088 -0.0267
vn -0.0267 0.0021 -0.9996
vn -0.9996 0.0088 0.0267
vn 0.0088 1.0000 0.0019
vn -0.0383 0.9993 0.0032
vn 0.0101 0.9987 0.0493
vn 0.0559 0.9984 0.0006
vn 0.0075 0.9989 -0.0455
vn 0.8811 -0.0069 -0.4729
vn -0.9051 0.0088 -0.4252
usemtl Tree_3.003
s 1
f 43/111/14 58/112/14 57/113/14 41/114/14
f 45/115/15 59/116/15 58/117/15 43/118/15
f 47/119/16 60/120/16 59/121/16 45/122/16
f 49/123/17 42/124/17 48/125/17 52/126/17
f 44/127/18 46/128/18 48/129/18 42/130/18
f 50/131/14 44/132/14 42/133/14 49/134/14
f 51/135/15 46/136/15 44/137/15 50/138/15
f 52/139/16 48/140/16 46/141/16 51/142/16
f 52/143/19 64/144/19 61/145/19 49/146/19
f 54/147/14 62/148/14 61/149/14 53/150/14
f 55/151/15 63/152/15 62/153/15 54/154/15
f 56/155/16 64/156/16 63/157/16 55/158/16
f 60/159/17 47/160/17 41/161/17 57/162/17
f 64/163/17 56/164/17 53/165/17 61/166/17
f 62/167/20 50/168/20 49/146/20 61/145/20
f 63/169/21 51/170/21 50/168/21 62/167/21
f 64/144/22 52/143/22 51/170/22 63/169/22
f 66/171/23 69/172/23 70/173/23 67/174/23
f 65/175/14 68/176/14 69/177/14 66/178/14
f 67/179/24 70/180/24 68/181/24 65/182/24
o Tree_2_3_61.460_Mesh.003
v -0.257478 0.221273 0.798958
v -0.270748 0.621525 0.812156
v -0.183160 0.221273 0.798958
v -0.169890 0.621525 0.812156
v -0.183160 0.221273 0.725045
v -0.169890 0.621525 0.711847
v -0.257478 0.221273 0.725045
v -0.270748 0.621525 0.711847
v -0.270748 0.454709 0.812156
v -0.169890 0.454709 0.812156
v -0.169890 0.454709 0.711847
v -0.270748 0.454709 0.711847
v -0.299456 0.270960 0.840707
v -0.141182 0.270960 0.840707
v -0.141182 0.270960 0.683296
v -0.299456 0.270960 0.683296
v -0.257478 0.265731 0.798958
v -0.183160 0.265731 0.798958
v -0.183160 0.265731 0.725045
v -0.257478 0.265731 0.725045
v -0.299456 0.452254 0.840707
v -0.141182 0.452254 0.840707
v -0.141182 0.452254 0.683296
v -0.299456 0.452254 0.683296
v -0.224783 0.217870 0.766442
v -0.215854 0.217870 0.766442
v -0.220319 0.217870 0.757561
v -0.224783 -0.004261 0.766442
v -0.215854 -0.004261 0.766442
v -0.220319 -0.004261 0.757561
vt 0.950649 0.914160
vt 0.950649 0.991044
vt 0.829960 0.991044
vt 0.829960 0.914160
vt 0.949991 0.629771
vt 0.949991 0.706655
vt 0.829960 0.706655
vt 0.829960 0.629771
vt 0.950649 0.819363
vt 0.950649 0.896248
vt 0.829960 0.896248
vt 0.829960 0.819363
vt 0.171307 0.039673
vt 0.171307 0.328165
vt 0.008410 0.328165
vt 0.008410 0.039673
vt 0.531634 0.154692
vt 0.531634 0.328165
vt 0.367844 0.328165
vt 0.367844 0.154692
vt 0.717096 0.080976
vt 0.717096 0.369467
vt 0.553306 0.369467
vt 0.553306 0.080976
vt 0.351024 0.039673
vt 0.351024 0.328165
vt 0.188127 0.328165
vt 0.188127 0.039673
vt 0.897707 0.080976
vt 0.897707 0.369467
vt 0.733916 0.369467
vt 0.733916 0.080976
vt 0.602730 0.941668
vt 0.556110 0.991044
vt 0.556110 0.718819
vt 0.602730 0.768195
vt 0.265440 0.677516
vt 0.265440 0.991044
vt 0.008410 0.991044
vt 0.008410 0.677516
vt 0.536486 0.346077
vt 0.536486 0.659604
vt 0.280858 0.659604
vt 0.280858 0.346077
vt 0.539290 0.677516
vt 0.539290 0.991044
vt 0.282260 0.991044
vt 0.282260 0.677516
vt 0.829960 0.801451
vt 0.829960 0.724567
vt 0.949991 0.724567
vt 0.949991 0.801451
vt 0.008410 0.659604
vt 0.008410 0.346077
vt 0.264038 0.346077
vt 0.264038 0.659604
vt 0.813140 0.718819
vt 0.766520 0.768195
vt 0.813140 0.991044
vt 0.766520 0.941668
vt 0.977168 0.465127
vt 0.977168 0.080976
vt 0.991590 0.080976
vt 0.991590 0.465127
vt 0.945847 0.465127
vt 0.945847 0.080976
vt 0.960348 0.080976
vt 0.960348 0.465127
vt 0.967469 0.991044
vt 0.967469 0.606893
vt 0.981891 0.606893
vt 0.981891 0.991044
vn 0.0000 0.0000 1.0000
vn 1.0000 0.0000 0.0000
vn 0.0000 0.0000 -1.0000
vn -1.0000 0.0000 0.0000
vn 0.0000 1.0000 0.0000
vn -0.0852 0.9964 0.0000
vn 0.0000 0.9963 0.0857
vn 0.0852 0.9964 0.0000
vn 0.0000 0.9963 -0.0857
vn 0.8934 0.0000 -0.4492
vn -0.8934 0.0000 -0.4492
usemtl Tree_2.003
s 1
f 73/183/25 88/184/25 87/185/25 71/186/25
f 75/187/26 89/188/26 88/189/26 73/190/26
f 77/191/27 90/192/27 89/193/27 75/194/27
f 79/195/28 72/196/28 78/197/28 82/198/28
f 74/199/29 76/200/29 78/201/29 72/202/29
f 80/203/25 74/204/25 72/205/25 79/206/25
f 81/207/26 76/208/26 74/209/26 80/210/26
f 82/211/27 78/212/27 76/213/27 81/214/27
f 82/215/30 94/216/30 91/217/30 79/218/30
f 84/219/25 92/220/25 91/221/25 83/222/25
f 85/223/26 93/224/26 92/225/26 84/226/26
f 86/227/27 94/228/27 93/229/27 85/230/27
f 90/231/28 77/232/28 71/233/28 87/234/28
f 94/235/28 86/236/28 83/237/28 91/238/28
f 92/239/31 80/240/31 79/218/31 91/217/31
f 93/241/32 81/242/32 80/240/32 92/239/32
f 94/216/33 82/215/33 81/242/33 93/241/33
f 96/243/34 99/244/34 100/245/34 97/246/34
f 95/247/25 98/248/25 99/249/25 96/250/25
f 97/251/35 100/252/35 98/253/35 95/254/35
o Tree_3_499_2.187_Mesh.102
v 0.741656 0.207789 0.815896
v 0.737085 0.571037 0.824741
v 0.866941 0.206691 0.812550
v 0.878335 0.569800 0.820968
v 0.863615 0.206958 0.687944
v 0.874586 0.570101 0.680483
v 0.738331 0.208055 0.691290
v 0.733335 0.571338 0.684256
v 0.736658 0.522555 0.824648
v 0.877908 0.521318 0.820876
v 0.874159 0.521619 0.680391
v 0.732908 0.522856 0.684163
v 0.688356 0.253241 0.872318
v 0.923964 0.251178 0.866026
v 0.917710 0.251679 0.631694
v 0.682102 0.253743 0.637986
v 0.742012 0.248130 0.815973
v 0.867296 0.247033 0.812627
v 0.863971 0.247300 0.688021
v 0.738686 0.248397 0.691367
v 0.690711 0.520640 0.872828
v 0.926320 0.518577 0.866535
v 0.920066 0.519078 0.632203
v 0.684457 0.521142 0.638496
v 0.798399 0.204314 0.756330
v 0.807047 0.204238 0.756099
v 0.802494 0.204294 0.747613
v 0.796624 0.002748 0.755946
v 0.805272 0.002673 0.755715
v 0.800718 0.002729 0.747229
vt 0.861275 0.031624
vt 0.861275 0.085158
vt 0.693591 0.085158
vt 0.693591 0.031624
vt 0.547108 0.027812
vt 0.547108 0.081347
vt 0.380339 0.081347
vt 0.380339 0.027812
vt 0.362350 0.027812
vt 0.362350 0.081347
vt 0.194667 0.081347
vt 0.194667 0.027812
vt 0.382689 0.099188
vt 0.382689 0.163525
vt 0.194667 0.163525
vt 0.194667 0.099188
vt 0.861275 0.102999
vt 0.861275 0.289486
vt 0.672221 0.289486
vt 0.672221 0.102999
vt 0.383720 0.181367
vt 0.383720 0.245704
vt 0.194667 0.245704
vt 0.194667 0.181367
vt 0.588699 0.099188
vt 0.588699 0.163525
vt 0.400677 0.163525
vt 0.400677 0.099188
vt 0.590762 0.181367
vt 0.590762 0.245704
vt 0.401708 0.245704
vt 0.401708 0.181367
vt 0.738807 0.928791
vt 0.675661 0.991079
vt 0.675661 0.680015
vt 0.738807 0.742304
vt 0.657672 0.636233
vt 0.657672 0.991079
vt 0.342328 0.991079
vt 0.342328 0.636233
vt 0.654233 0.263546
vt 0.654233 0.618392
vt 0.340608 0.618392
vt 0.340608 0.263546
vt 0.324339 0.636233
vt 0.324339 0.991079
vt 0.008994 0.991079
vt 0.008994 0.636233
vt 0.008994 0.062455
vt 0.008994 0.008921
vt 0.175764 0.008921
vt 0.175764 0.062455
vt 0.008994 0.618392
vt 0.008994 0.263546
vt 0.322619 0.263546
vt 0.322619 0.618392
vt 0.991006 0.680015
vt 0.927860 0.742304
vt 0.991006 0.991079
vt 0.927860 0.928791
vt 0.967891 0.289486
vt 0.967891 0.022004
vt 0.979403 0.022004
vt 0.979403 0.289486
vt 0.879263 0.289486
vt 0.879263 0.022004
vt 0.890838 0.022004
vt 0.890838 0.289486
vt 0.938390 0.289486
vt 0.938390 0.022004
vt 0.949902 0.022004
vt 0.949902 0.289486
vn 0.0267 -0.0021 0.9996
vn 0.9996 -0.0088 -0.0267
vn -0.0267 0.0021 -0.9996
vn -0.9996 0.0088 0.0267
vn 0.0088 1.0000 0.0019
vn -0.0383 0.9993 0.0032
vn 0.0101 0.9987 0.0493
vn 0.0559 0.9984 0.0006
vn 0.0075 0.9989 -0.0455
vn 0.8811 -0.0069 -0.4729
vn -0.9051 0.0088 -0.4252
usemtl Tree_3.003
s 1
f 103/255/36 118/256/36 117/257/36 101/258/36
f 105/259/37 119/260/37 118/261/37 103/262/37
f 107/263/38 120/264/38 119/265/38 105/266/38
f 109/267/39 102/268/39 108/269/39 112/270/39
f 104/271/40 106/272/40 108/273/40 102/274/40
f 110/275/36 104/276/36 102/277/36 109/278/36
f 111/279/37 106/280/37 104/281/37 110/282/37
f 112/283/38 108/284/38 106/285/38 111/286/38
f 112/287/41 124/288/41 121/289/41 109/290/41
f 114/291/36 122/292/36 121/293/36 113/294/36
f 115/295/37 123/296/37 122/297/37 114/298/37
f 116/299/38 124/300/38 123/301/38 115/302/38
f 120/303/39 107/304/39 101/305/39 117/306/39
f 124/307/39 116/308/39 113/309/39 121/310/39
f 122/311/42 110/312/42 109/290/42 121/289/42
f 123/313/43 111/314/43 110/312/43 122/311/43
f 124/288/44 112/287/44 111/314/44 123/313/44
f 126/315/45 129/316/45 130/317/45 127/318/45
f 125/319/36 128/320/36 129/321/36 126/322/36
f 127/323/46 130/324/46 128/325/46 125/326/46
