# Blender v2.90.1 OBJ File: 'URBAN2.2.blend'
# www.blender.org
mtllib living_blue_3lvl.mtl
o living_blue_3lvl_Mesh.4892
v -0.488423 0.002550 -0.599259
v -0.488423 0.073799 -0.599259
v -0.488423 0.002550 0.679761
v -0.488423 0.073799 0.679761
v 0.790597 0.002550 0.679761
v 0.790597 0.073799 0.679761
v 0.790597 0.002550 -0.599259
v 0.790597 0.073799 -0.599259
v -0.454529 0.088841 -0.565365
v -0.454529 0.088841 0.645867
v 0.756703 0.088841 0.645867
v 0.756703 0.088841 -0.565365
v -0.454529 3.065070 -0.565365
v -0.454529 3.065070 0.645867
v 0.756703 3.065070 0.645867
v 0.756703 3.065070 -0.565365
v -0.357025 3.091512 -0.467861
v -0.357025 3.091512 0.548363
v 0.659199 3.091512 0.548363
v 0.659199 3.091512 -0.467861
v -0.357025 3.596659 -0.467861
v -0.357025 3.596659 0.548363
v 0.659199 3.596659 0.548363
v 0.659199 3.596659 -0.467861
vt 0.253873 0.039770
vt 0.253873 0.053017
vt 0.009100 0.053017
vt 0.009100 0.039770
vt 0.779819 0.039770
vt 0.779819 0.053017
vt 0.535046 0.053017
vt 0.535046 0.039770
vt 0.516846 0.039770
vt 0.516846 0.053017
vt 0.272073 0.053017
vt 0.272073 0.039770
vt 0.253873 0.008841
vt 0.253873 0.022088
vt 0.009100 0.022088
vt 0.009100 0.008841
vt 0.979526 0.182302
vt 0.979526 0.371248
vt 0.785046 0.371248
vt 0.785046 0.182302
vt 0.516846 0.182302
vt 0.516846 0.420109
vt 0.272073 0.420109
vt 0.272073 0.182302
vt 0.253873 0.182302
vt 0.247387 0.188604
vt 0.015586 0.188604
vt 0.009100 0.182302
vt 0.253873 0.420109
vt 0.247387 0.413807
vt 0.009100 0.420109
vt 0.015586 0.413807
vt 0.240900 0.437791
vt 0.240900 0.991159
vt 0.009100 0.991159
vt 0.009100 0.437791
vt 0.740900 0.437791
vt 0.740900 0.991159
vt 0.509100 0.991159
vt 0.509100 0.437791
vt 0.490900 0.437791
vt 0.490900 0.991159
vt 0.259100 0.991159
vt 0.259100 0.437791
vt 0.990900 0.437791
vt 0.990900 0.991159
vt 0.759100 0.991159
vt 0.759100 0.437791
vt 0.766846 0.182302
vt 0.748186 0.200431
vt 0.553706 0.200431
vt 0.535046 0.182302
vt 0.766846 0.407505
vt 0.748186 0.389376
vt 0.535046 0.407505
vt 0.553706 0.389376
vt 0.203580 0.070698
vt 0.203580 0.164620
vt 0.009100 0.164620
vt 0.009100 0.070698
vt 0.628941 0.070698
vt 0.628941 0.164620
vt 0.434460 0.164620
vt 0.434460 0.070698
vt 0.416261 0.070698
vt 0.416261 0.164620
vt 0.221780 0.164620
vt 0.221780 0.070698
vt 0.841621 0.070698
vt 0.841621 0.164620
vt 0.647140 0.164620
vt 0.647140 0.070698
vn -1.0000 0.0000 -0.0000
vn -0.0000 0.0000 1.0000
vn 1.0000 0.0000 0.0000
vn 0.0000 0.0000 -1.0000
vn 0.0000 1.0000 -0.0000
vn 0.0000 -1.0000 0.0000
vn -0.2117 0.9541 0.2117
vn -0.2117 0.9541 -0.2117
vn 0.2117 0.9541 0.2117
vn 0.2117 0.9541 -0.2117
vn -0.1332 0.9821 0.1332
vn -0.1332 0.9821 -0.1332
vn 0.1332 0.9821 0.1332
vn 0.1332 0.9821 -0.1332
usemtl House_14
s 1
f 3/1/1 4/2/1 2/3/1 1/4/1
f 5/5/2 6/6/2 4/7/2 3/8/2
f 7/9/3 8/10/3 6/11/3 5/12/3
f 1/13/4 2/14/4 8/15/4 7/16/4
f 22/17/5 23/18/5 24/19/5 21/20/5
f 5/21/6 3/22/6 1/23/6 7/24/6
f 4/25/7 10/26/7 9/27/8 2/28/8
f 6/29/9 11/30/9 10/26/7 4/25/7
f 8/31/10 12/32/10 11/30/9 6/29/9
f 2/28/8 9/27/8 12/32/10 8/31/10
f 10/33/1 14/34/1 13/35/1 9/36/1
f 11/37/2 15/38/2 14/39/2 10/40/2
f 12/41/3 16/42/3 15/43/3 11/44/3
f 9/45/4 13/46/4 16/47/4 12/48/4
f 14/49/11 18/50/11 17/51/12 13/52/12
f 15/53/13 19/54/13 18/50/11 14/49/11
f 16/55/14 20/56/14 19/54/13 15/53/13
f 13/52/12 17/51/12 20/56/14 16/55/14
f 18/57/1 22/58/1 21/59/1 17/60/1
f 19/61/2 23/62/2 22/63/2 18/64/2
f 20/65/3 24/66/3 23/67/3 19/68/3
f 17/69/4 21/70/4 24/71/4 20/72/4
o Tree_3_499_2.019_Mesh.275
v -0.868779 0.207788 -0.686585
v -0.873351 0.571037 -0.677740
v -0.743495 0.206691 -0.689931
v -0.732101 0.569800 -0.681512
v -0.746821 0.206958 -0.814536
v -0.735850 0.570100 -0.821997
v -0.872105 0.208055 -0.811190
v -0.877100 0.571338 -0.818225
v -0.873778 0.522555 -0.677832
v -0.732528 0.521318 -0.681605
v -0.736277 0.521618 -0.822090
v -0.877527 0.522856 -0.818317
v -0.922080 0.253241 -0.630162
v -0.686472 0.251177 -0.636455
v -0.692725 0.251679 -0.870787
v -0.928334 0.253742 -0.864495
v -0.868424 0.248130 -0.686508
v -0.743140 0.247032 -0.689854
v -0.746465 0.247299 -0.814459
v -0.871749 0.248396 -0.811114
v -0.919725 0.520640 -0.629653
v -0.684116 0.518576 -0.635945
v -0.690370 0.519078 -0.870277
v -0.925978 0.521141 -0.863985
v -0.812037 0.204313 -0.746150
v -0.803388 0.204237 -0.746381
v -0.807942 0.204294 -0.754867
v -0.813812 0.002748 -0.746534
v -0.805164 0.002672 -0.746765
v -0.809718 0.002729 -0.755251
vt 0.861275 0.031624
vt 0.861275 0.085158
vt 0.693591 0.085158
vt 0.693591 0.031624
vt 0.547108 0.027812
vt 0.547108 0.081347
vt 0.380339 0.081347
vt 0.380339 0.027812
vt 0.362350 0.027812
vt 0.362350 0.081347
vt 0.194667 0.081347
vt 0.194667 0.027812
vt 0.382689 0.099188
vt 0.382689 0.163525
vt 0.194667 0.163525
vt 0.194667 0.099188
vt 0.861275 0.102999
vt 0.861275 0.289486
vt 0.672221 0.289486
vt 0.672221 0.102999
vt 0.383720 0.181367
vt 0.383720 0.245704
vt 0.194667 0.245704
vt 0.194667 0.181367
vt 0.588699 0.099188
vt 0.588699 0.163525
vt 0.400677 0.163525
vt 0.400677 0.099188
vt 0.590762 0.181367
vt 0.590762 0.245704
vt 0.401708 0.245704
vt 0.401708 0.181367
vt 0.738807 0.928791
vt 0.675661 0.991079
vt 0.675661 0.680015
vt 0.738807 0.742304
vt 0.657672 0.636233
vt 0.657672 0.991079
vt 0.342328 0.991079
vt 0.342328 0.636233
vt 0.654233 0.263546
vt 0.654233 0.618392
vt 0.340608 0.618392
vt 0.340608 0.263546
vt 0.324339 0.636233
vt 0.324339 0.991079
vt 0.008994 0.991079
vt 0.008994 0.636233
vt 0.008994 0.062455
vt 0.008994 0.008921
vt 0.175764 0.008921
vt 0.175764 0.062455
vt 0.008994 0.618392
vt 0.008994 0.263546
vt 0.322619 0.263546
vt 0.322619 0.618392
vt 0.991006 0.680015
vt 0.927860 0.742304
vt 0.991006 0.991079
vt 0.927860 0.928791
vt 0.967891 0.289486
vt 0.967891 0.022004
vt 0.979403 0.022004
vt 0.979403 0.289486
vt 0.879263 0.289486
vt 0.879263 0.022004
vt 0.890838 0.022004
vt 0.890838 0.289486
vt 0.938390 0.289486
vt 0.938390 0.022004
vt 0.949902 0.022004
vt 0.949902 0.289486
vn 0.0267 -0.0021 0.9996
vn 0.9996 -0.0088 -0.0267
vn -0.0267 0.0021 -0.9996
vn -0.9996 0.0088 0.0267
vn 0.0088 1.0000 0.0019
vn -0.0383 0.9993 0.0032
vn 0.0101 0.9987 0.0493
vn 0.0559 0.9984 0.0006
vn 0.0075 0.9989 -0.0455
vn 0.8811 -0.0069 -0.4729
vn -0.9051 0.0088 -0.4252
usemtl Tree_3.003
s 1
f 27/73/15 42/74/15 41/75/15 25/76/15
f 29/77/16 43/78/16 42/79/16 27/80/16
f 31/81/17 44/82/17 43/83/17 29/84/17
f 33/85/18 26/86/18 32/87/18 36/88/18
f 28/89/19 30/90/19 32/91/19 26/92/19
f 34/93/15 28/94/15 26/95/15 33/96/15
f 35/97/16 30/98/16 28/99/16 34/100/16
f 36/101/17 32/102/17 30/103/17 35/104/17
f 36/105/20 48/106/20 45/107/20 33/108/20
f 38/109/15 46/110/15 45/111/15 37/112/15
f 39/113/16 47/114/16 46/115/16 38/116/16
f 40/117/17 48/118/17 47/119/17 39/120/17
f 44/121/18 31/122/18 25/123/18 41/124/18
f 48/125/18 40/126/18 37/127/18 45/128/18
f 46/129/21 34/130/21 33/108/21 45/107/21
f 47/131/22 35/132/22 34/130/22 46/129/22
f 48/106/23 36/105/23 35/132/23 47/131/23
f 50/133/24 53/134/24 54/135/24 51/136/24
f 49/137/15 52/138/15 53/139/15 50/140/15
f 51/141/25 54/142/25 52/143/25 49/144/25
o Tree_2_3_61.030_Mesh.276
v -0.858838 0.221273 0.833828
v -0.872108 0.621525 0.847026
v -0.784520 0.221273 0.833828
v -0.771250 0.621525 0.847026
v -0.784520 0.221273 0.759915
v -0.771250 0.621525 0.746717
v -0.858838 0.221273 0.759915
v -0.872108 0.621525 0.746717
v -0.872108 0.454708 0.847026
v -0.771250 0.454708 0.847026
v -0.771250 0.454708 0.746717
v -0.872108 0.454708 0.746717
v -0.900816 0.270960 0.875577
v -0.742542 0.270960 0.875577
v -0.742542 0.270960 0.718166
v -0.900816 0.270960 0.718166
v -0.858838 0.265730 0.833828
v -0.784520 0.265730 0.833828
v -0.784520 0.265730 0.759915
v -0.858838 0.265730 0.759915
v -0.900816 0.452253 0.875577
v -0.742542 0.452253 0.875577
v -0.742542 0.452253 0.718166
v -0.900816 0.452253 0.718166
v -0.826144 0.217869 0.801312
v -0.817214 0.217869 0.801312
v -0.821679 0.217869 0.792431
v -0.826144 -0.004261 0.801312
v -0.817214 -0.004261 0.801312
v -0.821679 -0.004261 0.792431
vt 0.950649 0.914160
vt 0.950649 0.991044
vt 0.829960 0.991044
vt 0.829960 0.914160
vt 0.949991 0.629771
vt 0.949991 0.706655
vt 0.829960 0.706655
vt 0.829960 0.629771
vt 0.950649 0.819363
vt 0.950649 0.896248
vt 0.829960 0.896248
vt 0.829960 0.819363
vt 0.171307 0.039673
vt 0.171307 0.328165
vt 0.008410 0.328165
vt 0.008410 0.039673
vt 0.531634 0.154692
vt 0.531634 0.328165
vt 0.367844 0.328165
vt 0.367844 0.154692
vt 0.717096 0.080976
vt 0.717096 0.369467
vt 0.553306 0.369467
vt 0.553306 0.080976
vt 0.351024 0.039673
vt 0.351024 0.328165
vt 0.188127 0.328165
vt 0.188127 0.039673
vt 0.897707 0.080976
vt 0.897707 0.369467
vt 0.733916 0.369467
vt 0.733916 0.080976
vt 0.602730 0.941668
vt 0.556110 0.991044
vt 0.556110 0.718819
vt 0.602730 0.768195
vt 0.265440 0.677516
vt 0.265440 0.991044
vt 0.008410 0.991044
vt 0.008410 0.677516
vt 0.536486 0.346077
vt 0.536486 0.659604
vt 0.280858 0.659604
vt 0.280858 0.346077
vt 0.539290 0.677516
vt 0.539290 0.991044
vt 0.282260 0.991044
vt 0.282260 0.677516
vt 0.829960 0.801451
vt 0.829960 0.724567
vt 0.949991 0.724567
vt 0.949991 0.801451
vt 0.008410 0.659604
vt 0.008410 0.346077
vt 0.264038 0.346077
vt 0.264038 0.659604
vt 0.813140 0.718819
vt 0.766520 0.768195
vt 0.813140 0.991044
vt 0.766520 0.941668
vt 0.977168 0.465127
vt 0.977168 0.080976
vt 0.991590 0.080976
vt 0.991590 0.465127
vt 0.945847 0.465127
vt 0.945847 0.080976
vt 0.960348 0.080976
vt 0.960348 0.465127
vt 0.967469 0.991044
vt 0.967469 0.606893
vt 0.981891 0.606893
vt 0.981891 0.991044
vn 0.0000 -0.0000 1.0000
vn 1.0000 -0.0000 0.0000
vn 0.0000 0.0000 -1.0000
vn -1.0000 0.0000 0.0000
vn 0.0000 1.0000 0.0000
vn -0.0852 0.9964 0.0000
vn 0.0000 0.9963 0.0857
vn 0.0852 0.9964 0.0000
vn 0.0000 0.9963 -0.0857
vn 0.8934 0.0000 -0.4492
vn -0.8934 -0.0000 -0.4492
usemtl Tree_2.003
s 1
f 57/145/26 72/146/26 71/147/26 55/148/26
f 59/149/27 73/150/27 72/151/27 57/152/27
f 61/153/28 74/154/28 73/155/28 59/156/28
f 63/157/29 56/158/29 62/159/29 66/160/29
f 58/161/30 60/162/30 62/163/30 56/164/30
f 64/165/26 58/166/26 56/167/26 63/168/26
f 65/169/27 60/170/27 58/171/27 64/172/27
f 66/173/28 62/174/28 60/175/28 65/176/28
f 66/177/31 78/178/31 75/179/31 63/180/31
f 68/181/26 76/182/26 75/183/26 67/184/26
f 69/185/27 77/186/27 76/187/27 68/188/27
f 70/189/28 78/190/28 77/191/28 69/192/28
f 74/193/29 61/194/29 55/195/29 71/196/29
f 78/197/29 70/198/29 67/199/29 75/200/29
f 76/201/32 64/202/32 63/180/32 75/179/32
f 77/203/33 65/204/33 64/202/33 76/201/33
f 78/178/34 66/177/34 65/204/34 77/203/34
f 80/205/35 83/206/35 84/207/35 81/208/35
f 79/209/26 82/210/26 83/211/26 80/212/26
f 81/213/36 84/214/36 82/215/36 79/216/36
